<?xml version="1.0" encoding="UTF-8"?><svg xmlns="http://www.w3.org/2000/svg" xmlns:xlink="http://www.w3.org/1999/xlink" fill-opacity="1" color-rendering="auto" color-interpolation="auto" text-rendering="auto" stroke="black" stroke-linecap="square" width="473" stroke-miterlimit="10" shape-rendering="auto" stroke-opacity="1" fill="black" stroke-dasharray="none" font-weight="normal" stroke-width="1" height="338" font-family="'Dialog'" font-style="normal" stroke-linejoin="miter" font-size="12px" stroke-dashoffset="0" image-rendering="auto">
  <!--Generated by ySVG 2.5-->
  <defs id="genericDefs"/>
  <g>
    <defs id="defs1">
      <clipPath clipPathUnits="userSpaceOnUse" id="clipPath1">
        <path d="M0 0 L473 0 L473 338 L0 338 L0 0 Z"/>
      </clipPath>
      <clipPath clipPathUnits="userSpaceOnUse" id="clipPath2">
        <path d="M-133 -104 L340 -104 L340 234 L-133 234 L-133 -104 Z"/>
      </clipPath>
    </defs>
    <g fill="white" text-rendering="geometricPrecision" shape-rendering="geometricPrecision" transform="translate(133,104)" stroke="white">
      <rect x="-133" width="473" height="338" y="-104" clip-path="url(#clipPath2)" stroke="none"/>
    </g>
    <g fill="rgb(153,204,255)" text-rendering="geometricPrecision" shape-rendering="geometricPrecision" transform="matrix(1,0,0,1,133,104)" stroke="rgb(153,204,255)">
      <rect x="-117.9322" width="441.9879" height="234.46" y="-88.4" clip-path="url(#clipPath2)" stroke="none"/>
    </g>
    <g text-rendering="geometricPrecision" stroke-miterlimit="1.45" shape-rendering="geometricPrecision" transform="matrix(1,0,0,1,133,104)" stroke-linecap="butt">
      <rect fill="none" x="-117.9322" width="441.9879" height="234.46" y="-88.4" clip-path="url(#clipPath2)"/>
    </g>
    <g stroke-linecap="butt" font-size="14px" transform="matrix(1,0,0,1,133,104)" fill="white" text-rendering="geometricPrecision" font-family="sans-serif" shape-rendering="geometricPrecision" stroke="white" font-weight="bold" stroke-miterlimit="1.45">
      <text x="100.6247" xml:space="preserve" y="-69.4049" clip-path="url(#clipPath2)" stroke="none"> </text>
      <text x="100.6247" xml:space="preserve" y="-53.108" clip-path="url(#clipPath2)" stroke="none"> </text>
      <text x="-1.0872" xml:space="preserve" y="-36.8111" clip-path="url(#clipPath2)" stroke="none">FloripaSat OBDH Software</text>
    </g>
    <g fill="rgb(153,153,153)" text-rendering="geometricPrecision" shape-rendering="geometricPrecision" transform="matrix(1,0,0,1,133,104)" stroke="rgb(153,153,153)">
      <rect x="-117.9322" y="146.06" clip-path="url(#clipPath2)" width="441.9879" rx="4" ry="4" height="72.54" stroke="none"/>
      <rect x="-117.9322" width="441.9879" height="21.4609" y="146.06" clip-path="url(#clipPath2)" stroke="none"/>
    </g>
    <g stroke-linecap="butt" font-size="15px" transform="matrix(1,0,0,1,133,104)" fill="white" text-rendering="geometricPrecision" font-family="sans-serif" shape-rendering="geometricPrecision" stroke="white" font-weight="bold" stroke-miterlimit="1.45">
      <text x="239.6948" xml:space="preserve" y="161.9833" clip-path="url(#clipPath2)" stroke="none">Hardware</text>
      <text x="47.048" xml:space="preserve" font-size="14px" y="187.1767" clip-path="url(#clipPath2)" stroke="none">MSP430F6659</text>
    </g>
    <g text-rendering="geometricPrecision" stroke-miterlimit="1.45" stroke-dasharray="6,2" shape-rendering="geometricPrecision" transform="matrix(1,0,0,1,133,104)" stroke-linecap="butt">
      <rect x="-117.9322" y="146.06" clip-path="url(#clipPath2)" fill="none" width="441.9879" rx="4" ry="4" height="72.54"/>
    </g>
    <g fill="rgb(255,102,0)" text-rendering="geometricPrecision" shape-rendering="geometricPrecision" transform="matrix(1,0,0,1,133,104)" stroke="rgb(255,102,0)">
      <rect x="52.4443" y="-0.4609" clip-path="url(#clipPath2)" width="271.6113" rx="4" ry="4" height="146.5209" stroke="none"/>
      <rect x="52.4443" width="271.6113" height="21.4609" y="-0.4609" clip-path="url(#clipPath2)" stroke="none"/>
    </g>
    <g stroke-linecap="butt" font-size="15px" transform="matrix(1,0,0,1,133,104)" fill="white" text-rendering="geometricPrecision" font-family="sans-serif" shape-rendering="geometricPrecision" stroke="white" font-weight="bold" stroke-miterlimit="1.45">
      <text x="169.4409" xml:space="preserve" y="15.4624" clip-path="url(#clipPath2)" stroke="none">Operating System</text>
      <text x="149.3638" xml:space="preserve" font-size="14px" y="77.6462" clip-path="url(#clipPath2)" stroke="none">FreeRTOS</text>
    </g>
    <g text-rendering="geometricPrecision" stroke-miterlimit="1.45" stroke-dasharray="6,2" shape-rendering="geometricPrecision" transform="matrix(1,0,0,1,133,104)" stroke-linecap="butt">
      <rect x="52.4443" y="-0.4609" clip-path="url(#clipPath2)" fill="none" width="271.6113" rx="4" ry="4" height="146.5209"/>
    </g>
    <g fill="red" text-rendering="geometricPrecision" shape-rendering="geometricPrecision" transform="matrix(1,0,0,1,133,104)" stroke="red">
      <rect x="-38.6177" width="91.062" height="61.06" y="85" clip-path="url(#clipPath2)" stroke="none"/>
    </g>
    <g text-rendering="geometricPrecision" stroke-miterlimit="1.45" shape-rendering="geometricPrecision" transform="matrix(1,0,0,1,133,104)" stroke-linecap="butt">
      <rect fill="none" x="-38.6177" width="91.062" height="61.06" y="85" clip-path="url(#clipPath2)"/>
    </g>
    <g stroke-linecap="butt" font-size="14px" transform="matrix(1,0,0,1,133,104)" fill="white" text-rendering="geometricPrecision" font-family="sans-serif" shape-rendering="geometricPrecision" stroke="white" font-weight="bold" stroke-miterlimit="1.45">
      <text x="-0.4661" xml:space="preserve" y="112.2282" clip-path="url(#clipPath2)" stroke="none">TI</text>
      <text x="-26.5212" xml:space="preserve" y="128.5251" clip-path="url(#clipPath2)" stroke="none">driverlib</text>
    </g>
  </g>
</svg>
