%FSTAX23Y23*%
%MOIN*%
%SFA1B1*%

%IPPOS*%
%ADD11C,0.010000*%
%ADD141C,0.030000*%
%LNpcb_obdh-1*%
%LPD*%
G54D11*
X02765Y06724D02*
D01*
D01*
G75*
G03X02616Y06569I00003J-00152D01*
G74*G01*
X02908Y03248D02*
D01*
D01*
G75*
G03X02831Y03294I-00096J-00073D01*
G74*G01*
X02616Y03416D02*
D01*
D01*
G75*
G03X0274Y03294I00123J0D01*
G74*G01*
X05504Y03226D02*
D01*
D01*
G75*
G03X05649Y033I00013J00151D01*
G74*G01*
X05766Y03373D02*
D01*
D01*
G75*
G03X05649Y033I00010J-00148D01*
G74*G01*
X06101Y03373D02*
D01*
D01*
G75*
G03X06232Y03536I-00015J00146D01*
G74*G01*
X06233Y06417D02*
D01*
D01*
G75*
G03X06111Y06544I-00124J00002D01*
G74*G01*
X02908Y03248D02*
D01*
D01*
G75*
G03X02959Y03225I00050J00043D01*
G74*G01*
X0563Y06618D02*
D01*
D01*
G75*
G03X05738Y06544I00108J00043D01*
G74*G01*
X05631Y06615D02*
D01*
D01*
G75*
G03X05474Y06723I-00154J-00056D01*
G74*G01*
X02766Y06724D02*
X05476D01*
X02616Y03416D02*
Y06572D01*
X0274Y03294D02*
X02831D01*
X05766Y03373D02*
X06105D01*
X05739Y06544D02*
X06111D01*
X06232Y03529D02*
Y06419D01*
X02959Y03225D02*
X05532D01*
G54D141*
X02901Y03233D02*
D01*
D01*
G75*
G03X02951Y0321I00050J00043D01*
G74*G01*
X02897Y03236D02*
D01*
D01*
G75*
G03X0282Y03282I-00096J-00073D01*
G74*G01*
X02605Y03404D02*
D01*
D01*
G75*
G03X02729Y03282I00123J0D01*
G74*G01*
X0551Y03216D02*
D01*
D01*
G75*
G03X05647Y03279I00013J00151D01*
G74*G01*
X05769Y03359D02*
D01*
D01*
G75*
G03X05651Y03286I00010J-00148D01*
G74*G01*
X06112Y03361D02*
D01*
D01*
G75*
G03X06242Y03524I-00015J00146D01*
G74*G01*
X02749Y06736D02*
D01*
D01*
G75*
G03X026Y06581I00028J-00177D01*
G74*G01*
X0624Y06398D02*
D01*
D01*
G75*
G03X0609Y06555I-00153J00003D01*
G74*G01*
X05631Y06647D02*
D01*
D01*
G75*
G03X05749Y06555I00127J00040D01*
G74*G01*
X0563Y06649D02*
D01*
D01*
G75*
G03X05485Y06735I-00138J-00069D01*
G74*G01*
X02729Y03282D02*
X0282D01*
X05773Y03361D02*
X06112D01*
X05749Y06555D02*
X06103D01*
M02*