%FSTAX23Y23*%
%MOIN*%
%SFA1B1*%

%IPPOS*%
%AMD33*
4,1,4,-0.031300,-0.002100,-0.002100,-0.031300,0.031300,0.002100,0.002100,0.031300,-0.031300,-0.002100,0.0*
%
%AMD68*
4,1,4,0.033400,0.000000,0.000000,0.033400,-0.033400,0.000000,0.000000,-0.033400,0.033400,0.000000,0.0*
%
%AMD69*
4,1,4,0.002100,-0.031300,0.031300,-0.002100,-0.002100,0.031300,-0.031300,0.002100,0.002100,-0.031300,0.0*
%
%AMD70*
4,1,4,0.000000,0.033400,-0.033400,0.000000,0.000000,-0.033400,0.033400,0.000000,0.000000,0.033400,0.0*
%
%ADD10C,0.020000*%
%ADD11C,0.010000*%
%ADD12C,0.032000*%
%ADD13R,0.047240X0.060000*%
%ADD14R,0.047240X0.041340*%
%ADD26R,0.041340X0.047240*%
%ADD27R,0.047240X0.047240*%
%ADD29R,0.060000X0.047240*%
%ADD30R,0.047240X0.047240*%
G04~CAMADD=33~9~0.0~0.0~413.4~472.4~0.0~0.0~0~0.0~0.0~0.0~0.0~0~0.0~0.0~0.0~0.0~0~0.0~0.0~0.0~135.0~626.0~625.0*
%ADD33D33*%
%ADD51C,0.015000*%
%ADD54C,0.040000*%
%ADD55C,0.060000*%
%ADD56C,0.153540*%
%ADD57C,0.059060*%
%ADD58R,0.059060X0.059060*%
%ADD59R,0.059060X0.059060*%
%ADD60C,0.070000*%
%ADD61R,0.070000X0.070000*%
%ADD62C,0.025000*%
%ADD63C,0.050000*%
%ADD64C,0.030000*%
%ADD65R,0.017720X0.059060*%
%ADD66R,0.031500X0.041340*%
%ADD67R,0.086610X0.043310*%
G04~CAMADD=68~10~0.0~472.4~0.0~0.0~0.0~0.0~0~0.0~0.0~0.0~0.0~0~0.0~0.0~0.0~0.0~0~0.0~0.0~0.0~315.0~472.4~0.0*
%ADD68D68*%
G04~CAMADD=69~9~0.0~0.0~413.4~472.4~0.0~0.0~0~0.0~0.0~0.0~0.0~0~0.0~0.0~0.0~0.0~0~0.0~0.0~0.0~225.0~626.0~625.0*
%ADD69D69*%
G04~CAMADD=70~10~0.0~472.4~0.0~0.0~0.0~0.0~0~0.0~0.0~0.0~0.0~0~0.0~0.0~0.0~0.0~0~0.0~0.0~0.0~405.0~472.4~0.0*
%ADD70D70*%
%ADD71R,0.059060X0.022440*%
%LNpcb_obdh-1*%
%LPD*%
G36*
X04272Y03431D02*
X0427Y03424D01*
X04269Y03415*
X0427Y03405*
X04274Y03396*
X04279Y03389*
X04281Y03387*
X0428Y03382*
X04231*
X04229Y03387*
X04231Y03389*
X04237Y03396*
X04241Y03405*
X04242Y03415*
X04241Y03424*
X04237Y03433*
X04231Y03441*
X04224Y03447*
X04215Y0345*
X04205Y03452*
X04196Y0345*
X04187Y03447*
X04179Y03441*
X04174Y03433*
X0417Y03424*
X04169Y03415*
X0417Y03405*
X04174Y03396*
X04179Y03389*
X04181Y03387*
X0418Y03382*
X04131*
X04129Y03387*
X04131Y03389*
X04137Y03396*
X04141Y03405*
X04142Y03415*
X04141Y03424*
X04137Y03433*
X04131Y03441*
X04124Y03447*
X04115Y0345*
X04105Y03452*
X04096Y0345*
X04087Y03447*
X04079Y03441*
X04074Y03433*
X0407Y03424*
X04069Y03415*
X0407Y03405*
X04074Y03396*
X04079Y03389*
X04081Y03387*
X0408Y03382*
X04031*
X04029Y03387*
X04031Y03389*
X04037Y03396*
X04041Y03405*
X04042Y03415*
X04041Y03424*
X04037Y03433*
X04031Y03441*
X04024Y03447*
X04015Y0345*
X04005Y03452*
X03996Y0345*
X03987Y03447*
X03979Y03441*
X03974Y03433*
X0397Y03424*
X03969Y03415*
X0397Y03405*
X03974Y03396*
X03979Y03389*
X03981Y03387*
X0398Y03382*
X03931*
X03929Y03387*
X03931Y03389*
X03937Y03396*
X03941Y03405*
X03942Y03415*
X03941Y03424*
X03937Y03433*
X03931Y03441*
X03924Y03447*
X03915Y0345*
X03905Y03452*
X03896Y0345*
X03887Y03447*
X03879Y03441*
X03874Y03433*
X0387Y03424*
X03869Y03415*
X0387Y03405*
X03874Y03396*
X03879Y03389*
X03881Y03387*
X0388Y03382*
X03863*
X03841Y03404*
X03841Y03405*
X03842Y03415*
X03841Y03424*
X03837Y03433*
X03831Y03441*
X03824Y03447*
X03815Y0345*
X03805Y03452*
X03796Y0345*
X03787Y03447*
X03779Y03441*
X03774Y03433*
X0377Y03424*
X03769Y03415*
X0377Y03405*
X03774Y03396*
X03779Y03389*
X03787Y03383*
X03796Y03379*
X03805Y03378*
X03815Y03379*
X03816Y0338*
X03839Y03356*
X03837Y03351*
X03769*
Y03278*
X03842*
Y03347*
X03847Y0335*
X03849Y03349*
X03855Y03348*
X0388*
X03881Y03343*
X03879Y03341*
X03874Y03333*
X0387Y03324*
X03869Y03315*
X0387Y03305*
X03874Y03296*
X03879Y03289*
X03887Y03283*
X03896Y03279*
X03905Y03278*
X03915Y03279*
X03924Y03283*
X03931Y03289*
X03937Y03296*
X03941Y03305*
X03942Y03315*
X03941Y03324*
X03937Y03333*
X03931Y03341*
X03929Y03343*
X03931Y03348*
X0398*
X03981Y03343*
X03979Y03341*
X03974Y03333*
X0397Y03324*
X03969Y03315*
X0397Y03305*
X03974Y03296*
X03979Y03289*
X03987Y03283*
X03996Y03279*
X04005Y03278*
X04015Y03279*
X04024Y03283*
X04031Y03289*
X04037Y03296*
X04041Y03305*
X04042Y03315*
X04041Y03324*
X04037Y03333*
X04031Y03341*
X04029Y03343*
X04031Y03348*
X0408*
X04081Y03343*
X04079Y03341*
X04074Y03333*
X0407Y03324*
X04069Y03315*
X0407Y03305*
X04074Y03296*
X04079Y03289*
X04087Y03283*
X04096Y03279*
X04105Y03278*
X04115Y03279*
X04124Y03283*
X04131Y03289*
X04137Y03296*
X04141Y03305*
X04142Y03315*
X04141Y03324*
X04137Y03333*
X04131Y03341*
X04129Y03343*
X04131Y03348*
X0428*
X04281Y03343*
X04279Y03341*
X04274Y03333*
X0427Y03324*
X04269Y03315*
X0427Y03305*
X04272Y03299*
X04239Y03266*
X03651*
Y03335*
X03627*
Y03389*
X03705Y03467*
X04236*
X04272Y03431*
G37*
G36*
X05306Y03676D02*
Y0364D01*
X05364*
X05375Y03629*
X05373Y03624*
X05332*
Y03551*
X05357*
Y03543*
X05358Y03538*
X05361Y03534*
X05382Y03513*
X05379Y03509*
X05378Y03509*
X05298*
X05294Y03508*
X0529Y03505*
X05285Y03501*
X05225*
Y035*
X05221Y03499*
X05159*
X05154Y03498*
X05148Y035*
X0514Y03498*
X05134Y03494*
X05129Y03487*
X05128Y0348*
X05129Y03472*
X05134Y03466*
X0514Y03461*
X05148Y0346*
X05154Y03461*
X05159Y03458*
Y03444*
X05221*
X05225Y03444*
Y0344*
X05299*
Y03481*
X05303Y03485*
X05373*
X05385Y03472*
X05385Y03472*
X05385Y03466*
X05384Y03466*
X05379Y03468*
X05369*
X05368Y03467*
X05364Y03465*
X05332*
Y03431*
X0533Y03429*
Y03329*
X05359Y03328*
Y03314*
X05348Y03303*
X05346Y03299*
X05345Y03294*
X05346Y0329*
X05348Y03286*
X05352Y03283*
X05357Y03282*
X05362Y03283*
X05366Y03286*
X05377Y03297*
X05379Y03297*
X05384Y03301*
X05387Y03305*
X05389Y03311*
Y03392*
X05399*
X05403Y0339*
Y03328*
X054Y03325*
Y03267*
X05022*
X04912Y03377*
X04906Y03381*
X049Y03382*
X04539*
Y03502*
X04673*
X04674Y035*
X04681Y03496*
X04688Y03494*
X04696Y03496*
X04703Y035*
X04707Y03506*
X04708Y03514*
X04707Y03522*
X04703Y03528*
X04696Y03532*
X04688Y03534*
X04683Y03533*
X0468Y03537*
X04683Y03542*
X04684Y0355*
X04683Y03557*
X04679Y03564*
X04672Y03568*
X04664Y03569*
X04659Y03568*
X04656Y03573*
X04659Y03577*
X0466Y03585*
X04659Y03593*
X04655Y03599*
X04648Y03603*
X0464Y03605*
X04636Y03604*
X04634Y03606*
X04633Y03608*
X04634Y03615*
X04632Y03623*
X04628Y03629*
X04622Y03634*
X04614Y03635*
X04606Y03634*
X046Y03629*
X04596Y03623*
X04594Y03615*
X04595Y03613*
X04565Y03584*
X04549*
X04547Y03588*
X04632Y03674*
X0525*
X05252Y03673*
X0526Y03671*
X05267Y03673*
X05274Y03677*
X05274Y03677*
X05302*
X05306Y03676*
G37*
G36*
X04611Y03928D02*
X04618Y03921D01*
X04624Y03917*
X0463Y03916*
X04637Y03917*
X04643Y03921*
X04646Y03927*
X04647Y03928*
X04719*
X04727Y03921*
X04732Y03917*
X04739Y03916*
X0519*
X05232Y03874*
X05238Y0387*
X05241Y0387*
X05243Y03864*
X05234Y03855*
X0523Y03849*
X05229Y03843*
Y03812*
X05208Y0379*
X05206Y0379*
X05199Y03786*
X05195Y03779*
X05193Y03772*
X05195Y03764*
X05199Y03757*
X05206Y03753*
X05213Y03752*
X05221Y03753*
X05227Y03757*
X05232Y03764*
X05232Y03766*
X05259Y03792*
X05262Y03798*
X05264Y03805*
Y03836*
X05285Y03857*
X05353*
Y03866*
X05359*
Y03856*
X05404*
Y03911*
X05359*
Y03901*
X05353*
Y03914*
X05302*
X05302Y03919*
X05306Y0392*
X05316Y03924*
X05322Y03928*
X0559*
Y03916*
X05586Y03912*
X05487*
Y03901*
X05477*
Y03911*
X05432*
Y03856*
X05477*
Y03866*
X05487*
Y03855*
X05588*
X0559Y03851*
Y03709*
X05581*
Y03719*
X05519*
Y03714*
X05515Y03713*
X05442*
Y03676*
Y03675*
Y03656*
X05416Y0363*
X05415Y03629*
X05409Y03629*
X05408Y0363*
X05379Y03659*
Y03676*
Y03677*
Y03714*
X05306*
Y03712*
X05263*
X05257Y03711*
X05256Y0371*
X05252Y03709*
X0525Y03708*
X04625*
X04618Y03707*
X04613Y03703*
X04543Y03634*
X04539Y03636*
Y03724*
X05077*
X05082Y03725*
X05086Y03728*
X05131Y03773*
X05136Y03772*
X05136Y03772*
X05141Y03767*
X05146Y03762*
X05153Y0376*
X0516Y03759*
X05167Y0376*
X05174Y03762*
X05179Y03767*
X05184Y03772*
X05186Y03779*
X05187Y03786*
X05186Y03793*
X05184Y038*
X05179Y03805*
X05174Y0381*
X05167Y03812*
X0516Y03813*
X05154Y03812*
X05152Y03814*
X05151Y03817*
X05163Y03829*
X05165Y03828*
X05172Y03827*
X05179Y03828*
X05185Y03831*
X05191Y03835*
X05195Y03841*
X05198Y03848*
X05199Y03855*
X05198Y03862*
X05195Y03868*
X05191Y03874*
X05185Y03878*
X05179Y03881*
X05172Y03882*
X05165Y03881*
X05158Y03878*
X05152Y03874*
X05148Y03868*
X05145Y03862*
X05144Y03855*
X05145Y03848*
X05146Y03846*
X05066Y03766*
X05047*
X05045Y03771*
X05108Y03834*
X0511Y03834*
X05117Y03837*
X05122Y03841*
X05127Y03847*
X05129Y03853*
X0513Y03861*
X05129Y03868*
X05127Y03874*
X05122Y0388*
X05117Y03884*
X0511Y03887*
X05103Y03888*
X05096Y03887*
X05089Y03884*
X05084Y0388*
X05079Y03874*
X05077Y03868*
X05076Y03861*
X05077Y03853*
X05079Y03847*
X05082Y03843*
X05022Y03783*
X04632*
X04539Y03876*
Y03916*
X04551Y03928*
X04611*
G37*
G36*
X04524Y03241D02*
X04256D01*
X04254Y03243*
X04254Y03246*
X0429Y03282*
X04296Y03279*
X04305Y03278*
X04315Y03279*
X04324Y03283*
X04331Y03289*
X04337Y03296*
X04341Y03305*
X04342Y03315*
X04341Y03324*
X04337Y03333*
X04331Y03341*
X04329Y03343*
X04331Y03348*
X0438*
X04381Y03343*
X04379Y03341*
X04374Y03333*
X0437Y03324*
X04369Y03315*
X0437Y03305*
X04374Y03296*
X04379Y03289*
X04387Y03283*
X04396Y03279*
X04405Y03278*
X04415Y03279*
X04424Y03283*
X04431Y03289*
X04437Y03296*
X04441Y03305*
X04442Y03315*
X04441Y03324*
X04437Y03333*
X04431Y03341*
X04429Y03343*
X04431Y03348*
X04524*
Y03241*
G37*
G36*
X05492Y06705D02*
X0551Y06698D01*
X05526Y06687*
X05533Y0668*
X05609Y06603*
X05643Y0657*
X05643Y0657*
X05643Y06569*
X05643*
X05644Y06569*
X05644Y06569*
X05644Y06569*
X05655Y06559*
X05662Y06552*
X05678Y06541*
X05697Y06534*
X05716Y0653*
X05726Y06529*
X06106*
X06125Y06526*
X06143Y06518*
X0616Y06507*
X06167Y065*
X06168Y06499*
X06184Y06482*
X06191Y06475*
X06202Y06459*
X0621Y06441*
X06214Y06421*
Y06412*
Y03523*
Y03498*
X0621Y03479*
X06202Y0346*
X06191Y03444*
X06165Y03418*
X06158Y03411*
X06142Y034*
X06124Y03393*
X06105Y03389*
X05754*
X05744Y03388*
X05725Y03385*
X05707Y03377*
X0569Y03366*
X05683Y0336*
X05625Y03301*
X05594Y0327*
X05587Y03263*
X0557Y03252*
X05552Y03245*
X05533Y03241*
X05521*
X0552Y03245*
X05608Y03334*
X05615Y03331*
X05624Y0333*
X05632Y03331*
X0564Y03334*
X05646Y03339*
X05651Y03346*
X05655Y03354*
X05656Y03362*
X05655Y0337*
X05651Y03378*
X05646Y03385*
X0564Y0339*
X05632Y03393*
X05624Y03394*
X05615Y03393*
X0561Y03391*
X05605Y03394*
Y03599*
X0561Y03601*
X05613Y03597*
X0562Y03591*
X05629Y03588*
X05639Y03586*
X05648Y03588*
X05657Y03591*
X05665Y03597*
X05671Y03605*
X05674Y03614*
X05676Y03623*
X05674Y03633*
X05671Y03642*
X05665Y03649*
X05657Y03655*
X05648Y03659*
X05639Y0366*
X05629Y03659*
X0562Y03655*
X05613Y03649*
X0561Y03645*
X05605Y03647*
Y03674*
X05607*
X05614Y03675*
X05619Y03679*
X05628Y03688*
X05629Y03688*
X05639Y03686*
X05648Y03688*
X05657Y03691*
X05665Y03697*
X05671Y03705*
X05674Y03714*
X05676Y03723*
X05674Y03733*
X05671Y03742*
X05665Y03749*
X05657Y03755*
X05648Y03759*
X05639Y0376*
X05629Y03759*
X0562Y03755*
X05613Y03749*
X0561Y03745*
X05605Y03747*
Y03787*
X05675*
Y0386*
X05602*
X05602Y0386*
X05601Y03861*
X056Y03863*
X056Y03864*
X05598Y03866*
X05598Y03866*
X05598Y03866*
X05596Y03867*
X05596Y03868*
X05596Y03869*
X05596Y03873*
X05638Y03916*
X0564Y03916*
X05647Y0392*
X05651Y03927*
X05652Y03935*
X05651Y03942*
X05647Y03949*
X0564Y03953*
X05633Y03954*
X05625Y03953*
X05619Y03949*
X05614Y03942*
X05614Y0394*
X05608Y03935*
X05602Y03936*
X056Y03939*
X05596Y03942*
X0559Y03944*
X05322*
X0532Y03943*
X05318Y03943*
X05317Y03943*
X05316Y03942*
X05315Y03941*
X05313Y0394*
X05308Y03937*
X05302Y03934*
X053Y03934*
X05297Y03933*
X05295Y03933*
X05295Y03932*
X05294Y03932*
X05292Y03931*
X0529Y03929*
X0529Y03929*
X0529Y03928*
X05289Y03926*
X05287Y03924*
X05287Y03923*
X05287Y03923*
X05287Y0392*
X05287Y03918*
X05287Y03918*
X05283Y03914*
X05252*
Y0391*
X05247Y03908*
X0521Y03945*
X05204Y03949*
X05198Y0395*
X04746*
X04721Y03975*
X04728Y03983*
X04685Y04026*
X04684Y04025*
X0468Y04027*
X04636Y0407*
X04605Y04039*
X04596*
X0459Y04045*
X04591Y04047*
X04589Y04053*
X04594Y04055*
X046Y04059*
X04604Y04065*
X04607Y04072*
X04608Y04079*
X04607Y04086*
X04604Y04093*
X046Y04099*
X04594Y04103*
X04587Y04106*
X0458Y04107*
X04573Y04106*
X04566Y04103*
X04561Y04099*
X04556Y04093*
X04555Y04091*
X04553Y0409*
X04546Y04086*
X04532Y04071*
X04527Y04065*
X04526Y04057*
Y04041*
X04524Y0404*
X04523Y04038*
X04398*
X04397Y04043*
X044Y04047*
X04401*
X04375Y04073*
X04396Y04094*
X04399Y04098*
X044Y04103*
X04399Y04108*
X04396Y04112*
X04392Y04114*
X04388Y04115*
X04383Y04114*
X04379Y04112*
X04357Y0409*
X0434Y04107*
X04308Y04079*
X04302Y04081*
X04302Y04082*
X0433Y0411*
X04323Y04117*
X04326Y04121*
X04336Y04112*
X04379Y04155*
X04374Y0416*
X04392Y04179*
X04395Y04184*
X04397Y04191*
Y04211*
X0471*
X04711Y04206*
X04696Y04191*
X04694Y04191*
X04686Y0419*
X0468Y04185*
X04676Y04179*
X04674Y04171*
X04676Y04164*
X0468Y04157*
X04686Y04153*
X04694Y04151*
X04702Y04153*
X04708Y04157*
X04712Y04164*
X04714Y04171*
X04713Y04173*
X0473Y0419*
X05188*
X05201Y04176*
X05201Y04174*
X05202Y04167*
X05207Y0416*
X05213Y04156*
X05221Y04154*
X05228Y04156*
X05235Y0416*
X05239Y04167*
X05241Y04174*
X05239Y04182*
X05235Y04188*
X05228Y04193*
X05221Y04194*
X05219Y04194*
X05202Y04211*
X05198Y04213*
X05193Y04214*
X05049*
X05047Y04218*
X05047Y04219*
X05049Y04227*
X05047Y04234*
X05043Y04241*
X05036Y04245*
X05029Y04247*
X05022Y04245*
X04694*
X04692Y04249*
X04692Y0425*
X04693Y04257*
X04697Y0426*
X05208*
X05212Y04261*
X05216Y04264*
X05235Y04283*
X0524Y04284*
X05246Y04288*
X05251Y04295*
X05252Y04302*
X05251Y0431*
X05246Y04316*
X0524Y04321*
X05232Y04322*
X05225Y04321*
X05218Y04316*
X05214Y0431*
X05212Y04302*
X05214Y04296*
X05203Y04285*
X05195*
X05193Y0429*
X05195Y04291*
X052Y04298*
X05201Y04305*
X052Y04313*
X05195Y04319*
X05189Y04324*
X05181Y04325*
X05174Y04324*
X05167Y04319*
X05163Y04313*
X05162Y04305*
X05161Y04305*
X0516Y04305*
X05159Y04306*
X05156Y04311*
X05158Y04317*
X05156Y04324*
X05152Y04331*
X05145Y04335*
X05138Y04337*
X0513Y04335*
X05124Y04331*
X05119Y04324*
X05118Y04319*
X04323*
X04323Y04322*
X04319Y04327*
X04321Y04332*
X04321Y04332*
X04327Y04333*
X04333Y04337*
X04334Y04339*
X04387*
X04391Y0434*
X04395Y04343*
X04609Y04557*
X04612Y04561*
X04613Y04565*
Y04729*
X04614Y0473*
X04619Y04737*
X0462Y04744*
X04619Y04752*
X04614Y04758*
X0461Y04761*
X04612Y04766*
X05567*
X05628Y04705*
X05627Y04698*
X05628Y0469*
X05631Y04682*
X05637Y04676*
X05643Y0467*
X05651Y04667*
X05659Y04666*
X05668Y04667*
X05675Y0467*
X05682Y04676*
X05687Y04682*
X05691Y0469*
X05692Y04698*
X05691Y04707*
X05687Y04714*
X05682Y04721*
X05675Y04726*
X05668Y04729*
X05659Y04731*
X05652Y0473*
X05587Y04796*
X05581Y04799*
X05574Y04801*
X03992*
X03905Y04887*
X039Y04891*
X03893Y04892*
X03642*
X0364Y04897*
X03644Y04899*
X03648Y04906*
X03649Y04913*
X03648Y04921*
X03644Y04927*
X03637Y04932*
X03629Y04933*
X03622Y04932*
X03615Y04927*
X03614Y04926*
X03452*
X03448Y04925*
X03447Y04924*
X03444Y04926*
X03437Y04928*
X03429Y04926*
X03422Y04922*
X03418Y04915*
X03417Y04908*
X03418Y049*
X0342Y04897*
X03418Y04892*
X0272*
X0272Y04893*
X02714Y04901*
X02707Y04907*
X02698Y0491*
X02688Y04912*
X02679Y0491*
X0267Y04907*
X02662Y04901*
X02656Y04893*
X02653Y04884*
X02651Y04875*
X02653Y04865*
X02656Y04856*
X02662Y04849*
X0267Y04843*
X02679Y04839*
X02688Y04838*
X02698Y04839*
X02707Y04843*
X02714Y04849*
X0272Y04856*
X0272Y04857*
X03308*
X0331Y04852*
X03308Y0485*
X0284*
X02834Y04849*
X02831Y04847*
X02828Y04846*
X02822Y04842*
X02817Y04836*
X02816Y04828*
X02817Y0482*
X02822Y04814*
X02828Y0481*
X02836Y04808*
X02843Y0481*
X0285Y04814*
X02851Y04815*
X02897*
X02899Y04811*
X029Y0481*
X02898Y04803*
X029Y04795*
X02904Y04789*
X0291Y04785*
X02918Y04783*
X02926Y04785*
X02932Y04789*
X02933Y04791*
X03098*
X03098Y0479*
X03102Y04784*
X03109Y04779*
X03116Y04778*
X03124Y04779*
X0313Y04784*
X03135Y0479*
X03136Y04798*
X03135Y04805*
X03131Y0481*
X03134Y04815*
X03319*
X03326Y04817*
X03327Y04817*
X03331Y04818*
X03337Y04822*
X03341Y04829*
X03343Y04837*
X03341Y04844*
X03337Y04851*
X03334Y04852*
X03336Y04857*
X03886*
X03972Y04771*
X03978Y04767*
X03985Y04766*
X04589*
X0459Y04761*
X04586Y04758*
X04582Y04752*
X0458Y04744*
X04582Y04737*
X04586Y0473*
X04588Y04729*
X04588Y04724*
X04583Y04723*
X0458Y04728*
X04573Y04732*
X04566Y04734*
X04558Y04732*
X04552Y04728*
X04547Y04722*
X04546Y04714*
X04547Y04706*
X04552Y047*
X04553Y04699*
Y04561*
X0443Y04438*
X04428Y04434*
X04387Y04393*
X04363*
X04362Y04395*
X04356Y04399*
X04348Y044*
X0434Y04399*
X04334Y04395*
X0433Y04388*
X04328Y04381*
X04329Y04374*
X04329Y04373*
X04327Y04371*
X04325Y0437*
X04319Y04371*
X04312Y0437*
X04305Y04366*
X04301Y04359*
X04299Y04351*
X04301Y04344*
X04304Y04339*
X04302Y04334*
X04302Y04334*
X04297Y04333*
X0429Y04329*
X04286Y04322*
X04284Y04314*
X04286Y04307*
X04286Y04306*
X04284Y04302*
X04258*
X04257Y04305*
X0425Y04309*
X04243Y0431*
X04236Y04309*
X04234Y04309*
X04231Y04311*
Y04351*
X04257Y04377*
X04219Y04415*
X04226Y04422*
X04231Y04422*
X04232Y0442*
X04236Y04418*
X04241Y04417*
X04265*
X0427Y04418*
X04274Y0442*
X04276Y04424*
X04277Y04429*
X04276Y04434*
X04274Y04438*
X0427Y0444*
X04265Y04441*
X04252*
X0425Y04446*
X04271Y04468*
X04227Y04511*
X04167*
X04153Y04498*
X04153*
Y04482*
X04151Y0448*
X04143Y04479*
X04137Y04474*
X04132Y04468*
X04131Y0446*
X04132Y04453*
X04137Y04446*
X04143Y04442*
X04144Y04441*
X04145Y04437*
X04129Y04421*
X04171Y04378*
X0417Y04377*
X04196Y04351*
Y04308*
X04013*
X0401Y04313*
X04012Y04315*
X04013Y04323*
X04012Y0433*
X04007Y04337*
X04001Y04341*
X03993Y04343*
X0399Y04342*
X03989Y04343*
X03985Y04344*
X03642*
X0364Y04348*
X03641Y0435*
X03643Y04357*
X03647Y04361*
X04054*
X04058Y04362*
X04062Y04364*
X0409Y04392*
X04093Y0439*
X041Y04389*
X04108Y0439*
X04114Y04395*
X04119Y04401*
X0412Y04409*
X04119Y04416*
X04114Y04423*
X04108Y04427*
X041Y04428*
X04093Y04427*
X04086Y04423*
X04084Y0442*
X04084Y04419*
X04079Y04422*
X04078Y04422*
X04074Y04428*
X04068Y04432*
X0406Y04434*
X04053Y04432*
X04046Y04428*
X04042Y04422*
X04037Y04422*
X04036Y04422*
X04032Y04429*
X04026Y04433*
X04024Y04433*
X04022Y04438*
X04024Y04441*
X04076*
X04077Y04439*
X04084Y04435*
X04091Y04434*
X04099Y04435*
X04105Y04439*
X0411Y04446*
X04111Y04453*
X0411Y04461*
X04105Y04468*
X04099Y04472*
X04091Y04473*
X04084Y04472*
X04077Y04468*
X04076Y04466*
X04017*
X04012Y04465*
X04008Y04462*
X03991Y04445*
X03868*
X03867Y0445*
X03874Y04451*
X0388Y04455*
X03884Y04462*
X03886Y04469*
X03884Y04477*
X0388Y04483*
X03874Y04488*
X03866Y04489*
X03864Y04489*
X03842Y04511*
X03838Y04514*
X03833Y04514*
X03775*
X03773Y04519*
X0379Y04536*
X03792Y04536*
X038Y04537*
X03806Y04542*
X03811Y04548*
X03812Y04556*
X03811Y04563*
X03806Y0457*
X038Y04574*
X03792Y04576*
X03785Y04574*
X03778Y0457*
X03774Y04563*
X03773Y04556*
X03773Y04554*
X03715Y04496*
X03293*
X03293Y04501*
X03296Y04501*
X03303Y04506*
X03307Y04512*
X03308Y0452*
X03308Y04522*
X03321Y04535*
X03616*
X03621Y04535*
X03624Y04538*
X03626Y04537*
X03634Y04539*
X0364Y04543*
X03645Y04549*
X03646Y04557*
X03646Y04559*
X03676Y0459*
X03778*
X03779Y04588*
X03786Y04583*
X03793Y04582*
X03801Y04583*
X03807Y04588*
X03812Y04594*
X03813Y04602*
X03812Y04609*
X03807Y04616*
X03801Y0462*
X03801Y0462*
Y04625*
X03804Y04626*
X0381Y0463*
X03815Y04637*
X03816Y04644*
X03815Y04652*
X0381Y04658*
X03804Y04663*
X03796Y04664*
X03792Y04663*
X0379Y04668*
X03791Y04669*
X03796Y04674*
X03798Y04681*
X03799Y04688*
X03798Y04695*
X03796Y04702*
X03791Y04707*
X03791Y04708*
X03793Y04712*
X03796Y04712*
X03803Y04713*
X0381Y04718*
X03814Y04724*
X03815Y04732*
X03814Y04739*
X0381Y04746*
X03803Y0475*
X03796Y04752*
X03788Y0475*
X03782Y04746*
X02972*
X0297Y04749*
X02964Y04754*
X02956Y04755*
X02949Y04754*
X02942Y04749*
X02938Y04743*
X02936Y04735*
X02938Y04728*
X02942Y04721*
X02949Y04717*
X02956Y04715*
X02964Y04717*
X0297Y04721*
X02971Y04722*
X03777*
X03779Y04719*
X03776Y04715*
X03772Y04715*
X03765Y04714*
X03758Y04712*
X03753Y04707*
X03748Y04702*
X03746Y04695*
X03745Y04688*
X03746Y04681*
X03748Y04674*
X03753Y04669*
X03758Y04665*
X03765Y04662*
X03766Y04662*
X03766Y04657*
X03653*
X03648Y04656*
X03644Y04653*
X03599Y04608*
X03596Y04608*
X03589Y04607*
X03582Y04602*
X03581Y046*
X03299*
X03295Y04599*
X03292Y04598*
X03289Y04598*
X03282Y04597*
X03275Y04592*
X03271Y04586*
X03269Y04578*
X03271Y04571*
X03275Y04564*
X03282Y0456*
X03289Y04558*
X03297Y0456*
X03303Y04564*
X03308Y04571*
X03309Y04576*
X03581*
X03582Y04574*
X03589Y0457*
X03596Y04568*
X03604Y0457*
X03606Y04571*
X0361Y04568*
X03608Y04565*
X03607Y04559*
X03316*
X03311Y04558*
X03307Y04555*
X03291Y04539*
X03288Y04539*
X03281Y04538*
X03274Y04534*
X0327Y04527*
X03269Y0452*
X0327Y04512*
X03274Y04506*
X03281Y04501*
X03284Y04501*
X03284Y04496*
X03034*
X0303Y04499*
X03028Y04506*
X03024Y04513*
X03017Y04517*
X0301Y04519*
X03002Y04517*
X02996Y04513*
X02991Y04506*
X0299Y04499*
X02991Y04491*
X02996Y04485*
X02997Y04484*
X02996Y04479*
X02885*
X02748Y04616*
Y04727*
X02747Y04732*
X02744Y04736*
X02721Y04759*
X02724Y04765*
X02725Y04775*
X02724Y04784*
X0272Y04793*
X02714Y04801*
X02707Y04807*
X02698Y0481*
X02688Y04812*
X02679Y0481*
X0267Y04807*
X02662Y04801*
X02656Y04793*
X02653Y04784*
X02651Y04775*
X02653Y04765*
X02656Y04756*
X02662Y04749*
X0267Y04743*
X02679Y04739*
X02688Y04738*
X02698Y04739*
X02704Y04742*
X02723Y04722*
Y04697*
X02718Y04695*
X02714Y04701*
X02707Y04707*
X02698Y0471*
X02688Y04712*
X02679Y0471*
X0267Y04707*
X02662Y04701*
X02656Y04693*
X02653Y04684*
X02651Y04675*
X02653Y04665*
X02656Y04656*
X02662Y04649*
X0267Y04643*
X02676Y0464*
Y04634*
X02677Y04629*
X02679Y04625*
X02689Y04616*
X02687Y04611*
X02679Y0461*
X0267Y04607*
X02662Y04601*
X02656Y04593*
X02653Y04584*
X02651Y04575*
X02653Y04565*
X02656Y04556*
X02662Y04549*
X0267Y04543*
X02679Y04539*
X02688Y04538*
X02698Y04539*
X02707Y04543*
X02714Y04549*
X02719Y04555*
X02725Y04556*
X02807Y04474*
X02805Y0447*
X02798*
X02797Y04471*
X02789Y04472*
X02782Y04471*
X02775Y04466*
X02771Y0446*
X02769Y04452*
X02771Y04445*
X02775Y04438*
X02782Y04434*
X02789Y04432*
X02797Y04434*
X02798Y04435*
X02808*
X02845Y04398*
X0285Y04394*
X02857Y04393*
X03113*
X03176Y0433*
Y04314*
X03163*
Y0424*
X03176*
Y04229*
X03163*
Y04155*
X03176*
Y04144*
X03163*
Y0407*
X03176*
Y04059*
X03163*
Y03985*
X03176*
Y03974*
X03163*
Y039*
X03176*
Y03889*
X03163*
Y03815*
X03224*
Y03889*
X03211*
Y039*
X03224*
Y03974*
X03211*
Y03985*
X03224*
Y04059*
X03211*
Y0407*
X03224*
Y04144*
X03211*
Y04155*
X03224*
Y04229*
X03211*
Y0424*
X03224*
Y04314*
X03211*
Y04337*
X03209Y04344*
X03206Y0435*
X0314Y04415*
X03142Y0442*
X03564*
X03566Y04417*
X03566Y04415*
X03556Y04405*
X03556Y04405*
X03548Y04407*
X03541Y04405*
X03534Y04401*
X0353Y04395*
X03528Y04387*
X0353Y04379*
X03534Y04373*
X03541Y04369*
X03548Y04367*
X03556Y04369*
X03558Y0437*
X03562Y04368*
X03562Y04367*
X03567Y04361*
X03573Y04356*
X03581Y04355*
X03588Y04356*
X03595Y04361*
X03599Y04367*
X036Y04374*
X03605Y04377*
X03608Y04377*
X03609Y04371*
X03604Y04365*
X03603Y04357*
X03604Y0435*
X03606Y04348*
X03603Y04344*
X03583*
X03577Y04347*
X0357Y04349*
X03562Y04347*
X03556Y04343*
X03551Y04337*
X0355Y04329*
X03551Y04321*
X03556Y04315*
X03562Y04311*
X0357Y04309*
X03577Y04311*
X03584Y04315*
X03586Y04319*
X03808*
X0381Y04314*
X03808Y04313*
X03804Y04306*
X03802Y04299*
X03804Y04291*
X03808Y04285*
X03814Y0428*
X0382Y04279*
X0382Y04278*
X03826Y04274*
X03833Y04273*
X04194*
X04201Y04266*
X04201Y04266*
X04204Y04264*
X04206Y04261*
X04228Y04239*
X04227Y04235*
X04226Y04234*
X0422Y0423*
X04219Y04228*
X04199*
X04195Y04227*
X04191Y04224*
X0418Y04214*
X0397*
X03968Y04219*
X03971Y04223*
X03973Y04229*
X03974Y04237*
X03973Y04244*
X03971Y0425*
X03966Y04256*
X03961Y0426*
X03954Y04263*
X03947Y04264*
X0394Y04263*
X03934Y0426*
X03928Y04256*
X03924Y0425*
X03921Y04244*
X0392Y04237*
X03921Y04229*
X03924Y04223*
X03927Y04219*
X03925Y04214*
X03907*
X03904Y04219*
X03907Y04222*
X03909Y04228*
X0391Y04235*
X03909Y04242*
X03907Y04249*
X03902Y04255*
X03897Y04259*
X0389Y04262*
X03883Y04263*
X03876Y04262*
X03869Y04259*
X03864Y04255*
X03859Y04249*
X03857Y04242*
X03856Y04235*
X03857Y04228*
X03859Y04222*
X03862Y04219*
X03859Y04214*
X03841*
X03839Y04219*
X03842Y04223*
X03845Y04229*
X03846Y04237*
X03845Y04244*
X03842Y0425*
X03838Y04256*
X03832Y0426*
X03826Y04263*
X03819Y04264*
X03812Y04263*
X03805Y0426*
X038Y04256*
X03795Y0425*
X03792Y04244*
X03792Y04237*
X03792Y04229*
X03795Y04223*
X03796Y04222*
X03794Y04217*
X03792Y04217*
X0378Y04228*
X03781Y04229*
X03782Y04237*
X03781Y04244*
X03778Y0425*
X03774Y04256*
X03768Y0426*
X03762Y04263*
X03755Y04264*
X03748Y04263*
X03741Y0426*
X03735Y04256*
X03731Y0425*
X03728Y04244*
X03727Y04237*
X03728Y04229*
X03731Y04223*
X03735Y04217*
X03741Y04213*
X03748Y0421*
X03755Y04209*
X03762Y0421*
X03763Y04211*
X03772Y04201*
X0377Y04197*
X03734*
X03703Y04228*
X03704Y04229*
X03705Y04237*
X03704Y04244*
X03701Y0425*
X03697Y04256*
X03691Y0426*
X03685Y04263*
X03677Y04264*
X0367Y04263*
X03664Y0426*
X03658Y04256*
X03654Y0425*
X03651Y04244*
X0365Y04237*
X03651Y04229*
X03654Y04223*
X03658Y04217*
X03664Y04213*
X0367Y0421*
X03677Y04209*
X03685Y0421*
X03686Y04211*
X03721Y04176*
X03725Y04173*
X03729Y04172*
X03741*
X03742Y04167*
X03741Y04167*
X03735Y04162*
X03731Y04157*
X03728Y0415*
X03727Y04143*
X03728Y04136*
X03731Y0413*
X03735Y04124*
X0374Y0412*
X0374Y04119*
X03737Y04115*
X03708*
X03698Y04125*
X03701Y0413*
X03704Y04136*
X03705Y04143*
X03704Y0415*
X03701Y04157*
X03697Y04162*
X03691Y04167*
X03685Y0417*
X03677Y0417*
X0367Y0417*
X03664Y04167*
X03658Y04162*
X03654Y04157*
X03651Y0415*
X0365Y04143*
X03651Y04136*
X03654Y0413*
X03658Y04124*
X03664Y0412*
X0367Y04117*
X03672Y04117*
X03694Y04094*
X03698Y04091*
X03703Y0409*
X03961*
X03966Y04091*
X0397Y04094*
X04031Y04155*
X04168*
X0417Y0415*
X04167Y04148*
X04163Y04143*
X0416Y04136*
X04159Y04129*
X0416Y04121*
X04163Y04115*
X04166Y0411*
Y04108*
X04168Y041*
X04172Y04094*
X04267Y03999*
X04265Y03994*
X03722*
X03713Y04003*
X03709Y04006*
X03704Y04007*
X03638*
X03636Y04009*
X0363Y04013*
X03622Y04015*
X03615Y04013*
X03608Y04009*
X03604Y04002*
X03602Y03995*
X03604Y03987*
X03608Y03981*
X03615Y03976*
X03622Y03975*
X03627Y03976*
X0363Y03971*
X03627Y03967*
X03625Y03959*
X03627Y03951*
X03631Y03945*
X03638Y03941*
X03645Y03939*
X03653Y03941*
X03659Y03945*
X03661Y03947*
X03666Y03946*
X03667Y03943*
X03671Y03936*
X03677Y03932*
X03685Y0393*
X03688Y03931*
X03689Y0393*
X03691Y0393*
X03694Y03929*
X03694*
X04405*
X04407Y03927*
X04413Y03923*
X04421Y03921*
X04428Y03923*
X04435Y03927*
X04439Y03934*
X04441Y03941*
X04439Y03949*
X04435Y03955*
X04428Y0396*
X04421Y03961*
X04419Y03961*
X04416Y03964*
X04416Y03966*
X04415Y03974*
X0441Y0398*
X04404Y03984*
X04396Y03986*
X04396Y03986*
X04393Y03988*
X04392Y03994*
X04395Y03998*
X0446*
X04461Y03997*
X04462Y03993*
X04461Y03986*
X04463Y03978*
X04467Y03972*
X04469Y0397*
Y03893*
X0447Y03888*
X04472Y03884*
X04548Y03809*
X04546Y03804*
X04543Y03803*
X04537Y03801*
X04531Y03796*
X04527Y03791*
X04524Y03784*
X04523Y03777*
X04524Y0377*
X04527Y03763*
X04531Y03758*
X04536Y03754*
X04536Y03753*
X04533Y03749*
X04431*
X04375Y03804*
X04375Y03807*
X04374Y03814*
X04369Y03821*
X04363Y03825*
X04355Y03826*
X04348Y03825*
X04341Y03821*
X04337Y03814*
X04336Y03807*
X04337Y03799*
X04341Y03793*
X04348Y03788*
X04355Y03787*
X04358Y03787*
X04417Y03728*
X04421Y03725*
X04425Y03724*
X04524*
Y03636*
X04525Y0363*
X04528Y03625*
X04523Y03622*
X04519Y03616*
X04518Y03611*
X03657*
X03654Y03616*
X03647Y03621*
X0364Y03622*
X03632Y03621*
X03626Y03616*
X03622Y03611*
X03332*
X03332Y03616*
X03332*
X03341Y0362*
X03348Y03625*
X03354Y03633*
X03358Y03642*
X03359Y03651*
X03358Y03661*
X03354Y0367*
X03348Y03678*
X03341Y03683*
X03332Y03687*
X03322Y03688*
X03313Y03687*
X03304Y03683*
X03296Y03678*
X0329Y0367*
X03287Y03661*
X03285Y03651*
X03287Y03642*
X0329Y03633*
X03296Y03625*
X03304Y0362*
X03313Y03616*
X03313*
X03312Y03611*
X03232*
X03232Y03616*
X03232*
X03241Y0362*
X03248Y03625*
X03254Y03633*
X03258Y03642*
X03259Y03651*
X03258Y03661*
X03255Y03667*
X03317Y03729*
X042*
X04221Y03708*
X04225Y03705*
X0423Y03704*
X04294*
X04295Y03702*
X04301Y03698*
X04309Y03697*
X04317Y03698*
X04323Y03702*
X04327Y03709*
X04329Y03716*
X04327Y03724*
X04323Y0373*
X04317Y03735*
X04309Y03736*
X04301Y03735*
X04295Y0373*
X04294Y03729*
X04235*
X04214Y0375*
X0421Y03752*
X04205Y03753*
X03312*
X03307Y03752*
X03303Y0375*
X03238Y03684*
X03232Y03687*
X03222Y03688*
X03213Y03687*
X03204Y03683*
X03196Y03678*
X0319Y0367*
X03187Y03661*
X03185Y03651*
X03187Y03642*
X0319Y03633*
X03196Y03625*
X03204Y0362*
X03213Y03616*
X03213*
X03212Y03611*
X03167*
X03167Y03611*
X0316Y03616*
X03159Y03616*
Y03688*
X03086*
Y03615*
X03136*
X03138Y0361*
X03134Y03605*
X03133Y03597*
X03134Y0359*
X03135Y03588*
X03133Y03584*
X03073*
X03017Y0364*
X03013Y03642*
X03009Y03643*
X03004*
X03002Y03648*
X03006Y03652*
X0301Y03657*
X03013Y03664*
X03014Y03671*
X03013Y03678*
X0301Y03684*
X03006Y0369*
X03001Y03694*
X02994Y03697*
X02987Y03698*
X0298Y03697*
X02973Y03694*
X02968Y0369*
X02963Y03684*
X02961Y03678*
X0296Y03671*
X02961Y03664*
X02963Y03657*
X02968Y03652*
X02972Y03648*
X0297Y03643*
X02818*
X02813Y03642*
X02809Y0364*
X02783Y03613*
X02781Y03614*
X02774Y03615*
X02767Y03614*
X02761Y03611*
X02755Y03607*
X02751Y03601*
X02748Y03594*
X02747Y03587*
X02748Y0358*
X02751Y03574*
X02755Y03568*
X02761Y03564*
X02767Y03561*
X02774Y0356*
X02781Y03561*
X02788Y03564*
X02794Y03568*
X02798Y03574*
X02801Y0358*
X02802Y03587*
X02801Y03594*
X028Y03596*
X02823Y03619*
X02901*
X02902Y03614*
X02901Y03613*
X02895Y03609*
X02891Y03603*
X02888Y03597*
X02887Y0359*
X02888Y03583*
X02891Y03576*
X02895Y0357*
X02898Y03568*
X02896Y03563*
X02883*
X02868Y03578*
X02869Y03579*
X0287Y03587*
X02869Y03594*
X02866Y036*
X02862Y03606*
X02856Y0361*
X02849Y03613*
X02842Y03614*
X02835Y03613*
X02829Y0361*
X02823Y03606*
X02819Y036*
X02816Y03594*
X02815Y03587*
X02816Y03579*
X02819Y03573*
X02823Y03567*
X02829Y03563*
X02835Y0356*
X02842Y03559*
X02849Y0356*
X02851Y03561*
X02869Y03542*
X02873Y0354*
X02878Y03539*
X02917*
X02951Y03505*
X02955Y03503*
X02959Y03502*
X0336*
X03361Y03497*
X0336Y03496*
X03328Y03463*
X03323Y03462*
X03316Y03466*
X03309Y03468*
X03301Y03466*
X03295Y03462*
X0329Y03456*
X03289Y03448*
X0329Y0344*
X03295Y03434*
X03301Y0343*
X03309Y03428*
X03316Y0343*
X03323Y03434*
X03324Y03436*
X03329*
X03334Y03437*
X03338Y03439*
X03374Y03475*
X03482*
X03483Y03473*
X0349Y03469*
X03497Y03467*
X03505Y03469*
X03511Y03473*
X03516Y0348*
X03517Y03487*
X03516Y03495*
X03514Y03497*
X03517Y03502*
X03674*
X03676Y03497*
X03514Y03336*
X03514Y03336*
X03505Y03334*
X03496Y03331*
X03488Y03325*
X03483Y03317*
X03479Y03308*
X03478Y03299*
X03479Y03289*
X03483Y0328*
X03488Y03273*
X0349Y03271*
X03489Y03266*
X0344*
X03438Y03271*
X03441Y03273*
X03446Y0328*
X0345Y03289*
X03451Y03299*
X0345Y03308*
X03446Y03317*
X03441Y03325*
X03433Y03331*
X03424Y03334*
X03414Y03336*
X03405Y03334*
X03396Y03331*
X03388Y03325*
X03383Y03317*
X03379Y03308*
X03378Y03299*
X03379Y03289*
X03383Y0328*
X03388Y03273*
X0339Y03271*
X03389Y03266*
X02998*
X02933Y03331*
X02929Y03334*
X02924Y03335*
X02879*
X02877Y03337*
X02871Y03341*
X02863Y03343*
X02856Y03341*
X02849Y03337*
X02845Y0333*
X02843Y03323*
X02845Y03316*
X02843Y03313*
X02842Y03311*
X02837Y03311*
X02714*
X02703Y03314*
X02693Y03318*
X02683Y03324*
X02679Y03328*
X02657Y03351*
X0265Y03357*
X0264Y03372*
X02634Y03388*
X0263Y03406*
Y03414*
Y04063*
X02635Y04064*
X02637Y04061*
X02643Y04057*
X02651Y04056*
X02659Y04057*
X0266Y04058*
X0273*
Y0405*
X02792*
Y04058*
X02805*
Y04051*
X02867*
Y04058*
X02886*
X02892Y04059*
X02898Y04063*
X02902Y04067*
X02904Y04067*
X0291Y04072*
X02915Y04078*
X02916Y04086*
X02915Y04093*
X0291Y041*
X02904Y04104*
X02896Y04106*
X02889Y04104*
X02882Y041*
X02878Y04093*
X02878Y04093*
X02867*
Y04107*
X02805*
Y04093*
X02792*
Y04111*
X0273*
Y04093*
X0266*
X02659Y04094*
X02651Y04095*
X02643Y04094*
X02637Y0409*
X02635Y04087*
X0263Y04088*
Y06522*
Y06589*
X02634Y06608*
X02642Y06626*
X02653Y06643*
X02673Y06663*
X0269Y0668*
X02696Y06687*
X02713Y06698*
X02731Y06705*
X0275Y06709*
X05472*
X05492Y06705*
G37*
G36*
X0559Y03363D02*
X05586Y03361D01*
X05492Y03267*
X05461*
Y03277*
X05468*
X0547Y03276*
X05478Y03274*
X05485Y03276*
X05492Y0328*
X05496Y03287*
X05498Y03294*
X05496Y03302*
X05492Y03308*
X05485Y03313*
X05478Y03314*
X0547Y03313*
X05468Y03312*
X05461*
Y03325*
X05458Y03328*
Y0339*
X05442*
Y03397*
X05441Y03404*
X05441Y03404*
Y03465*
X05437*
Y03487*
X05436Y03492*
X05434Y03496*
X05384Y03546*
X05386Y03551*
X05441*
Y03621*
X05459Y03639*
X05515*
Y03662*
X05519Y03664*
X05581*
Y03674*
X0559*
Y03363*
G37*
G36*
X04998Y03242D02*
X04996Y03237D01*
X04539*
Y03348*
X04892*
X04998Y03242*
G37*
%LNpcb_obdh-2*%
%LPC*%
G36*
X05094Y03483D02*
X05087Y03483D01*
X0508Y0348*
X05075Y03475*
X0507Y0347*
X05068Y03463*
X05067Y03456*
X05068Y03449*
X0507Y03443*
X05075Y03437*
X0508Y03433*
X05087Y0343*
X05094Y03429*
X05101Y0343*
X05108Y03433*
X05113Y03437*
X05118Y03443*
X0512Y03449*
X05121Y03456*
X0512Y03463*
X05118Y0347*
X05113Y03475*
X05108Y0348*
X05101Y03483*
X05094Y03483*
G37*
G36*
X05217Y03562D02*
X0521Y0356D01*
X05208Y03559*
X04803*
X04801Y03559*
X048Y03559*
X04792Y03557*
X04786Y03553*
X04782Y03546*
X0478Y03539*
X04782Y03531*
X04786Y03525*
X04792Y03521*
X048Y03519*
X04808Y03521*
X04813Y03524*
X05208*
X0521Y03523*
X05217Y03522*
X05225Y03523*
X05231Y03528*
X05236Y03534*
X05237Y03542*
X05236Y03549*
X05231Y03556*
X05225Y0356*
X05217Y03562*
G37*
G36*
X05811Y04452D02*
X05802Y04451D01*
X05793Y04447*
X05785Y04441*
X05779Y04434*
X05776Y04425*
X05774Y04415*
X05776Y04406*
X05779Y04397*
X05785Y04389*
X05793Y04383*
X05802Y0438*
X05811Y04378*
X05821Y0438*
X0583Y04383*
X05837Y04389*
X05843Y04397*
X05847Y04406*
X05848Y04415*
X05847Y04425*
X05843Y04434*
X05837Y04441*
X0583Y04447*
X05821Y04451*
X05811Y04452*
G37*
G36*
X05911D02*
X05902Y04451D01*
X05893Y04447*
X05885Y04441*
X05879Y04434*
X05876Y04425*
X05874Y04415*
X05876Y04406*
X05879Y04397*
X05885Y04389*
X05893Y04383*
X05902Y0438*
X05911Y04378*
X05921Y0438*
X0593Y04383*
X05937Y04389*
X05943Y04397*
X05947Y04406*
X05948Y04415*
X05947Y04425*
X05943Y04434*
X05937Y04441*
X0593Y04447*
X05921Y04451*
X05911Y04452*
G37*
G36*
X06011D02*
X06002Y04451D01*
X05993Y04447*
X05985Y04441*
X05979Y04434*
X05976Y04425*
X05974Y04415*
X05976Y04406*
X05979Y04397*
X05985Y04389*
X05993Y04383*
X06002Y0438*
X06011Y04378*
X06021Y0438*
X0603Y04383*
X06037Y04389*
X06043Y04397*
X06047Y04406*
X06048Y04415*
X06047Y04425*
X06043Y04434*
X06037Y04441*
X0603Y04447*
X06021Y04451*
X06011Y04452*
G37*
G36*
X04952Y04501D02*
X04945Y045D01*
X04939Y04497*
X04933Y04493*
X04929Y04488*
X04926Y04481*
X04925Y04474*
X04926Y04467*
X04929Y0446*
X04933Y04455*
X04939Y0445*
X04945Y04448*
X04952Y04447*
X04959Y04448*
X04966Y0445*
X04972Y04455*
X04976Y0446*
X04979Y04467*
X04979Y04474*
X04979Y04481*
X04976Y04488*
X04972Y04493*
X04966Y04497*
X04959Y045*
X04952Y04501*
G37*
G36*
X05018Y04498D02*
X05011Y04497D01*
X05005Y04494*
X04999Y0449*
X04995Y04484*
X04992Y04478*
X04991Y04471*
X04992Y04464*
X04995Y04457*
X04999Y04452*
X05005Y04447*
X05011Y04444*
X05018Y04444*
X05025Y04444*
X05032Y04447*
X05038Y04452*
X05042Y04457*
X05045Y04464*
X05046Y04471*
X05045Y04478*
X05042Y04484*
X05038Y0449*
X05032Y04494*
X05025Y04497*
X05018Y04498*
G37*
G36*
X06111Y04452D02*
X06102Y04451D01*
X06093Y04447*
X06085Y04441*
X06079Y04434*
X06076Y04425*
X06074Y04415*
X06076Y04406*
X06079Y04397*
X06085Y04389*
X06093Y04383*
X06102Y0438*
X06111Y04378*
X06121Y0438*
X0613Y04383*
X06137Y04389*
X06143Y04397*
X06147Y04406*
X06148Y04415*
X06147Y04425*
X06143Y04434*
X06137Y04441*
X0613Y04447*
X06121Y04451*
X06111Y04452*
G37*
G36*
X04895Y04415D02*
X04887Y04413D01*
X04881Y04409*
X04876Y04402*
X04875Y04395*
X04876Y04387*
X04881Y04381*
X04887Y04376*
X04895Y04375*
X04902Y04376*
X04909Y04381*
X0491Y04383*
X05286*
X05289Y04379*
X05295Y04375*
X05303Y04373*
X0531Y04375*
X05317Y04379*
X05321Y04386*
X05323Y04393*
X05321Y04401*
X05317Y04407*
X0531Y04412*
X05303Y04413*
X05295Y04412*
X05289Y04407*
X05288Y04407*
X0491*
X04909Y04409*
X04902Y04413*
X04895Y04415*
G37*
G36*
X05811Y04352D02*
X05802Y04351D01*
X05793Y04347*
X05785Y04341*
X05779Y04334*
X05776Y04325*
X05774Y04315*
X05776Y04306*
X05779Y04297*
X05785Y04289*
X05793Y04283*
X05802Y0428*
X05811Y04278*
X05821Y0428*
X0583Y04283*
X05837Y04289*
X05843Y04297*
X05847Y04306*
X05848Y04315*
X05847Y04325*
X05843Y04334*
X05837Y04341*
X0583Y04347*
X05821Y04351*
X05811Y04352*
G37*
G36*
X06111Y04252D02*
X06102Y04251D01*
X06093Y04247*
X06085Y04241*
X06079Y04234*
X06076Y04225*
X06074Y04215*
X06076Y04206*
X06079Y04197*
X06085Y04189*
X06093Y04183*
X06102Y0418*
X06111Y04178*
X06121Y0418*
X0613Y04183*
X06137Y04189*
X06143Y04197*
X06147Y04206*
X06148Y04215*
X06147Y04225*
X06143Y04234*
X06137Y04241*
X0613Y04247*
X06121Y04251*
X06111Y04252*
G37*
G36*
X06011D02*
X06002Y04251D01*
X05993Y04247*
X05985Y04241*
X05979Y04234*
X05976Y04225*
X05974Y04215*
X05976Y04206*
X05979Y04197*
X05985Y04189*
X05993Y04183*
X06002Y0418*
X06011Y04178*
X06021Y0418*
X0603Y04183*
X06037Y04189*
X06043Y04197*
X06047Y04206*
X06048Y04215*
X06047Y04225*
X06043Y04234*
X06037Y04241*
X0603Y04247*
X06021Y04251*
X06011Y04252*
G37*
G36*
X05911Y04352D02*
X05902Y04351D01*
X05893Y04347*
X05885Y04341*
X05879Y04334*
X05876Y04325*
X05874Y04315*
X05876Y04306*
X05879Y04297*
X05885Y04289*
X05893Y04283*
X05902Y0428*
X05911Y04278*
X05921Y0428*
X0593Y04283*
X05937Y04289*
X05943Y04297*
X05947Y04306*
X05948Y04315*
X05947Y04325*
X05943Y04334*
X05937Y04341*
X0593Y04347*
X05921Y04351*
X05911Y04352*
G37*
G36*
X03144Y04314D02*
X03083D01*
Y0429*
X03053*
X03053Y0429*
X03046Y04294*
X03039Y04296*
X03031Y04294*
X03025Y0429*
X03021Y04283*
X03019Y04276*
X03021Y04268*
X03025Y04262*
X03031Y04258*
X03039Y04256*
X03046Y04258*
X03053Y04262*
X03055Y04265*
X03083*
Y04244*
X03078Y0424*
X03077Y0424*
X03053*
X03052Y04242*
X03045Y04247*
X03038Y04248*
X0303Y04247*
X03024Y04242*
X03022Y0424*
X02824*
X02805Y0426*
X02805Y04262*
X02804Y04269*
X02799Y04276*
X02793Y0428*
X02785Y04282*
X02778Y0428*
X02771Y04276*
X02767Y04269*
X02765Y04262*
X02767Y04254*
X02771Y04248*
X02778Y04243*
X02785Y04242*
X02787Y04242*
X0281Y0422*
X02814Y04217*
X02819Y04216*
X03022*
X03024Y04214*
X0303Y0421*
X03038Y04208*
X03045Y0421*
X03052Y04214*
X03053Y04216*
X03071*
X03083Y04205*
Y04158*
X03079Y04154*
X03077Y04154*
X03042*
X0304Y04156*
X03034Y0416*
X03026Y04162*
X03019Y0416*
X03012Y04156*
X03008Y04149*
X03006Y04142*
X03008Y04134*
X03012Y04128*
X03019Y04123*
X03026Y04122*
X03034Y04123*
X0304Y04128*
X03042Y04129*
X03072*
X03083Y04118*
Y04074*
X03078Y04072*
X03071Y04079*
X03067Y04082*
X03062Y04083*
X03036*
X03035Y04084*
X03029Y04089*
X03021Y0409*
X03014Y04089*
X03007Y04084*
X03003Y04078*
X03001Y0407*
X03003Y04063*
X03007Y04056*
X03014Y04052*
X03021Y0405*
X03029Y04052*
X03035Y04056*
X03036Y04058*
X03057*
X03083Y04032*
Y03985*
X03144*
Y04059*
X0309*
X03084Y04065*
X03086Y0407*
X03144*
Y04144*
X03092*
X03086Y0415*
X03085Y0415*
X03087Y04155*
X03144*
Y04229*
X03093*
X03087Y04235*
X03089Y0424*
X03144*
Y04314*
G37*
G36*
X06111Y04352D02*
X06102Y04351D01*
X06093Y04347*
X06085Y04341*
X06079Y04334*
X06076Y04325*
X06074Y04315*
X06076Y04306*
X06079Y04297*
X06085Y04289*
X06093Y04283*
X06102Y0428*
X06111Y04278*
X06121Y0428*
X0613Y04283*
X06137Y04289*
X06143Y04297*
X06147Y04306*
X06148Y04315*
X06147Y04325*
X06143Y04334*
X06137Y04341*
X0613Y04347*
X06121Y04351*
X06111Y04352*
G37*
G36*
X06011D02*
X06002Y04351D01*
X05993Y04347*
X05985Y04341*
X05979Y04334*
X05976Y04325*
X05974Y04315*
X05976Y04306*
X05979Y04297*
X05985Y04289*
X05993Y04283*
X06002Y0428*
X06011Y04278*
X06021Y0428*
X0603Y04283*
X06037Y04289*
X06043Y04297*
X06047Y04306*
X06048Y04315*
X06047Y04325*
X06043Y04334*
X06037Y04341*
X0603Y04347*
X06021Y04351*
X06011Y04352*
G37*
G36*
X04025Y0457D02*
X04018Y04569D01*
X04012Y04566*
X04006Y04562*
X04002Y04556*
X03999Y04549*
X03998Y04542*
X03999Y04535*
X04002Y04529*
X04006Y04523*
X04012Y04519*
X04018Y04516*
X04025Y04515*
X04033Y04516*
X04039Y04519*
X04045Y04523*
X04049Y04529*
X04052Y04535*
X04053Y04542*
X04052Y04549*
X04049Y04556*
X04045Y04562*
X04039Y04566*
X04033Y04569*
X04025Y0457*
G37*
G36*
X05911Y04952D02*
X05902Y04951D01*
X05893Y04947*
X05885Y04941*
X05879Y04934*
X05876Y04925*
X05874Y04915*
X05876Y04906*
X05879Y04897*
X05885Y04889*
X05893Y04883*
X05902Y0488*
X05911Y04878*
X05921Y0488*
X0593Y04883*
X05937Y04889*
X05943Y04897*
X05947Y04906*
X05948Y04915*
X05947Y04925*
X05943Y04934*
X05937Y04941*
X0593Y04947*
X05921Y04951*
X05911Y04952*
G37*
G36*
X05811D02*
X05802Y04951D01*
X05793Y04947*
X05785Y04941*
X05779Y04934*
X05776Y04925*
X05774Y04915*
X05776Y04906*
X05779Y04897*
X05785Y04889*
X05793Y04883*
X05802Y0488*
X05811Y04878*
X05821Y0488*
X0583Y04883*
X05837Y04889*
X05843Y04897*
X05847Y04906*
X05848Y04915*
X05847Y04925*
X05843Y04934*
X05837Y04941*
X0583Y04947*
X05821Y04951*
X05811Y04952*
G37*
G36*
X04548Y04921D02*
X04541Y0492D01*
X04535Y04918*
X04529Y04913*
X04525Y04908*
X04522Y04901*
X04521Y04894*
X04522Y04887*
X04525Y0488*
X04529Y04875*
X04535Y0487*
X04541Y04868*
X04548Y04867*
X04555Y04868*
X04562Y0487*
X04568Y04875*
X04572Y0488*
X04575Y04887*
X04576Y04894*
X04575Y04901*
X04572Y04908*
X04568Y04913*
X04562Y04918*
X04555Y0492*
X04548Y04921*
G37*
G36*
X06011Y04952D02*
X06002Y04951D01*
X05993Y04947*
X05985Y04941*
X05979Y04934*
X05976Y04925*
X05974Y04915*
X05976Y04906*
X05979Y04897*
X05985Y04889*
X05993Y04883*
X06002Y0488*
X06011Y04878*
X06021Y0488*
X0603Y04883*
X06037Y04889*
X06043Y04897*
X06047Y04906*
X06048Y04915*
X06047Y04925*
X06043Y04934*
X06037Y04941*
X0603Y04947*
X06021Y04951*
X06011Y04952*
G37*
G36*
X03039Y04961D02*
X03032Y0496D01*
X03025Y04955*
X03024Y04953*
X02929*
X02925Y04956*
X02917Y04958*
X0291Y04956*
X02903Y04952*
X02899Y04946*
X02897Y04938*
X02899Y0493*
X02903Y04924*
X0291Y0492*
X02917Y04918*
X02925Y0492*
X02931Y04924*
X02935Y04929*
X03024*
X03025Y04927*
X03032Y04923*
X03039Y04921*
X03047Y04923*
X03053Y04927*
X03058Y04934*
X03059Y04941*
X03058Y04949*
X03053Y04955*
X03047Y0496*
X03039Y04961*
G37*
G36*
X04404Y05043D02*
X04396Y05042D01*
X0439Y05038*
X04385Y05031*
X04384Y05024*
X04385Y05016*
X0439Y05009*
X04396Y05005*
X04398Y05005*
X04465Y04938*
X04469Y04935*
X04474Y04935*
X04475*
X04476Y04933*
X04483Y04928*
X0449Y04927*
X04498Y04928*
X04505Y04933*
X04509Y04939*
X0451Y04947*
X04509Y04954*
X04505Y04961*
X04498Y04965*
X0449Y04967*
X04483Y04965*
X04477Y04961*
X04422Y05016*
X04422Y05016*
X04424Y05024*
X04422Y05031*
X04418Y05038*
X04411Y05042*
X04404Y05043*
G37*
G36*
X06111Y04952D02*
X06102Y04951D01*
X06093Y04947*
X06085Y04941*
X06079Y04934*
X06076Y04925*
X06074Y04915*
X06076Y04906*
X06079Y04897*
X06085Y04889*
X06093Y04883*
X06102Y0488*
X06111Y04878*
X06121Y0488*
X0613Y04883*
X06137Y04889*
X06143Y04897*
X06147Y04906*
X06148Y04915*
X06147Y04925*
X06143Y04934*
X06137Y04941*
X0613Y04947*
X06121Y04951*
X06111Y04952*
G37*
G36*
X0413Y04917D02*
X04123Y04916D01*
X04116Y04912*
X04112Y04905*
X0411Y04898*
X04112Y0489*
X04116Y04883*
X04123Y04879*
X0413Y04878*
X04132Y04878*
X04199Y04811*
X04203Y04809*
X04208Y04808*
X04626*
X04631Y04809*
X04635Y04811*
X04698Y04875*
X04704Y04876*
X0471Y0488*
X04715Y04887*
X04716Y04894*
X04715Y04902*
X0471Y04908*
X04704Y04913*
X04696Y04914*
X04689Y04913*
X04682Y04908*
X04678Y04902*
X04676Y04894*
X04678Y04889*
X04621Y04832*
X04441*
X04439Y04837*
X0444Y04838*
X04444Y04843*
X04447Y0485*
X04448Y04857*
X04447Y04864*
X04444Y04871*
X0444Y04876*
X04434Y04881*
X04427Y04883*
X0442Y04884*
X04413Y04883*
X04407Y04881*
X04401Y04876*
X04397Y04871*
X04394Y04864*
X04393Y04857*
X04394Y0485*
X04397Y04843*
X04401Y04838*
X04402Y04837*
X044Y04832*
X04213*
X0415Y04895*
X0415Y04898*
X04149Y04905*
X04144Y04912*
X04138Y04916*
X0413Y04917*
G37*
G36*
X06111Y04652D02*
X06102Y04651D01*
X06093Y04647*
X06085Y04641*
X06079Y04634*
X06076Y04625*
X06074Y04615*
X06076Y04606*
X06079Y04597*
X06085Y04589*
X06093Y04583*
X06102Y0458*
X06111Y04578*
X06121Y0458*
X0613Y04583*
X06137Y04589*
X06143Y04597*
X06147Y04606*
X06148Y04615*
X06147Y04625*
X06143Y04634*
X06137Y04641*
X0613Y04647*
X06121Y04651*
X06111Y04652*
G37*
G36*
X06011D02*
X06002Y04651D01*
X05993Y04647*
X05985Y04641*
X05979Y04634*
X05976Y04625*
X05974Y04615*
X05976Y04606*
X05979Y04597*
X05985Y04589*
X05993Y04583*
X06002Y0458*
X06011Y04578*
X06021Y0458*
X0603Y04583*
X06037Y04589*
X06043Y04597*
X06047Y04606*
X06048Y04615*
X06047Y04625*
X06043Y04634*
X06037Y04641*
X0603Y04647*
X06021Y04651*
X06011Y04652*
G37*
G36*
X02866Y04595D02*
X02859Y04593D01*
X02852Y04589*
X02848Y04582*
X02847Y04575*
X02848Y04567*
X02852Y04561*
X02859Y04556*
X02866Y04555*
X02874Y04556*
X0288Y0456*
X03022*
X03023Y04559*
X0303Y04554*
X03037Y04553*
X03045Y04554*
X03051Y04559*
X03056Y04565*
X03057Y04573*
X03056Y0458*
X03051Y04587*
X03045Y04591*
X03037Y04593*
X0303Y04591*
X03023Y04587*
X03022Y04585*
X02883*
X0288Y04589*
X02874Y04593*
X02866Y04595*
G37*
G36*
X05911Y04652D02*
X05902Y04651D01*
X05893Y04647*
X05885Y04641*
X05879Y04634*
X05876Y04625*
X05874Y04615*
X05876Y04606*
X05879Y04597*
X05885Y04589*
X05892Y04584*
X05891Y0458*
X05891Y04579*
X05832*
X05832Y0458*
X05831Y04584*
X05837Y04589*
X05843Y04597*
X05847Y04606*
X05848Y04615*
X05847Y04625*
X05843Y04634*
X05837Y04641*
X0583Y04647*
X05821Y04651*
X05811Y04652*
X05802Y04651*
X05793Y04647*
X05785Y04641*
X05779Y04634*
X05776Y04625*
X05774Y04615*
X05776Y04606*
X05779Y04597*
X05785Y04589*
X05792Y04584*
X05791Y0458*
X05791Y04579*
X05722*
X05721Y0458*
X05714Y04581*
X05706Y0458*
X057Y04575*
X05695Y04569*
X05694Y04561*
X05695Y04554*
X057Y04547*
X05706Y04543*
X05714Y04541*
X05721Y04543*
X05724Y04544*
X05781*
X05784Y04539*
X05779Y04534*
X05776Y04525*
X05774Y04515*
X05776Y04506*
X05779Y04497*
X05785Y04489*
X05793Y04483*
X05802Y0448*
X05811Y04478*
X05821Y0448*
X0583Y04483*
X05837Y04489*
X05843Y04497*
X05847Y04506*
X05848Y04515*
X05847Y04525*
X05843Y04534*
X05839Y04539*
X05841Y04544*
X05881*
X05884Y04539*
X05879Y04534*
X05876Y04525*
X05874Y04515*
X05876Y04506*
X05879Y04497*
X05885Y04489*
X05893Y04483*
X05902Y0448*
X05911Y04478*
X05921Y0448*
X0593Y04483*
X05937Y04489*
X05943Y04497*
X05947Y04506*
X05948Y04515*
X05947Y04525*
X05943Y04534*
X05939Y04539*
X05941Y04544*
X05958*
X05976Y04526*
X05976Y04525*
X05974Y04515*
X05976Y04506*
X05979Y04497*
X05985Y04489*
X05993Y04483*
X06002Y0448*
X06011Y04478*
X06021Y0448*
X0603Y04483*
X06037Y04489*
X06043Y04497*
X06044Y04498*
X06079*
X06079Y04497*
X06085Y04489*
X06093Y04483*
X06102Y0448*
X06111Y04478*
X06121Y0448*
X0613Y04483*
X06137Y04489*
X06143Y04497*
X06147Y04506*
X06148Y04515*
X06147Y04525*
X06143Y04534*
X06137Y04541*
X0613Y04547*
X06121Y04551*
X06111Y04552*
X06102Y04551*
X06093Y04547*
X06085Y04541*
X06079Y04534*
X06079Y04533*
X06044*
X06043Y04534*
X06037Y04541*
X0603Y04547*
X06021Y04551*
X06011Y04552*
X06002Y04551*
X06001Y0455*
X05977Y04574*
X05971Y04578*
X05965Y04579*
X05932*
X05932Y0458*
X05931Y04584*
X05937Y04589*
X05943Y04597*
X05947Y04606*
X05948Y04615*
X05947Y04625*
X05943Y04634*
X05937Y04641*
X0593Y04647*
X05921Y04651*
X05911Y04652*
G37*
G36*
X04526Y04696D02*
X04519Y04695D01*
X04512Y0469*
X0451Y04688*
X04384*
X04382Y0469*
X04376Y04694*
X04368Y04695*
X04361Y04694*
X04354Y0469*
X0435Y04683*
X04349Y04675*
X0435Y04668*
X04354Y04661*
X04361Y04657*
X04368Y04656*
X04376Y04657*
X04382Y04661*
X04384Y04663*
X04512*
X04512Y04662*
X04519Y04658*
X04526Y04656*
X04534Y04658*
X0454Y04662*
X04545Y04669*
X04546Y04676*
X04545Y04684*
X0454Y0469*
X04534Y04695*
X04526Y04696*
G37*
G36*
X02831Y04712D02*
X02823Y0471D01*
X02817Y04706*
X02812Y04699*
X02811Y04692*
X02812Y04684*
X02817Y04678*
X02823Y04673*
X02831Y04672*
X02838Y04673*
X0284Y04674*
X03004*
X03005Y04673*
X03012Y04669*
X03019Y04667*
X03027Y04669*
X03033Y04673*
X03038Y04679*
X03039Y04687*
X03038Y04695*
X03035Y04698*
X03035Y04698*
X03032Y04704*
X03026Y04708*
X03019Y04709*
X0284*
X02838Y0471*
X02831Y04712*
G37*
G36*
X0414Y04634D02*
X04133Y04633D01*
X04127Y04631*
X04121Y04626*
X04117Y04621*
X04114Y04614*
X04113Y04607*
X04114Y046*
X04117Y04593*
X04121Y04588*
X04127Y04583*
X04133Y04581*
X0414Y0458*
X04147Y04581*
X04154Y04583*
X0416Y04588*
X04164Y04593*
X04167Y046*
X04168Y04607*
X04167Y04614*
X04164Y04621*
X0416Y04626*
X04154Y04631*
X04147Y04633*
X0414Y04634*
G37*
G36*
X05911Y03852D02*
X05902Y03851D01*
X05893Y03847*
X05885Y03841*
X05879Y03834*
X05876Y03825*
X05874Y03815*
X05876Y03806*
X05879Y03797*
X05885Y03789*
X05893Y03783*
X05902Y0378*
X05911Y03778*
X05921Y0378*
X0593Y03783*
X05937Y03789*
X05943Y03797*
X05947Y03806*
X05948Y03815*
X05947Y03825*
X05943Y03834*
X05937Y03841*
X0593Y03847*
X05921Y03851*
X05911Y03852*
G37*
G36*
X05811D02*
X05802Y03851D01*
X05793Y03847*
X05785Y03841*
X05779Y03834*
X05776Y03825*
X05774Y03815*
X05776Y03806*
X05779Y03797*
X05785Y03789*
X05793Y03783*
X05802Y0378*
X05811Y03778*
X05821Y0378*
X0583Y03783*
X05837Y03789*
X05843Y03797*
X05847Y03806*
X05848Y03815*
X05847Y03825*
X05843Y03834*
X05837Y03841*
X0583Y03847*
X05821Y03851*
X05811Y03852*
G37*
G36*
X06111Y03752D02*
X06102Y03751D01*
X06093Y03747*
X06085Y03741*
X06079Y03734*
X06076Y03725*
X06074Y03715*
X06076Y03706*
X06079Y03697*
X06085Y03689*
X06093Y03683*
X06102Y0368*
X06111Y03678*
X06121Y0368*
X0613Y03683*
X06137Y03689*
X06143Y03697*
X06147Y03706*
X06148Y03715*
X06147Y03725*
X06143Y03734*
X06137Y03741*
X0613Y03747*
X06121Y03751*
X06111Y03752*
G37*
G36*
X06011Y03852D02*
X06002Y03851D01*
X05993Y03847*
X05985Y03841*
X05979Y03834*
X05976Y03825*
X05974Y03815*
X05976Y03806*
X05979Y03797*
X05985Y03789*
X05993Y03783*
X06002Y0378*
X06011Y03778*
X06021Y0378*
X0603Y03783*
X06037Y03789*
X06043Y03797*
X06047Y03806*
X06048Y03815*
X06047Y03825*
X06043Y03834*
X06037Y03841*
X0603Y03847*
X06021Y03851*
X06011Y03852*
G37*
G36*
X05811Y03952D02*
X05802Y03951D01*
X05793Y03947*
X05785Y03941*
X05779Y03934*
X05776Y03925*
X05774Y03915*
X05776Y03906*
X05779Y03897*
X05785Y03889*
X05793Y03883*
X05802Y0388*
X05811Y03878*
X05821Y0388*
X0583Y03883*
X05837Y03889*
X05843Y03897*
X05847Y03906*
X05848Y03915*
X05847Y03925*
X05843Y03934*
X05837Y03941*
X0583Y03947*
X05821Y03951*
X05811Y03952*
G37*
G36*
X04149Y03895D02*
X04142Y03893D01*
X04135Y03889*
X04131Y03883*
X04129Y03875*
X04131Y03867*
X04135Y03861*
X04142Y03857*
X04149Y03855*
X04157Y03857*
X04163Y03861*
X04164Y03863*
X04209*
X0423Y03842*
X04229Y0384*
X04231Y03832*
X04235Y03826*
X04242Y03821*
X04249Y0382*
X04257Y03821*
X04263Y03826*
X04267Y03832*
X04269Y0384*
X04267Y03847*
X04263Y03854*
X04257Y03858*
X04249Y0386*
X04247Y03859*
X04222Y03884*
X04218Y03886*
X04214Y03887*
X04164*
X04163Y03889*
X04157Y03893*
X04149Y03895*
G37*
G36*
X06111Y03852D02*
X06102Y03851D01*
X06093Y03847*
X06085Y03841*
X06079Y03834*
X06076Y03825*
X06074Y03815*
X06076Y03806*
X06079Y03797*
X06085Y03789*
X06093Y03783*
X06102Y0378*
X06111Y03778*
X06121Y0378*
X0613Y03783*
X06137Y03789*
X06143Y03797*
X06147Y03806*
X06148Y03815*
X06147Y03825*
X06143Y03834*
X06137Y03841*
X0613Y03847*
X06121Y03851*
X06111Y03852*
G37*
G36*
X06011Y03752D02*
X06002Y03751D01*
X05993Y03747*
X05985Y03741*
X05979Y03734*
X05976Y03725*
X05974Y03715*
X05976Y03706*
X05979Y03697*
X05985Y03689*
X05993Y03683*
X06002Y0368*
X06011Y03678*
X06021Y0368*
X0603Y03683*
X06037Y03689*
X06043Y03697*
X06047Y03706*
X06048Y03715*
X06047Y03725*
X06043Y03734*
X06037Y03741*
X0603Y03747*
X06021Y03751*
X06011Y03752*
G37*
G36*
X05888Y03511D02*
X05874D01*
X05865Y03509*
X05857Y03505*
X05849Y035*
X05846Y03497*
X05837Y03488*
X05835Y03486*
X05831Y0348*
X05828Y03473*
X05827Y03466*
Y03445*
X05828Y03438*
X05831Y03431*
X05835Y03425*
X05837Y03423*
X05841Y03419*
X05845Y03415*
X05855Y03408*
X05865Y03404*
X05876Y03402*
X0589*
X05899Y03404*
X05908Y03407*
X05916Y03412*
X05917Y03414*
X05921Y03417*
X05924Y03421*
X0593Y0343*
X05934Y0344*
X05937Y0345*
Y03466*
X05935Y03474*
X05932Y03481*
X05928Y03487*
X05917Y03498*
X05908Y03504*
X05898Y03508*
X05888Y03511*
G37*
G36*
X02739Y03502D02*
X02722Y035D01*
X02707Y03495*
X02692Y03487*
X02679Y03477*
X02669Y03464*
X02661Y0345*
X02656Y03434*
X02655Y03417*
X02656Y03401*
X02661Y03385*
X02669Y03371*
X02679Y03358*
X02692Y03347*
X02707Y0334*
X02722Y03335*
X02739Y03333*
X02755Y03335*
X02771Y0334*
X02786Y03347*
X02798Y03358*
X02809Y03371*
X02817Y03385*
X02821Y03401*
X02823Y03417*
X02821Y03434*
X02817Y0345*
X02809Y03464*
X02798Y03477*
X02786Y03487*
X02771Y03495*
X02755Y035*
X02739Y03502*
G37*
G36*
X06112Y036D02*
X06095Y03598D01*
X0608Y03594*
X06065Y03586*
X06052Y03575*
X06042Y03563*
X06034Y03548*
X06029Y03532*
X06028Y03516*
X06029Y03499*
X06034Y03484*
X06042Y03469*
X06052Y03456*
X06065Y03446*
X0608Y03438*
X06095Y03433*
X06112Y03432*
X06128Y03433*
X06144Y03438*
X06159Y03446*
X06171Y03456*
X06182Y03469*
X0619Y03484*
X06194Y03499*
X06196Y03516*
X06194Y03532*
X0619Y03548*
X06182Y03563*
X06171Y03575*
X06159Y03586*
X06144Y03594*
X06128Y03598*
X06112Y036*
G37*
G36*
X05911Y03752D02*
X05902Y03751D01*
X05893Y03747*
X05885Y03741*
X05879Y03734*
X05876Y03725*
X05874Y03715*
X05876Y03706*
X05879Y03697*
X05885Y03689*
X05893Y03683*
X05902Y0368*
X05911Y03678*
X05921Y0368*
X0593Y03683*
X05937Y03689*
X05943Y03697*
X05947Y03706*
X05948Y03715*
X05947Y03725*
X05943Y03734*
X05937Y03741*
X0593Y03747*
X05921Y03751*
X05911Y03752*
G37*
G36*
X05811D02*
X05802Y03751D01*
X05793Y03747*
X05785Y03741*
X05779Y03734*
X05776Y03725*
X05774Y03715*
X05776Y03706*
X05779Y03697*
X05785Y03689*
X05793Y03683*
X05802Y0368*
X05811Y03678*
X05821Y0368*
X0583Y03683*
X05837Y03689*
X05843Y03697*
X05847Y03706*
X05848Y03715*
X05847Y03725*
X05843Y03734*
X05837Y03741*
X0583Y03747*
X05821Y03751*
X05811Y03752*
G37*
G36*
X06011Y04152D02*
X06002Y04151D01*
X05993Y04147*
X05985Y04141*
X05979Y04134*
X05976Y04125*
X05974Y04115*
X05976Y04106*
X05979Y04097*
X05985Y04089*
X05993Y04083*
X06002Y0408*
X06011Y04078*
X06021Y0408*
X0603Y04083*
X06037Y04089*
X06043Y04097*
X06047Y04106*
X06048Y04115*
X06047Y04125*
X06043Y04134*
X06037Y04141*
X0603Y04147*
X06021Y04151*
X06011Y04152*
G37*
G36*
X05911D02*
X05902Y04151D01*
X05893Y04147*
X05885Y04141*
X05879Y04134*
X05876Y04125*
X05874Y04115*
X05876Y04106*
X05879Y04097*
X05885Y04089*
X05893Y04083*
X05902Y0408*
X05911Y04078*
X05921Y0408*
X0593Y04083*
X05937Y04089*
X05943Y04097*
X05947Y04106*
X05948Y04115*
X05947Y04125*
X05943Y04134*
X05937Y04141*
X0593Y04147*
X05921Y04151*
X05911Y04152*
G37*
G36*
X05811D02*
X05802Y04151D01*
X05793Y04147*
X05785Y04141*
X05779Y04134*
X05776Y04125*
X05774Y04115*
X05776Y04106*
X05779Y04097*
X05785Y04089*
X05793Y04083*
X05802Y0408*
X05811Y04078*
X05821Y0408*
X0583Y04083*
X05837Y04089*
X05843Y04097*
X05847Y04106*
X05848Y04115*
X05847Y04125*
X05843Y04134*
X05837Y04141*
X0583Y04147*
X05821Y04151*
X05811Y04152*
G37*
G36*
X06111D02*
X06102Y04151D01*
X06093Y04147*
X06085Y04141*
X06079Y04134*
X06076Y04125*
X06074Y04115*
X06076Y04106*
X06079Y04097*
X06085Y04089*
X06093Y04083*
X06102Y0408*
X06111Y04078*
X06121Y0408*
X0613Y04083*
X06137Y04089*
X06143Y04097*
X06147Y04106*
X06148Y04115*
X06147Y04125*
X06143Y04134*
X06137Y04141*
X0613Y04147*
X06121Y04151*
X06111Y04152*
G37*
G36*
X05911Y04252D02*
X05902Y04251D01*
X05893Y04247*
X05885Y04241*
X05879Y04234*
X05876Y04225*
X05874Y04215*
X05876Y04206*
X05879Y04197*
X05885Y04189*
X05893Y04183*
X05902Y0418*
X05911Y04178*
X05921Y0418*
X0593Y04183*
X05937Y04189*
X05943Y04197*
X05947Y04206*
X05948Y04215*
X05947Y04225*
X05943Y04234*
X05937Y04241*
X0593Y04247*
X05921Y04251*
X05911Y04252*
G37*
G36*
X05811D02*
X05802Y04251D01*
X05793Y04247*
X05785Y04241*
X05779Y04234*
X05776Y04225*
X05774Y04215*
X05776Y04206*
X05779Y04197*
X05785Y04189*
X05793Y04183*
X05802Y0418*
X05811Y04178*
X05821Y0418*
X0583Y04183*
X05837Y04189*
X05843Y04197*
X05847Y04206*
X05848Y04215*
X05847Y04225*
X05843Y04234*
X05837Y04241*
X0583Y04247*
X05821Y04251*
X05811Y04252*
G37*
G36*
X02886Y04202D02*
X02862Y04179D01*
X02802*
X02802Y04174*
X02798Y04171*
X02761*
X02754Y04169*
X02749Y04166*
X02745Y0416*
X02744Y04153*
X02745Y04147*
X02749Y04141*
X02754Y04137*
X02761Y04136*
X02804*
X02804Y04121*
X02859*
X02918Y04179*
Y04196*
X02916*
X0291Y04202*
X02886*
G37*
G36*
X06111Y04052D02*
X06102Y04051D01*
X06093Y04047*
X06085Y04041*
X06079Y04034*
X06076Y04025*
X06074Y04015*
X06076Y04006*
X06079Y03997*
X06085Y03989*
X06093Y03983*
X06102Y0398*
X06111Y03978*
X06121Y0398*
X0613Y03983*
X06137Y03989*
X06143Y03997*
X06147Y04006*
X06148Y04015*
X06147Y04025*
X06143Y04034*
X06137Y04041*
X0613Y04047*
X06121Y04051*
X06111Y04052*
G37*
G36*
Y03952D02*
X06102Y03951D01*
X06093Y03947*
X06085Y03941*
X06079Y03934*
X06076Y03925*
X06074Y03915*
X06076Y03906*
X06079Y03897*
X06085Y03889*
X06093Y03883*
X06102Y0388*
X06111Y03878*
X06121Y0388*
X0613Y03883*
X06137Y03889*
X06143Y03897*
X06147Y03906*
X06148Y03915*
X06147Y03925*
X06143Y03934*
X06137Y03941*
X0613Y03947*
X06121Y03951*
X06111Y03952*
G37*
G36*
X06011D02*
X06002Y03951D01*
X05993Y03947*
X05985Y03941*
X05979Y03934*
X05976Y03925*
X05974Y03915*
X05976Y03906*
X05979Y03897*
X05985Y03889*
X05993Y03883*
X06002Y0388*
X06011Y03878*
X06021Y0388*
X0603Y03883*
X06037Y03889*
X06043Y03897*
X06047Y03906*
X06048Y03915*
X06047Y03925*
X06043Y03934*
X06037Y03941*
X0603Y03947*
X06021Y03951*
X06011Y03952*
G37*
G36*
X05911D02*
X05902Y03951D01*
X05893Y03947*
X05885Y03941*
X05879Y03934*
X05876Y03925*
X05874Y03915*
X05876Y03906*
X05879Y03897*
X05885Y03889*
X05893Y03883*
X05902Y0388*
X05911Y03878*
X05921Y0388*
X0593Y03883*
X05937Y03889*
X05943Y03897*
X05947Y03906*
X05948Y03915*
X05947Y03925*
X05943Y03934*
X05937Y03941*
X0593Y03947*
X05921Y03951*
X05911Y03952*
G37*
G36*
X03144Y03974D02*
X03083D01*
Y03948*
X03062*
X03059Y03952*
X03052Y03956*
X03045Y03958*
X03037Y03956*
X03031Y03952*
X03028Y03948*
X02775*
X02775Y0395*
X02771Y03956*
X02764Y0396*
X02757Y03962*
X02749Y0396*
X02743Y03956*
X02738Y0395*
X02737Y03942*
X02738Y03934*
X02743Y03928*
X02749Y03924*
X02757Y03922*
X02763Y03923*
X02975*
X02977Y03918*
X02974Y03916*
X02969Y0391*
X02968Y03902*
X02969Y03895*
X02974Y03888*
X0298Y03884*
X02988Y03882*
X0299Y03883*
X03029Y03844*
X03033Y03841*
X03038Y0384*
X03083*
Y03815*
X03144*
Y03889*
X03083*
Y03864*
X03043*
X03007Y039*
X03008Y03902*
X03006Y0391*
X03002Y03916*
X02999Y03918*
X03Y03923*
X03032*
X03037Y0392*
X03045Y03918*
X03052Y0392*
X03058Y03923*
X03083*
Y039*
X03144*
Y03974*
G37*
G36*
X06011Y04052D02*
X06002Y04051D01*
X05993Y04047*
X05985Y04041*
X05979Y04034*
X05976Y04025*
X05974Y04015*
X05976Y04006*
X05979Y03997*
X05985Y03989*
X05993Y03983*
X06002Y0398*
X06011Y03978*
X06021Y0398*
X0603Y03983*
X06037Y03989*
X06043Y03997*
X06047Y04006*
X06048Y04015*
X06047Y04025*
X06043Y04034*
X06037Y04041*
X0603Y04047*
X06021Y04051*
X06011Y04052*
G37*
G36*
X05911D02*
X05902Y04051D01*
X05893Y04047*
X05885Y04041*
X05879Y04034*
X05876Y04025*
X05874Y04015*
X05876Y04006*
X05879Y03997*
X05885Y03989*
X05893Y03983*
X05902Y0398*
X05911Y03978*
X05921Y0398*
X0593Y03983*
X05937Y03989*
X05943Y03997*
X05947Y04006*
X05948Y04015*
X05947Y04025*
X05943Y04034*
X05937Y04041*
X0593Y04047*
X05921Y04051*
X05911Y04052*
G37*
G36*
X05811D02*
X05802Y04051D01*
X05793Y04047*
X05785Y04041*
X05779Y04034*
X05776Y04025*
X05774Y04015*
X05776Y04006*
X05779Y03997*
X05785Y03989*
X05793Y03983*
X05802Y0398*
X05811Y03978*
X05821Y0398*
X0583Y03983*
X05837Y03989*
X05843Y03997*
X05847Y04006*
X05848Y04015*
X05847Y04025*
X05843Y04034*
X05837Y04041*
X0583Y04047*
X05821Y04051*
X05811Y04052*
G37*
G36*
X05911Y05852D02*
X05902Y05851D01*
X05893Y05847*
X05885Y05841*
X05879Y05834*
X05876Y05825*
X05874Y05815*
X05876Y05806*
X05879Y05797*
X05885Y05789*
X05893Y05783*
X05902Y0578*
X05911Y05778*
X05921Y0578*
X0593Y05783*
X05937Y05789*
X05943Y05797*
X05947Y05806*
X05948Y05815*
X05947Y05825*
X05943Y05834*
X05937Y05841*
X0593Y05847*
X05921Y05851*
X05911Y05852*
G37*
G36*
X06011D02*
X06002Y05851D01*
X05993Y05847*
X05985Y05841*
X05979Y05834*
X05976Y05825*
X05974Y05815*
X05976Y05806*
X05979Y05797*
X05985Y05789*
X05993Y05783*
X06002Y0578*
X06011Y05778*
X06021Y0578*
X0603Y05783*
X06037Y05789*
X06043Y05797*
X06047Y05806*
X06048Y05815*
X06047Y05825*
X06043Y05834*
X06037Y05841*
X0603Y05847*
X06021Y05851*
X06011Y05852*
G37*
G36*
X05146Y05807D02*
X05139Y05806D01*
X05132Y05803*
X05126Y05799*
X05122Y05793*
X05119Y05787*
X05118Y0578*
X05119Y05773*
X05122Y05766*
X05126Y05761*
X05132Y05757*
Y05755*
X0513Y05752*
X05105*
X05088Y05769*
X05089Y0577*
X0509Y05777*
X05089Y05784*
X05086Y05791*
X05082Y05796*
X05076Y05801*
X0507Y05803*
X05062Y05804*
X05055Y05803*
X05049Y05801*
X05043Y05796*
X05039Y05791*
X05036Y05784*
X05035Y05777*
X05036Y05771*
X05035Y05769*
X05032Y05768*
X05027Y05772*
X05023Y05775*
X05019Y05776*
X04803*
X04803Y05777*
X04798Y05783*
X04793Y05787*
X04786Y0579*
X04779Y05791*
X04772Y0579*
X04765Y05787*
X0476Y05783*
X04755Y05777*
X04753Y05771*
X04752Y05764*
X04753Y05757*
X04755Y0575*
X0476Y05744*
X04765Y0574*
X04772Y05737*
X04779Y05736*
X04786Y05737*
X04793Y0574*
X04798Y05744*
X04803Y0575*
X04803Y05751*
X05014*
X05051Y05714*
X05055Y05711*
X0506Y0571*
X05083*
X05085Y05706*
X05085Y05705*
X05083Y05697*
X05085Y0569*
X05089Y05683*
X05095Y05679*
X05103Y05677*
X05111Y05679*
X05117Y05683*
X05121Y05688*
X05121Y05688*
X05125Y05693*
X05472*
X05475Y05689*
X05476Y05684*
X05481Y05677*
X05487Y05673*
X05495Y05671*
X05502Y05673*
X05509Y05677*
X05513Y05684*
X05515Y05691*
X05513Y05699*
X05509Y05705*
X05509Y05706*
X05511Y0571*
X05553*
X05559Y05706*
X05566Y05704*
X05574Y05706*
X0558Y0571*
X05585Y05717*
X05586Y05724*
X05585Y05732*
X0558Y05738*
X05574Y05743*
X05566Y05744*
X05559Y05743*
X05552Y05738*
X0555Y05735*
X05518*
X05516Y0574*
X05517Y0574*
X05521Y05747*
X05523Y05754*
X05521Y05762*
X05517Y05768*
X05511Y05773*
X05503Y05774*
X05495Y05773*
X05489Y05768*
X05485Y05762*
X05483Y05754*
X05479Y05752*
X05161*
X0516Y05755*
Y05757*
X05165Y05761*
X05169Y05766*
X05172Y05773*
X05173Y0578*
X05172Y05787*
X05169Y05793*
X05165Y05799*
X05159Y05803*
X05153Y05806*
X05146Y05807*
G37*
G36*
X05811Y05852D02*
X05802Y05851D01*
X05793Y05847*
X05785Y05841*
X05779Y05834*
X05776Y05825*
X05774Y05815*
X05776Y05806*
X05779Y05797*
X05785Y05789*
X05793Y05783*
X05802Y0578*
X05811Y05778*
X05821Y0578*
X0583Y05783*
X05837Y05789*
X05843Y05797*
X05847Y05806*
X05848Y05815*
X05847Y05825*
X05843Y05834*
X05837Y05841*
X0583Y05847*
X05821Y05851*
X05811Y05852*
G37*
G36*
X03763Y05888D02*
X03756Y05887D01*
X0375Y05884*
X03744Y0588*
X0374Y05874*
X03737Y05868*
X03736Y05861*
X03737Y05853*
X0374Y05847*
X03741Y05845*
X03738Y0584*
X03641*
X0364Y05842*
X03633Y05847*
X03625Y05848*
X03618Y05847*
X03611Y05842*
X03607Y05836*
X03606Y05828*
X03607Y05821*
X03611Y05814*
X03618Y0581*
X03625Y05808*
X03633Y0581*
X0364Y05814*
X03641Y05816*
X04274*
X04275Y05815*
X04279Y05809*
X04285Y05805*
X04291Y05802*
X04291Y05802*
X04296Y05801*
X04296Y05801*
X04295Y05796*
X03924*
X03919Y058*
X03911Y05801*
X03904Y058*
X03899Y05796*
X0362*
X03618Y058*
X03611Y05804*
X03603Y05806*
X03596Y05804*
X03589Y058*
X03585Y05793*
X03584Y05786*
X03585Y05778*
X03589Y05772*
X03596Y05767*
X03597Y05767*
X03598Y05766*
X03596Y05761*
X02946*
X02945Y05761*
X02942Y05766*
X02943Y05772*
X02942Y05779*
X02938Y05786*
X02931Y0579*
X02924Y05791*
X02916Y0579*
X02909Y05786*
X02905Y05779*
X02904Y05772*
X02905Y05764*
X02909Y05757*
X02916Y05753*
X02917Y05751*
X02924Y05745*
X02922Y0574*
X02843*
X02792Y05791*
X0279Y05794*
X02783Y05798*
X02776Y058*
X02768Y05798*
X02762Y05794*
X02758Y05787*
X02756Y0578*
X02758Y05772*
X02762Y05766*
X02768Y05761*
X02774Y0576*
X02824Y0571*
X02829Y05706*
X02836Y05705*
X03054*
X03056Y05701*
X03063Y05697*
X0307Y05695*
X03078Y05697*
X03084Y05701*
X03087Y05705*
X03248*
X0325Y057*
X03232Y05683*
X03223Y05686*
X03212Y05688*
X03201Y05686*
X03191Y05682*
X03182Y05676*
X03175Y05667*
X03171Y05657*
X0317Y05646*
X03171Y05635*
X03175Y05624*
X03182Y05616*
X03182Y05614*
X03181Y05611*
X03164*
X03154Y05621*
Y05688*
X0307*
Y05604*
X03137*
X03144Y05596*
X03142Y05592*
X0304*
X03033Y0559*
X03027Y05587*
X03027Y05586*
X03025Y05586*
X03019Y05582*
X03015Y05575*
X03013Y05568*
X03015Y0556*
X03019Y05554*
X03025Y05549*
X03033Y05548*
X03041Y05549*
X03047Y05554*
X03049Y05557*
X03343*
X03345Y05556*
X03352Y05554*
X0336Y05556*
X03366Y0556*
X03371Y05567*
X03372Y05574*
X03371Y05581*
X03371Y05583*
X03373Y05586*
X03486*
X03506Y05566*
X0351Y05563*
X03515Y05562*
X03569*
X03584Y05548*
X03583Y05542*
X03584Y05534*
X03589Y05528*
X03595Y05523*
X03603Y05522*
X0361Y05523*
X03617Y05528*
X03621Y05534*
X03623Y05542*
X03621Y05549*
X03617Y05556*
X0361Y0556*
X03605Y05561*
X03591Y05575*
X03593Y05579*
X03616*
X03616Y05579*
X03623Y05575*
X0363Y05573*
X03638Y05575*
X03644Y05579*
X03649Y05585*
X0365Y05593*
X03649Y056*
X03644Y05607*
X03638Y05611*
X0363Y05613*
X03623Y05611*
X03616Y05607*
X03614Y05604*
X03559*
X03557Y05608*
X03557Y05609*
X03558Y05616*
X03557Y05624*
X03553Y0563*
X03546Y05634*
X03538Y05636*
X03536Y05635*
X03526Y05645*
X03522Y05648*
X03518Y05649*
X03411*
X0336Y057*
X03362Y05705*
X0341*
X03412Y05702*
X03418Y05698*
X03426Y05697*
X03433Y05698*
X0344Y05702*
X03443Y05707*
X03708*
X0371Y05706*
X03718Y05704*
X03725Y05706*
X03732Y0571*
X03736Y05716*
X03737Y05724*
X03736Y05731*
X03736Y05732*
X03738Y05736*
X04058*
X04063Y0573*
X04069Y05726*
X04077Y05724*
X04084Y05726*
X04091Y0573*
X04095Y05736*
X04097Y05744*
X04095Y05752*
X04092Y05757*
X04094Y05762*
X04231*
X04232Y05761*
X04238Y05757*
X04246Y05755*
X04253Y05757*
X0426Y05761*
X0426Y05762*
X04486*
X04493Y05763*
X04497Y05766*
X04499Y05766*
X04506Y0577*
X0451Y05777*
X04512Y05785*
X0451Y05792*
X04506Y05799*
X04499Y05803*
X04492Y05804*
X04484Y05803*
X04478Y05799*
X04476Y05796*
X04302*
X04301Y05801*
X04301Y05801*
X04305Y05802*
X04305Y05802*
X04312Y05805*
X04318Y05809*
X04322Y05815*
X04325Y05821*
X04326Y05828*
X04325Y05835*
X04322Y05842*
X04318Y05848*
X04312Y05852*
X04305Y05855*
X04298Y05855*
X04291Y05855*
X04285Y05852*
X04279Y05848*
X04275Y05842*
X04274Y0584*
X03788*
X03786Y05845*
X03787Y05847*
X0379Y05853*
X03791Y05861*
X0379Y05868*
X03787Y05874*
X03783Y0588*
X03777Y05884*
X0377Y05887*
X03763Y05888*
G37*
G36*
X02914Y05906D02*
X02907Y05905D01*
X029Y05901*
X02896Y05894*
X02895Y05887*
X02896Y05879*
X029Y05872*
X02907Y05868*
X02914Y05867*
X02922Y05868*
X02929Y05872*
X0293Y05874*
X03136*
X0314Y05871*
X03139Y05868*
X03141Y05861*
X03145Y05854*
X03152Y0585*
X03159Y05849*
X03167Y0585*
X03173Y05854*
X03178Y05861*
X03179Y05868*
X03178Y05876*
X03173Y05882*
X03167Y05887*
X03159Y05888*
X03157Y05888*
X0315Y05895*
X03146Y05898*
X03141Y05899*
X0293*
X02929Y05901*
X02922Y05905*
X02914Y05906*
G37*
G36*
X06111Y05852D02*
X06102Y05851D01*
X06093Y05847*
X06085Y05841*
X06079Y05834*
X06076Y05825*
X06074Y05815*
X06076Y05806*
X06079Y05797*
X06085Y05789*
X06093Y05783*
X06102Y0578*
X06111Y05778*
X06121Y0578*
X0613Y05783*
X06137Y05789*
X06143Y05797*
X06147Y05806*
X06148Y05815*
X06147Y05825*
X06143Y05834*
X06137Y05841*
X0613Y05847*
X06121Y05851*
X06111Y05852*
G37*
G36*
X02908Y0585D02*
X02901Y05849D01*
X02894Y05845*
X0289Y05838*
X02888Y05831*
X0289Y05823*
X02894Y05817*
X02901Y05812*
X02908Y05811*
X02912Y05811*
X02916Y0581*
X03172*
X03173Y05809*
X0318Y05804*
X03187Y05803*
X03195Y05804*
X03201Y05809*
X03206Y05815*
X03207Y05823*
X03206Y0583*
X03201Y05837*
X03195Y05841*
X03187Y05843*
X0318Y05841*
X03173Y05837*
X03172Y05835*
X02927*
X02927Y05838*
X02922Y05845*
X02916Y05849*
X02908Y0585*
G37*
G36*
X0406Y05491D02*
X04053Y0549D01*
X04046Y05486*
X04044Y05482*
X04031*
X0403Y05482*
X03725*
X03724Y05483*
X03716Y05484*
X03708Y05483*
X03702Y05479*
X03698Y05472*
X03696Y05464*
X03698Y05457*
X03702Y0545*
X03708Y05446*
X03716Y05445*
X03724Y05446*
X03725Y05447*
X04031*
X04033Y05447*
X04053*
X0406Y05449*
X04066Y05452*
X04066Y05453*
X04068Y05453*
X04074Y05457*
X04079Y05464*
X0408Y05472*
X04079Y05479*
X04074Y05486*
X04068Y0549*
X0406Y05491*
G37*
G36*
X06111Y05652D02*
X06102Y05651D01*
X06093Y05647*
X06085Y05641*
X06079Y05634*
X06076Y05625*
X06074Y05615*
X06076Y05606*
X06078Y056*
X0605Y05571*
X06047Y05567*
X06046Y05562*
Y05538*
X06041Y05536*
X06037Y05541*
X0603Y05547*
X06021Y05551*
X06011Y05552*
X06002Y05551*
X05993Y05547*
X05985Y05541*
X05979Y05534*
X05976Y05525*
X05974Y05515*
X05976Y05506*
X05979Y05497*
X05985Y05489*
X05993Y05483*
X06002Y0548*
X06004Y05479*
X06004Y05474*
X05919*
X05918Y05479*
X05921Y0548*
X0593Y05483*
X05937Y05489*
X05943Y05497*
X05947Y05506*
X05948Y05515*
X05947Y05525*
X05943Y05534*
X05937Y05541*
X0593Y05547*
X05921Y05551*
X05911Y05552*
X05902Y05551*
X05893Y05547*
X05885Y05541*
X05879Y05534*
X05876Y05525*
X05874Y05515*
X05876Y05506*
X05879Y05497*
X05885Y05489*
X05893Y05483*
X05902Y0548*
X05904Y05479*
X05904Y05474*
X05819*
X05818Y05479*
X05821Y0548*
X0583Y05483*
X05837Y05489*
X05843Y05497*
X05847Y05506*
X05848Y05515*
X05847Y05525*
X05843Y05534*
X05837Y05541*
X0583Y05547*
X05821Y05551*
X05811Y05552*
X05802Y05551*
X05793Y05547*
X05785Y05541*
X05779Y05534*
X05776Y05525*
X05774Y05515*
X05776Y05506*
X05779Y05497*
X05785Y05489*
X05793Y05483*
X05802Y0548*
X05804Y05479*
X05804Y05474*
X05794*
X05789Y05473*
X05785Y05471*
X05731Y05417*
X05729Y05413*
X05728Y05409*
Y05387*
X05726Y05386*
X05722Y05379*
X0572Y05372*
X05722Y05364*
X05726Y05357*
X05732Y05353*
X0574Y05352*
X05748Y05353*
X05754Y05357*
X05758Y05364*
X0576Y05372*
X05758Y05379*
X05754Y05386*
X05752Y05387*
Y05403*
X0577Y05422*
X05775Y05419*
X05774Y05414*
X05776Y05405*
X05779Y05396*
X05785Y05388*
X05793Y05382*
X05802Y05379*
X05811Y05377*
X05821Y05379*
X0583Y05382*
X05837Y05388*
X05843Y05396*
X05847Y05405*
X05848Y05414*
X05847Y05424*
X05843Y05433*
X05837Y0544*
X05831Y05445*
X05833Y0545*
X05888*
X0589Y05445*
X05885Y05441*
X05879Y05434*
X05876Y05425*
X05874Y05415*
X05876Y05406*
X05879Y05397*
X05885Y05389*
X05893Y05383*
X05902Y0538*
X05911Y05378*
X05921Y0538*
X0593Y05383*
X05937Y05389*
X05943Y05397*
X05947Y05406*
X05948Y05415*
X05947Y05425*
X05943Y05434*
X05937Y05441*
X05933Y05445*
X05934Y0545*
X05989*
X05991Y05445*
X05985Y0544*
X05979Y05433*
X05976Y05424*
X05974Y05414*
X05976Y05405*
X05979Y05396*
X05985Y05388*
X05993Y05382*
X06002Y05379*
X06011Y05377*
X06021Y05379*
X0603Y05382*
X06037Y05388*
X06043Y05396*
X06047Y05405*
X06048Y05414*
X06047Y05424*
X06043Y05433*
X06037Y0544*
X06031Y05445*
X06032Y05447*
X06033Y0545*
X06036Y05451*
X0604Y05453*
X06067Y0548*
X0607Y05484*
X06071Y05489*
Y05505*
X06076Y05506*
X06079Y05497*
X06085Y05489*
X06093Y05483*
X06102Y0548*
X06111Y05478*
X06121Y0548*
X0613Y05483*
X06137Y05489*
X06143Y05497*
X06147Y05506*
X06148Y05515*
X06147Y05525*
X06143Y05534*
X06137Y05541*
X0613Y05547*
X06121Y05551*
X06111Y05552*
X06102Y05551*
X06093Y05547*
X06085Y05541*
X06079Y05534*
X06076Y05525*
X06071Y05525*
Y05557*
X06096Y05582*
X06102Y0558*
X06111Y05578*
X06121Y0558*
X0613Y05583*
X06137Y05589*
X06143Y05597*
X06147Y05606*
X06148Y05615*
X06147Y05625*
X06143Y05634*
X06137Y05641*
X0613Y05647*
X06121Y05651*
X06111Y05652*
G37*
G36*
X02744Y05417D02*
X02735Y05416D01*
X02727Y05412*
X02721Y05407*
X02716Y05401*
X02712Y05393*
X02711Y05385*
X02712Y05376*
X02676Y0534*
X02672Y05334*
X02671Y05327*
Y05011*
X02652*
Y04938*
X02725*
Y05011*
X02705*
Y0532*
X02738Y05353*
X02744Y05352*
X02752Y05353*
X0276Y05357*
X02766Y05362*
X02772Y05368*
X02775Y05376*
X02776Y05385*
X02775Y05393*
X02772Y05401*
X02766Y05407*
X0276Y05412*
X02752Y05416*
X02744Y05417*
G37*
G36*
X06111Y05452D02*
X06102Y05451D01*
X06093Y05447*
X06085Y05441*
X06079Y05434*
X06076Y05425*
X06074Y05415*
X06076Y05406*
X06079Y05397*
X06085Y05389*
X06093Y05383*
X06102Y0538*
X06111Y05378*
X06121Y0538*
X0613Y05383*
X06137Y05389*
X06143Y05397*
X06147Y05406*
X06148Y05415*
X06147Y05425*
X06143Y05434*
X06137Y05441*
X0613Y05447*
X06121Y05451*
X06111Y05452*
G37*
G36*
X04604Y05703D02*
X04596Y05702D01*
X0459Y05697*
X04585Y05691*
X04584Y05683*
X04585Y05676*
X0459Y05669*
X04596Y05665*
X04604Y05663*
X04611Y05665*
X04618Y05669*
X04619Y05671*
X04714*
X04717Y05667*
X04723Y05663*
X04731Y05662*
X04738Y05663*
X04745Y05667*
X04749Y05674*
X0475Y05681*
X04749Y05689*
X04745Y05695*
X04738Y057*
X04731Y05701*
X04723Y057*
X04717Y05696*
X04619*
X04618Y05697*
X04611Y05702*
X04604Y05703*
G37*
G36*
X06111Y05752D02*
X06102Y05751D01*
X06093Y05747*
X06085Y05741*
X06079Y05734*
X06076Y05725*
X06074Y05715*
X06076Y05706*
X06078Y057*
X06058Y05679*
X06032*
X06031Y0568*
X0603Y05684*
X06037Y05689*
X06043Y05697*
X06047Y05706*
X06048Y05715*
X06047Y05725*
X06043Y05734*
X06037Y05741*
X0603Y05747*
X06021Y05751*
X06011Y05752*
X06002Y05751*
X05993Y05747*
X05985Y05741*
X05979Y05734*
X05976Y05725*
X05974Y05715*
X05976Y05706*
X05979Y05697*
X05985Y05689*
X05992Y05684*
X05991Y0568*
X0599Y05679*
X05932*
X05931Y0568*
X05931Y05684*
X05937Y05689*
X05943Y05697*
X05947Y05706*
X05948Y05715*
X05947Y05725*
X05943Y05734*
X05937Y05741*
X0593Y05747*
X05921Y05751*
X05911Y05752*
X05902Y05751*
X05893Y05747*
X05885Y05741*
X05879Y05734*
X05876Y05725*
X05874Y05715*
X05876Y05706*
X05879Y05697*
X05885Y05689*
X05892Y05684*
X05891Y0568*
X05891Y05679*
X05832*
X05831Y0568*
X05831Y05684*
X05837Y05689*
X05843Y05697*
X05847Y05706*
X05848Y05715*
X05847Y05725*
X05843Y05734*
X05837Y05741*
X0583Y05747*
X05821Y05751*
X05811Y05752*
X05802Y05751*
X05793Y05747*
X05785Y05741*
X05779Y05734*
X05776Y05725*
X05774Y05715*
X05776Y05706*
X05779Y05697*
X05785Y05689*
X05793Y05683*
X05794Y05683*
X05794Y05681*
X05794Y05678*
X05791Y05675*
X05736Y0562*
X05733Y05616*
X05732Y05612*
Y05494*
X0573Y05492*
X05726Y05486*
X05725Y05478*
X05726Y05471*
X0573Y05464*
X05737Y0546*
X05744Y05458*
X05752Y0546*
X05758Y05464*
X05763Y05471*
X05764Y05478*
X05763Y05486*
X05758Y05492*
X05757Y05494*
Y05607*
X0577Y0562*
X05775Y05618*
X05774Y05615*
X05776Y05606*
X05779Y05597*
X05785Y05589*
X05793Y05583*
X05802Y0558*
X05811Y05578*
X05821Y0558*
X0583Y05583*
X05837Y05589*
X05843Y05597*
X05847Y05606*
X05848Y05615*
X05847Y05625*
X05843Y05634*
X05837Y05641*
X0583Y05647*
X05824Y0565*
X05825Y05655*
X05898*
X05899Y0565*
X05893Y05647*
X05885Y05641*
X05879Y05634*
X05876Y05625*
X05874Y05615*
X05876Y05606*
X05879Y05597*
X05885Y05589*
X05893Y05583*
X05902Y0558*
X05911Y05578*
X05921Y0558*
X0593Y05583*
X05937Y05589*
X05943Y05597*
X05947Y05606*
X05948Y05615*
X05947Y05625*
X05943Y05634*
X05937Y05641*
X0593Y05647*
X05924Y0565*
X05925Y05655*
X05998*
X05999Y0565*
X05993Y05647*
X05985Y05641*
X05979Y05634*
X05976Y05625*
X05974Y05615*
X05976Y05606*
X05979Y05597*
X05985Y05589*
X05993Y05583*
X06002Y0558*
X06011Y05578*
X06021Y0558*
X0603Y05583*
X06037Y05589*
X06043Y05597*
X06047Y05606*
X06048Y05615*
X06047Y05625*
X06043Y05634*
X06037Y05641*
X0603Y05647*
X06024Y0565*
X06025Y05655*
X06063*
X06068Y05656*
X06072Y05658*
X06096Y05682*
X06102Y0568*
X06111Y05678*
X06121Y0568*
X0613Y05683*
X06137Y05689*
X06143Y05697*
X06147Y05706*
X06148Y05715*
X06147Y05725*
X06143Y05734*
X06137Y05741*
X0613Y05747*
X06121Y05751*
X06111Y05752*
G37*
G36*
X03874Y05671D02*
X03866Y05669D01*
X0386Y05665*
X03856Y05659*
X03854Y05651*
X03856Y05643*
X0386Y05637*
X03866Y05633*
X03867Y05632*
X03866Y05626*
X03859Y05622*
X03855Y05616*
X03854Y05608*
X03855Y05601*
X03859Y05594*
X03866Y0559*
X03868Y05589*
X03888Y05569*
X03894Y05565*
X039Y05564*
X04734*
X04748Y0555*
X04748Y05548*
X04753Y05541*
X04759Y05537*
X04767Y05536*
X04774Y05537*
X04781Y05541*
X04785Y05548*
X04787Y05555*
X04785Y05563*
X04781Y05569*
X04774Y05574*
X04773Y05574*
X04753Y05593*
X04752Y05594*
X04753Y05599*
X04763*
X04766Y05594*
X04773Y0559*
X0478Y05588*
X04788Y0559*
X04794Y05594*
X04799Y05601*
X048Y05608*
X04799Y05616*
X04794Y05622*
X04788Y05627*
X04786Y05627*
X04784Y05629*
X04778Y05633*
X04772Y05634*
X03915*
X03893Y05657*
X03892Y05659*
X03888Y05665*
X03882Y05669*
X03874Y05671*
G37*
G36*
X05463Y05603D02*
X05456Y05601D01*
X05449Y05597*
X05445Y05591*
X05445Y05589*
X05442Y05589*
X05439Y05589*
X05436Y05595*
X05429Y05599*
X05422Y056*
X05414Y05599*
X05407Y05595*
X05403Y05588*
X05402Y05581*
X05403Y05573*
X05407Y05568*
X05295Y05456*
X05149*
X05143Y05462*
X05144Y05463*
X05144Y0547*
X05144Y05477*
X05141Y05484*
X05136Y0549*
X05131Y05494*
X05124Y05497*
X05117Y05498*
X0511Y05497*
X05104Y05494*
X05098Y0549*
X05094Y05484*
X05091Y05477*
X0509Y0547*
X05091Y05463*
X05094Y05457*
X05098Y05451*
X05104Y05447*
X0511Y05444*
X05109Y05439*
X05085*
X05074Y05451*
X05077Y05457*
X05078Y05464*
X05077Y05471*
X05074Y05478*
X0507Y05483*
X05064Y05488*
X05057Y0549*
X05054Y05491*
X05054Y05491*
X05049Y05492*
X05045*
X05041Y05491*
X05037Y05488*
X05036Y05487*
X05031Y05483*
X05027Y05478*
X05024Y05471*
X05023Y05464*
X05024Y05457*
X05027Y0545*
X05031Y05445*
X05037Y0544*
X05043Y05438*
X0505Y05437*
X05053Y05437*
X05072Y05418*
X05076Y05416*
X0508Y05415*
X05307*
X05312Y05416*
X05316Y05418*
X05461Y05564*
X05463Y05563*
X05471Y05565*
X05477Y05569*
X05482Y05575*
X05483Y05583*
X05482Y05591*
X05477Y05597*
X05471Y05601*
X05463Y05603*
G37*
G36*
X03422Y05893D02*
X03415Y05892D01*
X03408Y0589*
X03403Y05885*
X03398Y0588*
X03396Y05873*
X03395Y05866*
X03396Y05859*
X03398Y05852*
X03403Y05847*
X03408Y05842*
X03415Y0584*
X03422Y05839*
X03429Y0584*
X03436Y05842*
X03441Y05847*
X03446Y05852*
X03446Y05854*
X03637*
X03639Y05854*
X03644Y05853*
X03652Y05855*
X03658Y05859*
X03663Y05866*
X03664Y05873*
X03663Y05881*
X03658Y05887*
X03652Y05891*
X03644Y05893*
X03637Y05891*
X0363Y05887*
X03626Y05881*
X03626Y05878*
X03446*
X03446Y0588*
X03441Y05885*
X03436Y0589*
X03429Y05892*
X03422Y05893*
G37*
G36*
X03035Y06215D02*
X03028Y06214D01*
X03021Y0621*
X03017Y06203*
X03015Y06196*
X03017Y06188*
X0302Y06183*
X03018Y06178*
X03015Y06179*
X03008Y06177*
X03001Y06173*
X02997Y06167*
X02995Y06159*
X02997Y06151*
X03001Y06145*
X03008Y06141*
X03011Y0614*
X03042Y06109*
X0304Y06104*
X02788*
X02786Y06105*
X02779Y06107*
X02771Y06105*
X02769Y06104*
X02767*
X0276Y06103*
X02754Y06099*
X02754Y06099*
X0275Y06093*
X02749Y06086*
X0275Y0608*
X02754Y06074*
X02759Y0607*
X02766Y06069*
X0277*
X02771Y06069*
X02779Y06067*
X02786Y06069*
X02787Y06069*
X02893*
X02895Y06064*
X02892Y06059*
X0289Y06051*
X02892Y06044*
X02896Y06037*
X02903Y06033*
X0291Y06032*
X02918Y06033*
X02924Y06037*
X02929Y06044*
X02929Y06046*
X03205*
X03208Y06045*
X03216Y06043*
X03223Y06045*
X0323Y06049*
X03234Y06055*
X03236Y06063*
X03234Y0607*
X0323Y06077*
X03223Y06081*
X03216Y06083*
X03208Y06081*
X03202Y06077*
X03197Y06071*
X03086*
X03084Y06075*
X03084Y06076*
X03085Y06083*
X03084Y06091*
X03083Y06092*
X03085Y06096*
X04722*
X04743Y06076*
X04748Y06072*
X04755Y06071*
X04769*
X04771Y0607*
X04778Y06068*
X04786Y0607*
X04792Y06074*
X04797Y0608*
X04798Y06088*
X04797Y06096*
X04792Y06102*
X04786Y06106*
X04778Y06108*
X04771Y06106*
X04769Y06105*
X04762*
X04752Y06116*
X04753Y06121*
X04754Y06122*
X04762Y06121*
X0477Y06122*
X04776Y06126*
X0478Y06133*
X04782Y0614*
X0478Y06148*
X04776Y06155*
X0477Y06159*
X04762Y0616*
X04754Y06159*
X04753Y06158*
X03097*
X03054Y062*
X03054Y06203*
X03049Y0621*
X03043Y06214*
X03035Y06215*
G37*
G36*
X05155Y06281D02*
X05085D01*
X0508Y0628*
X05076Y06278*
X05065Y06266*
X05059Y06265*
X05052Y06262*
X05046Y06258*
X05042Y06252*
X05039Y06246*
X05038Y06239*
X05039Y06232*
X05042Y06225*
X05043Y06224*
X0504Y06219*
X04768*
X04763Y06218*
X04762Y06217*
X0476Y06218*
X04753Y06219*
X04746Y06218*
X04739Y06216*
X04734Y06211*
X04729Y06206*
X04727Y06199*
X04726Y06192*
X04727Y06185*
X04729Y06178*
X04734Y06173*
X04739Y06168*
X04746Y06166*
X04753Y06165*
X0476Y06166*
X04767Y06168*
X04772Y06173*
X04777Y06178*
X04779Y06185*
X0478Y06192*
X04783Y06195*
X05052*
X05052Y06195*
X05115*
X05147Y06163*
X05151Y06161*
X05155Y0616*
X0553*
X05531Y06158*
X05537Y06154*
X05545Y06152*
X05552Y06154*
X05559Y06158*
X05563Y06164*
X05565Y06172*
X05563Y0618*
X05559Y06186*
X05552Y0619*
X05545Y06192*
X05537Y0619*
X05531Y06186*
X0553Y06184*
X05392*
X05389Y06189*
X0539Y0619*
X05392Y06198*
X05392Y06199*
X05396Y06201*
X05398Y06199*
X05404Y06195*
X05412Y06193*
X05419Y06195*
X05426Y06199*
X0543Y06206*
X05432Y06213*
X0543Y06221*
X05426Y06227*
X05419Y06232*
X05412Y06233*
X05409Y06233*
X05407Y06234*
X05403Y06235*
X05207*
X05164Y06278*
X0516Y0628*
X05155Y06281*
G37*
G36*
X06111Y06052D02*
X06102Y06051D01*
X06093Y06047*
X06085Y06041*
X06079Y06034*
X06076Y06025*
X06074Y06015*
X06076Y06006*
X06079Y05997*
X06085Y05989*
X06093Y05983*
X06102Y0598*
X06111Y05978*
X06121Y0598*
X0613Y05983*
X06137Y05989*
X06143Y05997*
X06147Y06006*
X06148Y06015*
X06147Y06025*
X06143Y06034*
X06137Y06041*
X0613Y06047*
X06121Y06051*
X06111Y06052*
G37*
G36*
X04094Y06031D02*
X0409Y0603D01*
X04087Y06031*
X02955*
X0295Y0603*
X02949Y0603*
X02949Y0603*
X02942Y06031*
X02934Y0603*
X02928Y06025*
X02923Y06019*
X02922Y06011*
X02923Y06004*
X02928Y05997*
X02934Y05993*
X02942Y05991*
X02949Y05993*
X02956Y05997*
X0296Y06004*
X02961Y06007*
X03607*
X03609Y06002*
X03606Y05998*
X02981*
X02977Y05997*
X02973Y05994*
X02932Y05954*
X0293Y05954*
X02923Y05953*
X02916Y05949*
X02912Y05942*
X0291Y05935*
X02912Y05927*
X02916Y0592*
X02923Y05916*
X0293Y05915*
X02938Y05916*
X02944Y0592*
X02949Y05927*
X0295Y05935*
X0295Y05937*
X02986Y05973*
X03619*
X03624Y05974*
X03625Y05975*
X03628Y05974*
X03635Y05976*
X03642Y0598*
X03646Y05987*
X03648Y05994*
X03646Y06002*
X03646Y06003*
X03648Y06007*
X04075*
X04076Y06004*
X0408Y05997*
X04087Y05993*
X04094Y05991*
X04102Y05993*
X04108Y05997*
X04113Y06004*
X04114Y06011*
X04113Y06019*
X04108Y06025*
X04102Y0603*
X04094Y06031*
G37*
G36*
X04119Y065D02*
X03465D01*
X0346Y06499*
X03456Y06496*
X03418Y06458*
X03292*
X0329Y06461*
X03283Y06466*
X0328Y06466*
X03259Y06487*
X03255Y0649*
X0325Y06491*
X03004*
X02999Y0649*
X02995Y06487*
X02995Y06487*
X02992Y06487*
X02985Y06486*
X02978Y06481*
X02974Y06475*
X02973Y06467*
X02974Y0646*
X02978Y06453*
X02985Y06449*
X02992Y06447*
X03Y06449*
X03006Y06453*
X03011Y0646*
X03012Y06466*
X03209*
X03211Y06461*
X03207Y06459*
X03203Y06452*
X03201Y06445*
X03196Y06444*
X03137*
X03136Y06446*
X0313Y0645*
X03122Y06452*
X03114Y0645*
X03108Y06446*
X03104Y06439*
X03102Y06432*
X03104Y06424*
X03108Y06418*
X03114Y06413*
X03122Y06412*
X0313Y06413*
X03136Y06418*
X03137Y0642*
X03194*
X03212Y06402*
X03211Y06396*
X03207Y06393*
X03203Y06387*
X03202Y06379*
X03203Y06371*
X03207Y06365*
X03214Y06361*
X03222Y06359*
X03229Y06361*
X03236Y06365*
X03237Y06367*
X03404*
X0341Y06363*
X03418Y06361*
X03426Y06363*
X03432Y06367*
X03931*
X03933Y06362*
X03932Y0636*
X03931Y06353*
X03932Y06347*
X03932Y06347*
X03928Y06343*
X03922Y06345*
X03914Y06343*
X03909Y0634*
X0368*
X03675Y06343*
X03668Y06345*
X0366Y06343*
X03654Y06339*
X03649Y06332*
X03648Y06325*
X03649Y06317*
X03651Y06315*
X03648Y0631*
X03631*
X03627Y06313*
X03619Y06314*
X03612Y06313*
X03605Y06308*
X03601Y06302*
X03599Y06294*
X03601Y06287*
X03605Y0628*
X03605Y06279*
X03603Y06275*
X03488*
X03486Y06277*
X03478Y06278*
X03471Y06277*
X03468Y06275*
X02745*
X02744Y06275*
X02741Y06277*
X02733Y06279*
X02726Y06277*
X02719Y06273*
X02715Y06267*
X02713Y06259*
X02715Y06251*
X02719Y06245*
X02726Y06241*
X02733Y06239*
X02741Y06241*
X02742Y06241*
X02745Y06241*
X03139*
X03139Y06241*
X03144Y06234*
X0315Y0623*
X03158Y06228*
X03165Y0623*
X03172Y06234*
X03176Y06241*
X03176Y06241*
X0347*
X03471Y0624*
X03478Y06239*
X03486Y0624*
X03487Y06241*
X04084*
X04085Y06238*
X04092Y06234*
X041Y06232*
X04107Y06234*
X04114Y06238*
X04115Y06241*
X04345*
X04346Y06241*
X04347Y06241*
X04756*
X04757Y0624*
X04764Y06234*
X04773Y0623*
X04783Y06229*
X04793Y0623*
X04802Y06234*
X04809Y0624*
X04815Y06248*
X04819Y06257*
X0482Y06266*
X04819Y06276*
X04815Y06285*
X04809Y06293*
X04802Y06299*
X04793Y06302*
X04783Y06304*
X04773Y06302*
X04764Y06299*
X04757Y06293*
X04751Y06285*
X04747Y06276*
X04747Y06275*
X04359*
X04354Y06279*
X04346Y0628*
X04338Y06279*
X04333Y06275*
X03924*
X03921Y0628*
X03924Y06285*
X03925Y06292*
X03924Y063*
X03924Y063*
X03926Y06306*
X0393Y06306*
X03936Y06311*
X0394Y06317*
X03942Y06325*
X03941Y0633*
X03941Y06331*
X03945Y06334*
X03946Y06334*
X03951Y06332*
X0395Y06328*
X03949Y06325*
X03951Y06317*
X03955Y06311*
X03962Y06306*
X03969Y06305*
X03977Y06306*
X03983Y06311*
X03988Y06317*
X03989Y06325*
X03988Y0633*
X04037Y06379*
X04044*
X04045Y06377*
X04051Y06373*
X04059Y06371*
X04067Y06373*
X04073Y06377*
X04077Y06384*
X04079Y06391*
X04077Y06399*
X04076Y064*
X04079Y06405*
X04088*
X041Y06392*
X04104Y0639*
X04109Y06389*
X04334*
X04338Y0639*
X04342Y06392*
X04357Y06407*
X04359Y06406*
X04367Y06408*
X04373Y06412*
X04377Y06419*
X04379Y06426*
X04377Y06434*
X04373Y0644*
X04367Y06445*
X04359Y06446*
X04351Y06445*
X04345Y0644*
X04341Y06434*
X04339Y06426*
X04339Y06424*
X04329Y06413*
X04305*
X04303Y06418*
X04312Y06427*
X04314Y06426*
X04321Y06428*
X04328Y06432*
X04332Y06438*
X04334Y06446*
X04332Y06454*
X04328Y0646*
X04321Y06464*
X04314Y06466*
X04306Y06464*
X043Y0646*
X04295Y06454*
X04294Y06446*
X04294Y06444*
X04281Y0643*
X04185*
X04183Y06434*
X04183Y06435*
X04184Y06442*
X04182Y0645*
X04178Y06456*
X04172Y06461*
X04164Y06462*
X04162Y06462*
X04128Y06496*
X04124Y06499*
X04119Y065*
G37*
G36*
X02739Y06652D02*
X02722Y0665D01*
X02707Y06646*
X02692Y06638*
X02679Y06627*
X02669Y06615*
X02661Y066*
X02656Y06584*
X02655Y06568*
X02656Y06552*
X02661Y06536*
X02669Y06521*
X02679Y06508*
X02692Y06498*
X02707Y0649*
X02722Y06485*
X02739Y06484*
X02755Y06485*
X02771Y0649*
X02786Y06498*
X02798Y06508*
X02809Y06521*
X02817Y06536*
X02821Y06552*
X02823Y06568*
X02821Y06584*
X02817Y066*
X02809Y06615*
X02798Y06627*
X02786Y06638*
X02771Y06646*
X02755Y0665*
X02739Y06652*
G37*
G36*
X06112Y06501D02*
X06095Y06499D01*
X06079Y06494*
X06065Y06486*
X06052Y06476*
X06042Y06463*
X06034Y06449*
X06029Y06433*
X06027Y06417*
X06029Y064*
X06034Y06384*
X06042Y0637*
X06052Y06357*
X06065Y06347*
X06079Y06339*
X06095Y06334*
X06112Y06332*
X06128Y06334*
X06144Y06339*
X06158Y06347*
X06171Y06357*
X06181Y0637*
X06189Y06384*
X06194Y064*
X06196Y06417*
X06194Y06433*
X06189Y06449*
X06181Y06463*
X06171Y06476*
X06158Y06486*
X06144Y06494*
X06128Y06499*
X06112Y06501*
G37*
G36*
X05878Y06511D02*
X05864D01*
X05855Y06509*
X05847Y06505*
X05839Y065*
X05836Y06497*
X05827Y06488*
X05825Y06486*
X05821Y0648*
X05818Y06473*
X05817Y06466*
Y06445*
X05818Y06438*
X05821Y06431*
X05825Y06425*
X05827Y06423*
X05831Y06419*
X05835Y06415*
X05845Y06408*
X05855Y06404*
X05867Y06402*
X0588*
X05889Y06404*
X05898Y06407*
X05906Y06412*
X05907Y06414*
X05911Y06417*
X05915Y06421*
X05921Y0643*
X05925Y0644*
X05927Y0645*
Y06466*
X05925Y06474*
X05922Y06481*
X05918Y06487*
X05907Y06498*
X05898Y06504*
X05888Y06508*
X05878Y06511*
G37*
G36*
X06011Y05952D02*
X06002Y05951D01*
X05993Y05947*
X05985Y05941*
X05979Y05934*
X05976Y05925*
X05974Y05915*
X05976Y05906*
X05979Y05897*
X05985Y05889*
X05993Y05883*
X06002Y0588*
X06011Y05878*
X06021Y0588*
X0603Y05883*
X06037Y05889*
X06043Y05897*
X06047Y05906*
X06048Y05915*
X06047Y05925*
X06043Y05934*
X06037Y05941*
X0603Y05947*
X06021Y05951*
X06011Y05952*
G37*
G36*
X06111D02*
X06102Y05951D01*
X06093Y05947*
X06085Y05941*
X06079Y05934*
X06076Y05925*
X06074Y05915*
X06076Y05906*
X06079Y05897*
X06085Y05889*
X06093Y05883*
X06102Y0588*
X06111Y05878*
X06121Y0588*
X0613Y05883*
X06137Y05889*
X06143Y05897*
X06147Y05906*
X06148Y05915*
X06147Y05925*
X06143Y05934*
X06137Y05941*
X0613Y05947*
X06121Y05951*
X06111Y05952*
G37*
G36*
X05811D02*
X05802Y05951D01*
X05793Y05947*
X05785Y05941*
X05779Y05934*
X05776Y05925*
X05774Y05915*
X05776Y05906*
X05779Y05897*
X05785Y05889*
X05793Y05883*
X05802Y0588*
X05811Y05878*
X05821Y0588*
X0583Y05883*
X05837Y05889*
X05843Y05897*
X05847Y05906*
X05848Y05915*
X05847Y05925*
X05843Y05934*
X05837Y05941*
X0583Y05947*
X05821Y05951*
X05811Y05952*
G37*
G36*
X05911D02*
X05902Y05951D01*
X05893Y05947*
X05885Y05941*
X05879Y05934*
X05876Y05925*
X05874Y05915*
X05876Y05906*
X05879Y05897*
X05885Y05889*
X05893Y05883*
X05902Y0588*
X05911Y05878*
X05921Y0588*
X0593Y05883*
X05937Y05889*
X05943Y05897*
X05947Y05906*
X05948Y05915*
X05947Y05925*
X05943Y05934*
X05937Y05941*
X0593Y05947*
X05921Y05951*
X05911Y05952*
G37*
G36*
Y06052D02*
X05902Y06051D01*
X05893Y06047*
X05885Y06041*
X05879Y06034*
X05876Y06025*
X05874Y06015*
X05876Y06006*
X05879Y05997*
X05885Y05989*
X05893Y05983*
X05902Y0598*
X05911Y05978*
X05921Y0598*
X0593Y05983*
X05937Y05989*
X05943Y05997*
X05947Y06006*
X05948Y06015*
X05947Y06025*
X05943Y06034*
X05937Y06041*
X0593Y06047*
X05921Y06051*
X05911Y06052*
G37*
G36*
X06011D02*
X06002Y06051D01*
X05993Y06047*
X05985Y06041*
X05979Y06034*
X05976Y06025*
X05974Y06015*
X05976Y06006*
X05979Y05997*
X05985Y05989*
X05993Y05983*
X06002Y0598*
X06011Y05978*
X06021Y0598*
X0603Y05983*
X06037Y05989*
X06043Y05997*
X06047Y06006*
X06048Y06015*
X06047Y06025*
X06043Y06034*
X06037Y06041*
X0603Y06047*
X06021Y06051*
X06011Y06052*
G37*
G36*
X04774Y0599D02*
X04766Y05988D01*
X0476Y05984*
X04756Y05978*
X04755Y05974*
X04539*
X04538Y05975*
X04532Y0598*
X04524Y05981*
X04516Y0598*
X0451Y05975*
X04506Y05969*
X04504Y05961*
X04506Y05954*
X0451Y05947*
X04516Y05943*
X04524Y05941*
X04532Y05943*
X04538Y05947*
X04539Y05949*
X04765*
X0477Y0595*
X04771Y05951*
X04774Y0595*
X04782Y05952*
X04788Y05956*
X04792Y05962*
X04794Y0597*
X04792Y05978*
X04788Y05984*
X04782Y05988*
X04774Y0599*
G37*
G36*
X05811Y06052D02*
X05802Y06051D01*
X05793Y06047*
X05785Y06041*
X05779Y06034*
X05776Y06025*
X05774Y06015*
X05776Y06006*
X05779Y05997*
X05785Y05989*
X05793Y05983*
X05802Y0598*
X05811Y05978*
X05821Y0598*
X0583Y05983*
X05837Y05989*
X05843Y05997*
X05847Y06006*
X05848Y06015*
X05847Y06025*
X05843Y06034*
X05837Y06041*
X0583Y06047*
X05821Y06051*
X05811Y06052*
G37*
G36*
X04472Y05129D02*
X04465Y05129D01*
X04458Y05126*
X04453Y05122*
X04448Y05116*
X04446Y05109*
X04445Y05102*
X04446Y05095*
X04448Y05089*
X04453Y05083*
X04458Y05079*
X04465Y05076*
X04472Y05075*
X04479Y05076*
X04486Y05079*
X04491Y05083*
X04496Y05089*
X04498Y05095*
X04499Y05102*
X04498Y05109*
X04496Y05116*
X04491Y05122*
X04486Y05126*
X04479Y05129*
X04472Y05129*
G37*
G36*
X05811Y05152D02*
X05802Y05151D01*
X05793Y05147*
X05785Y05141*
X05779Y05134*
X05776Y05125*
X05774Y05115*
X05776Y05106*
X05779Y05097*
X05785Y05089*
X05793Y05083*
X05802Y0508*
X05811Y05078*
X05821Y0508*
X0583Y05083*
X05837Y05089*
X05843Y05097*
X05847Y05106*
X05848Y05115*
X05847Y05125*
X05843Y05134*
X05837Y05141*
X0583Y05147*
X05821Y05151*
X05811Y05152*
G37*
G36*
X03039Y05056D02*
X03032Y05054D01*
X03025Y0505*
X03022Y05046*
X02956*
X02955Y05047*
X02948Y05052*
X0294Y05053*
X02933Y05052*
X02926Y05047*
X02922Y05041*
X02921Y05033*
X02922Y05026*
X02926Y05019*
X02933Y05015*
X0294Y05013*
X02948Y05015*
X02955Y05019*
X02956Y05021*
X03026*
X03032Y05017*
X03039Y05016*
X03047Y05017*
X03053Y05021*
X03054*
X03059Y05022*
X03063Y05025*
X03066Y05029*
X03066Y05033*
X03066Y05038*
X03063Y05042*
X03061Y05044*
X03057Y05047*
X03055Y05047*
X03053Y0505*
X03047Y05054*
X03039Y05056*
G37*
G36*
X04782Y05109D02*
X04775Y05107D01*
X04768Y05103*
X04764Y05096*
X04762Y05089*
X04764Y05081*
X04768Y05075*
X04767Y05073*
X04766Y0507*
X04753*
X04752*
X04749Y05069*
X04687*
X04685Y05067*
X04681Y05069*
X04674Y05071*
X04666Y05069*
X04659Y05065*
X04655Y05059*
X04654Y05051*
X04655Y05043*
X04659Y05037*
X04666Y05033*
X04672Y05032*
X04672Y05031*
X0467Y05026*
X04657*
Y05005*
X04657Y05003*
X04657Y05001*
Y04971*
X04696Y04933*
X0476*
Y04951*
X04781*
X04788Y04952*
X04793Y04956*
X04797Y04962*
X04799Y04968*
X04797Y04975*
X04793Y0498*
X04788Y04984*
X04781Y04986*
X0476*
Y04999*
X04754Y05004*
X04756Y05009*
X04814*
Y0507*
X04798*
X04797Y05073*
X04797Y05075*
X04801Y05081*
X04802Y05089*
X04801Y05096*
X04796Y05103*
X0479Y05107*
X04782Y05109*
G37*
G36*
X06111Y05152D02*
X06102Y05151D01*
X06093Y05147*
X06085Y05141*
X06079Y05134*
X06076Y05125*
X06074Y05115*
X06076Y05106*
X06079Y05097*
X06085Y05089*
X06093Y05083*
X06102Y0508*
X06111Y05078*
X06121Y0508*
X0613Y05083*
X06137Y05089*
X06143Y05097*
X06147Y05106*
X06148Y05115*
X06147Y05125*
X06143Y05134*
X06137Y05141*
X0613Y05147*
X06121Y05151*
X06111Y05152*
G37*
G36*
X04702Y05137D02*
X04695Y05136D01*
X04689Y05133*
X04683Y05129*
X04679Y05123*
X04676Y05116*
X04675Y05109*
X04676Y05102*
X04679Y05096*
X04683Y0509*
X04689Y05086*
X04695Y05083*
X04702Y05082*
X04709Y05083*
X04716Y05086*
X04722Y0509*
X04726Y05096*
X04729Y05102*
X04729Y05109*
X04729Y05116*
X04726Y05123*
X04722Y05129*
X04716Y05133*
X04709Y05136*
X04702Y05137*
G37*
G36*
X05911Y05152D02*
X05902Y05151D01*
X05893Y05147*
X05885Y05141*
X05879Y05134*
X05876Y05125*
X05874Y05115*
X05876Y05106*
X05879Y05097*
X05885Y05089*
X05893Y05083*
X05902Y0508*
X05911Y05078*
X05921Y0508*
X0593Y05083*
X05937Y05089*
X05943Y05097*
X05947Y05106*
X05948Y05115*
X05947Y05125*
X05943Y05134*
X05937Y05141*
X0593Y05147*
X05921Y05151*
X05911Y05152*
G37*
G36*
X06011D02*
X06002Y05151D01*
X05993Y05147*
X05985Y05141*
X05979Y05134*
X05976Y05125*
X05974Y05115*
X05976Y05106*
X05979Y05097*
X05985Y05089*
X05993Y05083*
X06002Y0508*
X06011Y05078*
X06021Y0508*
X0603Y05083*
X06037Y05089*
X06043Y05097*
X06047Y05106*
X06048Y05115*
X06047Y05125*
X06043Y05134*
X06037Y05141*
X0603Y05147*
X06021Y05151*
X06011Y05152*
G37*
G36*
X05911Y05052D02*
X05902Y05051D01*
X05893Y05047*
X05885Y05041*
X05879Y05034*
X05876Y05025*
X05874Y05015*
X05876Y05006*
X05879Y04997*
X05885Y04989*
X05893Y04983*
X05902Y0498*
X05911Y04978*
X05921Y0498*
X0593Y04983*
X05937Y04989*
X05943Y04997*
X05947Y05006*
X05948Y05015*
X05947Y05025*
X05943Y05034*
X05937Y05041*
X0593Y05047*
X05921Y05051*
X05911Y05052*
G37*
G36*
X06011D02*
X06002Y05051D01*
X05993Y05047*
X05985Y05041*
X05979Y05034*
X05976Y05025*
X05974Y05015*
X05976Y05006*
X05979Y04997*
X05985Y04989*
X05993Y04983*
X06002Y0498*
X06011Y04978*
X06021Y0498*
X0603Y04983*
X06037Y04989*
X06043Y04997*
X06047Y05006*
X06048Y05015*
X06047Y05025*
X06043Y05034*
X06037Y05041*
X0603Y05047*
X06021Y05051*
X06011Y05052*
G37*
G36*
X0359Y04972D02*
X03582Y04971D01*
X03576Y04966*
X03574Y04965*
X03293*
X03289Y04964*
X03288Y04963*
X03288Y04963*
X0328Y04962*
X03274Y04957*
X03269Y04951*
X03268Y04943*
X03269Y04936*
X03274Y04929*
X0328Y04925*
X03288Y04923*
X03295Y04925*
X03302Y04929*
X03306Y04936*
X03307Y0494*
X03574*
X03576Y04938*
X03582Y04934*
X0359Y04932*
X03597Y04934*
X03604Y04938*
X03608Y04945*
X0361Y04952*
X03608Y0496*
X03604Y04966*
X03597Y04971*
X0359Y04972*
G37*
G36*
X05811Y05052D02*
X05802Y05051D01*
X05793Y05047*
X05785Y05041*
X05779Y05034*
X05776Y05025*
X05774Y05015*
X05776Y05006*
X05779Y04997*
X05785Y04989*
X05793Y04983*
X05802Y0498*
X05811Y04978*
X05821Y0498*
X0583Y04983*
X05837Y04989*
X05843Y04997*
X05847Y05006*
X05848Y05015*
X05847Y05025*
X05843Y05034*
X05837Y05041*
X0583Y05047*
X05821Y05051*
X05811Y05052*
G37*
G36*
X04477Y05063D02*
X0447Y05062D01*
X04463Y05059*
X04457Y05055*
X04453Y05049*
X0445Y05042*
X04449Y05035*
X0445Y05028*
X04453Y05022*
X04457Y05016*
X04463Y05012*
X0447Y05009*
X04477Y05008*
X04484Y05009*
X0449Y05012*
X04496Y05016*
X045Y05022*
X04503Y05028*
X04504Y05035*
X04503Y05042*
X045Y05049*
X04496Y05055*
X0449Y05059*
X04484Y05062*
X04477Y05063*
G37*
G36*
X04259Y05105D02*
Y05087D01*
X04222*
X04217Y05086*
X04213Y05084*
X0421Y0508*
X04209Y05075*
X0421Y0507*
X04213Y05066*
X04217Y05064*
X04222Y05063*
X04259*
Y05035*
X04318*
Y05054*
X04323Y05059*
X04377*
X0439Y05071*
X04389Y05072*
Y05092*
X04376Y05105*
X04318*
X04318Y05087*
X04318Y05087*
Y05105*
X04259Y05105*
G37*
G36*
X06111Y05052D02*
X06102Y05051D01*
X06093Y05047*
X06085Y05041*
X06079Y05034*
X06076Y05025*
X06074Y05015*
X06076Y05006*
X06079Y04997*
X06085Y04989*
X06093Y04983*
X06102Y0498*
X06111Y04978*
X06121Y0498*
X0613Y04983*
X06137Y04989*
X06143Y04997*
X06147Y05006*
X06148Y05015*
X06147Y05025*
X06143Y05034*
X06137Y05041*
X0613Y05047*
X06121Y05051*
X06111Y05052*
G37*
G36*
X04252Y05032D02*
X04191D01*
Y05016*
X04047*
X04042Y05015*
X04038Y05012*
X04006Y04979*
X04003Y0498*
X03996Y04978*
X03989Y04974*
X03985Y04967*
X03984Y0496*
X03985Y04952*
X03989Y04946*
X03996Y04941*
X04003Y0494*
X04011Y04941*
X04018Y04946*
X04022Y04952*
X04023Y0496*
X04023Y04962*
X04052Y04991*
X04191*
Y04971*
X04252*
Y04991*
X04258*
Y04972*
X04319*
Y04991*
X04343*
X04343Y04991*
X04347Y04985*
X04353Y0498*
X04361Y04979*
X04369Y0498*
X04375Y04985*
X04379Y04991*
X04381Y04999*
X04379Y05006*
X04375Y05013*
X04369Y05017*
X04361Y05019*
X04353Y05017*
X04351Y05016*
X04319*
Y05027*
X04258*
Y05016*
X04252*
Y05032*
G37*
G36*
X04685Y05219D02*
X04677Y05218D01*
X04671Y05215*
X04665Y05211*
X04661Y05205*
X04658Y05199*
X04657Y05192*
X04658Y05185*
X04661Y05178*
X04665Y05172*
X04671Y05168*
X04677Y05165*
X04685Y05164*
X04692Y05165*
X04698Y05168*
X04704Y05172*
X04708Y05178*
X04711Y05185*
X04712Y05192*
X04711Y05199*
X04708Y05205*
X04704Y05211*
X04698Y05215*
X04692Y05218*
X04685Y05219*
G37*
G36*
X05911Y05352D02*
X05902Y05351D01*
X05893Y05347*
X05885Y05341*
X05879Y05334*
X05876Y05325*
X05874Y05315*
X05876Y05306*
X05879Y05297*
X05885Y05289*
X05893Y05283*
X05902Y0528*
X05911Y05278*
X05921Y0528*
X0593Y05283*
X05937Y05289*
X05943Y05297*
X05947Y05306*
X05948Y05315*
X05947Y05325*
X05943Y05334*
X05937Y05341*
X0593Y05347*
X05921Y05351*
X05911Y05352*
G37*
G36*
X06011D02*
X06002Y05351D01*
X05993Y05347*
X05985Y05341*
X05979Y05334*
X05976Y05325*
X05974Y05315*
X05976Y05306*
X05979Y05297*
X05985Y05289*
X05993Y05283*
X06002Y0528*
X06011Y05278*
X06021Y0528*
X0603Y05283*
X06037Y05289*
X06043Y05297*
X06047Y05306*
X06048Y05315*
X06047Y05325*
X06043Y05334*
X06037Y05341*
X0603Y05347*
X06021Y05351*
X06011Y05352*
G37*
G36*
X03624Y05276D02*
X03617Y05275D01*
X0361Y05271*
X03609Y05269*
X0345*
X03446Y05271*
X03438Y05273*
X03431Y05271*
X03424Y05267*
X0342Y05261*
X03419Y05253*
X0342Y05245*
X03424Y05239*
X03431Y05235*
X03438Y05233*
X03446Y05235*
X03453Y05239*
X03456Y05244*
X03609*
X0361Y05243*
X03617Y05238*
X03624Y05237*
X03632Y05238*
X03638Y05243*
X03643Y05249*
X03644Y05257*
X03643Y05264*
X03638Y05271*
X03632Y05275*
X03624Y05276*
G37*
G36*
X05811Y05352D02*
X05802Y05351D01*
X05793Y05347*
X05785Y05341*
X05779Y05334*
X05776Y05325*
X05774Y05315*
X05776Y05306*
X05779Y05297*
X05785Y05289*
X05793Y05283*
X05802Y0528*
X05811Y05278*
X05821Y0528*
X0583Y05283*
X05837Y05289*
X05843Y05297*
X05847Y05306*
X05848Y05315*
X05847Y05325*
X05843Y05334*
X05837Y05341*
X0583Y05347*
X05821Y05351*
X05811Y05352*
G37*
G36*
X03597Y05331D02*
X03589Y0533D01*
X03583Y05325*
X03581Y05324*
X03296*
X03291Y05323*
X03289Y05321*
X03286Y05321*
X03279Y05316*
X03275Y0531*
X03273Y05302*
X03275Y05295*
X03279Y05288*
X03286Y05284*
X03293Y05282*
X03301Y05284*
X03307Y05288*
X03312Y05295*
X03312Y05299*
X03581*
X03583Y05297*
X03589Y05293*
X03597Y05291*
X03604Y05293*
X03611Y05297*
X03615Y05304*
X03617Y05311*
X03615Y05319*
X03611Y05325*
X03604Y0533*
X03597Y05331*
G37*
G36*
X0449Y05445D02*
X04477D01*
X04468Y05443*
X04459Y05439*
X04452Y05434*
X04448Y05431*
X0444Y05423*
X04437Y0542*
X04434Y05414*
X04431Y05408*
X04429Y05401*
Y05379*
X04431Y05372*
X04434Y05365*
X04438Y05359*
X0444Y05357*
X04444Y05353*
X04448Y05349*
X04457Y05343*
X04468Y05338*
X04479Y05336*
X04493*
X04502Y05338*
X04511Y05341*
X04518Y05347*
X0452Y05348*
X04523Y05352*
X04527Y05356*
X04533Y05364*
X04537Y05374*
X04539Y05385*
Y05401*
X04538Y05408*
X04535Y05415*
X04531Y05422*
X04519Y05433*
X04511Y05439*
X04501Y05443*
X0449Y05445*
G37*
G36*
X06111Y05352D02*
X06102Y05351D01*
X06093Y05347*
X06085Y05341*
X06079Y05334*
X06076Y05325*
X06074Y05315*
X06076Y05306*
X06079Y05297*
X06085Y05289*
X06093Y05283*
X06102Y0528*
X06111Y05278*
X06121Y0528*
X0613Y05283*
X06137Y05289*
X06143Y05297*
X06147Y05306*
X06148Y05315*
X06147Y05325*
X06143Y05334*
X06137Y05341*
X0613Y05347*
X06121Y05351*
X06111Y05352*
G37*
G36*
X02982Y0541D02*
X02975Y05408D01*
X02968Y05404*
X02964Y05398*
X02962Y0539*
X02964Y05382*
X02968Y05376*
X02975Y05372*
X02982Y0537*
X02984Y05371*
X03026Y05329*
X03027Y05324*
X03022Y05317*
X03021Y0531*
X03022Y05302*
X03027Y05296*
X03033Y05291*
X03041Y0529*
X03048Y05291*
X03055Y05296*
X03059Y05302*
X03061Y0531*
X03059Y05317*
X03055Y05324*
X03053Y05325*
Y05331*
X03052Y05336*
X03049Y0534*
X03002Y05388*
X03002Y0539*
X03001Y05398*
X02996Y05404*
X0299Y05408*
X02982Y0541*
G37*
G36*
X05911Y05252D02*
X05902Y05251D01*
X05893Y05247*
X05885Y05241*
X05879Y05234*
X05876Y05225*
X05874Y05215*
X05876Y05206*
X05879Y05197*
X05885Y05189*
X05893Y05183*
X05902Y0518*
X05911Y05178*
X05921Y0518*
X0593Y05183*
X05937Y05189*
X05943Y05197*
X05947Y05206*
X05948Y05215*
X05947Y05225*
X05943Y05234*
X05937Y05241*
X0593Y05247*
X05921Y05251*
X05911Y05252*
G37*
G36*
X06011D02*
X06002Y05251D01*
X05993Y05247*
X05985Y05241*
X05979Y05234*
X05976Y05225*
X05974Y05215*
X05976Y05206*
X05979Y05197*
X05985Y05189*
X05993Y05183*
X06002Y0518*
X06011Y05178*
X06021Y0518*
X0603Y05183*
X06037Y05189*
X06043Y05197*
X06047Y05206*
X06048Y05215*
X06047Y05225*
X06043Y05234*
X06037Y05241*
X0603Y05247*
X06021Y05251*
X06011Y05252*
G37*
G36*
X0462Y0522D02*
X04613Y0522D01*
X04607Y05217*
X04601Y05212*
X04597Y05207*
X04594Y052*
X04593Y05193*
X04594Y05186*
X04597Y0518*
X04601Y05174*
X04607Y0517*
X04613Y05167*
X0462Y05166*
X04627Y05167*
X04634Y0517*
X0464Y05174*
X04644Y0518*
X04647Y05186*
X04648Y05193*
X04647Y052*
X04644Y05207*
X0464Y05212*
X04634Y05217*
X04627Y0522*
X0462Y0522*
G37*
G36*
X05811Y05252D02*
X05802Y05251D01*
X05793Y05247*
X05785Y05241*
X05779Y05234*
X05776Y05225*
X05774Y05215*
X05776Y05206*
X05779Y05197*
X05785Y05189*
X05793Y05183*
X05802Y0518*
X05811Y05178*
X05821Y0518*
X0583Y05183*
X05837Y05189*
X05843Y05197*
X05847Y05206*
X05848Y05215*
X05847Y05225*
X05843Y05234*
X05837Y05241*
X0583Y05247*
X05821Y05251*
X05811Y05252*
G37*
G36*
X04087Y05296D02*
X04078Y05295D01*
X04069Y05291*
X04061Y05285*
X04055Y05278*
X04052Y05269*
X0405Y05259*
X04052Y0525*
X04055Y05241*
X0406Y05235*
X04056Y05232*
X04053Y05235*
X04049Y05238*
X04044Y05239*
X04024*
Y05296*
X03951*
Y05223*
X04004*
X04009Y05218*
X04013Y05215*
X04018Y05214*
X04039*
X04091Y05163*
X04095Y0516*
X041Y05159*
X04127*
X04129Y05154*
X04126Y05149*
X04124Y05141*
X04126Y05134*
X0413Y05127*
X04136Y05123*
X04144Y05121*
X04152Y05123*
X04158Y05127*
X0416Y0513*
X0426*
X04261Y05128*
X04267Y05124*
X04275Y05123*
X04283Y05124*
X04289Y05128*
X04293Y05135*
X04295Y05142*
X04293Y0515*
X04291Y05154*
X04294Y05159*
X04336*
X04337Y05157*
X04343Y05153*
X04351Y05151*
X04359Y05153*
X04365Y05157*
X04369Y05164*
X04371Y05171*
X04369Y05179*
X04365Y05185*
X04359Y0519*
X04351Y05191*
X04343Y0519*
X04337Y05185*
X04336Y05183*
X04105*
X0406Y05228*
X04063Y05232*
X04069Y05227*
X04078Y05224*
X04087Y05223*
X04097Y05224*
X04106Y05227*
X04113Y05233*
X04119Y05241*
X04123Y0525*
X04124Y05259*
X04123Y05269*
X04119Y05278*
X04113Y05285*
X04106Y05291*
X04097Y05295*
X04087Y05296*
G37*
G36*
X05688Y05307D02*
X05681Y05305D01*
X05674Y05301*
X0567Y05295*
X05669Y05287*
X0567Y05279*
X05672Y05277*
X05661Y05267*
X05657Y05268*
X05656Y05269*
X05652Y05275*
X05646Y05279*
X05638Y05281*
X0563Y05279*
X05624Y05275*
X05623Y05273*
X04919*
X04912Y0528*
X04912Y05283*
X04911Y0529*
X04906Y05297*
X049Y05301*
X04892Y05302*
X04885Y05301*
X04878Y05297*
X04874Y0529*
X04873Y05283*
X04874Y05275*
X04878Y05269*
X04885Y05264*
X04892Y05263*
X04895Y05263*
X04905Y05252*
X04909Y0525*
X04914Y05249*
X05618*
X05618Y05248*
X05616Y05243*
X04815*
X04814Y05245*
X04807Y05249*
X048Y05251*
X04792Y05249*
X04785Y05245*
X04781Y05239*
X0478Y05231*
X04781Y05223*
X04785Y05217*
X04792Y05213*
X048Y05211*
X04807Y05213*
X04814Y05217*
X04815Y05219*
X05643*
X05647Y0522*
X05651Y05222*
X05697Y05268*
X05699Y0527*
X05703Y05273*
X05707Y05279*
X05708Y05287*
X05707Y05295*
X05703Y05301*
X05696Y05305*
X05688Y05307*
G37*
G36*
X06111Y05252D02*
X06102Y05251D01*
X06093Y05247*
X06085Y05241*
X06079Y05234*
X06076Y05225*
X06074Y05215*
X06076Y05206*
X06079Y05197*
X06085Y05189*
X06093Y05183*
X06102Y0518*
X06111Y05178*
X06121Y0518*
X0613Y05183*
X06137Y05189*
X06143Y05197*
X06147Y05206*
X06148Y05215*
X06147Y05225*
X06143Y05234*
X06137Y05241*
X0613Y05247*
X06121Y05251*
X06111Y05252*
G37*
G36*
X0302Y05222D02*
X03012Y0522D01*
X03008Y05218*
X02928*
X02926Y05219*
X02919Y0522*
X02911Y05219*
X02905Y05214*
X029Y05208*
X02899Y052*
X029Y05193*
X02905Y05186*
X02911Y05182*
X02919Y0518*
X02926Y05182*
X02928Y05183*
X03015*
X0302Y05182*
X03025Y05183*
X03028*
X03032Y05184*
X03316*
X03317Y05183*
X03325Y05181*
X03332Y05183*
X03339Y05187*
X03343Y05193*
X03345Y05201*
X03343Y05209*
X03339Y05215*
X03332Y05219*
X03325Y05221*
X03317Y05219*
X03316Y05218*
X0303*
X03028Y0522*
X0302Y05222*
G37*
%LNpcb_obdh-3*%
%LPD*%
G54D10*
X04625Y03691D02*
X0526D01*
X04527Y03594D02*
X04625Y03691D01*
X03153Y03594D02*
X04527D01*
X0309Y0614D02*
X04762D01*
X03042Y06188D02*
X0309Y0614D01*
X05499Y03249D02*
X05598Y03348D01*
X05015Y03249D02*
X05499D01*
X05425Y03294D02*
X05478D01*
X049Y03365D02*
X05015Y03249D01*
X03855Y03365D02*
X049D01*
X05473Y03694D02*
X05568D01*
X0555Y03691D02*
X05607D01*
X05639Y03723*
X05263Y03695D02*
X05337D01*
X0526Y03691D02*
X05263Y03695D01*
X05425Y03294D02*
Y03397D01*
X05287Y03883D02*
X053D01*
X05246Y03843D02*
X05287Y03883D01*
X05246Y03805D02*
Y03843D01*
X053Y03883D02*
X05382D01*
X053D02*
X05302Y03885D01*
X05301Y03886D02*
X05302Y03885D01*
X05213Y03772D02*
X05246Y03805D01*
X05244Y03886D02*
X05301D01*
X05581Y03883D02*
X05633Y03935D01*
X05454Y03883D02*
X05581D01*
X05198Y03933D02*
X05244Y03886D01*
X04803Y03542D02*
X05217D01*
X048Y03539D02*
X04803Y03542D01*
X03985Y04783D02*
X05574D01*
X05659Y04698*
X02864Y04153D02*
X02892Y04181D01*
X02761Y04153D02*
X02864D01*
X03193Y04277D02*
Y04337D01*
Y04192D02*
Y04277D01*
Y04107D02*
Y04192D01*
Y04022D02*
Y04107D01*
Y03937D02*
Y04022D01*
Y03852D02*
Y03937D01*
X02886Y04075D02*
X02896Y04086D01*
X03121Y0441D02*
X03193Y04337D01*
X02857Y0441D02*
X03121D01*
X02815Y04452D02*
X02857Y0441D01*
X02789Y04452D02*
X02815D01*
X02688Y05327D02*
X02755Y05394D01*
X02688Y04975D02*
Y05327D01*
X06011Y04515D02*
X06111D01*
X05965Y04562D02*
X06011Y04515D01*
X05714Y04562D02*
X05965D01*
X05714Y04561D02*
X05714Y04562D01*
X04739Y03933D02*
X05198D01*
X04637Y0403D02*
X04689Y03978D01*
X04687Y03985D02*
X04739Y03933D01*
X04544Y0402D02*
X0463Y03933D01*
X05027Y04228D02*
X05029Y04227D01*
X04379Y04228D02*
X05027D01*
X04264D02*
X04379D01*
X04282Y04101D02*
X04336Y04155D01*
X04379Y04191D02*
Y04228D01*
X04344Y04155D02*
X04379Y04191D01*
X04336Y04155D02*
X04344D01*
X04282Y04066D02*
Y04101D01*
X04213Y04278D02*
Y04377D01*
X04213Y04377*
X04218Y04274D02*
X04264Y04228D01*
X04741Y05581D02*
X04767Y05555D01*
X04729Y06113D02*
X04755Y06088D01*
X04778*
X03805Y03415D02*
X03855Y03365D01*
X02778Y05781D02*
X02836Y05722D01*
X03061Y06113D02*
X04729D01*
X03061D02*
Y06115D01*
X03022Y06153D02*
X03061Y06115D01*
X02836Y05722D02*
X03419D01*
X04637Y0403D02*
Y0404D01*
X04213Y04278D02*
D01*
X04213Y04278D02*
X04213Y04278D01*
X03833Y0429D02*
X04201D01*
X04213Y04278*
X04151Y04459D02*
Y0446D01*
X04031Y05465D02*
X04031Y05464D01*
X03716D02*
X04031D01*
X04031Y05465D02*
X04053D01*
X03426Y05724D02*
X03718D01*
X0304Y05574D02*
X03352D01*
X03033Y05568D02*
X0304Y05574D01*
X02831Y04692D02*
X03019D01*
X02688Y04875D02*
X03893D01*
X03985Y04783*
X02836Y04828D02*
X0284Y04833D01*
X03319*
X03323Y04837*
X0302Y05202D02*
X03021Y05201D01*
X03325*
X02919Y052D02*
X03028D01*
X04486Y05779D02*
X04492Y05785D01*
X02745Y06258D02*
X04788D01*
X03874Y05651D02*
X03908Y05617D01*
X04772*
X0478Y05608*
X03874Y05608D02*
X039Y05581D01*
X04741*
X0392Y06322D02*
X03922Y06325D01*
X0367Y06322D02*
X0392D01*
X03613Y05779D02*
X04486D01*
X02766Y06086D02*
X03063D01*
X02766D02*
X02767Y06087D01*
X02779*
X03621Y06292D02*
X03905D01*
X03619Y06294D02*
X03621Y06292D01*
X04674Y05003D02*
X0471Y04968D01*
X04718D02*
X04781D01*
X0417Y04419D02*
Y04432D01*
X04213Y04389*
Y04377D02*
Y04389D01*
X02886Y04075D02*
D01*
X02651D02*
X02886D01*
G54D11*
X03042Y04277D02*
D01*
D01*
G75*
G03X03039Y04276I0J-00004D01*
G74*G01*
X0457Y03572D02*
X04614Y03615D01*
X02916Y05823D02*
X03187D01*
X02908Y05831D02*
X02916Y05823D01*
X0293Y05935D02*
X02981Y05986D01*
X02914Y05887D02*
X03141D01*
X037Y03479D02*
X04241D01*
X03614Y03394D02*
X037Y03479D01*
X03614Y03299D02*
Y03394D01*
X03523Y03307D02*
Y03327D01*
X03692Y03496*
X04328*
X02863Y03323D02*
X02924D01*
X02993Y03254*
X05357Y03294D02*
X05374Y03311D01*
X04187Y04108D02*
X0429Y04005D01*
X04354*
X04367Y04018*
X05425Y03428D02*
Y03487D01*
X05369Y03543D02*
X05425Y03487D01*
X05399Y03428D02*
Y03475D01*
X05378Y03497D02*
X05399Y03475D01*
X05457Y03654D02*
X05468D01*
X05425Y03622D02*
X05457Y03654D01*
X05425Y0361D02*
Y03622D01*
X05366Y03655D02*
X05399Y03622D01*
X05425Y0361D02*
X05425Y0361D01*
Y03573D02*
Y0361D01*
X05399Y03573D02*
Y03622D01*
X05369Y03543D02*
Y03594D01*
X05167Y03779D02*
X05172Y03783D01*
X05178Y03484D02*
X0519Y03472D01*
X05149Y03484D02*
X05178D01*
X0527Y03468D02*
X05298Y03497D01*
X05378*
X05198Y03479D02*
X0526D01*
X0519Y03472D02*
X05198Y03479D01*
X041Y05171D02*
X04351D01*
X03987Y05257D02*
X04018Y05226D01*
X04044*
X041Y05171*
X046Y04565D02*
Y04744D01*
X04208Y0482D02*
X04626D01*
X02989Y03901D02*
X03038Y03852D01*
X03113*
X02763Y03936D02*
X03112D01*
X03113Y03937*
X02757Y03942D02*
X02763Y03936D01*
X03026Y04142D02*
X03077D01*
X02819Y04228D02*
X03077D01*
X03113Y04191*
X02785Y04262D02*
X02819Y04228D01*
X03042Y04277D02*
X03113D01*
X04367Y04018D02*
X04542D01*
X04312Y04044D02*
X04329D01*
X03717Y03982D02*
X04365D01*
X0371Y03965D02*
X04361D01*
X03007Y04498D02*
X03008Y04497D01*
X03996Y04432D02*
X04017Y04453D01*
X02724Y04574D02*
X02866Y04432D01*
X0372Y04483D02*
X03792Y04556D01*
X03025Y04483D02*
X0372D01*
X0301Y04499D02*
X03025Y04483D01*
X03729Y04466D02*
X03765Y04502D01*
X0288Y04466D02*
X03729D01*
X02736Y04611D02*
X0288Y04466D01*
X03736Y04449D02*
X03759Y04472D01*
X02873Y04449D02*
X03736D01*
X02688Y04634D02*
X02873Y04449D01*
X02866Y04432D02*
X03996D01*
X04474Y04947D02*
X0449D01*
X04404Y05016D02*
X04474Y04947D01*
X0413Y04898D02*
X04208Y0482D01*
X04387Y04351D02*
X046Y04565D01*
X04439Y04429D02*
X04566Y04556D01*
Y04714*
X04368Y04675D02*
X04525D01*
X03309Y03448D02*
X03329D01*
X03369Y03487*
X03497*
X02959Y03514D02*
X04688D01*
X02971Y03533D02*
X04648D01*
X03027Y0355D02*
X04625D01*
X04542Y04018D02*
X04544Y0402D01*
X0439Y03972D02*
X04396Y03966D01*
X04389Y03971D02*
X0439Y03972D01*
X04389Y03966D02*
Y03971D01*
X04382Y03964D02*
X04395D01*
X04382Y03964D02*
X04382Y03964D01*
X04362Y03964D02*
X04382D01*
X04361Y03965D02*
X04362Y03964D01*
X04372Y03988D02*
X04372D01*
X04365Y03982D02*
X04372Y03988D01*
X04187Y04108D02*
Y04129D01*
X04572Y04071D02*
X0458Y04079D01*
X04561Y04071D02*
X04572D01*
X04546Y04057D02*
X04561Y04071D01*
X04546Y04023D02*
Y04057D01*
X04544Y0402D02*
X04546Y04023D01*
X04505Y03972D02*
X0452Y03987D01*
X04505Y03892D02*
Y03972D01*
Y03892D02*
X04627Y03771D01*
X0462Y03754D02*
X05071D01*
X04481Y03893D02*
Y03986D01*
Y03893D02*
X0462Y03754D01*
X04627Y03771D02*
X05027D01*
X05071Y03754D02*
X05172Y03855D01*
X05027Y03771D02*
X05103Y03846D01*
X04355Y03807D02*
X04425Y03737D01*
X04725Y04202D02*
X05193D01*
X05223Y04177D02*
X05227Y04173D01*
X05193Y04202D02*
X05221Y04174D01*
X04694Y04171D02*
X04725Y04202D01*
X03985Y04331D02*
X03993Y04323D01*
X04329Y04044D02*
X04388Y04103D01*
X04241Y04429D02*
X04265D01*
X04203Y04467D02*
X04241Y04429D01*
X04178Y04483D02*
X04186D01*
X04194Y04475*
X04392Y04381D02*
X04439Y04428D01*
X04348Y04381D02*
X04392D01*
X04319Y04351D02*
X04387D01*
X04673Y04257D02*
X04688Y04273D01*
X05045Y05462D02*
Y0548D01*
X05049*
X05422Y05565D02*
Y05581D01*
X05155Y06172D02*
X05545D01*
X04753Y06192D02*
X04768Y06207D01*
X05052*
X05052Y06207*
X0512*
X05155Y06172*
X0506Y05722D02*
X05564D01*
X04779Y05764D02*
X05019D01*
X0506Y05722*
X05066Y06239D02*
Y0625D01*
X05085Y06269*
X05155*
X05202Y06222*
X05403*
X05412Y06213*
X0514Y06237D02*
X05179Y06198D01*
X05372*
X0512Y05705D02*
X05477D01*
X05103Y05697D02*
X05112D01*
X0512Y05705*
X05477D02*
X05491Y05691D01*
X05495*
X05488Y05739D02*
X05503Y05754D01*
X051Y05739D02*
X05488D01*
X05062Y05777D02*
X051Y05739D01*
X04765Y05961D02*
X04774Y0597D01*
X04524Y05961D02*
X04765D01*
X04729Y05683D02*
X04731Y05681D01*
X04604Y05683D02*
X04729D01*
X03004Y06479D02*
X0325D01*
X02992Y06467D02*
X03004Y06479D01*
X02866Y04575D02*
X02868Y04573D01*
X03037*
X02993Y03254D02*
X04244D01*
X04305Y03315*
X04026Y04168D02*
X04211D01*
X03961Y04103D02*
X04026Y04168D01*
X03703Y04103D02*
X03961D01*
X03655Y03969D02*
X03663Y03978D01*
X05564Y05722D02*
X05566Y05724D01*
X04243Y0429D02*
X04243Y0429D01*
X04052Y04414D02*
X0406D01*
X04028Y0439D02*
X04052Y04414D01*
X04089Y04409D02*
X041D01*
X04054Y04373D02*
X04089Y04409D01*
X03662Y04143D02*
X03703Y04103D01*
X04199Y04216D02*
X04234D01*
X04185Y04202D02*
X04199Y04216D01*
X04241Y03479D02*
X04305Y03415D01*
X04328Y03496D02*
X04405Y03419D01*
Y03415D02*
Y03419D01*
X04648Y03533D02*
X04664Y0355D01*
X0464Y03566D02*
Y03585D01*
X04625Y0355D02*
X0464Y03566D01*
X03009Y03631D02*
X03068Y03572D01*
X02818Y03631D02*
X03009D01*
X02774Y03587D02*
X02818Y03631D01*
X03068Y03572D02*
X0457D01*
X02986Y03592D02*
X03027Y0355D01*
X02914Y0359D02*
X02971Y03533D01*
X02878Y03551D02*
X02922D01*
X02842Y03587D02*
X02878Y03551D01*
X02922D02*
X02959Y03514D01*
X03548Y04387D02*
X03555D01*
X03576Y04407*
X04017Y04453D02*
X04091D01*
X03576Y04407D02*
X04012D01*
X03765Y04502D02*
X03833D01*
X03759Y04472D02*
X03776D01*
X02688Y04634D02*
Y04675D01*
X02736Y04611D02*
Y04727D01*
X02688Y04775D02*
X02736Y04727D01*
X02689Y04574D02*
X02724D01*
X02688Y04575D02*
X02689Y04574D01*
X03141Y05887D02*
X03159Y05868D01*
X03435Y05866D02*
X03637D01*
X03644Y05873*
X03041Y0531D02*
Y05331D01*
X04137Y05144D02*
X04139Y05142D01*
X04275*
X03833Y04502D02*
X03866Y04469D01*
X03623Y04357D02*
X03638Y04373D01*
X04054*
X05117Y0547D02*
X05144Y05444D01*
X053*
X05422Y05565*
X0508Y05427D02*
X05307D01*
X05045Y05462D02*
X0508Y05427D01*
X05307D02*
X05463Y05583D01*
X03122Y06432D02*
X032D01*
X04003Y0496D02*
X04047Y05003D01*
X03211Y06058D02*
X03216Y06063D01*
X02917Y06058D02*
X03211D01*
X0291Y06051D02*
X02917Y06058D01*
X03663Y03978D02*
X03697D01*
X05172Y03783D02*
X05174D01*
X04571Y04047D02*
X04591Y04027D01*
X04636*
X0463Y03933D02*
X04636D01*
X03581Y04375D02*
X03596Y0439D01*
X04028*
X0357Y04329D02*
X03572Y04331D01*
X03985*
X03755Y04237D02*
X0379Y04202D01*
X04185*
X04312Y04307D02*
X05127D01*
X04304Y04314D02*
X04312Y04307D01*
X04264Y04191D02*
X04266Y04194D01*
X04224Y04191D02*
X04264D01*
X04223Y04192D02*
X04224Y04191D01*
X04201Y04192D02*
X04223D01*
X04193Y04185D02*
X04201Y04192D01*
X03677Y04237D02*
X03729Y04185D01*
X04193*
X0423Y03716D02*
X04309D01*
X04205Y03741D02*
X0423Y03716D01*
X03312Y03741D02*
X04205D01*
X03222Y03651D02*
X03312Y03741D01*
X04149Y03875D02*
X04214D01*
X04249Y0384*
X03622Y03995D02*
X03704D01*
X04395Y03964D02*
X04396Y03966D01*
X03697Y03978D02*
X0371Y03965D01*
X03704Y03995D02*
X03717Y03982D01*
X0442Y03942D02*
X04421Y03941D01*
X03685Y0395D02*
X03693Y03942D01*
X03694Y03942*
X0442*
X04425Y03737D02*
X05077D01*
X05127Y03786*
X0516*
X04151Y04459D02*
X0417Y04439D01*
X04688Y04273D02*
X05208D01*
X0517Y0429D02*
X05182Y04301D01*
X04243Y0429D02*
X0517D01*
X04895Y04395D02*
X05301D01*
X05302Y04396*
X05208Y04273D02*
X05235Y043D01*
X05688Y05277D02*
Y05287D01*
X048Y05231D02*
X05643D01*
X05688Y05277*
X04892Y05283D02*
X04914Y05261D01*
X05638*
X05744Y05612D02*
X058Y05667D01*
X05744Y05478D02*
Y05612D01*
X058Y05667D02*
X06063D01*
X06111Y05715*
X0574Y05372D02*
Y05409D01*
X05794Y05462*
X06032*
X06059Y05489*
Y05562*
X06111Y05615*
X0325Y06479D02*
X03276Y06453D01*
Y06447D02*
Y06453D01*
X03243Y06423D02*
X03424D01*
X03276Y06447D02*
X03277Y06446D01*
X03424*
X03221Y06445D02*
X03243Y06423D01*
X04022Y06417D02*
X04093D01*
X04015Y06434D02*
X041D01*
X04109Y06401D02*
X04334D01*
X04116Y06418D02*
X04286D01*
X041Y06434D02*
X04116Y06418D01*
X04286D02*
X04314Y06446D01*
X04093Y06417D02*
X04109Y06401D01*
X04334D02*
X04359Y06426D01*
X03052Y05036D02*
X03054Y05033D01*
X03039Y05036D02*
X03052D01*
X02921Y04941D02*
X03039D01*
X03653Y04644D02*
X03796D01*
X03596Y04588D02*
X03653Y04644D01*
X03299Y04588D02*
X03596D01*
X03289Y04578D02*
X03299Y04588D01*
X03671Y04602D02*
X03793D01*
X03626Y04557D02*
X03671Y04602D01*
X03616Y04547D02*
X03626Y04557D01*
X03316Y04547D02*
X03616D01*
X03288Y0452D02*
X03316Y04547D01*
X03077Y04142D02*
X03113Y04105D01*
X03021Y0407D02*
X03062D01*
X03113Y04019*
X03293Y04952D02*
X0359D01*
X03288Y04943D02*
X03296Y04952D01*
X02982Y0539D02*
X03041Y05331D01*
X02917Y04938D02*
X02921Y04941D01*
X0294Y05033D02*
X03054D01*
X03212Y05646D02*
X03264Y05697D01*
X03629Y05592D02*
X0363Y05593D01*
X03312Y05646D02*
Y05647D01*
X03597Y05542D02*
X03603D01*
X03574Y05575D02*
X03597Y05551D01*
X03112Y05646D02*
X03159Y05599D01*
X03597Y05542D02*
Y05551D01*
X03159Y05599D02*
X03342D01*
X03342Y05599*
X03362*
X03363Y05599*
X03312Y05646D02*
X03338Y0562D01*
X03346Y05697D02*
X03406Y05637D01*
X03264Y05697D02*
X03346D01*
X0329Y05305D02*
X03296Y05311D01*
X03597*
X03438Y05253D02*
X03442Y05257D01*
X03624*
X03793Y04734D02*
X03796Y04732D01*
X02965Y04734D02*
X03793D01*
X02961Y04731D02*
X02965Y04734D01*
X03452Y04913D02*
X03629D01*
X02918Y04803D02*
X03116D01*
X03625Y05828D02*
X04298D01*
X02925Y0576D02*
X02937Y05748D01*
X04119Y06487D02*
X04164Y06442D01*
X03424Y06446D02*
X03465Y06487D01*
X04119*
X04103Y06465D02*
X04117Y06452D01*
X03424Y06423D02*
X03467Y06465D01*
X03473Y06437D02*
X03477Y06441D01*
X03467Y06465D02*
X04103D01*
X03477Y06441D02*
X03482Y06436D01*
X0397*
X03949Y06406D02*
X03952Y06409D01*
X03961Y06379D02*
X04015Y06434D01*
X03226Y06406D02*
X03949D01*
X032Y06432D02*
X03226Y06406D01*
X03957Y06351D02*
X04022Y06417D01*
X03955Y06353D02*
X03957Y06351D01*
X03951Y06353D02*
X03955D01*
X04032Y06391D02*
X04059D01*
X03965Y06325D02*
X03969D01*
X04072Y05748D02*
X04077Y05744D01*
X03965Y06325D02*
X04032Y06391D01*
X02937Y05748D02*
X04072D01*
X02981Y05986D02*
X03619D01*
X03628Y05994*
X04087Y06019D02*
X04094Y06011D01*
X02945Y06009D02*
X02955Y06019D01*
X04087*
X03518Y05637D02*
X03538Y05616D01*
X03406Y05637D02*
X03518D01*
X03338Y0562D02*
X03494D01*
X03522Y05592*
X03629*
X03515Y05575D02*
X03574D01*
X03491Y05599D02*
X03515Y05575D01*
X03363Y05599D02*
X03491D01*
X03222Y06379D02*
X03961D01*
X04404Y05016D02*
Y05024D01*
X04356Y05003D02*
X04361Y04999D01*
D01*
X04047Y05003D02*
X04356D01*
X04222Y05075D02*
X0436D01*
X04626Y0482D02*
X047Y04894D01*
X04782Y0504D02*
Y05089D01*
X04674Y05051D02*
X04684Y0504D01*
X04781Y04968D02*
X04783Y04966D01*
X0471Y04968D02*
X04718D01*
X04684Y0504D02*
X04782D01*
G54D12*
X05884Y03455D03*
X04485Y05389D03*
X05872Y06454D03*
G54D13*
X03193Y04277D03*
X03113D03*
X03193Y04192D03*
X03113D03*
X03193Y04107D03*
X03113D03*
X03193Y03852D03*
X03113D03*
X03193Y03937D03*
X03113D03*
X03193Y04022D03*
X03113D03*
G54D14*
X0519Y03472D03*
Y03399D03*
X0555Y03691D03*
Y03619D03*
X02836Y04079D03*
Y04152D03*
X04718Y05041D03*
Y04968D03*
X04288Y04999D03*
Y05072D03*
G54D26*
X0543Y03359D03*
X05358D03*
G54D27*
X05357Y03294D03*
X0543D03*
G54D29*
X05262Y03471D03*
Y03391D03*
G54D30*
X02761Y04153D03*
Y0408D03*
X04222Y05075D03*
Y05002D03*
X04783Y04966D03*
Y0504D03*
G54D33*
X04289Y04108D03*
X04341Y04056D03*
G54D51*
X05374Y03311D02*
Y03428D01*
G54D54*
X0455Y03777D03*
X05094Y03456D03*
X05117Y0547D03*
X0505Y05464D03*
X04753Y06192D03*
X02774Y03587D03*
X02842Y03587D03*
X02986Y03592D03*
X04548Y04894D03*
X02914Y0359D03*
X02987Y03671D03*
X03883Y04235D03*
X04477Y05035D03*
X04472Y05102D03*
X0516Y03786D03*
X05146Y0578D03*
X04298Y05828D03*
X03763Y05861D03*
X0514Y06237D03*
X04779Y05764D03*
X05062Y05777D03*
X03422Y05866D03*
X05066Y06239D03*
X03677Y04143D03*
X03754D03*
X03677Y04237D03*
X03755D03*
X03819Y04143D03*
X03883D03*
X03947D03*
X03819Y04237D03*
X03947D03*
X05172Y03855D03*
X05103Y03861D03*
X05018Y04471D03*
X04952Y04474D03*
X04025Y04542D03*
X0414Y04607D03*
X0442Y04857D03*
X0462Y05193D03*
X04685Y05192D03*
X04702Y05109D03*
X03772Y04688D03*
G54D55*
X04377Y05683D03*
X02911Y06642D03*
X04783Y06266D03*
G54D56*
X02739Y06568D03*
X06112Y06417D03*
X02739Y03417D03*
X06112Y03516D03*
G54D57*
X05639Y03623D03*
Y03723D03*
X04087Y05259D03*
X03322Y03651D03*
X03222D03*
X02688Y04875D03*
Y04775D03*
Y04675D03*
Y04575D03*
Y04475D03*
X06111Y03815D03*
X06011D03*
X06111Y03915D03*
X06011D03*
X06111Y04015D03*
X06011D03*
X06111Y04115D03*
X06011D03*
X06111Y04215D03*
X06011D03*
X06111Y04315D03*
X06011D03*
X06111Y04415D03*
X06011D03*
X06111Y04515D03*
X06011D03*
X06111Y04615D03*
X06011D03*
X06111Y04715D03*
X06011D03*
X06111Y04815D03*
X06011D03*
X06111Y04915D03*
X06011D03*
X06111Y05015D03*
X06011D03*
X06111Y05115D03*
X06011D03*
X06111Y05215D03*
X06011D03*
X06111Y05315D03*
X06011D03*
X06111Y05415D03*
X06011Y05414D03*
X06111Y05515D03*
X06011D03*
X06111Y05615D03*
X06011D03*
X06111Y05715D03*
X06011D03*
X06111Y05815D03*
X06011D03*
X06111Y05915D03*
X06011D03*
X06111Y06015D03*
X06011D03*
X06111Y06115D03*
X06011D03*
X06111Y06215D03*
X06011Y03715D03*
X06111D03*
X05911D03*
X05811D03*
X05911Y06215D03*
X05811Y06115D03*
X05911D03*
X05811Y06015D03*
X05911D03*
X05811Y05915D03*
X05911D03*
X05811Y05815D03*
X05911D03*
X05811Y05715D03*
X05911D03*
X05811Y05615D03*
X05911D03*
X05811Y05515D03*
X05911D03*
X05811Y05414D03*
X05911Y05415D03*
X05811Y05315D03*
X05911D03*
X05811Y05215D03*
X05911D03*
X05811Y05115D03*
X05911D03*
X05811Y05015D03*
X05911D03*
X05811Y04915D03*
X05911D03*
X05811Y04815D03*
X05911D03*
X05811Y04715D03*
X05911D03*
X05811Y04615D03*
X05911D03*
X05811Y04515D03*
X05911D03*
X05811Y04415D03*
X05911D03*
X05811Y04315D03*
X05911D03*
X05811Y04215D03*
X05911D03*
X05811Y04115D03*
X05911D03*
X05811Y04015D03*
X05911D03*
X05811Y03915D03*
X05911D03*
X05811Y03815D03*
X05911D03*
X03514Y03299D03*
X03414D03*
X03314D03*
X04405Y03415D03*
Y03315D03*
X04305Y03415D03*
Y03315D03*
X04205Y03415D03*
Y03315D03*
X04105Y03415D03*
Y03315D03*
X04005Y03415D03*
Y03315D03*
X03905Y03415D03*
Y03315D03*
X03805Y03415D03*
G54D58*
X05639Y03823D03*
X02688Y04975D03*
X06011Y06215D03*
X05811D03*
G54D59*
X03987Y05259D03*
X03122Y03651D03*
X03614Y03299D03*
X03805Y03315D03*
G54D60*
X03312Y05646D03*
X03212D03*
G54D61*
X03112Y05646D03*
G54D62*
X04754Y03575D03*
X04807Y03438D03*
X04658Y03318D03*
X04537Y03608D03*
X04614Y03615D03*
X05084Y0363D03*
X0293Y05935D03*
X02863Y03323D03*
X05296Y0329D03*
X05514Y03415D03*
X0554Y03491D03*
X05543Y03787D03*
X0526Y03691D03*
X05148Y0348D03*
X05213Y03772D03*
X05217Y03542D03*
X048Y03539D03*
X05478Y03294D03*
X046Y04744D03*
X03435Y06203D03*
X03786Y06352D03*
X03709Y06203D03*
X03316Y06205D03*
X03932Y03868D03*
X04079Y04931D03*
X04053Y05183D03*
X03729Y03415D03*
X04902Y0397D03*
X05218D03*
X0506D03*
X05139D03*
X04981D03*
X02988Y03902D03*
X03045Y03938D03*
X02757Y03942D03*
X03026Y04142D03*
X02896Y04086D03*
X03038Y04228D03*
X02785Y04262D03*
X03039Y04276D03*
X05014Y03805D03*
X04312Y04044D03*
X02789Y04452D03*
X04566Y04714D03*
X04368Y04675D03*
X04526Y04676D03*
X05714Y04561D03*
X03309Y03448D03*
X05217Y03831D03*
X05135Y03721D03*
X05279Y03342D03*
X05375Y038D03*
X05091Y033D03*
X04372Y03988D03*
X05029Y04227D03*
X0364Y03602D03*
X03822Y04299D03*
X0428Y04055D03*
X04151Y0446D03*
X04178Y04483D03*
X04348Y04381D03*
X04319Y04351D03*
X04673Y04257D03*
X03153Y03597D03*
X05422Y05581D03*
X05372Y06198D03*
X05412Y06213D03*
X04774Y0597D03*
X04524Y05961D03*
X04892Y05283D03*
X04604Y05683D03*
X04778Y06088D03*
X04762Y0614D03*
X04767Y05555D03*
X0478Y05608D03*
X04731Y05681D03*
X048Y05231D03*
X03288Y0452D03*
X04314Y06446D03*
X03187Y05823D03*
X03221Y06445D03*
X02992Y06467D03*
X03041Y0531D03*
X02866Y04575D03*
X03037Y04573D03*
X03497Y03487D03*
X0301Y04499D03*
X04359Y06426D03*
X03122Y06432D03*
X03473Y06437D03*
X03625Y05828D03*
X03644Y05873D03*
X03866Y04469D03*
X03793Y04602D03*
X03796Y04644D03*
X03796Y04732D03*
X03645Y03959D03*
X03622Y03995D03*
X03623Y04357D03*
X03581Y04375D03*
X0357Y04329D03*
X04396Y03966D03*
X04421Y03941D03*
X04694Y04171D03*
X05221Y04174D03*
X05103Y05697D03*
X05566Y05724D03*
X05545Y06172D03*
X05503Y05754D03*
X05495Y05691D03*
X05463Y05583D03*
X04304Y04314D03*
X04243Y0429D03*
X03993Y04323D03*
X04018Y04414D03*
X041Y04409D03*
X0406Y04414D03*
X04234Y04216D03*
X04266Y04194D03*
X04211Y04168D03*
X04309Y03716D03*
X0452Y03987D03*
X04481Y03986D03*
X04355Y03807D03*
X0464Y03585D03*
X04664Y0355D03*
X04688Y03514D03*
X0294Y05033D03*
X02917Y04938D03*
X02918Y04803D03*
X04091Y04453D03*
X03548Y04387D03*
X03776Y04472D03*
X03792Y04556D03*
X03159Y05868D03*
X02914Y05887D03*
X03685Y0395D03*
X0291Y06051D03*
X02924Y05772D03*
X02942Y06011D03*
X03293Y05302D03*
X03538Y05616D03*
X04351Y05171D03*
X04275Y05142D03*
X04144Y05141D03*
X0449Y04947D03*
X04003Y0496D03*
X0413Y04898D03*
X03718Y05724D03*
X02776Y0578D03*
X0307Y05715D03*
X03065Y06083D03*
X03015Y06159D03*
X03035Y06196D03*
X02733Y06259D03*
X03158Y06248D03*
X03216Y06063D03*
X03478Y06259D03*
X04346Y06261D03*
X03426Y05716D03*
X03603Y05786D03*
X03019Y04687D03*
X04187Y04129D03*
X05633Y03935D03*
X04544Y0402D03*
X04571Y04047D03*
X0458Y04079D03*
X04249Y0384D03*
X04149Y03875D03*
X04112Y04016D03*
X03966Y03824D03*
X04015Y03778D03*
X0388Y03916D03*
X0406Y05472D03*
X03716Y05464D03*
X04895Y04395D03*
X056Y04523D03*
X05232Y04302D03*
X05181Y04305D03*
X05138Y04317D03*
X05303Y04393D03*
X05744Y05478D03*
X0574Y05372D03*
X05688Y05287D03*
X05638Y05261D03*
X02908Y05831D03*
X03276Y06447D03*
X04117Y06452D03*
X04164Y06442D03*
X03288Y04943D03*
X03039Y05036D03*
Y04941D03*
X03289Y04578D03*
X0363Y05593D03*
X03603Y05542D03*
X03626Y04557D03*
X03596Y04588D03*
X03021Y0407D03*
X0359Y04952D03*
X03629Y04913D03*
X03437Y04908D03*
X03116Y04798D03*
X02982Y0539D03*
X03438Y05253D03*
X03597Y05311D03*
X03624Y05257D03*
X03323Y04837D03*
X03325Y05201D03*
X03352Y05574D03*
X03033Y05568D03*
X02956Y04735D03*
X02831Y04692D03*
X02836Y04828D03*
X0302Y05202D03*
X02919Y052D03*
X02898Y04187D03*
X04492Y05785D03*
X04246Y05775D03*
X04094Y06011D03*
X041Y06252D03*
X04059Y06391D03*
X0397Y06436D03*
X03952Y06409D03*
X03418Y06381D03*
X03222Y06379D03*
X03951Y06353D03*
X03969Y06325D03*
X03874Y05651D03*
X03874Y05608D03*
X03668Y06325D03*
X03619Y06294D03*
X04077Y05744D03*
X03922Y06325D03*
X03905Y06292D03*
X03911Y05781D03*
X03628Y05994D03*
X02779Y06087D03*
X04404Y05024D03*
X04367Y05082D03*
X04361Y04999D03*
X04696Y04894D03*
X04782Y05089D03*
X04674Y05051D03*
X04674Y05003D03*
X04249Y05046D03*
X04478Y03283D03*
X02651Y04075D03*
G54D63*
X05624Y03362D03*
X05751Y03591D03*
X05156Y03305D03*
X04385Y03659D03*
X04774Y0587D03*
X05221Y06372D03*
X04793Y05408D03*
X04172Y05518D03*
X03376Y06627D03*
X0427Y06629D03*
X02724Y05922D03*
X02882Y03868D03*
X0347Y04097D03*
X03948Y03672D03*
X03909Y03815D03*
X04516Y04135D03*
X04509Y04375D03*
X05049Y04555D03*
X054Y04446D03*
X0529Y04934D03*
X04902Y05557D03*
X05296Y03959D03*
X05622Y04257D03*
X02744Y05385D03*
X05659Y04698D03*
X04975Y06054D03*
Y05997D03*
X04908D03*
X04975Y06111D03*
Y06169D03*
X04908D03*
X04902Y05612D03*
X04973Y05612D03*
Y05557D03*
Y05668D03*
X04902Y05667D03*
X04973Y05724D03*
X04902Y05722D03*
X04908Y06111D03*
X03508Y05518D03*
X03265Y03984D03*
X04908Y06054D03*
X03788Y05647D03*
X057Y04012D03*
G54D64*
X03234Y05256D03*
X0324Y04922D03*
G54D65*
X05425Y03587D03*
X05399D03*
X05348D03*
X05374D03*
X05348Y03428D03*
X05374D03*
X05399D03*
X05425D03*
G54D66*
X05454Y03883D03*
X05382D03*
G54D67*
X05302Y03885D03*
Y03759D03*
X05537Y03883D03*
Y04009D03*
G54D68*
X04585Y03975D03*
X04636Y04027D03*
X04265Y04429D03*
X04213Y04377D03*
G54D69*
X04687Y03985D03*
X04636Y03933D03*
X0417Y04419D03*
X04221Y0447D03*
G54D70*
X04388Y04103D03*
X04336Y04155D03*
G54D71*
X05343Y03658D03*
Y03696D03*
X05478Y03657D03*
Y03695D03*
M02*