%FSTAX23Y23*%
%MOIN*%
%SFA1B1*%

%IPPOS*%
%AMD31*
4,1,4,-0.004200,0.031900,-0.031900,0.004200,0.004200,-0.031900,0.031900,-0.004200,-0.004200,0.031900,0.0*
%
%AMD32*
4,1,4,-0.031200,-0.002700,-0.001600,-0.031300,0.031200,0.002700,0.001600,0.031300,-0.031200,-0.002700,0.0*
%
%AMD33*
4,1,4,-0.031300,-0.002100,-0.002100,-0.031300,0.031300,0.002100,0.002100,0.031300,-0.031300,-0.002100,0.0*
%
%AMD45*
4,1,4,0.016000,-0.024300,0.024300,-0.016000,-0.016000,0.024300,-0.024300,0.016000,0.016000,-0.024300,0.0*
1,1,0.011810,0.020200,-0.020200*
1,1,0.011810,-0.020200,0.020200*
%
%AMD46*
4,1,4,-0.024300,-0.016000,-0.016000,-0.024300,0.024300,0.016000,0.016000,0.024300,-0.024300,-0.016000,0.0*
1,1,0.011810,-0.020200,-0.020200*
1,1,0.011810,0.020200,0.020200*
%
%AMD47*
4,1,8,0.019700,-0.009800,0.019700,0.009800,0.017700,0.011800,-0.017700,0.011800,-0.019700,0.009800,-0.019700,-0.009800,-0.017700,-0.011800,0.017700,-0.011800,0.019700,-0.009800,0.0*
1,1,0.004020,0.017700,-0.009800*
1,1,0.004020,0.017700,0.009800*
1,1,0.004020,-0.017700,0.009800*
1,1,0.004020,-0.017700,-0.009800*
%
%ADD10C,0.020000*%
%ADD11C,0.010000*%
%ADD12C,0.032000*%
%ADD13R,0.047240X0.060000*%
%ADD14R,0.047240X0.041340*%
%ADD15R,0.020000X0.050000*%
%ADD16R,0.060000X0.060000*%
%ADD17R,0.062990X0.031500*%
%ADD18R,0.118110X0.078740*%
%ADD19R,0.048820X0.031500*%
%ADD20R,0.047240X0.031500*%
%ADD21R,0.086610X0.045280*%
%ADD22R,0.045280X0.059060*%
%ADD23R,0.086610X0.037400*%
%ADD24R,0.098430X0.037400*%
%ADD25R,0.040000X0.060000*%
%ADD26R,0.041340X0.047240*%
%ADD27R,0.047240X0.047240*%
%ADD28R,0.060000X0.040000*%
%ADD29R,0.060000X0.047240*%
%ADD30R,0.047240X0.047240*%
G04~CAMADD=31~9~0.0~0.0~393.7~511.8~0.0~0.0~0~0.0~0.0~0.0~0.0~0~0.0~0.0~0.0~0.0~0~0.0~0.0~0.0~45.0~638.0~637.0*
%ADD31D31*%
G04~CAMADD=32~9~0.0~0.0~413.4~472.4~0.0~0.0~0~0.0~0.0~0.0~0.0~0~0.0~0.0~0.0~0.0~0~0.0~0.0~0.0~136.0~624.0~625.0*
%ADD32D32*%
G04~CAMADD=33~9~0.0~0.0~413.4~472.4~0.0~0.0~0~0.0~0.0~0.0~0.0~0~0.0~0.0~0.0~0.0~0~0.0~0.0~0.0~135.0~626.0~625.0*
%ADD33D33*%
%ADD34O,0.023620X0.086610*%
%ADD35R,0.041340X0.031500*%
%ADD36R,0.019690X0.009840*%
%ADD37R,0.009840X0.019690*%
%ADD38R,0.039370X0.039370*%
%ADD39R,0.031500X0.062990*%
%ADD40R,0.078740X0.118110*%
%ADD41R,0.086610X0.027560*%
%ADD42R,0.096850X0.090950*%
%ADD43O,0.062990X0.013780*%
%ADD44R,0.062990X0.013780*%
G04~CAMADD=45~3~0.0~0.0~118.1~689.0~0.0~0.0~0~0.0~0.0~0.0~0.0~0~0.0~0.0~0.0~0.0~0~0.0~0.0~0.0~225.0~520.0~520.0*
%ADD45D45*%
G04~CAMADD=46~3~0.0~0.0~118.1~689.0~0.0~0.0~0~0.0~0.0~0.0~0.0~0~0.0~0.0~0.0~0.0~0~0.0~0.0~0.0~135.0~520.0~520.0*
%ADD46D46*%
G04~CAMADD=47~8~0.0~0.0~236.2~393.7~20.1~0.0~15~0.0~0.0~0.0~0.0~0~0.0~0.0~0.0~0.0~0~0.0~0.0~0.0~270.0~394.0~237.0*
%ADD47D47*%
%ADD48R,0.068900X0.062990*%
%ADD49O,0.007870X0.027560*%
%ADD50O,0.027560X0.007870*%
%ADD51C,0.015000*%
%ADD52C,0.008000*%
%ADD53C,0.009000*%
%ADD54C,0.040000*%
%ADD55C,0.060000*%
%ADD56C,0.153540*%
%ADD57C,0.059060*%
%ADD58R,0.059060X0.059060*%
%ADD59R,0.059060X0.059060*%
%ADD60C,0.070000*%
%ADD61R,0.070000X0.070000*%
%ADD62C,0.025000*%
%ADD63C,0.050000*%
%ADD64C,0.030000*%
%LNpcb_obdh-1*%
%LPD*%
G36*
X05593Y03372D02*
X05592Y0337D01*
X05591Y03362*
X05592Y03354*
X05593Y03353*
Y0326*
X05581Y03253*
X05568Y03248*
X05563Y03251*
Y03307*
X05493*
X05492Y03308*
X05485Y03313*
X05478Y03314*
X0547Y03313*
X05464Y03308*
X05459Y03302*
X05458Y03294*
X05459Y03287*
X05464Y0328*
X0547Y03276*
X05472Y03275*
X05483Y03264*
X05489Y0326*
X05489Y0326*
Y03246*
X05544*
X05545Y03241*
X05539Y03239*
X05521Y03238*
X05512Y03239*
X0551Y03239*
X05505Y03239*
X05504Y03239*
X05499Y03238*
X05499Y03237*
X04722*
Y03246*
X04772*
X04779Y03248*
X04784Y03251*
X04799Y03266*
X04828*
Y03282*
X04898*
Y03255*
X0496*
Y03316*
X04956*
X04954Y0332*
Y03381*
X04938*
Y03392*
X0494Y03393*
X04944Y03399*
X04945Y03407*
Y0347*
X04944Y03477*
X0494Y03483*
X04933Y03487*
X04926Y03489*
X04919Y03487*
X04913Y03483*
X04908Y03477*
X04907Y0347*
Y03407*
X04908Y03399*
X04913Y03393*
X04914Y03392*
Y03381*
X04898*
Y0332*
Y03316*
Y03306*
X04845*
X04843Y03311*
X04859Y03326*
X04863Y03332*
X04864Y03338*
Y03387*
X04868Y03389*
X04869Y03389*
X04876Y03387*
X04883Y03389*
X0489Y03393*
X04894Y03399*
X04895Y03407*
Y0347*
X04894Y03477*
X0489Y03483*
X04883Y03487*
X04876Y03489*
X04869Y03487*
X04863Y03483*
X04857Y03484*
X04817Y03524*
Y0353*
X04818Y03531*
X0482Y03539*
X04818Y03546*
X04817Y03548*
Y0361*
X04848*
Y03672*
X04774*
Y0361*
X04783*
Y03548*
X04782Y03546*
X0478Y03539*
X04782Y03531*
X04783Y0353*
Y03517*
X04784Y0351*
X04788Y03505*
X04829Y03463*
Y03346*
X04805Y03321*
X04767*
Y03283*
X04765Y03281*
X04722*
Y03296*
X04688*
X04685*
X04652*
X04651*
X04647*
X04642Y03296*
Y03341*
X04647Y03342*
X04652Y03343*
X04652Y03343*
X04655Y03338*
X04674Y0332*
X04679Y03316*
X04686Y03314*
X04732*
X04739Y03316*
X04744Y0332*
X04774Y03349*
X04798*
X04804Y03351*
X0481Y03354*
X04814Y0336*
X04815Y03367*
X04814Y03373*
X0481Y03379*
X04804Y03383*
X04798Y03384*
X04767*
X0476Y03383*
X04755Y03379*
X04727Y03351*
X04722Y03353*
Y03406*
X04717*
Y03422*
X04719*
Y03496*
X04705*
X04704Y03498*
X04703Y03501*
X04707Y03506*
X04708Y03514*
X04707Y03519*
X04724Y03536*
X04727Y0354*
X04728Y03544*
Y03636*
X04782Y0369*
X04848*
Y03716*
X04919*
Y03688*
X0496*
X04964Y03684*
Y03673*
X04963Y03672*
X04958Y03666*
X04957Y03659*
Y03596*
X04958Y03588*
X04963Y03582*
X04969Y03578*
X04976Y03576*
X04983Y03578*
X0499Y03582*
X04994Y03588*
X04995Y03596*
Y03659*
X04994Y03666*
X0499Y03672*
X04988Y03673*
Y03684*
X05014*
Y03673*
X05013Y03672*
X05008Y03666*
X05007Y03659*
Y03596*
X05008Y03588*
X05013Y03582*
X05019Y03578*
X05026Y03576*
X05033Y03578*
X0504Y03582*
X05044Y03588*
X05045Y03596*
Y03659*
X05044Y03666*
X0504Y03672*
X05038Y03673*
Y03684*
X05043*
Y03745*
X04988*
Y03705*
X04983Y03702*
X04981Y03704*
Y03743*
X04919*
Y0374*
X04848*
Y03752*
X04847Y03755*
X04958Y03866*
X05073*
X05076Y03863*
X05076Y03861*
X05077Y03853*
X05079Y03847*
X05084Y03841*
X05089Y03837*
X05096Y03834*
X05103Y03833*
X0511Y03834*
X05117Y03837*
X05122Y03841*
X05127Y03847*
X05129Y03853*
X0513Y03861*
X0513Y03863*
X05133Y03866*
X05143*
X05145Y03863*
X05145Y03861*
X05144Y03855*
X05145Y03848*
X05148Y03841*
X05152Y03835*
X05158Y03831*
X05165Y03828*
X05172Y03827*
X05179Y03828*
X05185Y03831*
X05191Y03835*
X05195Y03841*
X05198Y03848*
X05199Y03855*
X05198Y03861*
X05198Y03863*
X052Y03866*
X05286*
X05288Y03862*
X05247Y03821*
X05244Y03816*
X05242Y03809*
Y037*
X05241Y03699*
X0524Y03691*
X05241Y03684*
X05246Y03677*
X05252Y03673*
X0526Y03671*
X05267Y03673*
X05274Y03677*
X05278Y03684*
X05279Y03691*
X05278Y03699*
X05277Y037*
Y03802*
X05341Y03866*
X05443*
Y03422*
X05445Y03415*
X05448Y0341*
X05489Y03369*
Y03326*
X05563*
Y03387*
X0552*
X05478Y03429*
Y03866*
X05593*
Y03372*
G37*
G36*
X05775Y04058D02*
X05779Y04055D01*
X05783Y04054*
X05797*
X05798Y04049*
X05793Y04047*
X05785Y04041*
X05779Y04034*
X05776Y04025*
X05774Y04015*
X05776Y04006*
X05779Y03997*
X05785Y03989*
X05656Y0386*
X05608*
Y03866*
X05607Y03872*
X05604Y03877*
X05599Y03881*
X05593Y03882*
X05478*
Y0397*
X05478Y0397*
X05521*
Y03983*
X05523*
X0553Y03984*
X05535Y03988*
X05564Y04017*
X05576*
X05615Y03978*
Y03944*
X05614Y03942*
X05613Y03935*
X05614Y03927*
X05619Y0392*
X05625Y03916*
X05633Y03915*
X0564Y03916*
X05647Y0392*
X05651Y03927*
X05652Y03935*
X05651Y03942*
X0565Y03944*
Y03985*
X05649Y03991*
X05645Y03997*
X05607Y04035*
Y04078*
X05755*
X05775Y04058*
G37*
G36*
X0575Y04258D02*
X05753Y04255D01*
X05758Y04254*
X05797*
X05798Y04249*
X05793Y04247*
X05785Y04241*
X05779Y04234*
X05776Y04225*
X05774Y04215*
X05776Y04206*
X05779Y04197*
X05785Y04189*
X05793Y04183*
X05802Y0418*
X05811Y04178*
X05821Y0418*
X05827Y04182*
X05851Y04159*
Y04129*
X05846Y04128*
X05843Y04134*
X05837Y04141*
X0583Y04147*
X05821Y04151*
X05811Y04152*
X05802Y04151*
X05793Y04147*
X05785Y04141*
X05779Y04134*
X05776Y04125*
X05775Y04119*
X05607*
Y04158*
X05533*
Y0414*
X05434*
X05429Y04139*
X05425Y04136*
X05324Y04035*
X05207*
X05205Y0404*
X05519Y04353*
X05654*
X0575Y04258*
G37*
G36*
X0549Y06704D02*
X05508Y06696D01*
X05525Y06685*
X05532Y06678*
X05608Y06602*
X05641Y06568*
X05642Y06568*
X05642Y06568*
Y06568*
X05642Y06568*
X05642*
X05643Y06568*
X05643Y06568*
X05653Y06557*
X05661Y06551*
X05677Y0654*
X05695Y06532*
X05714Y06528*
X05724Y06528*
X06104*
X06123Y06524*
X06142Y06516*
X06158Y06506*
X06165Y06499*
X06166Y06498*
X06183Y06481*
X0619Y06474*
X06201Y06457*
X06208Y06439*
X06212Y0642*
Y0641*
Y06271*
X06207Y06269*
X06207Y06269*
X06203Y06275*
X06165Y06313*
X06159Y06317*
X06153Y06318*
X05768*
X05718Y06369*
Y06438*
X05717Y06444*
X05713Y0645*
X05665Y06498*
X05659Y06502*
X05653Y06503*
X05582*
Y06523*
X05508*
Y06449*
X05582*
Y06468*
X05645*
X05683Y06431*
Y06397*
X05584*
Y06417*
X0551*
Y06343*
X05584*
Y06362*
X05683*
Y06362*
X05685Y06355*
X05688Y06349*
X05749Y06289*
X05755Y06285*
X05761Y06284*
X06145*
X06174Y06255*
Y04067*
X06145Y04038*
X0614Y04038*
X06137Y04041*
X0613Y04047*
X06121Y04051*
X06111Y04052*
X06102Y04051*
X06093Y04047*
X06085Y04041*
X06079Y04034*
X06079Y04033*
X06044*
X06043Y04034*
X06037Y04041*
X0603Y04047*
X06021Y04051*
X06011Y04052*
X06002Y04051*
X05993Y04047*
X05985Y04041*
X05979Y04034*
X05976Y04025*
X05974Y04015*
X05976Y04006*
X05979Y03997*
X05985Y03989*
X05993Y03983*
X06002Y0398*
X06011Y03978*
X06021Y0398*
X0603Y03983*
X06037Y03989*
X06043Y03997*
X06044Y03998*
X06079*
X06079Y03997*
X06085Y03989*
X06093Y03983*
X06102Y0398*
X06111Y03978*
X06121Y0398*
X0613Y03983*
X06137Y03989*
X06143Y03997*
X06144Y03998*
X06146*
X06153Y03999*
X06159Y04003*
X06203Y04048*
X06207Y04053*
X06207Y04053*
X06212Y04052*
Y03521*
Y03496*
X06208Y03477*
X06201Y03459*
X0619Y03443*
X06164Y03416*
X06157Y0341*
X0614Y03399*
X06122Y03391*
X06103Y03387*
X05752*
X05743Y03387*
X05723Y03383*
X05705Y03375*
X05689Y03365*
X05682Y03358*
X05624Y033*
X05613Y03289*
X05608Y03291*
Y03329*
X05612Y03332*
X05615Y03331*
X05624Y0333*
X05632Y03331*
X0564Y03334*
X05646Y03339*
X05651Y03346*
X05655Y03354*
X05656Y03362*
X05655Y0337*
X05655Y03371*
X05655Y03371*
X05656Y03377*
Y03591*
X05657Y03591*
X05665Y03597*
X05671Y03605*
X05674Y03614*
X05676Y03623*
X05674Y03633*
X05671Y03642*
X05665Y03649*
X05657Y03655*
X05648Y03659*
X05639Y0366*
X05629Y03659*
X0562Y03655*
X05613Y03649*
X05611Y0365*
X05608Y03651*
Y03695*
X05611Y03697*
X05613Y03697*
X0562Y03691*
X05629Y03688*
X05639Y03686*
X05648Y03688*
X05657Y03691*
X05665Y03697*
X05671Y03705*
X05674Y03714*
X05676Y03723*
X05674Y03733*
X05671Y03742*
X05665Y03749*
X05657Y03755*
X05648Y03759*
X05639Y0376*
X05629Y03759*
X0562Y03755*
X05613Y03749*
X05611Y0375*
X05608Y03751*
Y03787*
X05675*
Y0383*
X05771Y03926*
X05772Y03926*
X05776Y03924*
X05774Y03915*
X05776Y03906*
X05779Y03897*
X05785Y03889*
X05793Y03883*
X05802Y0388*
X05811Y03878*
X05821Y0388*
X0583Y03883*
X05837Y03889*
X05843Y03897*
X05847Y03906*
X05848Y03915*
X05847Y03925*
X05843Y03934*
X05837Y03941*
X0583Y03947*
X05821Y03951*
X05811Y03952*
X05803Y03951*
X05801Y03955*
X058Y03955*
X05827Y03982*
X0583Y03983*
X05837Y03989*
X05843Y03997*
X05844Y03998*
X05879*
X05879Y03997*
X05885Y03989*
X05893Y03983*
X05902Y0398*
X05911Y03978*
X05921Y0398*
X0593Y03983*
X05937Y03989*
X05943Y03997*
X05947Y04006*
X05948Y04015*
X05947Y04025*
X05943Y04034*
X05937Y04041*
X0593Y04047*
X05921Y04051*
X05911Y04052*
X05902Y04051*
X05893Y04047*
X05885Y04041*
X05879Y04034*
X05879Y04033*
X05844*
X05843Y04034*
X05837Y04041*
X0583Y04047*
X05825Y04049*
X05826Y04054*
X05831*
X05836Y04055*
X0584Y04058*
X05872Y04089*
X05874Y04093*
X05875Y04095*
X05877Y04096*
X0588Y04096*
X05885Y04089*
X05893Y04083*
X05902Y0408*
X05911Y04078*
X05921Y0408*
X0593Y04083*
X05937Y04089*
X05943Y04097*
X05947Y04106*
X05948Y04115*
X05947Y04125*
X05943Y04134*
X05937Y04141*
X0593Y04147*
X05921Y04151*
X05911Y04152*
X05902Y04151*
X05893Y04147*
X05885Y04141*
X0588Y04135*
X05876Y04135*
X05875Y04136*
Y04164*
X05874Y04168*
X05872Y04172*
X05844Y042*
X05847Y04206*
X05848Y04215*
X05847Y04225*
X05843Y04234*
X05837Y04241*
X0583Y04247*
X05825Y04249*
X05826Y04254*
X05862*
X05867Y04255*
X05871Y04258*
X05896Y04282*
X05902Y0428*
X05911Y04278*
X05921Y0428*
X0593Y04283*
X05937Y04289*
X05943Y04297*
X05947Y04306*
X05948Y04315*
X05947Y04325*
X05943Y04334*
X05937Y04341*
X0593Y04347*
X05921Y04351*
X05911Y04352*
X05902Y04351*
X05893Y04347*
X05885Y04341*
X05879Y04334*
X05876Y04325*
X05874Y04315*
X05876Y04306*
X05878Y043*
X05857Y04279*
X05834*
X05833Y0428*
X05834Y04286*
X05837Y04289*
X05843Y04297*
X05847Y04306*
X05848Y04315*
X05847Y04325*
X05843Y04334*
X05837Y04341*
X0583Y04347*
X05821Y04351*
X05811Y04352*
X05802Y04351*
X05796Y04348*
X05761Y04383*
X05763Y04387*
X05788*
X05793Y04383*
X05802Y0438*
X05811Y04378*
X05821Y0438*
X0583Y04383*
X05837Y04389*
X05843Y04397*
X05847Y04406*
X05848Y04415*
X05847Y04425*
X05843Y04434*
X05837Y04441*
X0583Y04447*
X05821Y04451*
X05811Y04452*
X05802Y04451*
X05793Y04447*
X05785Y04441*
X05779Y04434*
X05776Y04425*
X05774Y04415*
X05771Y04412*
X0565*
X05648Y04416*
X05735Y04503*
X05777*
X05779Y04497*
X05785Y04489*
X05793Y04483*
X05802Y0448*
X05811Y04478*
X05821Y0448*
X0583Y04483*
X05837Y04489*
X05843Y04497*
X05847Y04506*
X05848Y04515*
X05847Y04525*
X05843Y04534*
X05837Y04541*
X0583Y04547*
X05821Y04551*
X05811Y04552*
X05802Y04551*
X05793Y04547*
X05785Y04541*
X05779Y04534*
X05777Y04527*
X0573*
X05725Y04527*
X05721Y04524*
X05626Y04429*
X05492*
X05488Y04428*
X05484Y04425*
X05245Y04187*
X05236*
X05235Y04188*
X05228Y04193*
X05221Y04194*
X05213Y04193*
X05207Y04188*
X05202Y04182*
X05201Y04174*
X05202Y04167*
X05207Y0416*
X05213Y04156*
X05221Y04154*
X05228Y04156*
X05234Y0416*
X05235Y04159*
X05237Y04154*
X05169Y04086*
X04853*
X04852Y04088*
X04854Y04093*
X05035*
X0504Y04094*
X05044Y04096*
X05121Y04174*
X05124Y04178*
X05125Y04182*
Y04297*
X05129Y04299*
X0513Y04298*
X05138Y04297*
X05145Y04298*
X05152Y04303*
X05153Y04305*
X05153*
X05157Y04305*
X05158Y04305*
X05162Y04302*
X05163Y04298*
X05167Y04291*
X05174Y04287*
X05181Y04286*
X05189Y04287*
X05195Y04291*
X052Y04298*
X05201Y04305*
X05201Y04308*
X05256Y04362*
X05261Y04361*
X05261Y04359*
X05224Y04322*
X05222Y04319*
X05218Y04316*
X05214Y0431*
X05212Y04302*
X05214Y04295*
X05218Y04288*
X05225Y04284*
X05232Y04282*
X0524Y04284*
X05246Y04288*
X05251Y04295*
X05252Y04302*
X05251Y0431*
X05249Y04312*
X05285Y04348*
X05287Y04352*
X05288Y04357*
Y04373*
X05293Y04376*
X05295Y04375*
X05303Y04373*
X0531Y04375*
X05317Y04379*
X05321Y04386*
X05323Y04393*
X05321Y04401*
X05317Y04407*
X05315Y04408*
Y04475*
X05459Y04618*
X05461Y04622*
X05462Y04627*
Y04984*
X05734Y05255*
X058*
X05801Y0525*
X05793Y05247*
X05785Y05241*
X05779Y05234*
X05776Y05225*
X05774Y05215*
X05776Y05206*
X05779Y05197*
X05785Y05189*
X05793Y05183*
X05802Y0518*
X05811Y05178*
X05821Y0518*
X0583Y05183*
X05837Y05189*
X05843Y05197*
X05847Y05206*
X05848Y05215*
X05847Y05225*
X05843Y05234*
X05837Y05241*
X0583Y05247*
X05822Y0525*
X05823Y05255*
X05864*
X05868Y05256*
X05872Y05259*
X05896Y05282*
X05902Y0528*
X05911Y05278*
X05921Y0528*
X0593Y05283*
X05937Y05289*
X05943Y05297*
X05947Y05306*
X05948Y05315*
X05947Y05325*
X05943Y05334*
X05937Y05341*
X0593Y05347*
X05921Y05351*
X05911Y05352*
X05902Y05351*
X05893Y05347*
X05885Y05341*
X05879Y05334*
X05876Y05325*
X05874Y05315*
X05876Y05306*
X05878Y053*
X05859Y0528*
X05833*
X05832Y05285*
X05837Y05289*
X05843Y05297*
X05847Y05306*
X05848Y05315*
X05847Y05325*
X05843Y05334*
X05839Y0534*
X05841Y05345*
X05853*
X05858Y05345*
X05861Y05348*
X05896Y05382*
X05902Y0538*
X05911Y05378*
X05921Y0538*
X0593Y05383*
X05937Y05389*
X05943Y05397*
X05947Y05406*
X05948Y05415*
X05947Y05425*
X05943Y05434*
X05939Y0544*
X05939Y05441*
X0594Y05445*
X05941Y05445*
X05944Y05445*
X05948Y05448*
X05972Y05472*
X05975Y05476*
X05976Y05481*
Y05494*
X05981Y05495*
X05985Y05489*
X05993Y05483*
X06002Y0548*
X06011Y05478*
X06021Y0548*
X0603Y05483*
X06037Y05489*
X06043Y05497*
X06047Y05506*
X06048Y05515*
X06047Y05525*
X06043Y05534*
X06037Y05541*
X0603Y05547*
X06021Y05551*
X06011Y05552*
X06002Y05551*
X05993Y05547*
X05985Y05541*
X05981Y05535*
X05976Y05537*
Y05562*
X05996Y05582*
X06002Y0558*
X06011Y05578*
X06021Y0558*
X0603Y05583*
X06037Y05589*
X06043Y05597*
X06047Y05606*
X06048Y05615*
X06047Y05625*
X06043Y05634*
X06037Y05641*
X0603Y05647*
X06021Y05651*
X06011Y05652*
X06002Y05651*
X05993Y05647*
X05985Y05641*
X05979Y05634*
X05976Y05625*
X05974Y05615*
X05976Y05606*
X05978Y056*
X05955Y05576*
X05952Y05572*
X05951Y05567*
Y05528*
X05946Y05527*
X05943Y05534*
X05937Y05541*
X0593Y05547*
X05921Y05551*
X05911Y05552*
X05902Y05551*
X05893Y05547*
X05885Y05541*
X05879Y05534*
X05876Y05525*
X05874Y05515*
X05876Y05506*
X05879Y05497*
X05885Y05489*
X05893Y05483*
X05902Y0548*
X05911Y05478*
X05921Y0548*
X0593Y05483*
X05937Y05489*
X05943Y05497*
X05946Y05504*
X05951Y05503*
Y05486*
X05934Y05469*
X05775*
X05771Y05468*
X05767Y05465*
X05763Y05461*
X05759Y05465*
X05763Y05471*
X05764Y05478*
X05763Y05486*
X05758Y05492*
X05752Y05496*
X05752Y05497*
X0575Y05501*
X0577Y05521*
X05775Y05519*
X05774Y05515*
X05776Y05506*
X05779Y05497*
X05785Y05489*
X05793Y05483*
X05802Y0548*
X05811Y05478*
X05821Y0548*
X0583Y05483*
X05837Y05489*
X05843Y05497*
X05847Y05506*
X05848Y05515*
X05847Y05525*
X05843Y05534*
X05837Y05541*
X0583Y05547*
X05821Y05551*
X05811Y05552*
X05807Y05552*
X05805Y05556*
X0581Y05561*
X0584*
X05845Y05562*
X05849Y05565*
X05871Y05587*
X05873Y05591*
X05874Y05596*
Y05596*
X05879Y05597*
X05879Y05597*
X05885Y05589*
X05893Y05583*
X05902Y0558*
X05911Y05578*
X05921Y0558*
X0593Y05583*
X05937Y05589*
X05943Y05597*
X05947Y05606*
X05948Y05615*
X05947Y05625*
X05943Y05634*
X05937Y05641*
X0593Y05647*
X05921Y05651*
X05911Y05652*
X05902Y05651*
X05901Y05651*
X05899Y05655*
X05905Y05661*
X0597*
X05974Y05662*
X05978Y05665*
X05995Y05682*
X06002Y0568*
X06011Y05678*
X06021Y0568*
X0603Y05683*
X06037Y05689*
X06043Y05697*
X06047Y05706*
X06048Y05715*
X06047Y05725*
X06043Y05734*
X06037Y05741*
X0603Y05747*
X06021Y05751*
X06011Y05752*
X06002Y05751*
X05993Y05747*
X05985Y05741*
X05979Y05734*
X05976Y05725*
X05974Y05715*
X05976Y05706*
X05978Y057*
X05965Y05686*
X05941*
X05939Y05691*
X05943Y05697*
X05947Y05706*
X05948Y05715*
X05947Y05725*
X05943Y05734*
X05937Y05741*
X0593Y05747*
X05921Y05751*
X05911Y05752*
X05902Y05751*
X05893Y05747*
X05885Y05741*
X05879Y05734*
X05876Y05725*
X05874Y05715*
X05876Y05706*
X05878Y057*
X05855Y05676*
X05825*
X05824Y05681*
X0583Y05683*
X05837Y05689*
X05843Y05697*
X05847Y05706*
X05848Y05715*
X05847Y05725*
X05843Y05734*
X05837Y05741*
X0583Y05747*
X05821Y05751*
X05811Y05752*
X05802Y05751*
X05793Y05747*
X05785Y05741*
X05779Y05734*
X05776Y05725*
X05774Y05715*
X05776Y05706*
X05777Y05702*
X05702Y05627*
X05697Y05629*
Y05684*
X05796Y05782*
X05802Y0578*
X05811Y05778*
X05821Y0578*
X0583Y05783*
X05837Y05789*
X05843Y05797*
X05847Y05806*
X05848Y05815*
X05847Y05825*
X05843Y05834*
X05837Y05841*
X0583Y05847*
X05823Y0585*
X05824Y05855*
X05863*
X05868Y05856*
X05872Y05859*
X05896Y05882*
X05902Y0588*
X05911Y05878*
X05921Y0588*
X0593Y05883*
X05937Y05889*
X05943Y05897*
X05947Y05906*
X05948Y05915*
X05947Y05925*
X05943Y05934*
X05937Y05941*
X0593Y05947*
X05921Y05951*
X05911Y05952*
X05902Y05951*
X05893Y05947*
X05885Y05941*
X05879Y05934*
X05876Y05925*
X05874Y05915*
X05876Y05906*
X05878Y059*
X05858Y05879*
X05833*
X05831Y05884*
X05837Y05889*
X05843Y05897*
X05847Y05906*
X05848Y05915*
X05847Y05925*
X05843Y05934*
X05837Y05941*
X0583Y05947*
X05821Y05951*
X05811Y05952*
X05802Y05951*
X05793Y05947*
X05787Y05943*
X05784Y05947*
X05796Y05959*
X05877*
X05881Y05959*
X05885Y05962*
X05903Y0598*
X05911Y05978*
X05921Y0598*
X0593Y05983*
X05937Y05989*
X05943Y05997*
X05947Y06006*
X05948Y06015*
X05947Y06025*
X05943Y06034*
X05937Y06041*
X0593Y06047*
X05921Y06051*
X05911Y06052*
X05902Y06051*
X05893Y06047*
X05885Y06041*
X05879Y06034*
X05876Y06025*
X05874Y06015*
X05876Y06006*
X05879Y05997*
X05882Y05993*
X05872Y05983*
X05837*
X05836Y05988*
X05837Y05989*
X05843Y05997*
X05847Y06006*
X05848Y06015*
X05847Y06025*
X05843Y06034*
X05837Y06041*
X0583Y06047*
X05821Y06051*
X05811Y06052*
X05802Y06051*
X05793Y06047*
X05785Y06041*
X05779Y06034*
X05776Y06025*
X05774Y06015*
X05776Y06006*
X05778Y06*
X05605Y05827*
X05603Y05823*
X05602Y05818*
Y05585*
X05593Y05576*
X05589Y05578*
Y05714*
X05588Y05719*
X05586Y05722*
X05586Y05724*
X05585Y05732*
X0558Y05738*
X05574Y05743*
X05566Y05744*
X05559Y05743*
X05558Y05742*
X05553Y05744*
Y06154*
X05559Y06158*
X05563Y06164*
X05565Y06172*
X05563Y0618*
X05559Y06186*
X05552Y0619*
X05545Y06192*
X05537Y0619*
X05531Y06186*
X05526Y0618*
X05525Y06172*
X05526Y06164*
X05529Y0616*
Y05762*
X05524Y0576*
X05519Y05765*
X05517Y05768*
X05511Y05773*
X05503Y05774*
X05495Y05773*
X05489Y05768*
X05485Y05762*
X05483Y05754*
X05485Y05747*
X05489Y0574*
X05495Y05736*
X05503Y05734*
X05506Y05735*
X05509Y05732*
Y05711*
X05504Y05708*
X05502Y0571*
X05495Y05711*
X05487Y0571*
X05481Y05705*
X05476Y05699*
X05475Y05691*
X05476Y05684*
X05481Y05677*
X05487Y05673*
X05492Y05672*
Y0558*
X05486Y05573*
X05484Y05574*
X05482Y05576*
X05483Y05583*
X05482Y05591*
X05477Y05597*
X05471Y05601*
X05463Y05603*
X05456Y05601*
X05449Y05597*
X05445Y05591*
X05445Y05589*
X05442Y05589*
X05439Y05589*
X05436Y05595*
X05429Y05599*
X05422Y056*
X05414Y05599*
X05407Y05595*
X05403Y05588*
X05403Y05588*
X05398Y0559*
Y0616*
X0542Y06182*
X05423Y06186*
X05424Y0619*
Y06198*
X05426Y06199*
X0543Y06206*
X05432Y06213*
X0543Y06221*
X05426Y06227*
X05419Y06232*
X05412Y06233*
X05404Y06232*
X05398Y06227*
X05393Y06221*
X05392Y06213*
X05392Y06212*
X05387Y0621*
X05386Y06212*
X0538Y06216*
X05372Y06218*
X05364Y06216*
X05363Y06215*
X05358Y06218*
Y06331*
X05372Y06344*
X05375Y06343*
X05449*
Y06417*
X05375*
Y06395*
X0537Y06392*
X05336Y06358*
X05331Y0636*
Y0644*
X0536Y06468*
X05373*
Y06449*
X05447*
Y06523*
X05373*
Y06503*
X05353*
X05346Y06502*
X0534Y06498*
X05302Y06459*
X05298Y06454*
X05297Y06447*
Y06143*
X05243Y0609*
X05206*
Y06085*
X05181*
Y06092*
X0512*
Y06085*
X05024*
X05017Y06083*
X05011Y0608*
X05008Y06074*
X05006Y06067*
X05008Y06061*
X05011Y06055*
X05012Y06055*
X05013Y06048*
X05013Y06047*
X05012Y06042*
X05013Y06036*
X05016Y06032*
X05016Y06032*
Y06027*
X05016Y06026*
X05013Y06022*
X05012Y06016*
X05013Y06011*
X05016Y06006*
X05016Y06006*
Y06001*
X05016Y06001*
X05013Y05996*
X05012Y05991*
X05013Y05985*
X05016Y05981*
X05021Y05978*
X05026Y05976*
X05075*
X05081Y05978*
X05085Y05981*
X05088Y05985*
X05089Y05991*
X05088Y05996*
X05085Y06001*
X05085Y06001*
Y06006*
X05085Y06006*
X05088Y06011*
X05089Y06016*
X05088Y06022*
X05086Y06025*
X05089Y0603*
X05089Y0603*
X05096*
X0512Y06005*
Y05964*
X05181*
Y06019*
X0514*
X05127Y06032*
X05129Y06037*
X05181*
Y0605*
X05206*
Y06028*
X05268*
Y06065*
X05319Y06117*
X05324Y06115*
Y05723*
X0524Y05639*
X05203*
Y05628*
X05178*
Y05642*
X05117*
Y05628*
X05025*
X05018Y05627*
X05012Y05623*
X05009Y05618*
X05007Y05611*
X05009Y05604*
X05012Y05599*
X05011Y05594*
X0501Y05593*
X05009Y05587*
X0501Y05582*
X05013Y05577*
X05013Y05577*
Y05572*
X05013Y05572*
X0501Y05567*
X05009Y05562*
X0501Y05556*
X05013Y05551*
X05013Y05551*
Y05546*
X05013Y05546*
X0501Y05541*
X05009Y05536*
X0501Y05531*
X05013Y05526*
X05018Y05523*
X05023Y05522*
X05043*
Y0549*
X05037Y05488*
X05031Y05483*
X05027Y05478*
X05024Y05471*
X05023Y05464*
X05024Y05457*
X05027Y0545*
X05031Y05445*
X05037Y0544*
X05043Y05438*
X0505Y05437*
X05057Y05438*
X05064Y0544*
X0507Y05445*
X05074Y0545*
X05077Y05457*
X05078Y05464*
X05077Y05471*
X05074Y05478*
X0507Y05483*
X05068Y05485*
Y05522*
X05072*
X05078Y05523*
X05082Y05526*
X05085Y05531*
X05086Y05535*
X05088Y05537*
X05091Y05537*
X051Y05529*
Y05491*
X05098Y0549*
X05094Y05484*
X05091Y05477*
X0509Y0547*
X05091Y05463*
X05094Y05457*
X05098Y05451*
X05104Y05447*
X0511Y05444*
X05117Y05443*
X05124Y05444*
X05131Y05447*
X05136Y05451*
X05141Y05457*
X05144Y05463*
X05144Y0547*
X05144Y05477*
X05141Y05484*
X05136Y0549*
X05131Y05494*
X05124Y05497*
X05124Y05497*
Y05513*
X05178*
Y05569*
X05137*
X05124Y05582*
X05126Y05586*
X05178*
Y05594*
X05203*
Y05578*
X05264*
Y05614*
X05346Y05696*
X05351Y05694*
Y05534*
X04797Y04981*
X04795Y04977*
X04794Y04972*
Y04918*
X04624Y04749*
X04619Y0475*
X04619Y04752*
X04614Y04758*
X04608Y04763*
X046Y04764*
X046Y04765*
Y04814*
Y04941*
X04619*
Y04964*
X04633*
X04635Y04964*
X04709*
X04714Y04959*
Y04937*
X04691Y04913*
X04689Y04913*
X04682Y04908*
X04678Y04902*
X04676Y04894*
X04678Y04887*
X04682Y0488*
X04689Y04876*
X04696Y04875*
X04704Y04876*
X0471Y0488*
X04715Y04887*
X04715Y04889*
X04745Y04918*
X04775*
Y0496*
X04776Y04962*
Y04968*
X04789Y04981*
X04792Y04985*
X04792Y0499*
Y05072*
X04796Y05075*
X04801Y05081*
X04802Y05089*
X04801Y05096*
X04796Y05103*
X0479Y05107*
X04782Y05109*
X04775Y05107*
X04768Y05103*
X04764Y05096*
X04762Y05089*
X04764Y05081*
X04768Y05075*
Y04995*
X04755Y04982*
X04752Y04978*
X04751Y04974*
X04734*
X04723Y04985*
X04719Y04988*
X04714Y04989*
X04692*
Y05029*
X04687Y05034*
X04688Y05037*
X04692Y05043*
X04693Y05051*
X04692Y05059*
X04688Y05065*
X04681Y05069*
X04678Y0507*
X04677Y05075*
X04688Y05087*
X04689Y05086*
X04695Y05083*
X04702Y05082*
X04709Y05083*
X04716Y05086*
X04722Y0509*
X04726Y05096*
X04729Y05102*
X04729Y05109*
X04729Y05116*
X04726Y05123*
X04722Y05129*
X04716Y05133*
X04709Y05136*
X04702Y05137*
X04695Y05136*
X04689Y05133*
X04683Y05129*
X04679Y05123*
X04676Y05116*
X04675Y05109*
X04675Y05109*
X04657Y0509*
X04652Y05092*
Y05106*
X04647*
Y05137*
X04676Y05166*
X04677Y05165*
X04685Y05164*
X04692Y05165*
X04698Y05168*
X04704Y05172*
X04708Y05178*
X04711Y05185*
X04712Y05192*
X04711Y05199*
X04708Y05205*
X04704Y05211*
X04698Y05215*
X04692Y05218*
X04685Y05219*
X04677Y05218*
X04671Y05215*
X04665Y05211*
X04661Y05205*
X04658Y05199*
X04657Y05192*
X04658Y05185*
X04659Y05183*
X04626Y05151*
X04624Y05147*
X04623Y05142*
Y05106*
X04618*
Y05067*
X04609*
X04604Y05066*
X046Y05064*
X04564Y05028*
X04557*
Y05043*
Y05087*
X04523*
Y05075*
X04518Y05073*
X04498Y05094*
X04498Y05095*
X04499Y05102*
X04498Y05109*
X04496Y05116*
X04491Y05122*
X04486Y05126*
X04479Y05129*
X04472Y05129*
X04465Y05129*
X04458Y05126*
X04453Y05122*
X04448Y05116*
X04448Y05115*
X04443Y05116*
Y05133*
X04442Y05137*
X04439Y05141*
X04364Y05217*
X0436Y05219*
X04355Y0522*
X04332*
Y05245*
X04282*
X04268Y05259*
X0427Y05264*
X04332*
Y05325*
X04258*
Y05309*
X04246*
Y05327*
X04181*
X04111Y05397*
X04105Y05401*
X04099Y05402*
X0404*
Y05415*
X03966*
Y05369*
X03923Y05325*
X03919Y05319*
X03918Y05313*
Y05199*
X03919Y05192*
X03923Y05186*
X03978Y05132*
Y05089*
X03991*
Y05071*
X03978*
Y04997*
X03991*
Y04975*
X03989Y04974*
X03985Y04967*
X03984Y0496*
X03985Y04952*
X03989Y04946*
X03996Y04941*
X04Y04941*
X04054Y04887*
X04059Y04883*
X04066Y04882*
X04118*
X04123Y04879*
X0413Y04878*
X04138Y04879*
X04142Y04882*
X04158*
Y04872*
X04219*
Y04913*
X04229Y04923*
X04234Y04921*
Y04866*
X04308*
Y04906*
X04313Y04908*
X04319Y04902*
Y04867*
X0438*
Y04874*
X04385Y04876*
X04395Y04866*
X04394Y04864*
X04393Y04857*
X04394Y0485*
X04397Y04843*
X04401Y04838*
X04407Y04833*
X04413Y04831*
X0442Y0483*
X04427Y04831*
X04434Y04833*
X0444Y04838*
X04444Y04843*
X04447Y0485*
X04448Y04857*
X04447Y04864*
X04444Y04871*
X0444Y04876*
X04434Y04881*
X04427Y04883*
X0442Y04884*
X04413Y04883*
X04411Y04883*
X04402Y04892*
Y04934*
X04401Y04938*
X04401Y04939*
X04407Y0494*
X04553Y04793*
Y04729*
X04552Y04728*
X04547Y04722*
X04546Y04714*
X04547Y04706*
X04552Y047*
X04558Y04696*
X04563Y04695*
X04565Y04689*
X04551Y04676*
X0455Y04676*
X04546Y04678*
X04545Y04684*
X0454Y0469*
X04534Y04695*
X04526Y04696*
X04519Y04695*
X04512Y0469*
X04508Y04684*
X04506Y04676*
X04508Y04669*
X04511Y04664*
X04492Y04645*
X04488Y04642*
X04448Y04602*
X04445Y04598*
X04444Y04593*
X04445Y04588*
X04448Y04583*
X04452Y04581*
X04457Y0458*
X04458Y04579*
X04459Y04574*
X04462Y04569*
X04466Y04567*
X04471Y04566*
X04472Y04565*
X04473Y0456*
X04476Y04556*
X0448Y04553*
X04485Y04552*
X04486Y04551*
X04487Y04546*
X0449Y04542*
X04494Y04539*
X04499Y04538*
X045Y04537*
X04501Y04532*
X04504Y04528*
X04508Y04525*
X04513Y04524*
X04514Y04523*
X04515Y04518*
X04518Y04514*
X04522Y04511*
X04527Y0451*
X04528Y04509*
X04529Y04504*
X04532Y045*
X04536Y04497*
X04541Y04496*
X04542Y04495*
X04543Y0449*
X04546Y04486*
X0455Y04483*
X04555Y04482*
X04556Y04481*
X04557Y04476*
X04559Y04472*
X04564Y04469*
X04569Y04468*
X0457Y04467*
X04571Y04462*
X04573Y04458*
X04578Y04455*
X04583Y04454*
X04583Y04453*
X04584Y04448*
X04587Y04444*
X04592Y04441*
X04597Y0444*
X04597Y0444*
X04598Y04435*
X04601Y0443*
X04605Y04427*
X04611Y04426*
X04611Y04426*
X04612Y04421*
X04615Y04416*
X04619Y04413*
X04624Y04412*
X04625Y04412*
X04626Y04407*
X04629Y04402*
X04633Y044*
X04638Y04399*
X04639Y04398*
X0464Y04393*
X04643Y04388*
X04647Y04386*
X04652Y04385*
X04653Y04384*
X04654Y04379*
X04657Y04375*
X04661Y04372*
X04666Y04371*
X04667Y0437*
X04668Y04365*
X04671Y04361*
X04675Y04358*
X0468Y04357*
X04681Y04356*
X04682Y04351*
X04685Y04347*
X04689Y04344*
X04694Y04343*
X04695Y04342*
X04696Y04337*
X04699Y04333*
X04703Y0433*
X04708Y04329*
X04709Y04328*
X0471Y04323*
X04713Y04319*
X04717Y04316*
X04722Y04315*
X04723Y04314*
X04724Y04309*
X04727Y04305*
X04731Y04302*
X04736Y04301*
X04737Y043*
X04738Y04295*
X0474Y04291*
X04745Y04288*
X0475Y04287*
X0475Y04286*
X04751Y04281*
X04754Y04277*
X04759Y04274*
X04764Y04273*
X04764Y04273*
X04765Y04267*
X04768Y04263*
X04771Y04262*
X04774Y04258*
X04777Y0424*
X04778Y0424*
X04924*
Y04267*
X04934*
X04942Y04259*
X04946Y04257*
X0495Y04256*
X04955Y04257*
X04959Y04259*
X04962Y04263*
X04962Y04268*
X04962Y04273*
X04959Y04277*
X04948Y04287*
X04944Y0429*
X04939Y04291*
X04924*
Y04305*
X04916Y04312*
X04841*
X04839Y04317*
X0486Y04338*
X04924*
Y04317*
X0498*
Y04379*
X04924*
Y04362*
X04861*
X04859Y04367*
X04862Y0437*
X04882*
X04887Y04371*
X04891Y04373*
X04893Y04375*
X04895Y04375*
X04902Y04376*
X04909Y04381*
X04913Y04387*
X04915Y04395*
X04913Y04402*
X04909Y04409*
X04902Y04413*
X04895Y04415*
X04887Y04413*
X04886Y04413*
X04883Y04416*
X04891Y04425*
X04985*
X04989Y04426*
X04993Y04428*
X0501Y04445*
X05011Y04444*
X05018Y04444*
X05025Y04444*
X05032Y04447*
X05038Y04452*
X05042Y04457*
X05045Y04464*
X05046Y04471*
X05045Y04478*
X05042Y04484*
X05038Y0449*
X05032Y04494*
X05025Y04497*
X05018Y04498*
X05011Y04497*
X05005Y04494*
X04999Y0449*
X04995Y04484*
X04992Y04478*
X04991Y04471*
X04992Y04464*
X04993Y04462*
X04979Y04449*
X04973*
X04971Y04454*
X04972Y04455*
X04976Y0446*
X04979Y04467*
X04979Y04474*
X04979Y04481*
X04976Y04488*
X04972Y04493*
X04966Y04497*
X04959Y045*
X04952Y04501*
X04945Y045*
X04939Y04497*
X04933Y04493*
X04929Y04488*
X04928Y04486*
X04904*
X04902Y04491*
X05024Y04613*
X05164*
Y04599*
X05238*
Y0466*
X05164*
Y04637*
X05027*
X05025Y04642*
X05103Y0472*
X05106Y04724*
X05107Y04729*
Y04833*
X05735Y05461*
X05737Y0546*
X05744Y05458*
X05752Y0546*
X05758Y05464*
X05761Y0546*
X05581Y0528*
X05578Y05276*
X05577Y05271*
Y05254*
X05356Y05033*
X05354Y05029*
X05353Y05024*
Y04667*
X05198Y04513*
X05196Y04509*
X05195Y04504*
Y04457*
X05087Y04349*
X05084Y04345*
X05083Y0434*
Y04194*
X05023Y04134*
X04858*
X04838Y04154*
X04839Y0416*
X04841Y04162*
X04844Y04166*
X04845Y04171*
X04844Y04174*
X04848Y04179*
X04853*
Y04171*
X04914*
Y04179*
X04928*
Y04174*
X0499*
Y04187*
X05001*
X05005Y04188*
X05009Y0419*
X05026Y04207*
X05029Y04207*
X05036Y04208*
X05043Y04213*
X05047Y04219*
X05049Y04227*
X05047Y04234*
X05043Y04241*
X05036Y04245*
X05029Y04247*
X05021Y04245*
X05015Y04241*
X0501Y04234*
X05009Y04227*
X05009Y04225*
X04996Y04211*
X0499*
Y04235*
X04928*
Y04203*
X04914*
Y04226*
X04853*
Y04203*
X04818*
X04801Y04221*
X04797Y04223*
X04791Y04224*
X04786Y04223*
X04782Y04221*
X04779Y04216*
X04778Y04211*
X04778Y04211*
X04773Y0421*
X04768Y04207*
X04765Y04202*
X04764Y04197*
X04764Y04197*
X04759Y04196*
X04754Y04193*
X04751Y04188*
X0475Y04183*
X0475Y04183*
X04745Y04182*
X0474Y04179*
X04738Y04175*
X04737Y0417*
X04736Y04169*
X04731Y04168*
X04727Y04165*
X04724Y04161*
X04723Y04156*
X04722Y04155*
X04717Y04154*
X04713Y04151*
X0471Y04147*
X04709Y04142*
X04708Y04141*
X04703Y0414*
X04699Y04137*
X04696Y04133*
X04695Y04128*
X04694Y04127*
X04689Y04126*
X04686Y04124*
X04682Y04125*
X04681Y04126*
Y04141*
X04692Y04152*
X04694Y04151*
X04702Y04153*
X04708Y04157*
X04712Y04164*
X04714Y04171*
X04712Y04179*
X04708Y04185*
X04702Y0419*
X04694Y04191*
X04686Y0419*
X0468Y04185*
X04676Y04179*
X04674Y04171*
X04675Y04169*
X04666Y04161*
X04662Y04163*
Y04229*
X04671Y04238*
X04673Y04237*
X04681Y04239*
X04687Y04243*
X04691Y0425*
X04693Y04257*
X04691Y04265*
X04687Y04271*
X04681Y04276*
X04673Y04277*
X04666Y04276*
X04659Y04271*
X04655Y04265*
X04653Y04257*
X04654Y04255*
X04641Y04242*
X04638Y04238*
X04637Y04234*
Y04103*
X04635Y04099*
X04599*
X04594Y04103*
X04587Y04106*
X0458Y04107*
X04573Y04106*
X04566Y04103*
X04561Y04099*
X04556Y04093*
X04553Y04086*
X04552Y04079*
X04553Y04072*
X04556Y04065*
X04557Y04064*
X04557Y04061*
X04552Y04054*
X04552Y04051*
X04551Y04047*
X04544Y04048*
X04536Y04047*
X0453Y04044*
X04524Y0404*
X0452Y04034*
X04517Y04027*
X04516Y0402*
X04517Y04013*
X04518Y0401*
X04516Y04006*
X04513Y04005*
X04506Y04001*
X04503Y03996*
X04498Y03996*
X04498Y03996*
X04495Y04*
X04489Y04004*
X04481Y04006*
X04473Y04004*
X04467Y04*
X04463Y03993*
X04461Y03986*
X04463Y03978*
X04466Y03973*
Y03912*
X04467Y03908*
X04467Y03907*
X04464Y03902*
X04462Y039*
X04459Y03896*
X04458Y03891*
X04457Y0389*
X04452Y03889*
X04448Y03887*
X04445Y03882*
X04444Y03877*
X04445Y03872*
X04448Y03868*
X04488Y03828*
X04492Y03825*
X04503Y03815*
Y03751*
X04504Y03746*
X04506Y03742*
X04568Y03681*
Y03495*
X04558*
Y03602*
X04557Y03607*
X04557Y03608*
X04556Y03616*
X04551Y03622*
X04545Y03626*
X04537Y03628*
X0453Y03626*
X04523Y03622*
X04519Y03616*
X04517Y03608*
X04519Y036*
X04523Y03594*
X04523Y03594*
Y03495*
X0451*
Y03421*
X04569*
X04572Y03417*
X04603Y03385*
X04607Y03382*
X04612Y03381*
X04613*
Y03342*
X04618*
Y03296*
X04613*
Y03239*
X02969*
X02956Y03242*
X02943Y03247*
X02932Y03255*
X02927Y0326*
X02926Y0326*
X02906Y0328*
X02899Y03287*
X02882Y03298*
X02875Y03301*
X02874Y03307*
X02877Y03309*
X02882Y03315*
X02883Y03323*
X02882Y0333*
X02877Y03337*
X02876Y03338*
Y03387*
X03102Y03614*
X03105Y03614*
X03106Y03608*
X03105Y03608*
X03001Y03503*
X02943Y03446*
X0294Y03441*
X02939Y03436*
Y03364*
X0294Y03358*
X02943Y03353*
X03005Y03291*
Y03262*
X03079*
Y03323*
X03016*
X02969Y0337*
Y0343*
X03011Y03472*
X03031Y03453*
X03035Y03449*
X03041Y03448*
X03111*
Y03432*
X03185*
Y03494*
X03111*
Y03478*
X03047*
X03032Y03493*
X03106Y03567*
X03111Y03565*
Y03512*
X03185*
Y03514*
X03187Y03518*
X03249*
Y03573*
X03235*
Y03617*
X03241Y0362*
X03248Y03625*
X03254Y03633*
X03258Y03642*
X03259Y03651*
X03258Y03661*
X03254Y0367*
X03248Y03678*
X03241Y03683*
X03232Y03687*
X03222Y03688*
X03213Y03687*
X03204Y03683*
X03196Y03678*
X0319Y0367*
X03187Y03661*
X03185Y03651*
X03187Y03642*
X0319Y03633*
X03196Y03625*
X03204Y0362*
X0321Y03617*
Y03573*
X03187*
X03185Y03574*
X03182*
X0316*
X0316Y03579*
X0316Y03579*
X03167Y03583*
X03171Y0359*
X03173Y03597*
X03171Y03605*
X03167Y03611*
X0316Y03616*
X03159Y03616*
Y03688*
X03086*
Y03632*
X02855Y03401*
X02852Y03397*
X02851Y03392*
Y03338*
X02849Y03337*
X02845Y0333*
X02843Y03323*
X02845Y03315*
X02846Y03314*
X02843Y03309*
X02835Y0331*
X02714*
X02705Y03312*
X02688Y03319*
X02681Y03323*
X02677Y03327*
X02655Y03349*
X02649Y03355*
X02639Y0337*
X02633Y03384*
X0263Y03397*
X02629Y03401*
X02629Y03409*
Y03413*
Y0406*
X02634Y04062*
X02635Y04062*
Y03766*
X02636Y0376*
X0264Y03754*
X02678Y03715*
Y03672*
X02739*
Y03743*
X02744Y03745*
X02758Y03731*
Y03672*
X02762*
Y03611*
X02761Y03611*
X02755Y03607*
X02751Y03601*
X02748Y03594*
X02747Y03587*
X02748Y0358*
X02751Y03574*
X02755Y03568*
X02761Y03564*
X02767Y03561*
X02774Y0356*
X02781Y03561*
X02788Y03564*
X02794Y03568*
X02798Y03574*
X02801Y0358*
X02802Y03587*
X02801Y03594*
X02798Y03601*
X02794Y03607*
X02788Y03611*
X02787Y03611*
Y03672*
X02819*
Y0374*
X02824Y03742*
X0283Y03737*
Y03611*
X02829Y0361*
X02823Y03606*
X02819Y036*
X02816Y03594*
X02815Y03587*
X02816Y03579*
X02819Y03573*
X02823Y03567*
X02829Y03563*
X02835Y0356*
X02842Y03559*
X02849Y0356*
X02856Y03563*
X02862Y03567*
X02866Y03573*
X02869Y03579*
X0287Y03587*
X02869Y03594*
X02867Y03598*
X02871Y036*
X02881Y03591*
X02885Y03588*
X02887Y03588*
X02888Y03587*
X02888Y03583*
X02891Y03576*
X02895Y0357*
X02901Y03566*
X02907Y03563*
X02914Y03562*
X02922Y03563*
X02928Y03566*
X02934Y0357*
X02938Y03576*
X02941Y03583*
X02941Y03587*
X02947Y03589*
X02953Y03583*
X02957Y0358*
X02961Y03579*
X02962*
X02962Y03578*
X02966Y03572*
X02972Y03568*
X02979Y03565*
X02986Y03564*
X02993Y03565*
X02999Y03568*
X03005Y03572*
X03009Y03578*
X03012Y03585*
X03013Y03592*
X03012Y03599*
X03009Y03605*
X03005Y03611*
X02999Y03615*
X02993Y03618*
X02986Y03619*
X02979Y03618*
X02972Y03615*
X02966Y03611*
X02966Y0361*
X02961Y0361*
X02889Y03682*
Y03744*
X02893Y03746*
X02961Y03678*
X02961Y03678*
X0296Y03671*
X02961Y03664*
X02963Y03657*
X02968Y03652*
X02973Y03647*
X0298Y03644*
X02987Y03644*
X02994Y03644*
X03001Y03647*
X03006Y03652*
X0301Y03657*
X03013Y03664*
X03014Y03671*
X03013Y03678*
X0301Y03684*
X03006Y0369*
X03001Y03694*
X02994Y03697*
X02987Y03698*
X0298Y03697*
X02978Y03696*
X02758Y03916*
Y03922*
X02764Y03924*
X02771Y03928*
X02775Y03934*
X02776Y03942*
X02775Y0395*
X02771Y03956*
X02764Y0396*
X02758Y03962*
Y0427*
X02765Y04276*
X0277Y04275*
X0277Y04274*
X02767Y04269*
X02765Y04262*
X02767Y04254*
X02771Y04248*
X02778Y04243*
X02785Y04242*
X02793Y04243*
X02799Y04248*
X02804Y04254*
X02805Y04262*
X02804Y04269*
X02799Y04276*
X02798Y04277*
Y04285*
X02969Y04457*
X02972Y04461*
X02973Y04466*
Y04486*
X02994*
X02996Y04485*
X03002Y0448*
X0301Y04479*
X03017Y0448*
X03024Y04485*
X03028Y04491*
X0303Y04499*
X03028Y04506*
X03024Y04513*
X03017Y04517*
X0301Y04519*
X03002Y04517*
X02996Y04513*
X02994Y04511*
X02973*
Y04613*
X03061*
Y04604*
X03162*
Y04646*
X03061*
Y04637*
X02973*
Y04694*
X02992Y04712*
X02994Y04716*
X02995Y04721*
Y04976*
X03059*
Y04968*
X0316*
Y05009*
X03059*
Y05001*
X02995*
Y05201*
X03Y05201*
X03002Y05194*
X03006Y05188*
X03012Y05183*
X03014Y05183*
X03024Y05173*
Y05143*
X03011*
Y05069*
X03072*
Y05143*
X03059*
Y0518*
X03058Y05187*
X03054Y05192*
X03039Y05208*
X03038Y05209*
X03034Y05216*
X03028Y0522*
X0302Y05222*
X03012Y0522*
X03006Y05216*
X03002Y05209*
X03Y05202*
X02995Y05203*
Y0531*
X0303Y05344*
X03061*
Y05336*
X03162*
Y05363*
X03179Y0538*
X03182Y05384*
X03183Y05389*
Y05599*
X03192Y05608*
X03201Y05605*
X03212Y05603*
X03223Y05605*
X03233Y05609*
X03242Y05616*
X03249Y05624*
X03253Y05635*
X03254Y05646*
X03253Y05657*
X03249Y05667*
X03242Y05676*
X03233Y05682*
X03223Y05686*
X03212Y05688*
X03205Y05687*
X032Y05691*
Y05733*
X03205Y05735*
X03275Y05665*
X03271Y05657*
X0327Y05646*
X03271Y05635*
X03275Y05624*
X03282Y05616*
X03291Y05609*
X03301Y05605*
X03312Y05603*
X03323Y05605*
X03333Y05609*
X03342Y05616*
X03349Y05624*
X03353Y05635*
X03354Y05646*
X03353Y05657*
X03349Y05667*
X03342Y05676*
X03333Y05682*
X03323Y05686*
X03312Y05688*
X03301Y05686*
X03292Y05683*
X03224Y05751*
Y06045*
X0323Y06049*
X03232Y06053*
X03237Y06051*
Y06001*
X03311*
Y06037*
X03324*
Y06004*
X03385*
Y06037*
X03403*
Y06017*
X03434*
X03437Y06015*
X03438Y06014*
X03441*
X03441Y06011*
X03445Y06006*
X03463Y05988*
X03469Y05984*
X03475Y05983*
X03533*
X03539Y05984*
X03545Y05988*
X03549Y05993*
X0355Y06*
X03549Y06007*
X03545Y06012*
X03539Y06016*
X03533Y06017*
X03512*
Y06081*
X03507*
Y06095*
X03524*
Y06169*
X03463*
Y06095*
X03483*
Y06081*
X03478*
X03474Y06083*
X03438*
X03434Y06081*
X03403*
Y06061*
X03311*
Y06062*
X03288*
Y064*
X0332Y06432*
X03322Y06436*
X03323Y06441*
Y06459*
X03344*
X03345*
X03349*
X0335*
X0336*
Y06407*
X03323*
Y06345*
X03397*
Y06368*
X03402Y0637*
X03404Y06367*
X0341Y06363*
X03418Y06361*
X03426Y06363*
X03432Y06367*
X03436Y06373*
X03438Y06381*
X03436Y06389*
X03432Y06395*
X0343Y06396*
Y06459*
X03443*
X03444*
X03448*
X03449*
X03458*
Y0645*
X03454Y06444*
X03453Y06437*
X03454Y06429*
X03458Y06423*
Y064*
X03444*
Y06339*
X03518*
Y064*
X03485*
X03483Y06402*
Y0642*
X03487Y06422*
X03491Y06429*
X03493Y06437*
X03491Y06444*
X03487Y06451*
X03483Y06453*
Y06459*
X03492*
X03493*
X03497*
X03498*
X03542*
Y06536*
X03498*
X03497*
X03493*
X03492*
X03449*
X03448*
X03444*
X03443*
X034*
X03398*
X03395*
X03393*
X0335*
X03349*
X03345*
X03344*
X03301*
X033*
X03296*
X03252*
X03251*
X03247*
X03246*
X03202*
X03198*
X03154*
X03152*
X03149*
X03103*
Y06459*
X0311*
Y06447*
X03108Y06446*
X03104Y06439*
X03102Y06432*
X03104Y06424*
X03108Y06418*
X0311Y06417*
Y064*
X03072*
Y06339*
X03141*
X03144Y06334*
X0313Y0632*
X03072*
Y0627*
X03067Y06268*
X03005Y0633*
Y06452*
X03006Y06453*
X03011Y0646*
X03012Y06467*
X03011Y06475*
X03006Y06481*
X03Y06486*
X02992Y06487*
X02985Y06486*
X02978Y06481*
X02974Y06475*
X02973Y06467*
X02974Y0646*
X02978Y06453*
X0298Y06452*
Y06325*
X02981Y0632*
X02984Y06316*
X03148Y06152*
Y05884*
X03145Y05882*
X03141Y05876*
X03139Y05868*
X03141Y05861*
X03145Y05854*
X03151Y05851*
Y05833*
X03151Y05833*
Y05688*
X0307*
Y05604*
X03154*
X03158Y05601*
Y05427*
X03124*
Y0545*
X03123Y05454*
X0312Y05458*
X03119Y05459*
Y05509*
X03058*
Y05435*
X03099*
Y05427*
X03061*
Y05419*
X03037*
X03032Y05418*
X03028Y05415*
X03006Y05393*
X03001Y05395*
X03001Y05398*
X02996Y05404*
X0299Y05408*
X02982Y0541*
X02977Y05409*
X02974Y05413*
X02996Y05435*
X03039*
Y05509*
X03016*
X02992Y05533*
Y05548*
X03005*
Y0555*
X03024*
X03025Y05549*
X03033Y05548*
X03041Y05549*
X03047Y05554*
X03051Y0556*
X03053Y05568*
X03051Y05575*
X03047Y05582*
X03041Y05586*
X03033Y05587*
X03025Y05586*
X03024Y05585*
X03005*
Y05622*
X02944*
Y05548*
X02957*
Y05526*
X02959Y0552*
X02962Y05514*
X02978Y05498*
Y05466*
X02906Y05394*
X02902Y05388*
X02901Y05382*
X02901Y05379*
Y05209*
X029Y05208*
X02899Y052*
X029Y05193*
X02901Y05191*
Y05098*
X0287Y05066*
X02866Y05061*
X02865Y05054*
Y04871*
X02841Y04847*
X02836Y04848*
X02828Y04846*
X02822Y04842*
X02817Y04836*
X02816Y04828*
X02817Y0482*
X02817Y0482*
X02816Y04815*
Y04706*
X02812Y04699*
X02811Y04692*
X02812Y04684*
X02816Y04678*
Y04497*
X02791Y04472*
X02789Y04472*
X02782Y04471*
X02775Y04466*
X02771Y0446*
X02769Y04452*
X0277Y04451*
X0264Y0432*
X02636Y04315*
X02635Y04308*
Y04089*
X02634Y04089*
X02629Y04091*
Y0481*
X02634Y04812*
X02655Y0479*
X02653Y04784*
X02651Y04775*
X02653Y04765*
X02656Y04756*
X02662Y04749*
X0267Y04743*
X02679Y04739*
X02688Y04738*
X02698Y04739*
X02707Y04743*
X02714Y04749*
X0272Y04756*
X02724Y04765*
X02725Y04775*
X02724Y04784*
X0272Y04793*
X02714Y04801*
X02707Y04807*
X02698Y0481*
X02688Y04812*
X02679Y0481*
X02672Y04808*
X02653Y04827*
Y04853*
X02658Y04854*
X02662Y04849*
X0267Y04843*
X02679Y04839*
X02688Y04838*
X02698Y04839*
X02707Y04843*
X02714Y04849*
X0272Y04856*
X02724Y04865*
X02725Y04875*
X02724Y04884*
X0272Y04893*
X02714Y04901*
X02707Y04907*
X02705Y04907*
Y04938*
X02725*
Y05011*
X02653*
Y05151*
X02802Y05301*
X02807Y05299*
Y05283*
X02767Y05243*
X02765Y05239*
X02764Y05234*
Y05143*
X02765Y05139*
X02767Y05135*
X02774Y05128*
X02772Y05124*
X02658*
Y05031*
X02789*
Y05023*
X02746Y04979*
X02743Y04975*
X02742Y04971*
Y04746*
X02704Y04708*
X02698Y0471*
X02688Y04712*
X02679Y0471*
X0267Y04707*
X02662Y04701*
X02656Y04693*
X02653Y04684*
X02651Y04675*
X02653Y04665*
X02656Y04656*
X02662Y04649*
X0267Y04643*
X02679Y04639*
X02688Y04638*
X02698Y04639*
X02707Y04643*
X02714Y04649*
X0272Y04656*
X02724Y04665*
X02725Y04675*
X02724Y04684*
X02721Y0469*
X02757Y04726*
X02761Y04724*
Y04665*
X02704Y04608*
X02698Y0461*
X02688Y04612*
X02679Y0461*
X0267Y04607*
X02662Y04601*
X02656Y04593*
X02653Y04584*
X02651Y04575*
X02653Y04565*
X02656Y04556*
X02662Y04549*
X0267Y04543*
X02679Y04539*
X02688Y04538*
X02698Y04539*
X02707Y04543*
X02714Y04549*
X0272Y04556*
X02724Y04565*
X02725Y04575*
X02724Y04584*
X02721Y0459*
X02782Y04651*
X02785Y04655*
X02786Y0466*
Y04961*
X02827Y05002*
X0283Y05006*
X02831Y05011*
Y05127*
X0283Y05132*
X02827Y05136*
X02805Y05158*
Y05202*
X02807Y05206*
X02884*
Y05252*
Y05255*
Y053*
Y05301*
Y05305*
Y05306*
Y05349*
Y0535*
Y05354*
Y05355*
Y05399*
Y05403*
Y05449*
X02807*
Y05403*
X02803Y05402*
X02771*
X02766Y05407*
X0276Y05412*
X02752Y05416*
X02744Y05417*
X02735Y05416*
X02727Y05412*
X02721Y05407*
X02716Y05401*
X02712Y05393*
X02711Y05385*
X02712Y05376*
X02716Y05368*
X02721Y05362*
X02727Y05357*
X02735Y05353*
X02744Y05352*
X02752Y05353*
X0276Y05357*
X02766Y05362*
X02771Y05367*
X02807*
Y05355*
Y05354*
Y0535*
Y05349*
Y05339*
X02807Y05339*
X02803Y05336*
X02634Y05167*
X02629Y05169*
Y0652*
Y0658*
X0263Y06592*
X02631Y06599*
X02633Y06608*
X0264Y06625*
X02651Y06641*
X02671Y06661*
X02688Y06678*
Y06678*
Y06678*
X02695Y06685*
X02711Y06696*
X02729Y06704*
X02749Y06707*
X05471*
X0549Y06704*
G37*
G36*
X05533Y04035D02*
X05526Y04028D01*
X05521Y0403*
Y04031*
X05447*
Y04002*
X05435*
X05429Y04001*
X05423Y03997*
X05303Y03877*
X05297Y03877*
X05292Y03881*
X05286Y03882*
X052*
X05199Y03881*
X05197*
X05196Y03881*
X05195Y03881*
X05193Y0388*
X05192Y03879*
X05191Y03878*
X0519Y03877*
X05185Y03878*
X05179Y03881*
X05172Y03882*
X05165Y03881*
X05158Y03878*
X05154Y03877*
X05152Y03878*
X05151Y03879*
X0515Y0388*
X05149Y03881*
X05147Y03881*
X05146Y03881*
X05144*
X05143Y03882*
X05133*
X05133Y03882*
X05132Y03882*
X0513Y03881*
X05127Y03881*
X05127Y0388*
X05127Y0388*
X05125Y03879*
X05124Y03878*
X05122Y0388*
X05117Y03884*
X0511Y03887*
X05103Y03888*
X05096Y03887*
X05089Y03884*
X05084Y0388*
X05082Y03878*
X05082Y03879*
X0508Y0388*
X05079Y0388*
X05079Y03881*
X05076Y03881*
X05074Y03882*
X05073Y03882*
X05073Y03882*
X04958*
X04952Y03881*
X04947Y03877*
X04836Y03766*
X04833Y03761*
X04832Y03755*
X04828Y03752*
X04787*
X04645Y03893*
Y03922*
X04644Y03926*
X04642Y0393*
X04634Y03938*
X04635Y03945*
X04638Y03947*
X04643Y03954*
X04644Y03962*
X04644Y03965*
X04646Y03967*
X04648Y03969*
X04651Y03969*
X04659Y0397*
X04666Y03975*
X04668Y03978*
X04673Y03978*
X04703Y03948*
Y03946*
X04673Y03916*
X0472Y0387*
X0473Y0388*
X04742Y03868*
X04733Y03858*
X04773Y0382*
X04816Y03864*
X04776Y03902*
X04762Y03888*
X04757Y03888*
X04747Y03897*
X04757Y03908*
X04728Y03937*
Y0395*
X04729Y03954*
X04732Y03955*
X04746*
X04775Y03926*
X04783Y03934*
X04799Y03918*
X04785Y03905*
X04824Y03866*
X04868Y03909*
X04829Y03948*
X04816Y03935*
X048Y03951*
X04813Y03963*
X04767Y04009*
X04737Y0398*
X04734*
X04704Y0401*
X04705Y04015*
X04708Y04017*
X04712Y04024*
X04714Y04032*
X04713Y04035*
X04716Y04036*
X04719Y04041*
X0472Y04046*
X0472Y04046*
X04726Y04047*
X0473Y0405*
X04731Y04052*
X04737Y04053*
X04793Y03997*
X04797Y03995*
X04802Y03994*
X05336*
X05341Y03995*
X05345Y03997*
X05425Y04078*
X05447*
Y0405*
X05521*
Y04078*
X05533*
Y04035*
G37*
G36*
X04022Y05208D02*
X04026Y05205D01*
X0403Y05204*
X04172*
Y05186*
X04213*
Y05099*
X04214Y05099*
Y05093*
X04213Y05089*
X04209Y05089*
X04203*
X04203Y05089*
X04132*
X04128Y05088*
X04124Y05085*
X04109Y05071*
X04058*
Y04997*
X04119*
Y05048*
X04137Y05066*
X04178*
X04182Y05062*
X04183Y05057*
X04185Y05054*
X04183Y0505*
X04182Y05046*
X04183Y05042*
X04185Y05038*
X04183Y05034*
X04182Y0503*
X04183Y05026*
X04185Y05022*
X04183Y05019*
X04182Y05014*
X04183Y0501*
X04185Y05007*
X04183Y05003*
X04182Y04999*
X04183Y04994*
X04185Y04991*
X04189Y04988*
X04193Y04988*
X04209*
X04213Y04987*
X04214Y04983*
Y04967*
X04214Y04963*
X04217Y04959*
X0422Y04957*
X04222Y04957*
X04223Y04951*
X04199Y04927*
X04158*
Y04917*
X04134*
X0413Y04917*
X04126Y04917*
X04073*
X04026Y04964*
Y04997*
X04039*
Y05071*
X04026*
Y05089*
X04039*
Y05163*
X03996*
X03953Y05206*
Y05223*
X04007*
X04022Y05208*
G37*
%LNpcb_obdh-2*%
%LPC*%
G36*
X04876Y03678D02*
X04869Y03676D01*
X04863Y03672*
X04858Y03666*
X04857Y03659*
Y03596*
X04858Y03588*
X04863Y03582*
X04869Y03578*
X04876Y03576*
X04883Y03578*
X0489Y03582*
X04894Y03588*
X04895Y03596*
Y03659*
X04894Y03666*
X0489Y03672*
X04883Y03676*
X04876Y03678*
G37*
G36*
X05213Y03791D02*
X05206Y0379D01*
X05199Y03786*
X05195Y03779*
X05193Y03772*
X05195Y03764*
X05196Y03762*
Y03538*
X05197Y03531*
X05201Y03525*
X05207Y03522*
X05213Y0352*
X0522Y03522*
X05221Y03523*
X05225Y03523*
X05231Y03528*
X05236Y03534*
X05237Y03542*
X05236Y03549*
X05231Y03556*
X05231Y03556*
Y03762*
X05232Y03764*
X05233Y03772*
X05232Y03779*
X05227Y03786*
X05221Y0379*
X05213Y03791*
G37*
G36*
X0516Y03813D02*
X05153Y03812D01*
X05146Y0381*
X05141Y03805*
X05136Y038*
X05134Y03793*
X05133Y03786*
X05134Y03779*
X05136Y03772*
X05141Y03767*
X05146Y03762*
X05153Y0376*
X05159Y03759*
Y03506*
X05151Y03499*
X05148Y035*
X0514Y03498*
X05134Y03494*
X05129Y03487*
X05128Y0348*
X05129Y03472*
X05134Y03466*
X0514Y03461*
X05148Y0346*
X05155Y03461*
X05162Y03466*
X05166Y03472*
X05168Y0348*
X05167Y0348*
X0518Y03493*
X05182Y03497*
X05183Y03501*
Y03772*
X05184Y03772*
X05186Y03779*
X05187Y03786*
X05186Y03793*
X05184Y038*
X05179Y03805*
X05174Y0381*
X05167Y03812*
X0516Y03813*
G37*
G36*
X04926Y03678D02*
X04919Y03676D01*
X04913Y03672*
X04908Y03666*
X04907Y03659*
Y03596*
X04908Y03588*
X04913Y03582*
X04919Y03578*
X04926Y03576*
X04933Y03578*
X0494Y03582*
X04944Y03588*
X04945Y03596*
Y03659*
X04944Y03666*
X0494Y03672*
X04933Y03676*
X04926Y03678*
G37*
G36*
X0505Y03512D02*
X05005D01*
X05Y03511*
X04996Y03509*
X04976Y03489*
X04976Y03489*
X04969Y03487*
X04963Y03483*
X04958Y03477*
X04957Y0347*
Y03407*
X04958Y03399*
X04963Y03393*
X04969Y03389*
X04976Y03387*
X04981Y03388*
X04984Y03384*
X04972Y03372*
Y03292*
X04981Y03292*
X04982Y03289*
X04986Y03284*
X0499Y03279*
X04995Y03276*
X05002Y03274*
X05009Y03276*
X05014Y03279*
X05018Y03285*
X05019Y03291*
X05031Y03291*
Y03346*
X05051Y03365*
Y03475*
X05056Y03477*
X05068Y03465*
X05068Y03463*
X05067Y03456*
X05068Y03449*
X0507Y03443*
X05075Y03437*
X0508Y03433*
X05087Y0343*
X05094Y03429*
X05101Y0343*
X05108Y03433*
X05113Y03437*
X05118Y03443*
X0512Y03449*
X05121Y03456*
X0512Y03463*
X05118Y0347*
X05113Y03475*
X05108Y0348*
X05101Y03483*
X05094Y03483*
X05087Y03483*
X05086Y03482*
X05059Y03509*
X05055Y03511*
X0505Y03512*
G37*
G36*
X05684Y04815D02*
X05623D01*
Y04741*
X05642*
Y04725*
X05637Y04721*
X05631Y04714*
X05628Y04707*
X05627Y04698*
X05628Y0469*
X05631Y04682*
X05637Y04676*
X05643Y0467*
X05643Y0467*
Y04661*
X05633*
Y046*
X05643*
Y04582*
X05628*
Y0452*
X05689*
Y04534*
X05699*
X05705Y04535*
X05711Y04539*
X05714Y04541*
X05714Y04541*
X05721Y04543*
X05728Y04547*
X05732Y04554*
X05734Y04561*
X05732Y04569*
X05728Y04575*
X05721Y0458*
X05714Y04581*
X05706Y0458*
X057Y04575*
X05697Y04571*
X05696Y04571*
X05694Y0457*
X05689Y04572*
Y04582*
X05678*
Y046*
X05688*
Y04661*
X05678*
Y04672*
X05682Y04676*
X05687Y04682*
X05691Y0469*
X05692Y04698*
X05691Y04707*
X05687Y04714*
X05682Y04721*
X05677Y04725*
Y04741*
X05684*
Y04815*
G37*
G36*
X06011Y04652D02*
X06002Y04651D01*
X05993Y04647*
X05985Y04641*
X05979Y04634*
X05976Y04625*
X05974Y04615*
X05976Y04606*
X05979Y04597*
X05985Y04589*
X05993Y04583*
X06002Y0458*
X06011Y04578*
X06021Y0458*
X0603Y04583*
X06037Y04589*
X06043Y04597*
X06047Y04606*
X06048Y04615*
X06047Y04625*
X06043Y04634*
X06037Y04641*
X0603Y04647*
X06021Y04651*
X06011Y04652*
G37*
G36*
X06111D02*
X06102Y04651D01*
X06093Y04647*
X06085Y04641*
X06079Y04634*
X06076Y04625*
X06074Y04615*
X06076Y04606*
X06079Y04597*
X06085Y04589*
X06093Y04583*
X06102Y0458*
X06111Y04578*
X06121Y0458*
X0613Y04583*
X06137Y04589*
X06143Y04597*
X06147Y04606*
X06148Y04615*
X06147Y04625*
X06143Y04634*
X06137Y04641*
X0613Y04647*
X06121Y04651*
X06111Y04652*
G37*
G36*
X05911D02*
X05902Y04651D01*
X05893Y04647*
X05885Y04641*
X05879Y04634*
X05876Y04625*
X05874Y04615*
X05876Y04606*
X05879Y04597*
X05885Y04589*
X05893Y04583*
X05902Y0458*
X05911Y04578*
X05921Y0458*
X0593Y04583*
X05937Y04589*
X05943Y04597*
X05947Y04606*
X05948Y04615*
X05947Y04625*
X05943Y04634*
X05937Y04641*
X0593Y04647*
X05921Y04651*
X05911Y04652*
G37*
G36*
X03289Y04598D02*
X03282Y04597D01*
X03275Y04592*
X03271Y04586*
X03269Y04578*
X0327Y04576*
X03237Y04544*
X03235Y0454*
X03234Y04535*
Y04324*
X03063Y04154*
X03042*
X0304Y04156*
X03034Y0416*
X03026Y04162*
X03019Y0416*
X03012Y04156*
X03011Y04154*
X02992*
Y04163*
X02995*
Y04208*
X02992*
Y04216*
X03022*
X03024Y04214*
X0303Y0421*
X03038Y04208*
X03045Y0421*
X03052Y04214*
X03056Y04221*
X03058Y04228*
X03056Y04236*
X03052Y04242*
X03045Y04247*
X03038Y04248*
X0303Y04247*
X03024Y04242*
X03022Y0424*
X02992*
Y04264*
X03024*
X03025Y04262*
X03031Y04258*
X03039Y04256*
X03046Y04258*
X03053Y04262*
X03057Y04268*
X03059Y04276*
X03057Y04283*
X03053Y0429*
X03046Y04294*
X03039Y04296*
X03031Y04294*
X03025Y0429*
X03024Y04288*
X02992*
Y04295*
X02929*
Y04249*
Y04208*
X02888*
X02877Y04197*
X02878Y04196*
Y04179*
X02894Y04163*
X02929*
Y04114*
X02908*
X02901Y04113*
X02896Y04109*
X02891Y04104*
X02889Y04104*
X02882Y041*
X02878Y04093*
X02876Y04086*
X02878Y04078*
X02882Y04072*
X02889Y04067*
X02896Y04066*
X02904Y04067*
X0291Y04072*
X02915Y04078*
X02915Y0408*
X02929*
Y04033*
Y0399*
Y03946*
X02948*
Y03929*
X02949Y03925*
X02952Y03921*
X02968Y03904*
X02968Y03902*
X02969Y03895*
X02974Y03888*
X0298Y03884*
X02988Y03882*
X02995Y03884*
X03002Y03888*
X03006Y03895*
X03008Y03902*
X03006Y0391*
X03002Y03916*
X02995Y03921*
X02988Y03922*
X02986Y03922*
X02973Y03934*
Y03946*
X02992*
Y04*
X03002*
X03033Y03969*
Y03953*
X03031Y03952*
X03026Y03946*
X03025Y03938*
X03026Y0393*
X03031Y03924*
X03037Y0392*
X03045Y03918*
X03052Y0392*
X03059Y03924*
X03063Y0393*
X03065Y03938*
X03063Y03946*
X03059Y03952*
X03057Y03953*
Y03974*
X03056Y03979*
X03053Y03983*
X03015Y04021*
X03011Y04024*
X03007Y04025*
X02992*
Y04043*
X03006*
X03011Y04044*
X03015Y04047*
X03019Y04051*
X03021Y0405*
X03029Y04052*
X03035Y04056*
X0304Y04063*
X03041Y0407*
X03041Y04073*
X03272Y04304*
X03274Y04307*
X03275Y04312*
Y04495*
X03282Y04501*
X03288Y045*
X03296Y04501*
X033Y04504*
X03305Y04504*
X03406*
Y04546*
X03305*
Y04537*
X03297*
X03296Y04538*
X03288Y04539*
X03281Y04538*
X03274Y04534*
X0327Y04527*
X03269Y04523*
X03263Y04517*
X03258Y04519*
Y0453*
X03287Y04559*
X03289Y04558*
X03297Y0456*
X033Y04562*
X03305Y0456*
Y04554*
X03406*
Y04596*
X03305*
X033Y04594*
X03297Y04597*
X03289Y04598*
G37*
G36*
X05811Y04652D02*
X05802Y04651D01*
X05793Y04647*
X05785Y04641*
X05779Y04634*
X05776Y04625*
X05774Y04615*
X05776Y04606*
X05779Y04597*
X05785Y04589*
X05793Y04583*
X05802Y0458*
X05811Y04578*
X05821Y0458*
X0583Y04583*
X05837Y04589*
X05843Y04597*
X05847Y04606*
X05848Y04615*
X05847Y04625*
X05843Y04634*
X05837Y04641*
X0583Y04647*
X05821Y04651*
X05811Y04652*
G37*
G36*
X06111Y04452D02*
X06102Y04451D01*
X06093Y04447*
X06085Y04441*
X06079Y04434*
X06076Y04425*
X06074Y04415*
X06076Y04406*
X06079Y04397*
X06085Y04389*
X06093Y04383*
X06102Y0438*
X06111Y04378*
X06121Y0438*
X0613Y04383*
X06137Y04389*
X06143Y04397*
X06147Y04406*
X06148Y04415*
X06147Y04425*
X06143Y04434*
X06137Y04441*
X0613Y04447*
X06121Y04451*
X06111Y04452*
G37*
G36*
X06011D02*
X06002Y04451D01*
X05993Y04447*
X05985Y04441*
X05979Y04434*
X05976Y04425*
X05974Y04415*
X05976Y04406*
X05979Y04397*
X05985Y04389*
X05993Y04383*
X06002Y0438*
X06011Y04378*
X06021Y0438*
X0603Y04383*
X06037Y04389*
X06043Y04397*
X06047Y04406*
X06048Y04415*
X06047Y04425*
X06043Y04434*
X06037Y04441*
X0603Y04447*
X06021Y04451*
X06011Y04452*
G37*
G36*
X05911D02*
X05902Y04451D01*
X05893Y04447*
X05885Y04441*
X05879Y04434*
X05876Y04425*
X05874Y04415*
X05876Y04406*
X05879Y04397*
X05885Y04389*
X05893Y04383*
X05902Y0438*
X05911Y04378*
X05921Y0438*
X0593Y04383*
X05937Y04389*
X05943Y04397*
X05947Y04406*
X05948Y04415*
X05947Y04425*
X05943Y04434*
X05937Y04441*
X0593Y04447*
X05921Y04451*
X05911Y04452*
G37*
G36*
Y04552D02*
X05902Y04551D01*
X05893Y04547*
X05885Y04541*
X05879Y04534*
X05876Y04525*
X05874Y04515*
X05876Y04506*
X05879Y04497*
X05885Y04489*
X05893Y04483*
X05902Y0448*
X05911Y04478*
X05921Y0448*
X0593Y04483*
X05937Y04489*
X05943Y04497*
X05947Y04506*
X05948Y04515*
X05947Y04525*
X05943Y04534*
X05937Y04541*
X0593Y04547*
X05921Y04551*
X05911Y04552*
G37*
G36*
X032Y04825D02*
X03194Y04824D01*
X03188Y0482*
X03184Y04814*
X03183Y04808*
Y04772*
X03165*
Y04711*
X03183*
Y0456*
X03172Y04549*
X03167Y04547*
X0306*
Y04504*
Y04503*
X03059Y04503*
X03062Y045*
X03063*
X03168*
X03168Y04504*
X03172Y04508*
X03173*
X03179Y04509*
X03185Y04513*
X03213Y0454*
X03216Y04546*
X03218Y04553*
Y04711*
X03235*
Y04772*
X03218*
Y04808*
X03216Y04814*
X03213Y0482*
X03207Y04824*
X032Y04825*
G37*
G36*
X06111Y04552D02*
X06102Y04551D01*
X06093Y04547*
X06085Y04541*
X06079Y04534*
X06076Y04525*
X06074Y04515*
X06076Y04506*
X06079Y04497*
X06085Y04489*
X06093Y04483*
X06102Y0448*
X06111Y04478*
X06121Y0448*
X0613Y04483*
X06137Y04489*
X06143Y04497*
X06147Y04506*
X06148Y04515*
X06147Y04525*
X06143Y04534*
X06137Y04541*
X0613Y04547*
X06121Y04551*
X06111Y04552*
G37*
G36*
X06011D02*
X06002Y04551D01*
X05993Y04547*
X05985Y04541*
X05979Y04534*
X05976Y04525*
X05974Y04515*
X05976Y04506*
X05979Y04497*
X05985Y04489*
X05993Y04483*
X06002Y0448*
X06011Y04478*
X06021Y0448*
X0603Y04483*
X06037Y04489*
X06043Y04497*
X06047Y04506*
X06048Y04515*
X06047Y04525*
X06043Y04534*
X06037Y04541*
X0603Y04547*
X06021Y04551*
X06011Y04552*
G37*
G36*
X06111Y04952D02*
X06102Y04951D01*
X06093Y04947*
X06085Y04941*
X06079Y04934*
X06076Y04925*
X06074Y04915*
X06076Y04906*
X06079Y04897*
X06085Y04889*
X06093Y04883*
X06102Y0488*
X06111Y04878*
X06121Y0488*
X0613Y04883*
X06137Y04889*
X06143Y04897*
X06147Y04906*
X06148Y04915*
X06147Y04925*
X06143Y04934*
X06137Y04941*
X0613Y04947*
X06121Y04951*
X06111Y04952*
G37*
G36*
X03437Y04928D02*
X03429Y04926D01*
X03422Y04922*
X03418Y04915*
X03417Y04908*
X03417Y04904*
X03414Y04901*
X03404*
Y04909*
X03304*
Y04868*
X03404*
Y04876*
X03419*
X03423Y04877*
X03427Y0488*
X03436Y04888*
X03437Y04888*
X03444Y04889*
X03451Y04894*
X03455Y049*
X03456Y04908*
X03455Y04915*
X03451Y04922*
X03444Y04926*
X03437Y04928*
G37*
G36*
X05911Y04952D02*
X05902Y04951D01*
X05893Y04947*
X05885Y04941*
X05879Y04934*
X05876Y04925*
X05874Y04915*
X05876Y04906*
X05879Y04897*
X05885Y04889*
X05893Y04883*
X05902Y0488*
X05911Y04878*
X05921Y0488*
X0593Y04883*
X05937Y04889*
X05943Y04897*
X05947Y04906*
X05948Y04915*
X05947Y04925*
X05943Y04934*
X05937Y04941*
X0593Y04947*
X05921Y04951*
X05911Y04952*
G37*
G36*
X06011D02*
X06002Y04951D01*
X05993Y04947*
X05985Y04941*
X05979Y04934*
X05976Y04925*
X05974Y04915*
X05976Y04906*
X05979Y04897*
X05985Y04889*
X05993Y04883*
X06002Y0488*
X06011Y04878*
X06021Y0488*
X0603Y04883*
X06037Y04889*
X06043Y04897*
X06047Y04906*
X06048Y04915*
X06047Y04925*
X06043Y04934*
X06037Y04941*
X0603Y04947*
X06021Y04951*
X06011Y04952*
G37*
G36*
X03404Y05009D02*
X03304D01*
Y04968*
X03404*
Y04971*
X03429*
Y04945*
X03503*
Y05006*
X03429*
Y05006*
X03404*
Y05009*
G37*
G36*
X05811Y05052D02*
X05802Y05051D01*
X05793Y05047*
X05785Y05041*
X05779Y05034*
X05776Y05025*
X05774Y05015*
X05776Y05006*
X05779Y04997*
X05785Y04989*
X05793Y04983*
X05802Y0498*
X05811Y04978*
X05821Y0498*
X0583Y04983*
X05837Y04989*
X05843Y04997*
X05847Y05006*
X05848Y05015*
X05847Y05025*
X05843Y05034*
X05837Y05041*
X0583Y05047*
X05821Y05051*
X05811Y05052*
G37*
G36*
X03039Y04961D02*
X03032Y0496D01*
X03025Y04955*
X03021Y04949*
X03019Y04941*
X03021Y04934*
X03025Y04927*
X03032Y04923*
X03039Y04921*
X03047Y04923*
X03052Y04926*
X03059*
Y04918*
X0316*
Y04959*
X03059*
Y04955*
X03054Y04954*
X03053Y04955*
X03047Y0496*
X03039Y04961*
G37*
G36*
X03288Y04963D02*
X0328Y04962D01*
X03274Y04957*
X03269Y04951*
X03268Y04943*
X03269Y04936*
X03274Y04929*
X0328Y04925*
X03288Y04923*
X03295Y04925*
X03297Y04926*
X03304*
Y04918*
X03404*
Y04959*
X03304*
X03299Y04959*
X03295Y04962*
X03288Y04963*
G37*
G36*
X03116Y04818D02*
X03109Y04816D01*
X03102Y04812*
X03098Y04805*
X03097Y04798*
X03098Y0479*
X03099Y04788*
X03097Y04783*
X03093*
Y04709*
X03099*
Y04696*
X03061*
Y04654*
X03162*
Y04696*
X03124*
Y04709*
X03154*
Y04761*
X03155Y04766*
X03154Y0477*
Y04783*
X03136*
Y0479*
X03135Y04793*
X03136Y04798*
X03135Y04805*
X0313Y04812*
X03124Y04816*
X03116Y04818*
G37*
G36*
X03074Y04783D02*
X03013D01*
Y0474*
X03007Y04734*
X03003Y04729*
X03002Y04722*
Y04696*
X03001Y04695*
X02999Y04687*
X03001Y04679*
X03005Y04673*
X03012Y04669*
X03019Y04667*
X03027Y04669*
X03033Y04673*
X03038Y04679*
X03039Y04687*
X03038Y04695*
X03037Y04696*
Y04709*
X03074*
Y04783*
G37*
G36*
X03406Y04646D02*
X03305D01*
Y04604*
X03406*
Y04608*
X03429*
Y04584*
X03503*
Y04645*
X03429*
Y04642*
X03406*
Y04646*
G37*
G36*
X03162Y04596D02*
X03061D01*
Y04587*
X03051*
X03045Y04591*
X03037Y04593*
X0303Y04591*
X03023Y04587*
X03019Y0458*
X03017Y04573*
X03019Y04565*
X03023Y04559*
X0303Y04554*
X03037Y04553*
X03045Y04554*
X03051Y04559*
X03054Y04563*
X03061*
Y04554*
X03162*
Y04596*
G37*
G36*
X03314Y04859D02*
X03307D01*
X03301Y04858*
X03295Y04854*
X0328Y04838*
X03243*
Y04777*
X03247*
X03248Y04773*
Y04711*
X03273*
X03305Y04679*
Y04654*
X03406*
Y04658*
X03443*
X0345Y04659*
X03455Y04663*
X03456Y04664*
X03503*
Y04725*
X03429*
Y04692*
X03406*
Y04696*
X03337*
X03303Y0473*
Y04773*
X03304Y04777*
Y04777*
Y04814*
X03311Y04821*
X03316Y04818*
X03323Y04817*
X03331Y04818*
X03337Y04822*
X03341Y04829*
X03343Y04837*
X03341Y04844*
X03337Y04851*
X03331Y04855*
X03323Y04856*
X03323Y04856*
X03321Y04858*
X03314Y04859*
G37*
G36*
X05811Y04952D02*
X05802Y04951D01*
X05793Y04947*
X05785Y04941*
X05779Y04934*
X05776Y04925*
X05774Y04915*
X05776Y04906*
X05779Y04897*
X05785Y04889*
X05793Y04883*
X05802Y0488*
X05811Y04878*
X05821Y0488*
X0583Y04883*
X05837Y04889*
X05843Y04897*
X05847Y04906*
X05848Y04915*
X05847Y04925*
X05843Y04934*
X05837Y04941*
X0583Y04947*
X05821Y04951*
X05811Y04952*
G37*
G36*
X05238Y04808D02*
X05164D01*
Y04754*
X05189*
Y0474*
X05164*
Y04679*
X05238*
Y0474*
X05214*
Y04754*
X05238*
Y04808*
G37*
G36*
X056Y04903D02*
X05546D01*
Y04829*
X05556*
Y04815*
X05543*
Y04741*
X05604*
Y04815*
X05591*
Y04829*
X056*
Y04903*
G37*
G36*
X06011Y03752D02*
X06002Y03751D01*
X05993Y03747*
X05985Y03741*
X05979Y03734*
X05976Y03725*
X05974Y03715*
X05976Y03706*
X05979Y03697*
X05985Y03689*
X05993Y03683*
X06002Y0368*
X06011Y03678*
X06021Y0368*
X0603Y03683*
X06037Y03689*
X06043Y03697*
X06047Y03706*
X06048Y03715*
X06047Y03725*
X06043Y03734*
X06037Y03741*
X0603Y03747*
X06021Y03751*
X06011Y03752*
G37*
G36*
X05911D02*
X05902Y03751D01*
X05893Y03747*
X05885Y03741*
X05879Y03734*
X05876Y03725*
X05874Y03715*
X05876Y03706*
X05879Y03697*
X05885Y03689*
X05893Y03683*
X05902Y0368*
X05911Y03678*
X05921Y0368*
X0593Y03683*
X05937Y03689*
X05943Y03697*
X05947Y03706*
X05948Y03715*
X05947Y03725*
X05943Y03734*
X05937Y03741*
X0593Y03747*
X05921Y03751*
X05911Y03752*
G37*
G36*
X05811D02*
X05802Y03751D01*
X05793Y03747*
X05785Y03741*
X05779Y03734*
X05776Y03725*
X05774Y03715*
X05776Y03706*
X05779Y03697*
X05785Y03689*
X05793Y03683*
X05802Y0368*
X05811Y03678*
X05821Y0368*
X0583Y03683*
X05837Y03689*
X05843Y03697*
X05847Y03706*
X05848Y03715*
X05847Y03725*
X05843Y03734*
X05837Y03741*
X0583Y03747*
X05821Y03751*
X05811Y03752*
G37*
G36*
X02739Y03502D02*
X02722Y035D01*
X02707Y03495*
X02692Y03487*
X02679Y03477*
X02669Y03464*
X02661Y0345*
X02656Y03434*
X02655Y03417*
X02656Y03401*
X02661Y03385*
X02669Y03371*
X02679Y03358*
X02692Y03347*
X02707Y0334*
X02722Y03335*
X02739Y03333*
X02755Y03335*
X02771Y0334*
X02786Y03347*
X02798Y03358*
X02809Y03371*
X02817Y03385*
X02821Y03401*
X02823Y03417*
X02821Y03434*
X02817Y0345*
X02809Y03464*
X02798Y03477*
X02786Y03487*
X02771Y03495*
X02755Y035*
X02739Y03502*
G37*
G36*
X04405Y03352D02*
X04396Y0335D01*
X04387Y03347*
X04379Y03341*
X04374Y03333*
X0437Y03324*
X04369Y03315*
X0437Y03305*
X04374Y03296*
X04379Y03289*
X04387Y03283*
X04396Y03279*
X04405Y03278*
X04415Y03279*
X04424Y03283*
X04431Y03289*
X04437Y03296*
X04441Y03305*
X04442Y03315*
X04441Y03324*
X04437Y03333*
X04431Y03341*
X04424Y03347*
X04415Y0335*
X04405Y03352*
G37*
G36*
X04305D02*
X04296Y0335D01*
X04287Y03347*
X04279Y03341*
X04274Y03333*
X0427Y03324*
X04269Y03315*
X0427Y03305*
X04274Y03296*
X04279Y03289*
X04287Y03283*
X04296Y03279*
X04305Y03278*
X04315Y03279*
X04324Y03283*
X04331Y03289*
X04337Y03296*
X04341Y03305*
X04342Y03315*
X04341Y03324*
X04337Y03333*
X04331Y03341*
X04324Y03347*
X04315Y0335*
X04305Y03352*
G37*
G36*
Y03452D02*
X04296Y0345D01*
X04287Y03447*
X04279Y03441*
X04274Y03433*
X0427Y03424*
X04269Y03415*
X0427Y03405*
X04274Y03396*
X04279Y03389*
X04287Y03383*
X04296Y03379*
X04305Y03378*
X04315Y03379*
X04324Y03383*
X04331Y03389*
X04337Y03396*
X04341Y03405*
X04342Y03415*
X04341Y03424*
X04337Y03433*
X04331Y03441*
X04324Y03447*
X04315Y0345*
X04305Y03452*
G37*
G36*
X06112Y036D02*
X06095Y03598D01*
X0608Y03594*
X06065Y03586*
X06052Y03575*
X06042Y03563*
X06034Y03548*
X06029Y03532*
X06028Y03516*
X06029Y03499*
X06034Y03484*
X06042Y03469*
X06052Y03456*
X06065Y03446*
X0608Y03438*
X06095Y03433*
X06112Y03432*
X06128Y03433*
X06144Y03438*
X06159Y03446*
X06171Y03456*
X06182Y03469*
X0619Y03484*
X06194Y03499*
X06196Y03516*
X06194Y03532*
X0619Y03548*
X06182Y03563*
X06171Y03575*
X06159Y03586*
X06144Y03594*
X06128Y03598*
X06112Y036*
G37*
G36*
X05888Y0351D02*
X05875D01*
X05866Y03508*
X05857Y03505*
X0585Y035*
X05846Y03496*
X05838Y03488*
X05836Y03486*
X05832Y0348*
X05829Y03473*
X05827Y03466*
Y03444*
X05829Y03437*
X05832Y03431*
X05836Y03425*
X05838Y03422*
X05842Y03418*
X05846Y03414*
X05856Y03408*
X05866Y03404*
X05877Y03401*
X05891*
X059Y03403*
X05909Y03407*
X05916Y03412*
X05918Y03414*
X05921Y03417*
X05925Y03421*
X05931Y0343*
X05935Y0344*
X05937Y0345*
Y03466*
X05936Y03473*
X05933Y03481*
X05929Y03487*
X05918Y03498*
X05909Y03504*
X05899Y03508*
X05888Y0351*
G37*
G36*
X04405Y03452D02*
X04396Y0345D01*
X04387Y03447*
X04379Y03441*
X04374Y03433*
X0437Y03424*
X04369Y03415*
X0437Y03405*
X04374Y03396*
X04379Y03389*
X04387Y03383*
X04396Y03379*
X04405Y03378*
X04415Y03379*
X04424Y03383*
X04431Y03389*
X04437Y03396*
X04441Y03405*
X04442Y03415*
X04441Y03424*
X04437Y03433*
X04431Y03441*
X04424Y03447*
X04415Y0345*
X04405Y03452*
G37*
G36*
X05911Y04252D02*
X05902Y04251D01*
X05893Y04247*
X05885Y04241*
X05879Y04234*
X05876Y04225*
X05874Y04215*
X05876Y04206*
X05879Y04197*
X05885Y04189*
X05893Y04183*
X05902Y0418*
X05911Y04178*
X05921Y0418*
X0593Y04183*
X05937Y04189*
X05943Y04197*
X05947Y04206*
X05948Y04215*
X05947Y04225*
X05943Y04234*
X05937Y04241*
X0593Y04247*
X05921Y04251*
X05911Y04252*
G37*
G36*
X06111Y04152D02*
X06102Y04151D01*
X06093Y04147*
X06085Y04141*
X06079Y04134*
X06076Y04125*
X06074Y04115*
X06076Y04106*
X06079Y04097*
X06085Y04089*
X06093Y04083*
X06102Y0408*
X06111Y04078*
X06121Y0408*
X0613Y04083*
X06137Y04089*
X06143Y04097*
X06147Y04106*
X06148Y04115*
X06147Y04125*
X06143Y04134*
X06137Y04141*
X0613Y04147*
X06121Y04151*
X06111Y04152*
G37*
G36*
X06011D02*
X06002Y04151D01*
X05993Y04147*
X05985Y04141*
X05979Y04134*
X05976Y04125*
X05974Y04115*
X05976Y04106*
X05979Y04097*
X05985Y04089*
X05993Y04083*
X06002Y0408*
X06011Y04078*
X06021Y0408*
X0603Y04083*
X06037Y04089*
X06043Y04097*
X06047Y04106*
X06048Y04115*
X06047Y04125*
X06043Y04134*
X06037Y04141*
X0603Y04147*
X06021Y04151*
X06011Y04152*
G37*
G36*
Y04252D02*
X06002Y04251D01*
X05993Y04247*
X05985Y04241*
X05979Y04234*
X05976Y04225*
X05974Y04215*
X05976Y04206*
X05979Y04197*
X05985Y04189*
X05993Y04183*
X06002Y0418*
X06011Y04178*
X06021Y0418*
X0603Y04183*
X06037Y04189*
X06043Y04197*
X06047Y04206*
X06048Y04215*
X06047Y04225*
X06043Y04234*
X06037Y04241*
X0603Y04247*
X06021Y04251*
X06011Y04252*
G37*
G36*
X06111Y04352D02*
X06102Y04351D01*
X06093Y04347*
X06085Y04341*
X06079Y04334*
X06076Y04325*
X06074Y04315*
X06076Y04306*
X06079Y04297*
X06085Y04289*
X06093Y04283*
X06102Y0428*
X06111Y04278*
X06121Y0428*
X0613Y04283*
X06137Y04289*
X06143Y04297*
X06147Y04306*
X06148Y04315*
X06147Y04325*
X06143Y04334*
X06137Y04341*
X0613Y04347*
X06121Y04351*
X06111Y04352*
G37*
G36*
X06011D02*
X06002Y04351D01*
X05993Y04347*
X05985Y04341*
X05979Y04334*
X05976Y04325*
X05974Y04315*
X05976Y04306*
X05979Y04297*
X05985Y04289*
X05993Y04283*
X06002Y0428*
X06011Y04278*
X06021Y0428*
X0603Y04283*
X06037Y04289*
X06043Y04297*
X06047Y04306*
X06048Y04315*
X06047Y04325*
X06043Y04334*
X06037Y04341*
X0603Y04347*
X06021Y04351*
X06011Y04352*
G37*
G36*
X06111Y04252D02*
X06102Y04251D01*
X06093Y04247*
X06085Y04241*
X06079Y04234*
X06076Y04225*
X06074Y04215*
X06076Y04206*
X06079Y04197*
X06085Y04189*
X06093Y04183*
X06102Y0418*
X06111Y04178*
X06121Y0418*
X0613Y04183*
X06137Y04189*
X06143Y04197*
X06147Y04206*
X06148Y04215*
X06147Y04225*
X06143Y04234*
X06137Y04241*
X0613Y04247*
X06121Y04251*
X06111Y04252*
G37*
G36*
Y03952D02*
X06102Y03951D01*
X06093Y03947*
X06085Y03941*
X06079Y03934*
X06076Y03925*
X06074Y03915*
X06076Y03906*
X06079Y03897*
X06085Y03889*
X06093Y03883*
X06102Y0388*
X06111Y03878*
X06121Y0388*
X0613Y03883*
X06137Y03889*
X06143Y03897*
X06147Y03906*
X06148Y03915*
X06147Y03925*
X06143Y03934*
X06137Y03941*
X0613Y03947*
X06121Y03951*
X06111Y03952*
G37*
G36*
X05911Y03852D02*
X05902Y03851D01*
X05893Y03847*
X05885Y03841*
X05879Y03834*
X05876Y03825*
X05874Y03815*
X05876Y03806*
X05879Y03797*
X05885Y03789*
X05893Y03783*
X05902Y0378*
X05911Y03778*
X05921Y0378*
X0593Y03783*
X05937Y03789*
X05943Y03797*
X05947Y03806*
X05948Y03815*
X05947Y03825*
X05943Y03834*
X05937Y03841*
X0593Y03847*
X05921Y03851*
X05911Y03852*
G37*
G36*
X05811D02*
X05802Y03851D01*
X05793Y03847*
X05785Y03841*
X05779Y03834*
X05776Y03825*
X05774Y03815*
X05776Y03806*
X05779Y03797*
X05785Y03789*
X05793Y03783*
X05802Y0378*
X05811Y03778*
X05821Y0378*
X0583Y03783*
X05837Y03789*
X05843Y03797*
X05847Y03806*
X05848Y03815*
X05847Y03825*
X05843Y03834*
X05837Y03841*
X0583Y03847*
X05821Y03851*
X05811Y03852*
G37*
G36*
X06111Y03752D02*
X06102Y03751D01*
X06093Y03747*
X06085Y03741*
X06079Y03734*
X06076Y03725*
X06074Y03715*
X06076Y03706*
X06079Y03697*
X06085Y03689*
X06093Y03683*
X06102Y0368*
X06111Y03678*
X06121Y0368*
X0613Y03683*
X06137Y03689*
X06143Y03697*
X06147Y03706*
X06148Y03715*
X06147Y03725*
X06143Y03734*
X06137Y03741*
X0613Y03747*
X06121Y03751*
X06111Y03752*
G37*
G36*
X06011Y03852D02*
X06002Y03851D01*
X05993Y03847*
X05985Y03841*
X05979Y03834*
X05976Y03825*
X05974Y03815*
X05976Y03806*
X05979Y03797*
X05985Y03789*
X05993Y03783*
X06002Y0378*
X06011Y03778*
X06021Y0378*
X0603Y03783*
X06037Y03789*
X06043Y03797*
X06047Y03806*
X06048Y03815*
X06047Y03825*
X06043Y03834*
X06037Y03841*
X0603Y03847*
X06021Y03851*
X06011Y03852*
G37*
G36*
Y03952D02*
X06002Y03951D01*
X05993Y03947*
X05985Y03941*
X05979Y03934*
X05976Y03925*
X05974Y03915*
X05976Y03906*
X05979Y03897*
X05985Y03889*
X05993Y03883*
X06002Y0388*
X06011Y03878*
X06021Y0388*
X0603Y03883*
X06037Y03889*
X06043Y03897*
X06047Y03906*
X06048Y03915*
X06047Y03925*
X06043Y03934*
X06037Y03941*
X0603Y03947*
X06021Y03951*
X06011Y03952*
G37*
G36*
X05911D02*
X05902Y03951D01*
X05893Y03947*
X05885Y03941*
X05879Y03934*
X05876Y03925*
X05874Y03915*
X05876Y03906*
X05879Y03897*
X05885Y03889*
X05893Y03883*
X05902Y0388*
X05911Y03878*
X05921Y0388*
X0593Y03883*
X05937Y03889*
X05943Y03897*
X05947Y03906*
X05948Y03915*
X05947Y03925*
X05943Y03934*
X05937Y03941*
X0593Y03947*
X05921Y03951*
X05911Y03952*
G37*
G36*
X06111Y03852D02*
X06102Y03851D01*
X06093Y03847*
X06085Y03841*
X06079Y03834*
X06076Y03825*
X06074Y03815*
X06076Y03806*
X06079Y03797*
X06085Y03789*
X06093Y03783*
X06102Y0378*
X06111Y03778*
X06121Y0378*
X0613Y03783*
X06137Y03789*
X06143Y03797*
X06147Y03806*
X06148Y03815*
X06147Y03825*
X06143Y03834*
X06137Y03841*
X0613Y03847*
X06121Y03851*
X06111Y03852*
G37*
G36*
X04753Y06219D02*
X04746Y06218D01*
X04739Y06216*
X04734Y06211*
X04729Y06206*
X04727Y06199*
X04726Y06192*
X04727Y06185*
X04729Y06178*
X04734Y06173*
X04739Y06168*
X04746Y06166*
X04753Y06165*
X04754Y06165*
X04755Y0616*
X0475Y06156*
X04749Y06155*
X04748Y06155*
X04744Y06148*
X04742Y0614*
X04744Y06133*
X04748Y06127*
X04744Y06125*
X04717Y06098*
X04715Y06094*
X04714Y06089*
Y06059*
X04695*
Y05985*
X04753*
X04755Y05985*
X04758Y05981*
X04756Y05978*
X04754Y0597*
X04756Y05962*
X0476Y05956*
X04766Y05952*
X04774Y0595*
X04782Y05952*
X04788Y05956*
X04792Y05962*
X04794Y0597*
X04793Y05975*
X04796Y05978*
X04799*
X048Y05978*
X04806Y05976*
X04855*
X0486Y05978*
X04865Y05981*
X04868Y05985*
X04869Y05991*
X04868Y05996*
X04865Y06001*
X04864Y06001*
Y06006*
X04865Y06006*
X04868Y06011*
X04869Y06016*
X04868Y06022*
X04865Y06026*
X04864Y06027*
Y06032*
X04865Y06032*
X04868Y06036*
X04869Y06042*
X04868Y06047*
X04865Y06052*
X04864Y06052*
Y06057*
X04865Y06057*
X04868Y06062*
X04869Y06067*
X04868Y06073*
X04867Y06074*
X04869Y06081*
X04869Y06081*
X04873Y06086*
X04874Y06093*
X04873Y061*
X04869Y06105*
X04869Y06105*
X04867Y06112*
X04868Y06113*
X04869Y06119*
X04868Y06124*
X04865Y06129*
X0487Y06132*
X04874Y06138*
X04875Y06144*
X04874Y06151*
X0487Y06156*
X04869Y06157*
Y06184*
X04792*
Y06182*
X04784*
X04782Y06183*
X0478Y06187*
X0478Y06192*
X04779Y06199*
X04777Y06206*
X04772Y06211*
X04767Y06216*
X0476Y06218*
X04753Y06219*
G37*
G36*
X03385Y05987D02*
X03324D01*
Y05963*
X03311*
Y05982*
X03237*
Y05921*
X03311*
Y05939*
X03324*
Y05931*
X03385*
Y05939*
X03403*
X03403Y05939*
Y05907*
X03408*
Y05889*
X03403Y05885*
X03398Y0588*
X03396Y05873*
X03395Y05866*
X03396Y05859*
X03398Y05852*
X03403Y05847*
X03408Y05842*
X03415Y0584*
X03422Y05839*
X03429Y0584*
X03436Y05842*
X03441Y05847*
X03446Y05852*
X03448Y05859*
X03449Y05866*
X03448Y05873*
X03446Y0588*
X03441Y05885*
X03436Y0589*
X03432Y05891*
Y05903*
X03436Y05907*
X0344*
X03442*
X03474*
X03478*
X03512*
Y05922*
X03521*
Y05909*
X03549*
Y05822*
X03551Y05816*
X03555Y0581*
X03561Y05804*
X03559Y05799*
X03517*
Y05725*
X03535*
Y05699*
X03518*
Y05637*
X03526*
X03528Y05632*
X03524Y0563*
X0352Y05624*
X03519Y05616*
X0352Y05608*
X03524Y05602*
X03531Y05598*
X03538Y05596*
X03546Y05598*
X03553Y05602*
X03557Y05608*
X03558Y05616*
X03558Y05616*
X03558Y05617*
Y05637*
X03574*
Y05699*
X0356*
Y05725*
X03578*
Y05777*
X03583Y05779*
X03585Y05778*
X03589Y05772*
X03596Y05767*
X03603Y05766*
X03611Y05767*
X03618Y05772*
X03622Y05778*
X03623Y05786*
X03622Y05793*
X03618Y058*
X03611Y05804*
X03609Y05804*
X03584Y0583*
Y05947*
X03583Y05953*
X03582Y05954*
Y05964*
X03521*
Y05956*
X03512*
Y05971*
X03478*
X03474*
X03442*
X03437*
X03435*
X03403*
Y05963*
X03385*
Y05987*
G37*
G36*
X02733Y06279D02*
X02726Y06277D01*
X02719Y06273*
X02715Y06267*
X02713Y06259*
X02715Y06251*
X02719Y06245*
Y06136*
X0272Y06129*
X02724Y06123*
X02759Y06089*
Y05789*
X02758Y05787*
X02756Y0578*
X02758Y05772*
X02759Y05771*
Y05747*
X0276Y0574*
X02764Y05734*
X02782Y05716*
Y05689*
X02783Y05688*
X02779Y05684*
X0266*
Y05591*
X02792*
Y05665*
X02797Y05667*
X02864Y056*
Y05548*
X02925*
Y05622*
X02891*
X02817Y05696*
Y05717*
X02887*
Y05728*
X02961*
Y0572*
X03022*
Y05794*
X02961*
Y05784*
X02939*
X02938Y05786*
X02931Y0579*
X02924Y05791*
X02916Y0579*
X02909Y05786*
X02905Y05779*
X02904Y05772*
X02905Y05764*
X02909Y05757*
X0291Y05757*
X02908Y05752*
X02887*
Y05763*
Y05767*
Y05811*
Y05812*
Y05816*
X02891Y05818*
X02893*
X02894Y05817*
X02901Y05812*
X02908Y05811*
X02916Y05812*
X02922Y05817*
X02927Y05823*
X02928Y05831*
X02927Y05838*
X02922Y05845*
X02916Y05849*
X02908Y0585*
X02901Y05849*
X02894Y05845*
X02893Y05843*
X02887*
Y0586*
Y05861*
Y05865*
Y05866*
Y05875*
X02898*
X029Y05872*
X02907Y05868*
X02914Y05867*
X02922Y05868*
X02929Y05872*
X02933Y05879*
X02934Y05887*
X02933Y05894*
X02929Y05901*
X02922Y05905*
X02914Y05906*
X02907Y05905*
X029Y05901*
X029Y059*
X02887*
Y05909*
Y0591*
Y05914*
Y05915*
Y05922*
X02915*
X02916Y0592*
X02923Y05916*
X0293Y05915*
X02938Y05916*
X02944Y0592*
X02949Y05927*
X0295Y05935*
X02949Y05942*
X02948Y05943*
X02952Y05946*
X02966Y05932*
Y05882*
X03027*
Y05956*
X02977*
X02946Y05987*
X02947Y05993*
X02949Y05993*
X02956Y05997*
X02957Y05999*
X02967*
X02972Y06*
X02976Y06003*
X02977Y06003*
X03027*
Y06077*
X02977*
X02961Y06093*
X02957Y06096*
X02952Y06097*
X02887*
Y06106*
Y06107*
Y06111*
Y06112*
Y06157*
X0281*
Y06112*
Y06111*
Y06107*
Y06106*
Y06063*
Y06062*
Y06058*
Y06057*
Y06014*
Y06013*
Y06009*
Y06008*
Y05965*
Y05963*
Y0596*
Y05958*
Y05915*
Y05914*
Y0591*
Y05909*
Y05866*
Y05865*
Y05861*
Y0586*
Y05817*
Y05816*
Y05812*
X02808Y05807*
X02793*
Y06074*
X02797Y06079*
X02799Y06087*
X02797Y06095*
X02793Y06101*
X02792Y06101*
X02792Y06103*
X02788Y06108*
X02754Y06143*
Y0625*
X02753Y06256*
X02753Y06259*
X02752Y06267*
X02747Y06273*
X02741Y06277*
X02733Y06279*
G37*
G36*
X06011Y06052D02*
X06002Y06051D01*
X05993Y06047*
X05985Y06041*
X05979Y06034*
X05976Y06025*
X05974Y06015*
X05976Y06006*
X05979Y05997*
X05985Y05989*
X05993Y05983*
X06002Y0598*
X06011Y05978*
X06021Y0598*
X0603Y05983*
X06037Y05989*
X06043Y05997*
X06047Y06006*
X06048Y06015*
X06047Y06025*
X06043Y06034*
X06037Y06041*
X0603Y06047*
X06021Y06051*
X06011Y06052*
G37*
G36*
X03065Y06103D02*
X03058Y06101D01*
X03051Y06097*
X03047Y06091*
X03045Y06083*
X03046Y06078*
X03046Y06077*
Y06003*
X03107*
Y06077*
X03088*
X03085Y06081*
X03085Y06083*
X03084Y06091*
X03079Y06097*
X03073Y06101*
X03065Y06103*
G37*
G36*
X04533Y06536D02*
D01*
X04532*
X04487*
Y06459*
X04493*
Y06456*
X04494Y06449*
X04498Y06444*
X04537Y06405*
Y05982*
X04532Y05979*
X04532Y0598*
X04524Y05981*
X04516Y0598*
X04515Y05979*
X04512Y05978*
X04508Y05975*
X04505Y05972*
X04504Y05967*
Y05962*
X04504Y05961*
X04504Y05961*
Y05934*
X04499Y05932*
X0449Y05942*
Y05962*
X04429*
Y05951*
X04395*
Y05972*
X04361*
X04358*
X04325*
X0432*
X04319*
X04286*
Y05964*
X04272*
Y05984*
X04211*
Y05964*
X04202*
Y05983*
X04128*
Y05921*
X04202*
Y0594*
X04211*
Y05929*
X04272*
Y0594*
X04286*
Y05908*
X04291*
Y05855*
X04285Y05852*
X04279Y05848*
X04275Y05842*
X04272Y05835*
X04271Y05828*
X04272Y05821*
X04275Y05815*
X04279Y05809*
X04285Y05805*
X04291Y05802*
X04298Y05801*
X04305Y05802*
X04312Y05805*
X04318Y05809*
X04322Y05815*
X04325Y05821*
X04326Y05828*
X04325Y05835*
X04322Y05842*
X04318Y05848*
X04316Y05849*
Y05904*
X04319Y05908*
X04324*
X04325*
X04358*
X04361*
X04395*
Y05917*
X04429*
Y05906*
X04474*
Y05794*
X04473Y05792*
X04472Y05785*
X04473Y05777*
X04478Y0577*
X04484Y05766*
X04492Y05765*
X04499Y05766*
X045Y05767*
X04504Y05764*
Y05552*
X04505Y05547*
X04508Y05543*
X04787Y05264*
Y05246*
X04785Y05245*
X04781Y05239*
X0478Y05231*
X04781Y05223*
X04785Y05217*
X04792Y05213*
X048Y05211*
X04807Y05213*
X04814Y05217*
X04818Y05223*
X04819Y05231*
X04818Y05239*
X04814Y05245*
X04812Y05246*
Y05269*
X04811Y05273*
X04808Y05277*
X04529Y05557*
Y0594*
X04532Y05942*
X04537Y05939*
Y05816*
X04538Y0581*
X04542Y05804*
X0472Y05626*
X04725Y05622*
X04732Y05621*
X0476*
X04762Y05617*
X04762Y05616*
X0476Y05608*
X04762Y05601*
X04762Y056*
X04759Y05596*
X04746*
Y05607*
X04695*
X04623Y05679*
X04624Y05683*
X04622Y05691*
X04618Y05697*
X04611Y05702*
X04604Y05703*
X04596Y05702*
X0459Y05697*
X04585Y05691*
X04584Y05683*
X04585Y05676*
X0459Y05669*
X04596Y05665*
X04604Y05663*
X04604Y05664*
X04684Y05583*
Y05533*
X04746*
Y05543*
X04751Y05544*
X04753Y05541*
X04759Y05537*
X04767Y05536*
X04774Y05537*
X04781Y05541*
X04781Y05542*
X04785Y05542*
X04789Y05538*
X04788Y05536*
X04789Y05531*
X04792Y05526*
X04797Y05523*
X04802Y05522*
X04852*
X04857Y05523*
X04858Y05524*
X04858*
X0488Y05502*
Y05298*
X04878Y05297*
X04874Y0529*
X04873Y05283*
X04874Y05275*
X04878Y05269*
X04885Y05264*
X04892Y05263*
X049Y05264*
X04906Y05269*
X04911Y05275*
X04912Y05283*
X04911Y0529*
X04906Y05297*
X04905Y05298*
Y05507*
X04904Y05512*
X04901Y05516*
X04872Y05545*
X04868Y05547*
X04868Y05547*
X04866Y05553*
X04867Y05555*
X04868Y05562*
X04867Y05568*
X04863Y05574*
X04863Y0558*
X04865Y05582*
X04866Y05587*
X04865Y05593*
X04862Y05597*
X04865Y05599*
X04869Y05604*
X0487Y05611*
X04869Y05618*
X04867Y05621*
X04866Y05624*
X04867Y05628*
X04869Y05632*
X0487Y05638*
X04869Y05645*
X04865Y05651*
X04864Y05657*
X04865Y05658*
X04866Y05664*
X04865Y05669*
X04864Y0567*
X04866Y05677*
X04866Y05677*
X0487Y05683*
X04871Y05689*
X0487Y05696*
X04866Y05702*
X04866Y05702*
Y05729*
X04791*
Y0574*
X04793Y0574*
X04798Y05744*
X04803Y0575*
X04805Y05757*
X04806Y05764*
X04805Y05771*
X04803Y05777*
X04798Y05783*
X04793Y05787*
X04786Y0579*
X04779Y05791*
X04772Y0579*
X04765Y05787*
X0476Y05783*
X04755Y05777*
X04753Y05771*
X04752Y05764*
X04753Y05757*
X04755Y0575*
X0476Y05744*
X04765Y0574*
X04767Y0574*
Y05728*
X04762Y05726*
X04603Y05885*
Y06471*
X04601Y06478*
X04598Y06483*
X04582Y06499*
Y06536*
X04538*
X04537*
X04533*
G37*
G36*
X06111Y06052D02*
X06102Y06051D01*
X06093Y06047*
X06085Y06041*
X06079Y06034*
X06076Y06025*
X06074Y06015*
X06076Y06006*
X06079Y05997*
X06085Y05989*
X06093Y05983*
X06102Y0598*
X06111Y05978*
X06121Y0598*
X0613Y05983*
X06137Y05989*
X06143Y05997*
X06147Y06006*
X06148Y06015*
X06147Y06025*
X06143Y06034*
X06137Y06041*
X0613Y06047*
X06121Y06051*
X06111Y06052*
G37*
G36*
Y05952D02*
X06102Y05951D01*
X06093Y05947*
X06085Y05941*
X06079Y05934*
X06076Y05925*
X06074Y05915*
X06076Y05906*
X06079Y05897*
X06085Y05889*
X06093Y05883*
X06102Y0588*
X06111Y05878*
X06121Y0588*
X0613Y05883*
X06137Y05889*
X06143Y05897*
X06147Y05906*
X06148Y05915*
X06147Y05925*
X06143Y05934*
X06137Y05941*
X0613Y05947*
X06121Y05951*
X06111Y05952*
G37*
G36*
X04223Y05804D02*
X04149D01*
Y05742*
X04223*
Y05758*
X04237*
X04238Y05757*
X04246Y05755*
X04253Y05757*
X0426Y05761*
X04264Y05767*
X04265Y05775*
X04264Y05783*
X0426Y05789*
X04253Y05793*
X04246Y05795*
X04238Y05793*
X04236Y05792*
X04223*
Y05804*
G37*
G36*
X05146Y05807D02*
X05139Y05806D01*
X05132Y05803*
X05126Y05799*
X05122Y05793*
X05119Y05787*
X05118Y0578*
X05119Y05773*
X05122Y05766*
X05125Y05763*
Y05736*
X05105Y05717*
X05103Y05717*
X05095Y05716*
X05091Y05712*
X05086Y05715*
X05085Y0572*
X05082Y05725*
X05078Y05728*
X05072Y05729*
X0506*
Y05747*
X05062Y0575*
X0507Y05751*
X05076Y05753*
X05082Y05758*
X05086Y05763*
X05089Y0577*
X0509Y05777*
X05089Y05784*
X05086Y05791*
X05082Y05796*
X05076Y05801*
X0507Y05803*
X05062Y05804*
X05055Y05803*
X05049Y05801*
X05043Y05796*
X05039Y05791*
X05036Y05784*
X05035Y05777*
X05036Y0577*
X05037Y05768*
X05036Y05767*
X05035Y05762*
Y05729*
X05023*
X05018Y05728*
X05013Y05725*
X0501Y0572*
X05009Y05715*
X0501Y0571*
X05013Y05705*
X05013Y05705*
Y057*
X05013Y05699*
X0501Y05695*
X05009Y05689*
X0501Y05684*
X05013Y05679*
X05013Y05679*
Y05674*
X05013Y05674*
X0501Y05669*
X05009Y05664*
X0501Y05658*
X05013Y05654*
X05018Y05651*
X05023Y0565*
X05072*
X05078Y05651*
X05079Y05652*
X05131*
X05136Y05653*
X0514Y05655*
X0514Y05656*
X05181*
Y05717*
X05147*
X05145Y05722*
X05146Y05722*
X05148Y05726*
X05149Y05731*
Y05753*
X05153Y05754*
X05159Y05756*
X05165Y05761*
X05169Y05766*
X05172Y05773*
X05173Y0578*
X05172Y05787*
X05169Y05793*
X05165Y05799*
X05159Y05803*
X05153Y05806*
X05146Y05807*
G37*
G36*
X03498Y05799D02*
X03437D01*
Y05752*
X0342Y05735*
X03418Y05735*
X03412Y0573*
X03408Y05724*
X03406Y05716*
X03408Y05709*
X03412Y05702*
X03418Y05698*
X03426Y05697*
X03433Y05698*
X0344Y05702*
X03444Y05709*
X03445Y05711*
X03459Y05725*
X03498*
Y05799*
G37*
G36*
X05911Y05852D02*
X05902Y05851D01*
X05893Y05847*
X05885Y05841*
X05879Y05834*
X05876Y05825*
X05874Y05815*
X05876Y05806*
X05879Y05797*
X05885Y05789*
X05893Y05783*
X05902Y0578*
X05911Y05778*
X05921Y0578*
X0593Y05783*
X05937Y05789*
X05943Y05797*
X05947Y05806*
X05948Y05815*
X05947Y05825*
X05943Y05834*
X05937Y05841*
X0593Y05847*
X05921Y05851*
X05911Y05852*
G37*
G36*
X06011Y05952D02*
X06002Y05951D01*
X05993Y05947*
X05985Y05941*
X05979Y05934*
X05976Y05925*
X05974Y05915*
X05976Y05906*
X05979Y05897*
X05985Y05889*
X05993Y05883*
X06002Y0588*
X06011Y05878*
X06021Y0588*
X0603Y05883*
X06037Y05889*
X06043Y05897*
X06047Y05906*
X06048Y05915*
X06047Y05925*
X06043Y05934*
X06037Y05941*
X0603Y05947*
X06021Y05951*
X06011Y05952*
G37*
G36*
X06111Y05852D02*
X06102Y05851D01*
X06093Y05847*
X06085Y05841*
X06079Y05834*
X06076Y05825*
X06074Y05815*
X06076Y05806*
X06079Y05797*
X06085Y05789*
X06093Y05783*
X06102Y0578*
X06111Y05778*
X06121Y0578*
X0613Y05783*
X06137Y05789*
X06143Y05797*
X06147Y05806*
X06148Y05815*
X06147Y05825*
X06143Y05834*
X06137Y05841*
X0613Y05847*
X06121Y05851*
X06111Y05852*
G37*
G36*
X06011D02*
X06002Y05851D01*
X05993Y05847*
X05985Y05841*
X05979Y05834*
X05976Y05825*
X05974Y05815*
X05976Y05806*
X05979Y05797*
X05985Y05789*
X05993Y05783*
X06002Y0578*
X06011Y05778*
X06021Y0578*
X0603Y05783*
X06037Y05789*
X06043Y05797*
X06047Y05806*
X06048Y05815*
X06047Y05825*
X06043Y05834*
X06037Y05841*
X0603Y05847*
X06021Y05851*
X06011Y05852*
G37*
G36*
X02887Y06304D02*
X0281D01*
Y0626*
Y06259*
Y06255*
Y06254*
Y06209*
X02887*
Y06215*
X02935*
X02997Y06153*
X02997Y06151*
X03001Y06145*
X03008Y06141*
X03015Y06139*
X03023Y06141*
X03029Y06145*
X03034Y06151*
X03035Y06159*
X03034Y06167*
X0303Y06172*
X03033Y06176*
X03035Y06176*
X03043Y06177*
X03049Y06182*
X03054Y06188*
X03055Y06196*
X03054Y06203*
X03049Y0621*
X03043Y06214*
X03041Y06214*
X02962Y06294*
X02956Y06297*
X0295Y06299*
X02887*
Y06304*
G37*
G36*
X03816Y06685D02*
X03723D01*
Y06553*
X03816*
Y06685*
G37*
G36*
X0307D02*
X02977D01*
Y06553*
X0307*
Y06685*
G37*
G36*
X02739Y06652D02*
X02722Y0665D01*
X02707Y06646*
X02692Y06638*
X02679Y06627*
X02669Y06615*
X02661Y066*
X02656Y06584*
X02655Y06568*
X02656Y06552*
X02661Y06536*
X02669Y06521*
X02679Y06508*
X02692Y06498*
X02707Y0649*
X02722Y06485*
X02739Y06484*
X02755Y06485*
X02771Y0649*
X02786Y06498*
X02798Y06508*
X02809Y06521*
X02817Y06536*
X02821Y06552*
X02823Y06568*
X02821Y06584*
X02817Y066*
X02809Y06615*
X02798Y06627*
X02786Y06638*
X02771Y06646*
X02755Y0665*
X02739Y06652*
G37*
G36*
X03962Y06685D02*
X03869D01*
Y06553*
X03962*
Y06685*
G37*
G36*
X04931Y06657D02*
X0487D01*
Y06643*
X0484*
X04834Y06642*
X04828Y06638*
X04773Y06583*
X04769Y06577*
X04768Y06571*
Y063*
X04764Y06299*
X04757Y06293*
X04751Y06285*
X04747Y06276*
X04746Y06266*
X04747Y06257*
X04751Y06248*
X04757Y0624*
X04764Y06234*
X04773Y0623*
X04783Y06229*
X04793Y0623*
X04802Y06234*
X04809Y0624*
X04815Y06248*
X04819Y06257*
X0482Y06266*
X04819Y06276*
X04815Y06285*
X04809Y06293*
X04803Y06298*
Y06564*
X04848Y06609*
X0487*
Y06583*
X04931*
Y06657*
G37*
G36*
X0508Y06658D02*
X05026D01*
Y06638*
X05011*
Y06657*
X0495*
Y06583*
X05011*
Y06603*
X05026*
Y06584*
X0508*
Y06658*
G37*
G36*
X04708Y06685D02*
X04615D01*
Y06553*
X04708*
Y06685*
G37*
G36*
X04041Y06536D02*
D01*
X03995*
Y06459*
X04006*
Y06436*
X04007Y06431*
X04009Y06427*
X0404Y06396*
X04039Y06391*
X04038Y06391*
X04034Y06389*
X0399Y06434*
X0399Y06436*
X03989Y06443*
X03984Y0645*
X03978Y06454*
X0397Y06456*
X03963Y06454*
X03956Y0645*
X03952Y06443*
X0395Y06436*
X03951Y06433*
X03947Y06427*
X03944Y06427*
X03938Y06423*
X03933Y06416*
X03932Y06409*
X03933Y06401*
X03938Y06395*
X03944Y0639*
X03952Y06389*
X03959Y0639*
X03963Y06393*
X03987Y0637*
X03985Y06365*
X03966*
X03965Y06367*
X03958Y06371*
X03951Y06373*
X03943Y06371*
X03937Y06367*
X03932Y0636*
X03931Y06353*
X03932Y06347*
X03932Y06347*
X03928Y06343*
X03922Y06345*
X03914Y06343*
X03908Y06339*
X03904Y06332*
X03902Y06325*
X03904Y06317*
X03904Y06317*
X03901Y06311*
X03898Y06311*
X03891Y06306*
X03887Y063*
X03886Y06292*
X03887Y06285*
X03891Y06278*
X03898Y06274*
X039Y06274*
X03934Y06239*
Y05963*
X03874*
Y05963*
X03855*
Y05971*
X03821*
X03818*
X03785*
X03784*
X0378*
X03746*
Y05963*
X03732*
Y05987*
X0367*
Y05986*
X03667Y05982*
X03648*
X03646Y05986*
X03646Y05987*
X03648Y05994*
X03647Y05997*
X0365Y06001*
X03667*
Y06001*
X0367Y06004*
X03732*
Y06019*
X03746*
Y06017*
X03778*
X0378*
X03784Y06015*
X03785Y06013*
X03788Y06007*
X03807Y05988*
X03813Y05985*
X0382Y05983*
X03881*
X03888Y05985*
X03894Y05988*
X03897Y05994*
X03899Y06001*
X03897Y06007*
X03894Y06013*
X03888Y06017*
X03881Y06018*
X03855*
Y06081*
X0385*
Y06096*
X03868*
Y0617*
X03807*
Y06096*
X03826*
Y06086*
X03821Y06083*
X03821Y06083*
X03819Y06085*
X03819Y06085*
X03814*
X03782*
Y06085*
X0378Y06081*
X03777*
X03746*
Y06043*
X03732*
Y0606*
X0367*
X03667Y06062*
X03593*
Y06001*
X03605*
X03608Y05997*
X03608Y05994*
X03609Y05987*
X0361Y05986*
X03607Y05982*
X03593*
Y05921*
X03667*
Y05928*
X0367Y05931*
X03732*
Y05939*
X03746*
Y05907*
X03756*
Y05887*
X0375Y05884*
X03744Y0588*
X0374Y05874*
X03737Y05868*
X03736Y05861*
X03737Y05853*
X0374Y05847*
X03744Y05841*
X03749Y05837*
X0375Y05833*
X03751Y05832*
X03689Y0577*
X03684Y05772*
Y05845*
X03683Y0585*
X03681Y05854*
X03664Y05871*
X03664Y05873*
X03663Y05881*
X03658Y05887*
X03652Y05891*
X03644Y05893*
X03637Y05891*
X0363Y05887*
X03626Y05881*
X03625Y05873*
X03626Y05866*
X0363Y05859*
X03637Y05855*
X03644Y05853*
X03647Y05854*
X0366Y0584*
Y05818*
X03655Y05816*
X03645Y05826*
X03645Y05828*
X03644Y05836*
X0364Y05842*
X03633Y05847*
X03625Y05848*
X03618Y05847*
X03611Y05842*
X03607Y05836*
X03606Y05828*
X03607Y05821*
X03611Y05814*
X03618Y0581*
X03625Y05808*
X03628Y05809*
X03643Y05794*
Y05613*
X03638Y05611*
X03638Y05611*
X0363Y05613*
X03623Y05611*
X03616Y05607*
X03612Y056*
X0361Y05593*
X03612Y05585*
X03616Y05579*
X03623Y05575*
X03626Y05574*
Y05553*
X03621Y0555*
X03621Y0555*
X03617Y05556*
X0361Y0556*
X03603Y05562*
X03595Y0556*
X03589Y05556*
X03584Y05549*
X03583Y05542*
X03584Y05534*
X03588Y05529*
Y05329*
X03583Y05325*
X03578Y05319*
X03577Y05311*
X03578Y05304*
X03583Y05297*
X03588Y05294*
Y04972*
X03582Y04971*
X03576Y04966*
X03571Y0496*
X0357Y04952*
X03571Y04945*
X03576Y04938*
X03582Y04934*
X03588Y04933*
Y04606*
X03582Y04602*
X03578Y04596*
X03577Y04588*
X03578Y04581*
X03582Y04574*
X03589Y0457*
X03596Y04568*
X03604Y0457*
X03606Y04571*
X0361Y04568*
X03608Y04565*
X03606Y04557*
X03608Y04549*
X03612Y04543*
X03619Y04539*
X03626Y04537*
X03634Y04539*
X03638Y04541*
X03643Y04539*
Y04371*
X03638Y0437*
X03637Y04371*
X0363Y04376*
X03623Y04377*
X03615Y04376*
X03609Y04371*
X03604Y04371*
X036Y04375*
X03599Y04382*
X03595Y04389*
X03588Y04393*
X03581Y04395*
X03573Y04393*
X03571Y04392*
X03567Y04394*
X03567Y04395*
X03562Y04401*
X03556Y04405*
X03548Y04407*
X03541Y04405*
X03534Y04401*
X0353Y04395*
X03528Y04387*
X03529Y04385*
X03527Y04381*
X03526Y04376*
Y03527*
X03505Y03506*
X03497Y03507*
X0349Y03506*
X03483Y03501*
X03479Y03495*
X03477Y03487*
X03479Y0348*
X03479Y03479*
X03477Y03475*
X0347*
Y0348*
X03469Y03484*
X03467Y03487*
X03464Y03489*
X03461Y03489*
X03425*
X03422Y03489*
X03421Y03488*
X03416Y0349*
Y0357*
X03415Y03575*
X03412Y03579*
X03355Y03636*
X03358Y03642*
X03359Y03651*
X03358Y03661*
X03354Y0367*
X03348Y03678*
X03341Y03683*
X03332Y03687*
X03322Y03688*
X03313Y03687*
X03304Y03683*
X03296Y03678*
X0329Y0367*
X03287Y03661*
X03285Y03651*
X03287Y03642*
X0329Y03633*
X03296Y03625*
X03304Y0362*
X03313Y03616*
X03322Y03615*
X03332Y03616*
X03338Y03618*
X03391Y03565*
Y03445*
X03386Y03443*
X03385Y03445*
X03362Y03468*
Y0348*
X03361Y03484*
X03359Y03487*
X03356Y03489*
X03352Y03489*
X03317*
X03314Y03489*
X03311Y03487*
X03309Y03484*
X03308Y0348*
Y03468*
X03301Y03466*
X03295Y03462*
X0329Y03456*
X03289Y03448*
X0329Y0344*
X03295Y03434*
X03301Y0343*
X03309Y03428*
X03316Y0343*
X03323Y03434*
X03327Y0344*
X03328Y03448*
X03333Y03451*
X03344*
X03364Y03431*
Y03413*
X03359Y03411*
X03359Y03412*
X03356Y03414*
X03352Y03415*
X03317*
X03314Y03414*
X03311Y03412*
X0331Y0341*
X03238*
X03232Y03409*
X03227Y03406*
X03214Y03393*
X03177*
Y03387*
X03166*
Y03397*
X03104*
Y03387*
X03079*
Y03403*
X03005*
Y03342*
X03079*
Y03357*
X03104*
Y03335*
X03166*
Y03357*
X03177*
Y03337*
X03238*
Y03375*
X03244Y03381*
X0331*
X03311Y03379*
X03314Y03377*
X03317Y03377*
X03352*
X03356Y03377*
X03359Y03379*
X03359Y0338*
X03364Y03379*
Y03358*
X03365Y03353*
X03368Y0335*
X03389Y03329*
X03388Y03325*
X03383Y03317*
X03379Y03308*
X03378Y03299*
X03379Y03289*
X03383Y0328*
X03388Y03273*
X03396Y03267*
X03405Y03263*
X03414Y03262*
X03424Y03263*
X03433Y03267*
X03441Y03273*
X03446Y0328*
X0345Y03289*
X03451Y03299*
X0345Y03308*
X03446Y03317*
X03441Y03325*
X03433Y03331*
X03424Y03334*
X03417Y03335*
X03389Y03363*
Y03416*
X03394Y03418*
X03395Y03417*
X03416Y03395*
Y03386*
X03417Y03382*
X03419Y03379*
X03422Y03377*
X03425Y03377*
X03461*
X03464Y03377*
X03467Y03379*
X03469Y03382*
X0347Y03386*
Y03405*
X03469Y03409*
X03467Y03412*
X03464Y03414*
X03461Y03415*
X03431*
X03416Y0343*
Y0345*
X03421Y03453*
X03422Y03452*
X03425Y03451*
X03439*
X03443Y03451*
X03512*
X03517Y03451*
X03521Y03454*
X03555Y03488*
X0356Y03486*
Y03361*
X0353Y03332*
X03524Y03334*
X03514Y03336*
X03505Y03334*
X03496Y03331*
X03488Y03325*
X03483Y03317*
X03479Y03308*
X03478Y03299*
X03479Y03289*
X03483Y0328*
X03488Y03273*
X03496Y03267*
X03505Y03263*
X03514Y03262*
X03524Y03263*
X03533Y03267*
X03541Y03273*
X03546Y0328*
X0355Y03289*
X03551Y03299*
X0355Y03308*
X03547Y03314*
X03572Y03339*
X03577Y03337*
Y03324*
X03578Y0332*
X03578Y03319*
Y03262*
X03651*
Y03335*
X03601*
Y03982*
X03606Y03984*
X03608Y03981*
X03615Y03976*
X03622Y03975*
X03627Y03976*
X0363Y03971*
X03627Y03967*
X03625Y03959*
X03627Y03951*
X03631Y03945*
X03638Y03941*
X03645Y03939*
X03653Y03941*
X03659Y03945*
X03661Y03947*
X03666Y03946*
X03667Y03943*
X03671Y03936*
X03677Y03932*
X03678Y03931*
X03679Y03927*
X03627Y03876*
X03624Y0387*
X03622Y03863*
Y03611*
X03621Y0361*
X0362Y03602*
X03621Y03595*
X03626Y03588*
X03632Y03584*
X0364Y03582*
X03647Y03584*
X03654Y03588*
X03658Y03595*
X0366Y03602*
X03658Y0361*
X03657Y03611*
Y03856*
X03727Y03926*
X0373Y03931*
X03732Y03938*
Y03956*
X03732Y03956*
Y0412*
X03737Y04123*
X03741Y0412*
X03747Y04117*
X03754Y04116*
X03761Y04117*
X03768Y0412*
X03768Y0412*
X03833Y04055*
X03837Y04052*
X03841Y04051*
X04055*
X04057Y04046*
X04029Y04018*
X03993*
Y04004*
X03964*
Y04019*
X03903*
Y03964*
X03964*
Y03979*
X03993*
Y03965*
X04047*
Y04001*
X04074Y04028*
X04123*
X04128Y04025*
Y03969*
X04098Y0394*
X04062*
Y03886*
X04073*
Y03858*
X0406*
Y03796*
X04115*
Y03858*
X04098*
Y03886*
X04116*
Y03922*
X04149Y03955*
X04151Y03959*
X04152Y03964*
Y0402*
X04158Y04026*
X04164Y04024*
X04166Y04022*
X0417Y0402*
X04175Y04019*
X04176Y04018*
X04177Y04013*
X04179Y04008*
X04184Y04006*
X04189Y04005*
X0419Y04004*
X04191Y03999*
X04193Y03995*
X04198Y03992*
X04203Y03991*
X04203Y0399*
X04204Y03985*
X04207Y03981*
X04208Y03978*
X04204Y03974*
X04222Y03957*
X04158Y03893*
X04157Y03893*
X04149Y03895*
X04142Y03893*
X04135Y03889*
X04131Y03883*
X04129Y03875*
X04131Y03867*
X04135Y03861*
X04142Y03857*
X04149Y03855*
X04157Y03857*
X04162Y0386*
X04167Y03859*
Y03709*
X03977Y03519*
X03915*
X03911Y03518*
X03907Y03515*
X03848Y03456*
X03845Y03452*
X03844Y03448*
Y0343*
X03839Y03429*
X03837Y03433*
X03831Y03441*
X03824Y03447*
X03815Y0345*
X03805Y03452*
X03796Y0345*
X03787Y03447*
X03779Y03441*
X03774Y03433*
X0377Y03424*
X03769Y03415*
X0377Y03405*
X03774Y03396*
X03779Y03389*
X03787Y03383*
X03796Y03379*
X03805Y03378*
X03815Y03379*
X03824Y03383*
X03831Y03389*
X03837Y03396*
X03839Y034*
X03844Y03399*
Y03371*
X03825Y03351*
X03769*
Y03278*
X03842*
Y03334*
X03865Y03357*
X03868Y03361*
X03868Y03366*
Y03396*
X03873Y03397*
X03874Y03396*
X03879Y03389*
X03887Y03383*
X03896Y03379*
X03905Y03378*
X03915Y03379*
X03924Y03383*
X03931Y03389*
X03937Y03396*
X0394Y03403*
X03945Y03402*
Y03372*
X03921Y03348*
X03915Y0335*
X03905Y03352*
X03896Y0335*
X03887Y03347*
X03879Y03341*
X03874Y03333*
X0387Y03324*
X03869Y03315*
X0387Y03305*
X03874Y03296*
X03879Y03289*
X03887Y03283*
X03896Y03279*
X03905Y03278*
X03915Y03279*
X03924Y03283*
X03931Y03289*
X03937Y03296*
X03941Y03305*
X03942Y03315*
X03941Y03324*
X03938Y03331*
X03966Y03358*
X03969Y03362*
X0397Y03367*
Y03393*
X03975Y03395*
X03979Y03389*
X03987Y03383*
X03996Y03379*
X04005Y03378*
X04015Y03379*
X04024Y03383*
X04031Y03389*
X04037Y03396*
X0404Y03402*
X04045Y03401*
Y03372*
X04021Y03348*
X04015Y0335*
X04005Y03352*
X03996Y0335*
X03987Y03347*
X03979Y03341*
X03974Y03333*
X0397Y03324*
X03969Y03315*
X0397Y03305*
X03974Y03296*
X03979Y03289*
X03987Y03283*
X03996Y03279*
X04005Y03278*
X04015Y03279*
X04024Y03283*
X04031Y03289*
X04037Y03296*
X04041Y03305*
X04042Y03315*
X04041Y03324*
X04038Y03331*
X04066Y03358*
X04068Y03362*
X04069Y03366*
Y03394*
X0407Y03395*
X04074Y03396*
X04079Y03389*
X04087Y03383*
X04096Y03379*
X04105Y03378*
X04115Y03379*
X04124Y03383*
X04131Y03389*
X04137Y03396*
X04141Y03405*
X04142Y03415*
X04141Y03424*
X04137Y03433*
X04131Y03441*
X04124Y03447*
X04115Y0345*
X04105Y03452*
X04096Y0345*
X04094Y0345*
X0409Y03453*
Y0352*
X04244Y03674*
X04247Y03677*
X04248Y03682*
Y03819*
X04249Y0382*
X04257Y03821*
X04262Y03825*
X04267Y03823*
Y03682*
X04153Y03568*
X04151Y03564*
X0415Y0356*
Y03377*
X04121Y03348*
X04115Y0335*
X04105Y03352*
X04096Y0335*
X04087Y03347*
X04079Y03341*
X04074Y03333*
X0407Y03324*
X04069Y03315*
X0407Y03305*
X04074Y03296*
X04079Y03289*
X04087Y03283*
X04096Y03279*
X04105Y03278*
X04115Y03279*
X04124Y03283*
X04131Y03289*
X04137Y03296*
X04141Y03305*
X04142Y03315*
X04141Y03324*
X04138Y03331*
X04171Y03363*
X04173Y03367*
X04174Y03372*
Y03388*
X04179Y03389*
X04179Y03389*
X04187Y03383*
X04196Y03379*
X04205Y03378*
X04215Y03379*
X04224Y03383*
X04231Y03389*
X04237Y03396*
X04241Y03405*
X04242Y03415*
X04241Y03424*
X04237Y03433*
X04231Y03441*
X04224Y03447*
X04215Y0345*
X04205Y03452*
X04196Y0345*
X04187Y03447*
X04179Y03441*
X04179Y03441*
X04174Y03442*
Y03555*
X04288Y03668*
X0429Y03672*
X04291Y03677*
Y03699*
X04296Y03701*
X04301Y03698*
X04309Y03697*
X04317Y03698*
X04323Y03702*
X04327Y03709*
X04329Y03716*
X04327Y03724*
X04323Y0373*
X04317Y03735*
X04309Y03736*
Y03868*
X04313Y03871*
X04318Y0387*
X04319Y03869*
X04323Y03866*
X04328Y03865*
X04329Y03865*
X0433Y0386*
X04333Y03855*
X04337Y03853*
X04342Y03852*
X04343Y03851*
X04344Y03846*
X04347Y03841*
X04349Y0384*
X04349Y03838*
X0435Y03834*
X0435Y03834*
X04348Y03831*
X04347Y03826*
Y03824*
X04341Y03821*
X04337Y03814*
X04336Y03807*
X04337Y03799*
X04341Y03793*
X04348Y03788*
X04355Y03787*
X04363Y03788*
X04369Y03793*
X04374Y03799*
X04375Y03807*
X04374Y03814*
X04372Y03817*
Y03821*
X04375Y03825*
X04379Y03828*
X04419Y03868*
X04422Y03872*
X04423Y03877*
X04422Y03882*
X04419Y03887*
X04416Y03889*
X04414Y03894*
X04419Y03899*
X04422Y03903*
X04423Y03908*
Y03922*
X04428Y03923*
X04435Y03927*
X04439Y03934*
X04441Y03941*
X04439Y03949*
X04435Y03955*
X04428Y0396*
X04421Y03961*
X04419Y03961*
X04416Y03964*
X04416Y03966*
X04415Y03974*
X0441Y0398*
X04404Y03984*
X04396Y03986*
X04396Y03986*
X04392Y03989*
X0439Y03996*
X04386Y04003*
X0438Y04007*
X04372Y04008*
X04364Y04007*
X04358Y04003*
X04354Y03996*
X04352Y03988*
X04354Y03981*
X04358Y03974*
X0436Y03973*
Y03956*
X0436Y03954*
Y03953*
X04355Y0395*
X04353Y03951*
X04353Y03952*
X0435Y03956*
X04346Y03959*
X0434Y0396*
X0434Y03961*
X04339Y03966*
X04336Y0397*
X04332Y03973*
X04327Y03974*
X04326Y03975*
X04325Y0398*
X04322Y03984*
X04318Y03987*
X04313Y03988*
X04312Y03989*
X04311Y03994*
X04308Y03998*
X04306Y03999*
X04305Y04005*
X04344Y04044*
X04312Y04076*
X04312Y04076*
X0431Y04078*
Y04078*
X04309*
X04309Y04078*
Y04078*
X04308Y04078*
X04308*
X04307Y04077*
X04307Y04077*
X04299Y04069*
X04294Y04069*
X04288Y04074*
X0428Y04075*
X04273Y04074*
X04271Y04073*
X04267Y04075*
Y04174*
X04274Y04175*
X0428Y0418*
X04285Y04186*
X04286Y04194*
X04285Y04201*
X0428Y04208*
X04274Y04212*
X04266Y04213*
X04259Y04212*
X04258Y04212*
X04254Y04215*
X04254Y04216*
X04253Y04223*
X04248Y0423*
X04242Y04234*
X04234Y04236*
X04227Y04234*
X0422Y0423*
X04216Y04223*
X04214Y04216*
X04216Y04208*
X0422Y04202*
X04226Y04198*
Y04187*
X04221Y04185*
X04219Y04186*
X04211Y04187*
X04203Y04186*
X04197Y04182*
X04193Y04175*
X04191Y04168*
X04192Y04161*
X04191Y04158*
X04189Y04156*
X04187Y04156*
X0418Y04155*
X04173Y04153*
X04167Y04148*
X04163Y04144*
X0416Y04144*
X04158Y04145*
X04158Y04147*
X04155Y04151*
X04151Y04154*
X04146Y04155*
X04145Y04156*
X04144Y04161*
X04141Y04165*
X04137Y04168*
X04132Y04169*
X04131Y0417*
X0413Y04175*
X04127Y04179*
X04123Y04182*
X04118Y04183*
X04117Y04183*
X04116Y04188*
X04113Y04193*
X04109Y04196*
X04104Y04197*
X04103Y04197*
X04102Y04202*
X04099Y04207*
X04095Y0421*
X0409Y04211*
X04089Y04211*
X04088Y04216*
X04085Y04221*
X04081Y04223*
X04076Y04224*
X04071Y04223*
X04067Y04221*
X04055Y04209*
X04019Y04245*
X04015Y04248*
X0401Y04249*
X03971*
X03971Y0425*
X03966Y04256*
X03961Y0426*
X03954Y04263*
X03947Y04264*
X0394Y04263*
X03934Y0426*
X03928Y04256*
X03924Y0425*
X03921Y04244*
X03921Y04242*
X03915Y0424*
X03911Y04244*
X03908Y04246*
X03907Y04249*
X03902Y04255*
X03897Y04259*
X0389Y04262*
X03883Y04263*
X03876Y04262*
X03869Y04259*
X03864Y04255*
X03859Y04249*
X03857Y04242*
X03856Y04235*
X03857Y04228*
X03859Y04222*
X03858Y0422*
X03857Y04217*
X03853Y04217*
X03844Y04226*
X03845Y04229*
X03846Y04237*
X03845Y04244*
X03842Y0425*
X03838Y04256*
X03832Y0426*
X03826Y04263*
X03819Y04264*
X03812Y04263*
X03805Y0426*
X038Y04256*
X03795Y0425*
X03792Y04244*
X03792Y04237*
X03792Y04229*
X03795Y04223*
X038Y04217*
X03805Y04213*
X03812Y0421*
X03819Y04209*
X03825Y0421*
X03841Y04195*
X03845Y04192*
X0385Y04191*
X03876*
X03894Y04173*
X03892Y04169*
X0389Y0417*
X03883Y0417*
X03876Y0417*
X03869Y04167*
X03864Y04162*
X03859Y04157*
X03857Y0415*
X03856Y04143*
X03857Y04136*
X03859Y0413*
X03864Y04124*
X03869Y0412*
X03876Y04117*
X03883Y04116*
X0389Y04117*
X03896Y04119*
X03918Y04098*
X03916Y04093*
X03881*
X03843Y04131*
X03845Y04136*
X03846Y04143*
X03845Y0415*
X03842Y04157*
X03838Y04162*
X03832Y04167*
X03826Y0417*
X03819Y0417*
X03812Y0417*
X03805Y04167*
X038Y04162*
X03795Y04157*
X03792Y0415*
X03792Y04143*
X03792Y04137*
X03791Y04136*
X03788Y04134*
X03781Y04141*
X03781Y04143*
X03781Y0415*
X03778Y04157*
X03773Y04162*
X03768Y04167*
X03761Y0417*
X03754Y0417*
X03747Y0417*
X03741Y04167*
X03737Y04164*
X03732Y04166*
Y04214*
X03737Y04216*
X03741Y04213*
X03748Y0421*
X03755Y04209*
X03762Y0421*
X03768Y04213*
X03774Y04217*
X03778Y04223*
X03781Y04229*
X03782Y04237*
X03781Y04244*
X03778Y0425*
X03774Y04256*
X03768Y0426*
X03762Y04263*
X03755Y04264*
X03748Y04263*
X03741Y0426*
X03737Y04257*
X03732Y04259*
Y04264*
X03771Y04303*
X03783*
X038Y04286*
X03805Y04283*
X03812Y04281*
X03813Y04282*
X03814Y0428*
X03822Y04279*
X0383Y0428*
X03831Y04281*
X03832Y04281*
X03838Y04283*
X03844Y04286*
X03863Y04306*
X03907*
Y04364*
X03981*
X03999Y04347*
X03996Y04342*
X03993Y04343*
X03986Y04341*
X03979Y04337*
X03975Y0433*
X03973Y04323*
X03975Y04315*
X03979Y04309*
X03986Y04304*
X03993Y04303*
X04001Y04304*
X04007Y04309*
X04009Y04309*
X04024Y04294*
X04026Y0429*
X04067Y04249*
X04071Y04246*
X04076Y04245*
X04081Y04246*
X04085Y04249*
X04088Y04254*
X04089Y04259*
X0409Y04259*
X04095Y0426*
X04099Y04263*
X04102Y04267*
X04103Y04273*
X04104Y04273*
X04109Y04274*
X04113Y04277*
X04116Y04281*
X04117Y04286*
X04118Y04287*
X04123Y04288*
X04127Y04291*
X0413Y04295*
X04131Y043*
X04132Y04301*
X04137Y04302*
X04141Y04305*
X04144Y04309*
X04145Y04314*
X04146Y04315*
X04151Y04316*
X04155Y04319*
X04156Y04321*
X04162Y04322*
X04194Y0429*
X04198Y04288*
X04203Y04287*
X04224*
X04224Y04283*
X04229Y04276*
X04235Y04272*
X04243Y04271*
X0425Y04272*
X04257Y04276*
X04261Y04283*
X04263Y0429*
X04261Y04298*
X0426Y043*
X04262Y04305*
X04287*
X0429Y043*
X04297Y04296*
X04304Y04295*
X04312Y04296*
X04318Y043*
X04323Y04307*
X04324Y04314*
X04323Y04322*
X04319Y04327*
X04321Y04332*
X04321Y04332*
X04327Y04333*
X04333Y04337*
X04338Y04344*
X04339Y04351*
X04338Y04358*
X04339Y04359*
X0434Y04361*
X04342Y04362*
X04348Y04361*
X04356Y04362*
X04362Y04367*
X04366Y04373*
X04368Y04381*
X04366Y04388*
X04362Y04395*
X04356Y04399*
X04348Y044*
X0434Y04399*
X04334Y04395*
X04333Y04393*
X04238*
X04236Y04395*
X04237Y04401*
X04238Y04402*
X0424Y04403*
X04242Y044*
X04247Y04406*
X04267Y04426*
X04267Y04427*
X04267Y04429*
X04266Y0443*
X04266Y0443*
X04266Y0443*
X04269Y04435*
X0427Y0444*
X04271Y0444*
X04276Y04441*
X0428Y04444*
X04283Y04448*
X04284Y04453*
X04285Y04454*
X0429Y04455*
X04294Y04458*
X04297Y04462*
X04298Y04467*
X04299Y04468*
X04304Y04469*
X04308Y04472*
X04311Y04476*
X04312Y04481*
X04313Y04482*
X04318Y04483*
X04322Y04486*
X04325Y0449*
X04326Y04495*
X04327Y04496*
X04332Y04497*
X04336Y045*
X04339Y04504*
X0434Y04509*
X0434Y0451*
X04346Y04511*
X0435Y04514*
X04353Y04518*
X04354Y04523*
X04354Y04524*
X04359Y04525*
X04364Y04528*
X04367Y04532*
X04368Y04537*
X04368Y04538*
X04373Y04539*
X04378Y04542*
X0438Y04546*
X04381Y04551*
X04382Y04552*
X04387Y04553*
X04392Y04556*
X04394Y0456*
X04395Y04565*
X04396Y04566*
X04401Y04567*
X04405Y04569*
X04408Y04574*
X04409Y04579*
X0441Y0458*
X04415Y04581*
X04419Y04583*
X04422Y04588*
X04423Y04593*
X04422Y04598*
X04419Y04602*
X04379Y04642*
X04375Y04645*
X04369Y04651*
X04371Y04656*
X04376Y04657*
X04382Y04661*
X04387Y04668*
X04388Y04675*
X04387Y04683*
X04382Y0469*
X04376Y04694*
X04368Y04695*
X04361Y04694*
X04357Y04691*
X04277Y04771*
X04273Y04773*
X04269Y04774*
X04195*
X04192Y04775*
X03938*
X0389Y04823*
Y05449*
X0411Y05669*
X04112Y05673*
X04113Y05677*
Y05998*
X04112Y06003*
X04112Y06003*
X04113Y06004*
X04114Y06011*
X04113Y06019*
X04108Y06025*
X04102Y0603*
X04094Y06031*
X04087Y0603*
X0408Y06025*
X04076Y06019*
X04075Y06011*
X04076Y06004*
X0408Y05997*
X04087Y05993*
X04089Y05993*
Y05765*
X04085Y05762*
X04084Y05762*
X04077Y05764*
X04069Y05762*
X04068Y05762*
X04064Y05764*
Y06256*
X04077*
X0408Y06253*
X0408Y06252*
X04081Y06245*
X04085Y06238*
X04092Y06234*
X041Y06232*
X04107Y06234*
X04114Y06238*
X04118Y06245*
X04119Y06252*
X04119Y06253*
X04122Y06256*
X04135*
Y06289*
X04162Y06316*
X04166Y06321*
X04167Y06328*
Y06402*
X04166Y06409*
X04162Y06414*
X04157Y06419*
X0416Y06423*
X04164Y06423*
X04171Y06424*
X04173Y06422*
X04174Y0642*
X04173Y06419*
X04172Y06414*
Y06063*
X04128*
Y06001*
X04202*
Y0602*
X04211*
Y06002*
X04272*
Y0602*
X04286*
Y06018*
X04319*
X0432*
X04324Y06014*
Y06011*
X04326Y06011*
X04329Y06008*
X04353Y05983*
X04359Y0598*
X04365Y05978*
X04442*
X04449Y0598*
X04454Y05983*
X04458Y05989*
X0446Y05996*
X04458Y06002*
X04454Y06008*
X04449Y06012*
X04442Y06013*
X04395*
X04395Y06018*
Y06082*
X0439*
Y06097*
X04408*
Y06171*
X04346*
Y06097*
X04366*
Y06085*
X04365Y06085*
X04359Y06085*
X04324*
X0432Y06082*
X04319*
X04286*
Y06044*
X04272*
Y06057*
X04211*
Y06044*
X04202*
Y06063*
X04197*
Y06409*
X04224Y06436*
X04226Y0644*
X04227Y06444*
Y06459*
X04236*
X04238*
X04241*
X04243*
X04252*
Y06402*
X04221*
Y0634*
X04295*
Y06402*
X04276*
Y06459*
X04286*
X04287*
X04291*
X04292*
X04293*
X04296Y06454*
X04295Y06454*
X04294Y06446*
X04295Y06438*
X043Y06432*
X04306Y06428*
X04314Y06426*
X04321Y06428*
X04328Y06432*
X04332Y06438*
X04334Y06446*
X04332Y06454*
X04332Y06454*
X04334Y06459*
X04336*
X0434*
X04341*
X0435*
Y06444*
X04345Y0644*
X04341Y06434*
X04339Y06426*
X04341Y06419*
X04345Y06412*
X0435Y06409*
Y064*
X0431*
Y06339*
X04384*
Y064*
X04375*
Y06415*
X04377Y06419*
X04379Y06426*
X04377Y06434*
X04375Y06438*
Y06459*
X04384*
X04385*
X04389*
X0439*
X04434*
Y06536*
X0439*
X04389*
X04385*
X04384*
X04341*
X0434*
X04336*
X04335*
X04292*
X04291*
X04287*
X04286*
X04243*
X04241*
X04238*
X04236*
X04193*
X04192*
X04188*
X04187*
X04144*
X04143*
X04139*
X04138*
X04094*
X0409*
X04044*
X04041*
G37*
G36*
X04384Y0632D02*
X0431D01*
Y06259*
X04326*
X04328Y06253*
X04332Y06246*
X04338Y06242*
X04346Y06241*
X04354Y06242*
X0436Y06246*
X04364Y06253*
X04366Y06259*
X04384*
Y0632*
G37*
G36*
X03518D02*
X03444D01*
Y06259*
X03458*
X03458Y06259*
X0346Y06251*
X03464Y06245*
X03471Y0624*
X03478Y06239*
X03486Y0624*
X03492Y06245*
X03497Y06251*
X03498Y06259*
X03499Y06259*
X03518*
Y0632*
G37*
G36*
X05066Y06266D02*
X05059Y06265D01*
X05052Y06262*
X05046Y06258*
X05042Y06252*
X05039Y06246*
X05038Y06239*
X05039Y06232*
X0504Y0623*
X05039Y06229*
X05038Y06224*
Y06184*
X05026*
X05021Y06183*
X05016Y0618*
X05013Y06175*
X05012Y0617*
X05013Y06164*
X05016Y0616*
X05016Y06159*
Y06154*
X05016Y06154*
X05013Y0615*
X05012Y06144*
X05013Y06139*
X05016Y06134*
X05016Y06134*
Y06129*
X05016Y06129*
X05013Y06124*
X05012Y06119*
X05013Y06113*
X05016Y06109*
X05021Y06106*
X05026Y06104*
X05075*
X05081Y06106*
X05082Y06106*
X05121*
X05126Y06107*
X0513Y0611*
X05132Y06112*
X05173*
Y06173*
X05117*
X05117Y06178*
Y06196*
X05132Y06211*
X05133Y06211*
X0514Y0621*
X05147Y06211*
X05154Y06213*
X05159Y06218*
X05164Y06223*
X05166Y0623*
X05167Y06237*
X05166Y06244*
X05164Y06251*
X05159Y06256*
X05154Y0626*
X05147Y06263*
X0514Y06264*
X05133Y06263*
X05126Y0626*
X05121Y06256*
X05116Y06251*
X05114Y06244*
X05113Y06237*
X05114Y0623*
X05114Y06228*
X05096Y0621*
X05093Y06206*
X05092Y06201*
Y06178*
X05087Y06177*
X05085Y0618*
X05081Y06183*
X05075Y06184*
X05063*
Y06209*
X05066Y06212*
X05073Y06213*
X05079Y06215*
X05085Y0622*
X05089Y06225*
X05092Y06232*
X05093Y06239*
X05092Y06246*
X05089Y06252*
X05085Y06258*
X05079Y06262*
X05073Y06265*
X05066Y06266*
G37*
G36*
X03644Y06536D02*
X03641D01*
X03639*
X03595*
Y06459*
X03601*
Y06301*
X03599Y06294*
X03601Y06287*
X03605Y0628*
X03612Y06276*
X03619Y06275*
X03627Y06276*
X03633Y0628*
X03638Y06287*
X03639Y06294*
X03638Y06302*
X03635Y06305*
Y06455*
X03639Y06459*
X03645*
X0365Y06457*
Y06333*
X03649Y06332*
X03648Y06325*
X03649Y06317*
X03654Y06311*
X0366Y06306*
X03668Y06305*
X03675Y06306*
X03682Y06311*
X03686Y06317*
X03687Y06325*
X03686Y06332*
X03685Y06334*
Y06459*
X0369*
Y06536*
X03646*
X03644*
G37*
G36*
X05879Y0651D02*
X05865D01*
X05856Y06508*
X05848Y06505*
X0584Y065*
X05837Y06496*
X05829Y06488*
X05826Y06486*
X05822Y0648*
X05819Y06473*
X05818Y06466*
Y06444*
X05819Y06437*
X05822Y06431*
X05826Y06425*
X05829Y06422*
X05833Y06418*
X05837Y06414*
X05846Y06408*
X05857Y06404*
X05868Y06401*
X05882*
X05891Y06403*
X05899Y06407*
X05907Y06412*
X05908Y06414*
X05912Y06417*
X05916Y06421*
X05922Y0643*
X05926Y0644*
X05928Y0645*
Y06466*
X05926Y06473*
X05923Y06481*
X05919Y06487*
X05908Y06498*
X05899Y06504*
X05889Y06508*
X05879Y0651*
G37*
G36*
X02792Y0643D02*
X0266D01*
Y06337*
X02792*
Y0643*
G37*
G36*
X06112Y06501D02*
X06095Y06499D01*
X06079Y06494*
X06065Y06486*
X06052Y06476*
X06042Y06463*
X06034Y06449*
X06029Y06433*
X06027Y06417*
X06029Y064*
X06034Y06384*
X06042Y0637*
X06052Y06357*
X06065Y06347*
X06079Y06339*
X06095Y06334*
X06112Y06332*
X06128Y06334*
X06144Y06339*
X06158Y06347*
X06171Y06357*
X06181Y0637*
X06189Y06384*
X06194Y064*
X06196Y06417*
X06194Y06433*
X06189Y06449*
X06181Y06463*
X06171Y06476*
X06158Y06486*
X06144Y06494*
X06128Y06499*
X06112Y06501*
G37*
G36*
X0462Y0522D02*
X04613Y0522D01*
X04607Y05217*
X04601Y05212*
X04597Y05207*
X04594Y052*
X04593Y05193*
X04594Y05186*
X04595Y05185*
X04579Y05169*
X04576Y05165*
X04575Y0516*
Y05129*
X04556*
Y05096*
X04599*
Y05111*
X046Y05112*
Y05155*
X04612Y05167*
X04613Y05167*
X0462Y05166*
X04627Y05167*
X04634Y0517*
X0464Y05174*
X04644Y0518*
X04647Y05186*
X04648Y05193*
X04647Y052*
X04644Y05207*
X0464Y05212*
X04634Y05217*
X04627Y0522*
X0462Y0522*
G37*
G36*
X05911Y05252D02*
X05902Y05251D01*
X05893Y05247*
X05885Y05241*
X05879Y05234*
X05876Y05225*
X05874Y05215*
X05876Y05206*
X05879Y05197*
X05885Y05189*
X05893Y05183*
X05902Y0518*
X05911Y05178*
X05921Y0518*
X0593Y05183*
X05937Y05189*
X05943Y05197*
X05947Y05206*
X05948Y05215*
X05947Y05225*
X05943Y05234*
X05937Y05241*
X0593Y05247*
X05921Y05251*
X05911Y05252*
G37*
G36*
X03192Y05192D02*
X03185Y0519D01*
X0318Y05187*
X03176Y05181*
X03175Y05174*
X03176Y05168*
X0318Y05162*
X03182Y0516*
Y05138*
X0317*
X03169Y05139*
Y05071*
X03182*
Y04931*
X03162Y04912*
X03059*
X03059Y04911*
Y04864*
X03167Y04863*
X03166Y04864*
Y04872*
X0317Y04872*
X03176Y04876*
X03211Y04912*
X03215Y04917*
X03216Y04924*
Y05071*
X03229*
X03231Y05072*
Y05138*
X03216*
Y05167*
X03215Y05174*
X03211Y05179*
X03204Y05187*
X03199Y0519*
X03192Y05192*
G37*
G36*
X03325Y05221D02*
X03317Y05219D01*
X03316Y05218*
X03292*
X03285Y05217*
X0328Y05213*
X03271Y05205*
X03235*
Y05144*
X03254*
Y05136*
X03244*
Y05075*
X03278*
X03304Y05049*
Y05018*
X03404*
Y05021*
X03449*
X03456Y05022*
X03459Y05025*
X03503*
Y05086*
X03429*
Y05056*
X03404*
Y05059*
X03342*
X03299Y05102*
Y05136*
X03289*
Y05144*
X03296*
Y0518*
X03299Y05184*
X03316*
X03317Y05183*
X03325Y05181*
X03332Y05183*
X03339Y05187*
X03343Y05193*
X03345Y05201*
X03343Y05209*
X03339Y05215*
X03332Y05219*
X03325Y05221*
G37*
G36*
X03406Y05277D02*
X03305D01*
Y05236*
X03406*
Y05241*
X03423*
X03424Y05239*
X03431Y05235*
X03438Y05233*
X03446Y05235*
X03453Y05239*
X03457Y05245*
X03458Y05253*
X03457Y05261*
X03453Y05267*
X03446Y05271*
X03438Y05273*
X03431Y05271*
X03424Y05267*
X03423Y05265*
X03406*
Y05277*
G37*
G36*
X06011Y05252D02*
X06002Y05251D01*
X05993Y05247*
X05985Y05241*
X05979Y05234*
X05976Y05225*
X05974Y05215*
X05976Y05206*
X05979Y05197*
X05985Y05189*
X05993Y05183*
X06002Y0518*
X06011Y05178*
X06021Y0518*
X0603Y05183*
X06037Y05189*
X06043Y05197*
X06047Y05206*
X06048Y05215*
X06047Y05225*
X06043Y05234*
X06037Y05241*
X0603Y05247*
X06021Y05251*
X06011Y05252*
G37*
G36*
X06111D02*
X06102Y05251D01*
X06093Y05247*
X06085Y05241*
X06079Y05234*
X06076Y05225*
X06074Y05215*
X06076Y05206*
X06079Y05197*
X06085Y05189*
X06093Y05183*
X06102Y0518*
X06111Y05178*
X06121Y0518*
X0613Y05183*
X06137Y05189*
X06143Y05197*
X06147Y05206*
X06148Y05215*
X06147Y05225*
X06143Y05234*
X06137Y05241*
X0613Y05247*
X06121Y05251*
X06111Y05252*
G37*
G36*
Y05052D02*
X06102Y05051D01*
X06093Y05047*
X06085Y05041*
X06079Y05034*
X06076Y05025*
X06074Y05015*
X06076Y05006*
X06079Y04997*
X06085Y04989*
X06093Y04983*
X06102Y0498*
X06111Y04978*
X06121Y0498*
X0613Y04983*
X06137Y04989*
X06143Y04997*
X06147Y05006*
X06148Y05015*
X06147Y05025*
X06143Y05034*
X06137Y05041*
X0613Y05047*
X06121Y05051*
X06111Y05052*
G37*
G36*
X03152Y05143D02*
X03091D01*
Y05069*
X03098*
Y05059*
X03059*
Y05051*
X03052*
X03047Y05054*
X03039Y05056*
X03032Y05054*
X03025Y0505*
X03021Y05043*
X03019Y05036*
X03021Y05028*
X03025Y05022*
X03032Y05017*
X03039Y05016*
X03047Y05017*
X03053Y05022*
X03054Y05023*
X03059Y05022*
Y05018*
X0316*
Y05059*
X03122*
Y05069*
X03152*
Y05143*
G37*
G36*
X05911Y05052D02*
X05902Y05051D01*
X05893Y05047*
X05885Y05041*
X05879Y05034*
X05876Y05025*
X05874Y05015*
X05876Y05006*
X05879Y04997*
X05885Y04989*
X05893Y04983*
X05902Y0498*
X05911Y04978*
X05921Y0498*
X0593Y04983*
X05937Y04989*
X05943Y04997*
X05947Y05006*
X05948Y05015*
X05947Y05025*
X05943Y05034*
X05937Y05041*
X0593Y05047*
X05921Y05051*
X05911Y05052*
G37*
G36*
X06011D02*
X06002Y05051D01*
X05993Y05047*
X05985Y05041*
X05979Y05034*
X05976Y05025*
X05974Y05015*
X05976Y05006*
X05979Y04997*
X05985Y04989*
X05993Y04983*
X06002Y0498*
X06011Y04978*
X06021Y0498*
X0603Y04983*
X06037Y04989*
X06043Y04997*
X06047Y05006*
X06048Y05015*
X06047Y05025*
X06043Y05034*
X06037Y05041*
X0603Y05047*
X06021Y05051*
X06011Y05052*
G37*
G36*
Y05152D02*
X06002Y05151D01*
X05993Y05147*
X05985Y05141*
X05979Y05134*
X05976Y05125*
X05974Y05115*
X05976Y05106*
X05979Y05097*
X05985Y05089*
X05993Y05083*
X06002Y0508*
X06011Y05078*
X06021Y0508*
X0603Y05083*
X06037Y05089*
X06043Y05097*
X06047Y05106*
X06048Y05115*
X06047Y05125*
X06043Y05134*
X06037Y05141*
X0603Y05147*
X06021Y05151*
X06011Y05152*
G37*
G36*
X06111D02*
X06102Y05151D01*
X06093Y05147*
X06085Y05141*
X06079Y05134*
X06076Y05125*
X06074Y05115*
X06076Y05106*
X06079Y05097*
X06085Y05089*
X06093Y05083*
X06102Y0508*
X06111Y05078*
X06121Y0508*
X0613Y05083*
X06137Y05089*
X06143Y05097*
X06147Y05106*
X06148Y05115*
X06147Y05125*
X06143Y05134*
X06137Y05141*
X0613Y05147*
X06121Y05151*
X06111Y05152*
G37*
G36*
X05811D02*
X05802Y05151D01*
X05793Y05147*
X05785Y05141*
X05779Y05134*
X05776Y05125*
X05774Y05115*
X05776Y05106*
X05779Y05097*
X05785Y05089*
X05793Y05083*
X05802Y0508*
X05811Y05078*
X05821Y0508*
X0583Y05083*
X05837Y05089*
X05843Y05097*
X05847Y05106*
X05848Y05115*
X05847Y05125*
X05843Y05134*
X05837Y05141*
X0583Y05147*
X05821Y05151*
X05811Y05152*
G37*
G36*
X05911D02*
X05902Y05151D01*
X05893Y05147*
X05885Y05141*
X05879Y05134*
X05876Y05125*
X05874Y05115*
X05876Y05106*
X05879Y05097*
X05885Y05089*
X05893Y05083*
X05902Y0508*
X05911Y05078*
X05921Y0508*
X0593Y05083*
X05937Y05089*
X05943Y05097*
X05947Y05106*
X05948Y05115*
X05947Y05125*
X05943Y05134*
X05937Y05141*
X0593Y05147*
X05921Y05151*
X05911Y05152*
G37*
G36*
X0279Y05575D02*
X02658D01*
Y05482*
X0279*
Y05575*
G37*
G36*
X04223Y05724D02*
X04149D01*
Y05662*
X04169*
Y05605*
X04054Y0549*
X04053Y0549*
X04046Y05486*
X04045Y05485*
X0404Y05486*
Y05495*
X03966*
Y05434*
X0404*
Y05447*
X04053*
X0406Y05449*
X04066Y05452*
X04066Y05453*
X04068Y05453*
X04074Y05457*
X04079Y05464*
X04079Y05466*
X04198Y05585*
X04202Y05591*
X04203Y05598*
Y05662*
X04223*
Y05724*
G37*
G36*
X03223Y05563D02*
X03216Y05561D01*
X0321Y05557*
X03207Y05552*
X03205Y05545*
Y05517*
X03192*
Y05449*
X03192Y05448*
X03205Y05448*
Y0532*
X03167Y05281*
X03162Y05282*
X03162Y05286*
Y05286*
Y05327*
X03061*
Y05324*
X03056Y05322*
X03055Y05324*
X03048Y05328*
X03041Y0533*
X03033Y05328*
X03027Y05324*
X03022Y05317*
X03021Y0531*
X03022Y05302*
X03027Y05296*
X03033Y05291*
X03041Y0529*
X03048Y05291*
X03053Y05294*
X03061*
Y05286*
Y05286*
X03061Y05281*
X03056*
Y05233*
X03168*
Y0524*
X03173Y05241*
X03179Y05244*
X03235Y053*
X03239Y05306*
X0324Y05312*
Y05444*
X03244Y05448*
X0326Y05448*
Y05517*
X0324*
Y05545*
X03239Y05552*
X03235Y05557*
X03229Y05561*
X03223Y05563*
G37*
G36*
X06111Y05552D02*
X06102Y05551D01*
X06093Y05547*
X06085Y05541*
X06079Y05534*
X06076Y05525*
X06074Y05515*
X06076Y05506*
X06079Y05497*
X06085Y05489*
X06093Y05483*
X06102Y0548*
X06111Y05478*
X06121Y0548*
X0613Y05483*
X06137Y05489*
X06143Y05497*
X06147Y05506*
X06148Y05515*
X06147Y05525*
X06143Y05534*
X06137Y05541*
X0613Y05547*
X06121Y05551*
X06111Y05552*
G37*
G36*
Y05752D02*
X06102Y05751D01*
X06093Y05747*
X06085Y05741*
X06079Y05734*
X06076Y05725*
X06074Y05715*
X06076Y05706*
X06079Y05697*
X06085Y05689*
X06093Y05683*
X06102Y0568*
X06111Y05678*
X06121Y0568*
X0613Y05683*
X06137Y05689*
X06143Y05697*
X06147Y05706*
X06148Y05715*
X06147Y05725*
X06143Y05734*
X06137Y05741*
X0613Y05747*
X06121Y05751*
X06111Y05752*
G37*
G36*
X03102Y05794D02*
X03041D01*
Y0572*
X03047*
X03051Y05716*
X0305Y05715*
X03052Y05708*
X03056Y05701*
X03063Y05697*
X0307Y05695*
X03078Y05697*
X03084Y05701*
X03089Y05708*
X0309Y05715*
X0309Y05716*
X03093Y0572*
X03102*
Y05794*
G37*
G36*
X03352Y05594D02*
X03349Y05594D01*
X03327*
X0332Y05592*
X03315Y05589*
X03302Y05576*
X03265*
Y05515*
X03285*
Y05508*
X03276*
Y05447*
X03285*
Y05435*
X03286Y05429*
X0329Y05423*
X03305Y05408*
Y05386*
X03406*
Y05389*
X03458*
X03464Y05391*
X0347Y05394*
X03471Y05395*
X03503*
Y05457*
X03429*
Y05424*
X03406*
Y05427*
X03335*
X0332Y05442*
X03321Y05447*
X03331*
Y05508*
X0332*
Y05515*
X03327*
Y05551*
X03334Y05559*
X0334*
X03345Y05556*
X03352Y05554*
X0336Y05556*
X03366Y0556*
X03371Y05567*
X03372Y05574*
X03371Y05582*
X03366Y05588*
X0336Y05593*
X03352Y05594*
G37*
G36*
X06111Y05652D02*
X06102Y05651D01*
X06093Y05647*
X06085Y05641*
X06079Y05634*
X06076Y05625*
X06074Y05615*
X06076Y05606*
X06079Y05597*
X06085Y05589*
X06093Y05583*
X06102Y0558*
X06111Y05578*
X06121Y0558*
X0613Y05583*
X06137Y05589*
X06143Y05597*
X06147Y05606*
X06148Y05615*
X06147Y05625*
X06143Y05634*
X06137Y05641*
X0613Y05647*
X06121Y05651*
X06111Y05652*
G37*
G36*
X03406Y05377D02*
X03305D01*
Y05336*
X03406*
Y05339*
X03429*
Y05315*
X03503*
Y05377*
X03429*
Y05374*
X03406*
Y05377*
G37*
G36*
Y05327D02*
X03305D01*
Y05323*
X03302Y05321*
X033Y05321*
X03293Y05322*
X03286Y05321*
X03279Y05316*
X03275Y0531*
X03273Y05302*
X03275Y05295*
X03279Y05288*
X03286Y05284*
X03293Y05282*
X03301Y05284*
X03304Y05286*
X03305Y05286*
X03406*
Y05327*
G37*
G36*
X06011Y05352D02*
X06002Y05351D01*
X05993Y05347*
X05985Y05341*
X05979Y05334*
X05976Y05325*
X05974Y05315*
X05976Y05306*
X05979Y05297*
X05985Y05289*
X05993Y05283*
X06002Y0528*
X06011Y05278*
X06021Y0528*
X0603Y05283*
X06037Y05289*
X06043Y05297*
X06047Y05306*
X06048Y05315*
X06047Y05325*
X06043Y05334*
X06037Y05341*
X0603Y05347*
X06021Y05351*
X06011Y05352*
G37*
G36*
X06111D02*
X06102Y05351D01*
X06093Y05347*
X06085Y05341*
X06079Y05334*
X06076Y05325*
X06074Y05315*
X06076Y05306*
X06079Y05297*
X06085Y05289*
X06093Y05283*
X06102Y0528*
X06111Y05278*
X06121Y0528*
X0613Y05283*
X06137Y05289*
X06143Y05297*
X06147Y05306*
X06148Y05315*
X06147Y05325*
X06143Y05334*
X06137Y05341*
X0613Y05347*
X06121Y05351*
X06111Y05352*
G37*
G36*
Y05452D02*
X06102Y05451D01*
X06093Y05447*
X06085Y05441*
X06079Y05434*
X06076Y05425*
X06074Y05415*
X06076Y05406*
X06079Y05397*
X06085Y05389*
X06093Y05383*
X06102Y0538*
X06111Y05378*
X06121Y0538*
X0613Y05383*
X06137Y05389*
X06143Y05397*
X06147Y05406*
X06148Y05415*
X06147Y05425*
X06143Y05434*
X06137Y05441*
X0613Y05447*
X06121Y05451*
X06111Y05452*
G37*
G36*
X06011Y05451D02*
X06002Y0545D01*
X05993Y05446*
X05985Y0544*
X05979Y05433*
X05976Y05424*
X05974Y05414*
X05976Y05405*
X05979Y05396*
X05985Y05388*
X05993Y05382*
X06002Y05379*
X06011Y05377*
X06021Y05379*
X0603Y05382*
X06037Y05388*
X06043Y05396*
X06047Y05405*
X06048Y05414*
X06047Y05424*
X06043Y05433*
X06037Y0544*
X0603Y05446*
X06021Y0545*
X06011Y05451*
G37*
G36*
X04491Y05445D02*
X04478D01*
X04469Y05443*
X04461Y0544*
X04453Y05435*
X0445Y05432*
X04441Y05423*
X04439Y05421*
X04435Y05415*
X04432Y05408*
X04431Y05401*
Y05379*
X04432Y05372*
X04435Y05366*
X04439Y0536*
X04441Y05357*
X04445Y05353*
Y05353*
X04449Y05349*
X04459Y05343*
X04469Y05339*
X0448Y05336*
X04494*
X04503Y05338*
X04512Y05342*
X04519Y05347*
X04521Y05349*
X04525Y05352*
X04528Y05356*
X04534Y05365*
X04538Y05375*
X0454Y05385*
Y05401*
X04539Y05408*
X04536Y05416*
X04532Y05422*
X04521Y05433*
X04512Y05439*
X04502Y05443*
X04491Y05445*
G37*
G36*
X04119Y05163D02*
X04058D01*
Y05089*
X04119*
Y05129*
X04129*
X0413Y05127*
X04136Y05123*
X04144Y05121*
X04152Y05123*
X04158Y05127*
X04162Y05134*
X04164Y05141*
X04162Y05149*
X04158Y05155*
X04152Y0516*
X04144Y05161*
X04136Y0516*
X0413Y05155*
X04129Y05153*
X04119*
Y05163*
G37*
%LNpcb_obdh-3*%
%LPD*%
G36*
X03874Y05908D02*
X03894D01*
Y05791*
X03893Y05789*
X03891Y05781*
X03893Y05774*
X03897Y05767*
X03904Y05763*
X03911Y05762*
X03919Y05763*
X03925Y05767*
X03929Y05773*
X03933Y05773*
X03934Y05772*
Y05736*
X03868Y0567*
X03866Y05669*
X0386Y05665*
X03856Y05659*
X03854Y05651*
X03856Y05643*
X0386Y05637*
X03866Y05633*
X03866Y05628*
X03866Y05626*
X03859Y05622*
X03855Y05616*
X03854Y05608*
X03855Y05601*
X03859Y05594*
X03866Y0559*
X03867Y0559*
X03868Y05585*
X03784Y05501*
X03782Y05497*
X03781Y05492*
Y04774*
X03782Y04769*
X03784Y04765*
X03793Y04756*
X03791Y04751*
X03788Y0475*
X03782Y04746*
X03777Y04739*
X03776Y04732*
X03777Y04724*
X03781Y04719*
X0378Y04717*
X03778Y04715*
X03772Y04715*
X03765Y04714*
X03758Y04712*
X03753Y04707*
X03748Y04702*
X03746Y04695*
X03745Y04688*
X03746Y04681*
X03748Y04674*
X03753Y04669*
X03758Y04665*
X03765Y04662*
X03772Y04661*
X03779Y04662*
X03779Y04662*
X03779Y04662*
X03782Y04657*
X03778Y04652*
X03776Y04644*
X03778Y04637*
X03782Y0463*
X03789Y04626*
X03789Y04626*
Y04621*
X03786Y0462*
X03779Y04616*
X03775Y04609*
X03773Y04602*
X03775Y04594*
X03779Y04588*
X03786Y04583*
X03793Y04582*
X03797Y04583*
X03799Y04578*
X03796Y04575*
X03792Y04576*
X03785Y04574*
X03778Y0457*
X03774Y04563*
X03773Y04556*
X03774Y04548*
X03778Y04542*
X03785Y04537*
X03792Y04536*
X038Y04537*
X03806Y04542*
X03811Y04548*
X03812Y04556*
X03812Y04556*
X03834Y04578*
X04027*
X04031Y04574*
X04029Y04569*
X04025Y0457*
X04018Y04569*
X04012Y04566*
X04006Y04562*
X04002Y04556*
X03999Y04549*
X03998Y04542*
X03999Y04535*
X04002Y04529*
X04006Y04523*
X04012Y04519*
X04018Y04516*
X04025Y04515*
X04033Y04516*
X04039Y04519*
X04045Y04523*
X04048Y04527*
X04053Y04528*
X04054Y04527*
X04077Y04504*
X04081Y04501*
X04086Y045*
X0416*
X04162Y04496*
X04151Y04487*
X04155Y04484*
X04152Y0448*
X04151Y0448*
X04143Y04479*
X04137Y04474*
X04132Y04468*
X04131Y0446*
X04132Y04453*
X04137Y04446*
X04143Y04442*
X04151Y0444*
X04154Y04441*
X04156Y04436*
X04152Y04434*
X0415Y04431*
X04144Y0443*
X04109Y04466*
X04105Y04469*
X04103Y04469*
X04099Y04472*
X04091Y04473*
X04084Y04472*
X04077Y04468*
X04073Y04461*
X04071Y04453*
X04073Y04446*
X04077Y04439*
X04084Y04435*
X04091Y04434*
X04099Y04435*
X04102Y04438*
X04108Y04432*
X04106Y04427*
X041Y04428*
X04093Y04427*
X04086Y04423*
X04084Y04419*
X04079Y0442*
X04079Y04422*
X04074Y04428*
X04068Y04432*
X0406Y04434*
X04053Y04432*
X04046Y04428*
X04042Y04422*
X04042Y04421*
X04037*
X04036Y04422*
X04032Y04429*
X04026Y04433*
X04018Y04434*
X0401Y04433*
X04004Y04429*
X04Y04422*
X03998Y04416*
X03993Y04414*
X03982Y04425*
X03978Y04428*
X03974Y04429*
X03907*
Y04447*
X03879*
Y04454*
X0388Y04455*
X03884Y04462*
X03886Y04469*
X03884Y04477*
X0388Y04483*
X03874Y04488*
X03866Y04489*
X03858Y04488*
X03852Y04483*
X03848Y04477*
X03846Y04469*
X03848Y04462*
X03852Y04455*
X03855Y04453*
Y04447*
X03833*
Y04394*
X03828Y04391*
X03814Y04405*
Y04444*
X03789*
Y04457*
X0379Y04458*
X03794Y04464*
X03796Y04472*
X03794Y0448*
X0379Y04486*
X03783Y0449*
X03776Y04492*
X03768Y0449*
X03762Y04486*
X03758Y0448*
X03756Y04472*
X03758Y04464*
X03762Y04458*
X03765Y04456*
Y04444*
X0374*
Y04383*
X03801*
X03816Y04369*
X03813Y04364*
X03752*
X03728Y04388*
Y05449*
X0373Y0545*
X03734Y05457*
X03736Y05464*
X03734Y05472*
X0373Y05479*
X03728Y0548*
Y05708*
X03732Y0571*
X03736Y05716*
X03737Y05724*
X03736Y05732*
X03732Y05738*
X03725Y05742*
X03718Y05744*
X0371Y05742*
X03706Y0574*
X03701Y05742*
Y05748*
X03777Y05824*
X0378Y05828*
X03781Y05833*
Y0584*
X03783Y05841*
X03787Y05847*
X0379Y05853*
X03791Y05861*
X0379Y05868*
X03787Y05874*
X03783Y0588*
X03781Y05881*
Y05903*
X03784Y05907*
X03818*
X03821*
X03855*
Y05928*
X03874*
Y05908*
G37*
G54D10*
X04783Y06266D02*
D01*
D01*
G75*
G03X04785Y06272I-00005J00005D01*
G74*G01*
X04998Y03296D02*
X05002Y03292D01*
X04998Y03296D02*
Y03343D01*
X04767Y03367D02*
X04798D01*
X04732Y03332D02*
X04767Y03367D01*
X04686Y03332D02*
X04732D01*
X04802Y03294D02*
X04847Y03338D01*
X04772Y03264D02*
X04802Y03294D01*
X04668Y0335D02*
X04686Y03332D01*
X04705Y03264D02*
X04772D01*
X04668D02*
X04705D01*
X04847Y03338D02*
Y0347D01*
X04537Y03606D02*
X04541Y03602D01*
Y03458D02*
Y03602D01*
X048Y03517D02*
X04847Y0347D01*
X048Y03517D02*
Y03539D01*
X05701Y06379D02*
Y06438D01*
X05547Y0638D02*
X057D01*
X05653Y06486D02*
X05701Y06438D01*
X05545Y06486D02*
X05653D01*
X05314Y06136D02*
Y06447D01*
X05353Y06486D02*
X0541D01*
X05314Y06447D02*
X05353Y06486D01*
X02848Y05982D02*
Y05986D01*
X05461Y03977D02*
X05484Y04D01*
X05461Y03422D02*
Y03977D01*
Y03422D02*
X05526Y03356D01*
X05478Y03294D02*
X05495Y03276D01*
X05526*
X05624Y03362D02*
X05639Y03377D01*
Y03623*
X0526Y03809D02*
X05435Y03985D01*
X0526Y03691D02*
Y03809D01*
X05213Y03538D02*
Y03772D01*
Y03538D02*
X05217Y03542D01*
X048Y03637D02*
X04805Y03642D01*
X048Y03539D02*
Y03637D01*
X05435Y03985D02*
X05469D01*
X04554Y05816D02*
Y06412D01*
X0451Y06456D02*
Y06497D01*
Y06456D02*
X04554Y06412D01*
X04788Y06258D02*
Y06266D01*
X04785Y06272D02*
Y06571D01*
X0484Y06626*
X02903Y04186D02*
X02961D01*
X02959Y04097D02*
X02961Y04099D01*
X02908Y04097D02*
X02959D01*
X02896Y04086D02*
X02908Y04097D01*
X02652Y03766D02*
Y04308D01*
X02834Y0449*
X02652Y03766D02*
X02698Y0372D01*
X02843Y05377D02*
Y05426D01*
X02835Y05385D02*
X02843Y05377D01*
X02744Y05385D02*
X02835D01*
X02688Y04875D02*
Y04975D01*
X05661Y04631D02*
Y04717D01*
X05659Y04698D02*
Y04773D01*
X05573Y04866D02*
X05574Y04866D01*
Y04778D02*
Y04866D01*
X05699Y04551D02*
X05703Y04555D01*
X05658Y04551D02*
X05699D01*
X05658D02*
X05661Y04554D01*
Y04631*
X03714Y03956D02*
Y04271D01*
X03777Y04334*
X03714Y03938D02*
Y03956D01*
X03714Y03956*
X0364Y03863D02*
X03714Y03938D01*
X0364Y03602D02*
Y03863D01*
X03832Y04299D02*
X0387Y04337D01*
X03777Y04334D02*
X03812Y04299D01*
X04998Y03343D02*
X05026Y03371D01*
Y03438*
X05025Y05611D02*
X05234D01*
Y05608D02*
Y05611D01*
X05024Y06067D02*
X05229D01*
X05237Y06059*
X04732Y05638D02*
X04853D01*
X04554Y05816D02*
X04732Y05638D01*
X05237Y06059D02*
X05314Y06136D01*
X05341Y06338D02*
X05383Y0638D01*
X05341Y05715D02*
Y06338D01*
X05234Y05608D02*
X05341Y05715D01*
X06191Y0406D02*
Y06262D01*
X06111Y04015D02*
X06146D01*
X06011D02*
X06111D01*
X06146D02*
X06191Y0406D01*
X0483Y06093D02*
X04857D01*
X04782D02*
X0483D01*
Y06144D02*
X04858D01*
X04762D02*
X0483D01*
X04778Y05561D02*
X04779Y05562D01*
X04851*
X0478Y05608D02*
X04783Y05611D01*
X04827Y05689D02*
X04854D01*
X04773D02*
X04827D01*
X04585Y05877D02*
X04773Y05689D01*
X04559Y06497D02*
X04585Y06471D01*
Y05877D02*
Y06471D01*
X03354Y04988D02*
X03441D01*
X03356Y04625D02*
X03434D01*
X03758Y04334D02*
X03777D01*
X03711Y04381D02*
X03758Y04334D01*
X04202Y05292D02*
X04281D01*
X04201Y05293D02*
X04202Y05292D01*
X0419Y05293D02*
X04201D01*
X04099Y05385D02*
X0419Y05293D01*
X04008Y04957D02*
X04066Y04899D01*
X04008Y05034D02*
Y05126D01*
Y04957D02*
Y05034D01*
X04066Y04899D02*
X04188D01*
X02895Y05585D02*
Y05594D01*
X028Y05689D02*
X02895Y05594D01*
X02776Y0578D02*
X02785Y05789D01*
X02848*
X02776Y05747D02*
X028Y05723D01*
X02776Y05747D02*
Y0578D01*
X028Y05689D02*
Y05723D01*
X02736Y06136D02*
Y0625D01*
Y06136D02*
X02776Y06096D01*
Y0578D02*
Y06096D01*
X03065Y06052D02*
Y06083D01*
Y06052D02*
X03077Y0604D01*
X02848Y06281D02*
X0295D01*
X03035Y06196*
X03109Y06301D02*
X03158Y06252D01*
Y06248D02*
Y06252D01*
X04067Y06456D02*
Y06497D01*
X0484Y06626D02*
X04895D01*
X04981Y06621D02*
X05053D01*
X03935Y05199D02*
X04008Y05126D01*
X03935Y05199D02*
Y05313D01*
X04003Y05381*
Y05385D02*
X04099D01*
X03467Y05758D02*
Y05762D01*
X03426Y05716D02*
X03467Y05758D01*
X03019Y04687D02*
Y04722D01*
X03044Y04746*
X05523Y04D02*
X0557Y04047D01*
X05484Y04D02*
X05523D01*
X0557Y04047D02*
X05633Y03985D01*
Y03935D02*
Y03985D01*
X05836Y04015D02*
X05911D01*
X05649Y03828D02*
X05836Y04015D01*
X057Y0638D02*
X05701Y06379D01*
X06153Y06301D02*
X06191Y06262D01*
X05701Y06362D02*
Y06379D01*
Y06362D02*
X05761Y06301D01*
X06153*
X03109Y06301D02*
X03135D01*
X03165Y06331*
X03801Y05939D02*
X03836D01*
X04003Y05465D02*
X04053D01*
X03711Y04381D02*
Y05717D01*
X03331Y05407D02*
X03356D01*
X03302Y05435D02*
X03331Y05407D01*
X03009Y05472D02*
Y05492D01*
X02975Y05526D02*
X03009Y05492D01*
X02882Y04864D02*
Y05054D01*
X03296Y05545D02*
X03302D01*
X03339Y05038D02*
X03354D01*
X03272Y05105D02*
X03339Y05038D01*
X03272Y05105D02*
Y05168D01*
X03265Y05174D02*
X03272Y05168D01*
X03354Y05038D02*
X03449D01*
X03466Y05055*
X03356Y05407D02*
X03458D01*
X03466Y05415*
X03443Y04675D02*
X03467Y04699D01*
X03292Y05201D02*
X03325D01*
X03265Y05174D02*
X03292Y05201D01*
X03296Y05545D02*
X03327Y05576D01*
X03302Y05435D02*
Y05545D01*
X03455Y05357D02*
X03466Y05346D01*
X03356Y05357D02*
X03455D01*
X03276Y04742D02*
Y04806D01*
X03274Y04808D02*
X03276Y04806D01*
X03274Y04808D02*
X03307Y04842D01*
X03314*
X03356Y04675D02*
X03443D01*
X0335Y05576D02*
X03352Y05574D01*
X03327Y05576D02*
X0335D01*
X02977Y05568D02*
X03033D01*
X02975Y0557D02*
X02977Y05568D01*
X02975Y05526D02*
Y0557D01*
X02918Y05382D02*
X03019Y05483D01*
X02919Y0509D02*
Y052D01*
X02918Y05382D02*
X02919Y05381D01*
Y052D02*
Y05381D01*
X02882Y05054D02*
X02919Y0509D01*
X03042Y05106D02*
Y0518D01*
X0302Y05202D02*
X03042Y0518D01*
X02834Y0449D02*
Y04815D01*
X02882Y04864*
X03276Y04733D02*
Y04742D01*
Y04733D02*
X03333Y04675D01*
X03356*
X0308Y04525D02*
X03173D01*
X032Y04553*
Y04808*
X03192Y05174D02*
X03199Y05167D01*
X0311Y04888D02*
X03164D01*
X03199Y04924*
Y05167*
X03111Y05257D02*
X03167D01*
X03223Y05312*
Y05545*
X04245Y05775D02*
X04246Y05775D01*
X042Y05775D02*
X04245D01*
X0406Y05472D02*
X04186Y05598D01*
Y05693*
X041Y06252D02*
Y06285D01*
X04101Y06422D02*
X04129D01*
X04098Y06287D02*
X04109D01*
X04067Y06456D02*
X04101Y06422D01*
X03165Y06487D02*
X03175Y06497D01*
X03165Y06331D02*
Y06487D01*
X04783Y05611D02*
X04853D01*
X03618Y06297D02*
Y06497D01*
X03667Y06328D02*
Y06497D01*
X03874Y05651D02*
X03951Y05729D01*
X03874Y05608D02*
X03978Y05713D01*
X03922Y06322D02*
Y06325D01*
Y06322D02*
X03978Y06265D01*
Y05713D02*
Y06265D01*
X03905Y06292D02*
X03951Y06246D01*
Y05729D02*
Y06246D01*
X03911Y05781D02*
Y05946D01*
X03801Y05939D02*
X03808Y05946D01*
X03911*
X03567Y05822D02*
X03603Y05786D01*
X03567Y05822D02*
Y05947D01*
X03545Y05939D02*
X03552Y05947D01*
X03457Y05939D02*
X03495D01*
X03545*
X03475Y06D02*
X03533D01*
X03457Y06018D02*
X03475Y06D01*
X03457Y06018D02*
Y06049D01*
X03801Y0602D02*
Y06049D01*
Y0602D02*
X0382Y06001D01*
X03881*
X04341Y0602D02*
Y0605D01*
Y0602D02*
X04365Y05996D01*
X04442*
X04341Y05933D02*
X04341Y05934D01*
X04459*
X04468Y0594D02*
X04492Y05915D01*
Y05785D02*
Y05915D01*
X02943Y06231D02*
X03015Y06159D01*
X02943Y06231D02*
Y06232D01*
X02848D02*
X02943D01*
X04109Y06287D02*
X0415Y06328D01*
Y06402*
X04129Y06422D02*
X0415Y06402D01*
X03617Y06296D02*
X03618Y06297D01*
X04264Y05038D02*
X04288Y05014D01*
X04745Y04943D02*
Y04946D01*
X04696Y04894D02*
X04745Y04943D01*
G54D11*
X02786Y04291D02*
D01*
D01*
G75*
G03X02785Y04289I00001J-00001D01*
G74*G01*
X0297Y04276D02*
D01*
D01*
G75*
G03X02961Y04272I0J-00012D01*
G74*G01*
X05005Y035D02*
X0505D01*
X05094Y03456*
X04891Y03294D02*
X04921D01*
X04802D02*
X04891D01*
X04798D02*
X04802D01*
X04926Y03351D02*
Y03438D01*
Y03288D02*
Y03351D01*
Y03272D02*
Y03288D01*
X04929Y03285*
X04921Y03294D02*
X04926Y03288D01*
X04705Y03374D02*
Y03442D01*
X04688Y03459D02*
X04705Y03442D01*
X04687Y03458D02*
X04688Y03459D01*
X04621Y03458D02*
X04687D01*
X0458Y03425D02*
Y03686D01*
X04515Y03751D02*
X0458Y03686D01*
X0455Y03777D02*
Y03812D01*
X04492Y03871D02*
X0455Y03812D01*
X04515Y03751D02*
Y0382D01*
X04478Y03857D02*
X04515Y0382D01*
X0458Y03425D02*
X04612Y03394D01*
X04622D02*
X0463Y03385D01*
X04612Y03394D02*
X04622D01*
X0463Y03374D02*
Y03385D01*
Y03264D02*
Y03374D01*
X04976Y03471D02*
X05005Y035D01*
X04976Y03438D02*
Y03471D01*
X04165Y06032D02*
X04187Y06053D01*
X04215Y06444D02*
Y06497D01*
X04258Y06371D02*
X04264Y06377D01*
Y06497*
X03311D02*
X03323D01*
X03311Y06441D02*
Y06497D01*
X03276Y06405D02*
X03311Y06441D01*
X03276Y06033D02*
X03292Y06049D01*
X03274Y06031D02*
X03276Y06033D01*
Y06405*
X0336Y06376D02*
X03372Y06388D01*
Y06497*
X02848Y05937D02*
X02851Y05935D01*
X0293*
X02933Y05982D02*
X02997Y05919D01*
X02848Y05982D02*
X02933D01*
X03589Y03324D02*
Y04276D01*
Y03324D02*
X03614Y03299D01*
X03331Y0347D02*
X03335D01*
X03377Y03358D02*
Y03436D01*
X03335Y0347D02*
X03342D01*
X03377Y03436*
Y03358D02*
X03414Y0332D01*
Y03299D02*
Y0332D01*
X03572Y03356D02*
Y04283D01*
X03514Y03299D02*
X03572Y03356D01*
X02863Y03392D02*
X03122Y03651D01*
X02863Y03323D02*
Y03392D01*
X05171Y03501D02*
Y03781D01*
X05149Y0348D02*
X05171Y03501D01*
X05148Y0348D02*
X05149D01*
X03987Y05259D02*
X0403Y05216D01*
X04209*
X04225Y052*
X04095Y05252D02*
X04258D01*
X04087Y05259D02*
X04095Y05252D01*
X04258D02*
X04295Y05215D01*
X04355Y05208D02*
X04431Y05133D01*
X04295Y05215D02*
X04302Y05208D01*
X04355*
X04351Y05171D02*
X04368D01*
X04412Y05128*
X04587Y04757D02*
X046Y04744D01*
X04587Y04757D02*
Y04814D01*
X04412Y04952D02*
X04566Y04798D01*
Y04714D02*
Y04798D01*
X04573Y04814D02*
X04587D01*
X04431Y04957D02*
X04573Y04814D01*
X03274Y06497D02*
X03276Y06495D01*
Y06447D02*
Y06495D01*
X0495Y03715D02*
X04976Y03689D01*
Y03633D02*
Y03689D01*
X0497Y03627D02*
X04976Y03633D01*
X02961Y03929D02*
Y03969D01*
Y03929D02*
X02988Y03902D01*
X03045Y03938D02*
Y03974D01*
X03007Y04012D02*
X03045Y03974D01*
X02961Y04012D02*
X03007D01*
X02746Y0391D02*
Y04275D01*
X02961Y04142D02*
X03028D01*
X0303Y04144*
X02694Y0389D02*
Y04295D01*
X02712Y03896D02*
Y04289D01*
X02729Y03903D02*
Y04282D01*
X02961Y04229D02*
X02961Y04228D01*
X03038*
X02785Y04262D02*
Y04289D01*
X02786Y04291D02*
X02961Y04466D01*
X0297Y04276D02*
X03039D01*
X04296Y0402D02*
X04312Y04037D01*
Y04044*
X02859Y04575D02*
X02866Y04568D01*
Y04491D02*
Y04568D01*
X02675Y043D02*
X02866Y04491D01*
X0291Y04756D02*
X02949Y04795D01*
X0291Y04487D02*
Y04756D01*
X02927Y04749D02*
X02966Y04788D01*
X02927Y0448D02*
Y04749D01*
X02944Y04473D02*
Y04717D01*
X02961Y04699D02*
X02983Y04721D01*
X02961Y04466D02*
Y04699D01*
X02746Y04275D02*
X02944Y04473D01*
X02729Y04282D02*
X02927Y0448D01*
X02712Y04289D02*
X0291Y04487D01*
X02986Y03671D02*
X02987D01*
X02746Y0391D02*
X02986Y03671D01*
X02963Y04499D02*
X0301D01*
X02729Y03903D02*
X02876Y03756D01*
X02712Y03896D02*
X02859Y03749D01*
X02694Y0389D02*
X02842Y03742D01*
X02876Y03677D02*
Y03756D01*
X02859Y0363D02*
Y03749D01*
X02842Y03587D02*
Y03742D01*
X02675Y03832D02*
X02789Y03718D01*
X02876Y03677D02*
X02961Y03592D01*
X02986*
X02889Y036D02*
X02897Y03607D01*
X02899Y0359D02*
X02914D01*
X02897Y03607D02*
X02914Y0359D01*
X02859Y0363D02*
X02889Y036D01*
X02789Y03709D02*
Y03718D01*
X04587Y04814D02*
Y04958D01*
X04492Y04599D02*
X04806Y04913D01*
Y04972*
X04505Y04585D02*
X04823Y04902D01*
Y04965*
X04355Y04675D02*
X04368D01*
X04269Y04762D02*
X04355Y04675D01*
X04193Y04762D02*
X04269D01*
X04478Y04613D02*
X04534Y04669D01*
X04258Y04745D02*
X0439Y04613D01*
X04247Y04728D02*
X04376Y04599D01*
X0424Y04711D02*
X04338Y04613D01*
X04519Y04571D02*
X0484Y04892D01*
X04533Y04557D02*
X04857Y04881D01*
Y04951*
X0484Y04892D02*
Y04958D01*
X04547Y04543D02*
X04874Y0487D01*
X04561Y04529D02*
X04891Y04859D01*
X04575Y04515D02*
X04908Y04848D01*
X04589Y04501D02*
X04925Y04837D01*
Y04915*
X04908Y04848D02*
Y04928D01*
X04891Y04859D02*
Y04937D01*
X04874Y0487D02*
Y04944D01*
X05862Y04266D02*
X05911Y04315D01*
X05758Y04266D02*
X05862D01*
X05659Y04366D02*
X05758Y04266D01*
X05514Y04366D02*
X05659D01*
X05507Y04383D02*
X05744D01*
X05811Y04315*
X05499Y044D02*
X05796D01*
X05811Y04415*
X0573Y04515D02*
X05811D01*
X05631Y04417D02*
X0573Y04515D01*
X05492Y04417D02*
X05631D01*
X03309Y03448D02*
X03331Y0347D01*
X04153Y04094D02*
X04189Y0413D01*
X05001Y04199D02*
X05029Y04227D01*
X03819Y04234D02*
X0385Y04203D01*
X03882*
X03841Y04064D02*
X04095D01*
X03754Y04143D02*
X03762D01*
X03841Y04064*
X0389Y04142D02*
X03931Y04102D01*
X03903Y04235D02*
X0394Y04197D01*
X03883Y04235D02*
X03903D01*
X04045Y04153D02*
X04067Y04175D01*
X04024Y04153D02*
X04045D01*
X03979Y04197D02*
X04024Y04153D01*
X0394Y04197D02*
X03979D01*
X03947Y04237D02*
X0401D01*
X04056Y04191*
X0525Y04174D02*
X05492Y04417D01*
X05174Y04074D02*
X05499Y044D01*
X05181Y04057D02*
X05507Y04383D01*
X05188Y0404D02*
X05514Y04366D01*
X05221Y04174D02*
X0525D01*
X04835Y04057D02*
X05181D01*
X04824Y0404D02*
X05188D01*
X03812Y04299D02*
X03822D01*
X0423Y04381D02*
X04348D01*
X04196Y04414D02*
X0423Y04381D01*
X04237Y04012D02*
X0428Y04055D01*
X04272Y0402D02*
X04296D01*
X04253Y04001D02*
X04272Y0402D01*
X04182Y04487D02*
X04223Y04446D01*
X04159Y04457D02*
X04183D01*
X04209Y04432*
X04235Y04351D02*
X04319D01*
X04182Y04404D02*
X04235Y04351D01*
X04181Y04404D02*
X04182D01*
X0465Y04234D02*
X04673Y04257D01*
X0495Y04199D02*
X05001D01*
X0495Y04195D02*
Y04199D01*
X05644Y03724D02*
X05651Y03718D01*
X05026Y03627D02*
Y03704D01*
X05015Y03715D02*
X05026Y03704D01*
X04633Y03888D02*
X04794Y03728D01*
X04937D02*
X0495Y03715D01*
X04794Y03728D02*
X04937D01*
X04779Y05722D02*
Y05764D01*
Y05722D02*
X04786Y05715D01*
X04827*
X04753Y06192D02*
X04775Y0617D01*
X0483*
X05112Y0547D02*
Y05534D01*
X05084Y05562D02*
X05112Y05534D01*
X05048Y05562D02*
X05084D01*
X05048Y05536D02*
X05055Y05528D01*
Y05474D02*
Y05528D01*
X05048Y05536D02*
X05069D01*
X05428Y05546D02*
Y05581D01*
X05101Y06042D02*
X05151Y05992D01*
X05051Y06042D02*
X05101D01*
X05121Y06119D02*
X05145Y06142D01*
X05051Y06119D02*
X05121D01*
X05051Y06224D02*
X05066Y06239D01*
X05051Y0617D02*
Y06224D01*
X05105Y06201D02*
X0514Y06237D01*
X05105Y06157D02*
Y06201D01*
X05092Y06144D02*
X05105Y06157D01*
X05051Y06144D02*
X05092D01*
X05412Y0619D02*
Y06213D01*
X05386Y06165D02*
X05412Y0619D01*
X05386Y05528D02*
Y06165D01*
X05363Y05529D02*
Y06189D01*
X04823Y04965D02*
X05386Y05528D01*
X05508Y05759D02*
X05522Y05745D01*
X04778Y05978D02*
X04791Y05991D01*
X0483*
X04827Y05536D02*
X04863D01*
X04892Y05507*
Y05283D02*
Y05507D01*
X048Y05231D02*
Y05269D01*
X04753Y06116D02*
X0483D01*
X04726Y06089D02*
X04753Y06116D01*
X04726Y06022D02*
Y06089D01*
X04746Y06042D02*
X0483D01*
X04605Y0568D02*
Y05685D01*
Y0568D02*
X04715Y0557D01*
X0483Y06116D02*
Y06119D01*
X03793Y04774D02*
Y05492D01*
X03827Y04788D02*
Y05477D01*
X0381Y04781D02*
Y05484D01*
X03878Y04818D02*
Y05454D01*
X03861Y04805D02*
Y05461D01*
X03844Y04798D02*
Y05468D01*
X04731Y05681D02*
X04748Y05664D01*
X04827*
X05048Y05587D02*
X05048Y05587D01*
X05101*
X05148Y05541*
X03163Y05833D02*
Y05865D01*
X03163Y05651D02*
Y05833D01*
X03163Y05833*
X0314Y05628D02*
X03163Y05651D01*
X03416Y06492D02*
X03421Y06497D01*
X03188Y05661D02*
X03188Y05661D01*
X03441Y04988D02*
X03454Y04976D01*
Y04968D02*
Y04976D01*
X03111Y05407D02*
Y0545D01*
X03089Y05472D02*
X03111Y0545D01*
X03041Y0531D02*
X03044Y05307D01*
X03111*
X03043Y04575D02*
X03111D01*
Y04675D02*
Y04734D01*
X03434Y04625D02*
X03454Y04605D01*
X03322Y03651D02*
X03403Y0357D01*
Y03425D02*
Y0357D01*
Y03425D02*
X03433Y03396D01*
X03443*
X03506Y0349D02*
X03538Y03522D01*
X03218Y03546D02*
X03222Y0355D01*
X03215Y03543D02*
X03218Y03546D01*
X03222Y0355D02*
Y03651D01*
X03148Y03543D02*
X03215D01*
X03138Y05357D02*
X0317Y05389D01*
X03111Y05357D02*
X03138D01*
X02963Y04625D02*
X03111D01*
X04362Y06378D02*
Y06497D01*
Y06378D02*
X04363Y06378D01*
X03122Y06432D02*
Y06493D01*
Y0638D02*
Y06432D01*
Y06493D02*
X03126Y06497D01*
X0347Y06397D02*
Y06497D01*
Y06397D02*
X03481Y06387D01*
X0576Y0409D02*
X05783Y04066D01*
X05831*
X05803Y04107D02*
X05811Y04115D01*
X0559Y04107D02*
X05803D01*
X0557Y04127D02*
X0559Y04107D01*
X05476Y0409D02*
X0576D01*
X05831Y04066D02*
X05863Y04098D01*
Y04164*
X05811Y04215D02*
X05863Y04164D01*
X05473Y04093D02*
X05476Y0409D01*
X05456Y04093D02*
X05473D01*
X05456Y0409D02*
Y04093D01*
X0542Y0409D02*
X05456D01*
X05336Y04006D02*
X0542Y0409D01*
X04802Y04006D02*
X05336D01*
X05434Y04127D02*
X0557D01*
X05329Y04023D02*
X05434Y04127D01*
X03606Y04269D02*
X03655Y04318D01*
X03625Y05828D02*
X03655Y05799D01*
X03644Y05873D02*
X03672Y05845D01*
X041Y04457D02*
X04167Y0439D01*
X03777Y04474D02*
X03779Y04476D01*
X03867Y04419D02*
Y04455D01*
Y04419D02*
X0387Y04417D01*
X03795Y04557D02*
X03829Y0459D01*
X04032*
X04025Y04542D02*
X04056D01*
X04086Y04512*
X04184*
X03868Y04624D02*
X04046D01*
X03802Y04653D02*
X0384D01*
X03868Y04624*
X03877Y04641D02*
X04194D01*
X03882Y0466D02*
X04204D01*
X03796Y04732D02*
X0381D01*
X03882Y0466*
X03623Y04262D02*
X03672Y04311D01*
X03623Y04033D02*
Y04262D01*
Y04033D02*
X03647Y04009D01*
Y03961D02*
Y04009D01*
X03645Y03959D02*
X03647Y03961D01*
X03606Y0402D02*
Y04269D01*
Y0402D02*
X03622Y04004D01*
Y03995D02*
Y04004D01*
X03589Y04276D02*
X03613Y043D01*
X03572Y04283D02*
X03596Y04307D01*
Y04359*
X03613Y04345D02*
X03626Y04357D01*
X03613Y043D02*
Y04345D01*
X03623Y04357D02*
X03626D01*
X03581Y04375D02*
X03596Y04359D01*
X04348Y03899D02*
X04372Y03923D01*
X04372Y03986D02*
X04372Y03986D01*
X04372Y03956D02*
Y03986D01*
Y03956D02*
X04372Y03955D01*
X04348Y03901D02*
X04372Y03925D01*
X04348Y03899D02*
Y03901D01*
X0441Y03908D02*
Y03936D01*
X04376Y03873D02*
X0441Y03908D01*
X04376Y03871D02*
Y03873D01*
X04645Y04446D02*
Y04448D01*
X05791Y05971D02*
X05877D01*
X05911Y06005*
Y06015*
X04784Y04307D02*
Y04309D01*
X04808Y04333*
Y04335*
X05864Y05268D02*
X05911Y05315D01*
X04798Y04293D02*
X04855Y0435D01*
X0495*
X04952Y04348*
X04812Y04279D02*
X04939D01*
X0495Y04268*
X04812Y04191D02*
X04946D01*
X0495Y04195*
X04798Y04177D02*
X04853Y04122D01*
X04756Y04135D02*
X04835Y04057D01*
X04742Y04121D02*
X04824Y0404D01*
X04728Y04108D02*
X04813Y04023D01*
X04714Y04094D02*
X04802Y04006D01*
X04668Y04112D02*
X047Y0408D01*
X04668Y04112D02*
Y04146D01*
X04694Y04171*
X0465Y04103D02*
X04686Y04066D01*
X0465Y04103D02*
Y04234D01*
X04813Y04023D02*
X05329D01*
X05794Y05357D02*
X05853D01*
X05911Y05415*
X047Y0439D02*
X05061Y04751D01*
X04686Y04404D02*
X05044Y04761D01*
X04672Y04418D02*
X05027Y04772D01*
X04659Y04432D02*
X0501Y04783D01*
X04645Y04448D02*
X04993Y04797D01*
X04733Y04562D02*
X04733D01*
X04976Y04805*
X04631Y0446D02*
X04733Y04562D01*
X04617Y04474D02*
X04959Y04816D01*
X04603Y04488D02*
X04942Y04827D01*
X05048Y05715D02*
Y05762D01*
X05062Y05777*
X05048Y05689D02*
X05095D01*
X05103Y05697*
X05131Y05664D02*
X05154Y05687D01*
X05048Y05664D02*
X05131D01*
X05137Y05731D02*
Y05777D01*
X05103Y05697D02*
X05137Y05731D01*
X05103Y05697D02*
Y05697D01*
X0578Y05664D02*
X0586D01*
X05911Y05715*
X05807D02*
X05811D01*
X0572Y05604D02*
X0578Y05664D01*
X05703Y05611D02*
X05807Y05715D01*
X05863Y05867D02*
X05911Y05915D01*
X05793Y05867D02*
X05863D01*
X05685Y05689D02*
X05811Y05815D01*
X05668Y05742D02*
X05793Y05867D01*
X05649Y05753D02*
X05811Y05915D01*
X05632Y05812D02*
X05791Y05971D01*
X05614Y05818D02*
X05811Y06015D01*
X04959Y04816D02*
Y049D01*
X04942Y04827D02*
Y04908D01*
X05566Y05724D02*
X05576Y05714D01*
X05541Y06168D02*
X05545Y06172D01*
X05541Y05561D02*
Y06168D01*
X05522Y05568D02*
Y05745D01*
X05495Y05691D02*
X05505Y05681D01*
Y05575D02*
Y05681D01*
X05461Y05555D02*
Y05581D01*
X05463Y05583*
X04387Y04613D02*
X0439D01*
X0436Y04585D02*
X04362D01*
X04338Y04612D02*
X0436Y0459D01*
X04338Y04612D02*
Y04613D01*
X0436Y04585D02*
Y0459D01*
X04017Y04711D02*
X0424D01*
X04017Y04711D02*
X04017Y04711D01*
X03946Y04677D02*
X04214D01*
X03945Y04677D02*
X03946Y04677D01*
X04214D02*
X04334Y04557D01*
X04225Y04694D02*
X04348Y04571D01*
X03952Y04694D02*
X03953Y04694D01*
X04225*
X04024Y04728D02*
X04024Y04728D01*
X04247*
X04155Y04745D02*
X04155Y04745D01*
X04258*
X04192Y04762D02*
X04193Y04762D01*
X03933Y04762D02*
X04192D01*
X03878Y04818D02*
X03933Y04762D01*
X03861Y04805D02*
X03921Y04745D01*
X04155*
X03911Y04728D02*
Y04731D01*
X03844Y04798D02*
X03911Y04731D01*
Y04728D02*
X04024D01*
X03903Y04711D02*
Y04712D01*
X03827Y04788D02*
X03903Y04712D01*
Y04711D02*
X04017D01*
X0381Y04781D02*
X03896Y04694D01*
X03952*
X03793Y04774D02*
X03889Y04677D01*
X03945*
X04204Y0466D02*
X0432Y04543D01*
X04194Y04641D02*
X04306Y04529D01*
X042Y04608D02*
X04292Y04515D01*
X04159Y04608D02*
X042D01*
X04194Y04531D02*
X04251Y04474D01*
X04095Y04552D02*
X042D01*
X04265Y04488*
X04209Y04571D02*
X04279Y04501D01*
X04092Y04531D02*
X04194D01*
X04184Y04512D02*
X04237Y0446D01*
X04039Y04607D02*
X04095Y04552D01*
X04046Y04624D02*
X041Y04571D01*
X04209*
X04032Y0459D02*
X04092Y04531D01*
X04153Y04376D02*
X04212Y04318D01*
X04298*
X04139Y04362D02*
X04203Y04299D01*
X0424*
X05811Y05607D02*
Y05615D01*
X0572Y05541D02*
Y05604D01*
X05703Y05548D02*
Y05611D01*
X05685Y05554D02*
Y05689D01*
X05632Y05574D02*
Y05812D01*
X05614Y0558D02*
Y05818D01*
X05576Y05566D02*
Y05714D01*
X04908Y04928D02*
X05541Y05561D01*
X04959Y049D02*
X05632Y05574D01*
X04942Y04908D02*
X05614Y0558D01*
X04925Y04915D02*
X05576Y05566D01*
X04891Y04937D02*
X05522Y05568D01*
X04874Y04944D02*
X05505Y05575D01*
X04857Y04951D02*
X05461Y05555D01*
X0484Y04958D02*
X05428Y05546D01*
X04806Y04972D02*
X05363Y05529D01*
X03974Y04417D02*
X04084Y04307D01*
X0387Y04417D02*
X03974D01*
X03986Y04376D02*
X0407Y04293D01*
X03788Y04414D02*
X03825Y04376D01*
X03777Y04414D02*
X03788D01*
X03825Y04376D02*
X03986D01*
X04008Y04327D02*
X04056Y04279D01*
X0399Y04327D02*
X04008D01*
X04018Y044D02*
Y04414D01*
Y044D02*
X04098Y04321D01*
X04057Y04389D02*
X04112Y04334D01*
X04125Y04348D02*
Y04351D01*
X04101Y04375D02*
X04125Y04351D01*
X04057Y04389D02*
Y04414D01*
X04099Y04411D02*
X04101Y04409D01*
Y04375D02*
Y04409D01*
X04034Y0417D02*
X04056Y04191D01*
X03982Y04147D02*
X0401Y04119D01*
X03956Y04147D02*
X03982D01*
X0401Y04119D02*
X04067D01*
X04098Y04149*
X04078Y04102D02*
X04112Y04135D01*
X03931Y04102D02*
X04078D01*
X04085Y04081D02*
X04125Y04121D01*
X03876Y04081D02*
X04085D01*
X03816Y0414D02*
X03876Y04081D01*
X04095Y04064D02*
X04139Y04108D01*
X04128Y0404D02*
X04167Y0408D01*
X0414Y04025D02*
X04181Y04066D01*
X0414Y03964D02*
Y04025D01*
X04089Y03913D02*
X0414Y03964D01*
X0402Y03992D02*
X04069Y0404D01*
X04128*
X04238Y04067D02*
Y04212D01*
X04234Y04216D02*
X04238Y04212D01*
X04209Y04038D02*
X04238Y04067D01*
X04223Y04024D02*
X04255Y04056D01*
Y04187*
X04195Y04052D02*
Y04054D01*
X04219Y04079*
Y04164*
X0422Y04165*
X04729Y03968D02*
X04771D01*
X04659Y04038D02*
X04729Y03968D01*
X04715Y03912D02*
Y03953D01*
X04645Y04024D02*
X04715Y03953D01*
X0482Y03914D02*
Y03918D01*
X04771Y03963D02*
Y03968D01*
Y03963D02*
X0482Y03914D01*
X04766Y03861D02*
X04774D01*
X04715Y03912D02*
X04766Y03861D01*
X04362Y03885D02*
X04393Y03916D01*
Y03956*
X03805Y03315D02*
X03856Y03366D01*
X03905Y03315D02*
X03957Y03367D01*
X04005Y03315D02*
X04057Y03366D01*
X03957Y03367D02*
Y03458D01*
X03915Y03507D02*
X03982D01*
X03856Y03448D02*
X03915Y03507D01*
X03856Y03366D02*
Y03448D01*
X04162Y0388D02*
X04265Y03982D01*
X04279Y03885D02*
X0432Y03927D01*
X04297Y03876D02*
X04334Y03913D01*
X04575Y03952D02*
Y03954D01*
X04589Y03966D02*
Y03968D01*
X04599Y03874D02*
Y03903D01*
X04561Y03941D02*
X04599Y03903D01*
X04633Y03888D02*
Y03922D01*
X04616Y03881D02*
Y03911D01*
X04575Y03952D02*
X04616Y03911D01*
X04589Y03966D02*
X04633Y03922D01*
X04547Y03927D02*
X04582Y03892D01*
Y03867D02*
Y03892D01*
Y03867D02*
X04682Y03768D01*
X04519Y03899D02*
Y03901D01*
X04495Y03925D02*
X04519Y03901D01*
X04533Y03913D02*
X04565Y03881D01*
Y0386D02*
Y03881D01*
X04495Y03962D02*
X0452Y03987D01*
X04495Y03925D02*
Y03962D01*
X04478Y03912D02*
Y03983D01*
X04481Y03986*
X04478Y03912D02*
X04505Y03885D01*
X04359Y03826D02*
X0439Y03857D01*
X04359Y03807D02*
Y03826D01*
X05157Y03783D02*
X0516Y03786D01*
X04616Y03881D02*
X04716Y03782D01*
Y03544D02*
Y03782D01*
X04599Y03874D02*
X04699Y03775D01*
Y03584D02*
Y03775D01*
X04565Y0386D02*
X04661Y03764D01*
Y03655D02*
Y03764D01*
X04642Y0359D02*
X04682Y03629D01*
Y03768*
X04664Y0355D02*
X04699Y03584D01*
X04682Y03511D02*
X04716Y03544D01*
X04616Y03609D02*
X04661Y03655D01*
X02774Y03587D02*
Y03709D01*
X02986Y03592D02*
Y03604D01*
X03025Y05357D02*
X03111D01*
X02983Y04988D02*
X0311D01*
X03037Y05407D02*
X03111D01*
X02916Y04939D02*
X02917Y04938D01*
X03777Y04414D02*
Y04474D01*
X02812Y05327D02*
X02843D01*
X0264Y04822D02*
X02688Y04775D01*
X0264Y04822D02*
Y05156D01*
X02812Y05327*
X02688Y04675D02*
X02741Y04728D01*
X02801Y05018D02*
Y05118D01*
X02818Y05011D02*
Y05127D01*
X02848Y05888D02*
X02902D01*
X02974Y0574D02*
X02991Y05757D01*
X02848Y0574D02*
X02974D01*
X03495Y06049D02*
Y06127D01*
X03501Y06133*
X03408Y05951D02*
X0342Y05939D01*
X03274Y05951D02*
X03408D01*
X03221Y06445D02*
Y06494D01*
X03224Y06497*
X03354Y06032D02*
X03359Y06037D01*
Y06049*
X03292D02*
X03359D01*
X0342*
Y05855D02*
Y05939D01*
X03838Y06032D02*
Y06129D01*
X03838Y0613D02*
X03838Y06129D01*
X03685Y0395D02*
Y03998D01*
X0364Y04043D02*
X03685Y03998D01*
X0364Y04043D02*
Y04255D01*
X03689Y04304*
Y05753D02*
X03768Y05833D01*
Y05917*
X03763Y05922D02*
X03768Y05917D01*
X04314Y06446D02*
Y06497D01*
X04302Y05815D02*
X04303Y05816D01*
X02952Y06085D02*
X02997Y0604D01*
X02848Y06085D02*
X02952D01*
X02924Y05772D02*
X02977D01*
X02991Y05757*
X02942Y06011D02*
X02967D01*
X02997Y0604*
X0311Y05038D02*
Y05094D01*
X03354Y05305D02*
X03356Y05307D01*
X033Y05305D02*
X03354D01*
X03826Y04692D02*
X03877Y04641D01*
X03776Y04692D02*
X03826D01*
X03772Y04688D02*
X03776Y04692D01*
X03547Y05669D02*
Y05762D01*
X03546Y05668D02*
X03547Y05669D01*
X03546Y05617D02*
Y05668D01*
X02848Y06035D02*
X02894D01*
X0291Y06051*
X0282Y05278D02*
X02843D01*
X04378Y06035D02*
Y06109D01*
X04377Y0611D02*
X04378Y06109D01*
X03977Y04175D02*
X04017Y04136D01*
X03882Y04203D02*
X0391Y04175D01*
X03977*
X04017Y04136D02*
X04056D01*
X04084Y04163*
X04477Y05035D02*
X0454D01*
X04477D02*
X04477Y05036D01*
X04519Y05055D02*
X0454D01*
X04472Y05102D02*
X04519Y05055D01*
X04188Y04899D02*
X0424Y04951D01*
X04249Y04897D02*
X04256Y04905D01*
X04104Y05141D02*
X04144D01*
X04088Y05126D02*
X04104Y05141D01*
X04635Y05094D02*
Y05142D01*
X04685Y05192*
X04587Y05112D02*
Y0516D01*
X0462Y05193*
X04085Y03842D02*
Y03909D01*
X03949Y03992D02*
X0402D01*
X0449Y04947D02*
X04497D01*
X04527Y04976*
X0454*
Y04996D02*
Y05016D01*
X04569*
X04609Y05055*
X03538Y03522D02*
Y04376D01*
X03548Y04387*
X04189Y0413D02*
X0419D01*
X04372Y03923D02*
Y03925D01*
Y03955*
X04544Y0402D02*
X04565D01*
X04603Y03982*
X04571Y04042D02*
Y04047D01*
Y04042D02*
X04617Y03996D01*
X04601Y0404D02*
X04631Y0401D01*
X04601Y0404D02*
Y04059D01*
X0458Y04079D02*
X04601Y04059D01*
X03187Y05823D02*
X03188Y05824D01*
X03191Y05827*
X03188Y05661D02*
Y05824D01*
X04297Y03719D02*
Y03876D01*
X04279Y03677D02*
Y03885D01*
X03957Y03458D02*
X042Y037D01*
X03982Y03507D02*
X04179Y03704D01*
X04217Y03693D02*
Y03851D01*
X04306Y03941*
X042Y037D02*
Y03862D01*
X04292Y03954*
X04179Y03704D02*
Y03869D01*
X04279Y03968*
X04057Y03533D02*
X04217Y03693D01*
X04057Y03366D02*
Y03533D01*
X04078Y03442D02*
X04105Y03415D01*
X04078Y03442D02*
Y03525D01*
X04235Y03682*
Y03826*
X04249Y0384*
X04105Y03315D02*
X04162Y03372D01*
Y0356*
X04279Y03677*
X03555Y03505D02*
Y04314D01*
X0357Y04329*
X04735Y05584D02*
X04827D01*
Y05587*
X04732Y05581D02*
X04735Y05584D01*
X03443Y03463D02*
Y0347D01*
Y03463D02*
X03512D01*
X03555Y03505*
X04548Y04894D02*
X04568Y04913D01*
Y04958*
X0458Y04079D02*
X04645D01*
X04672Y04052*
X02992Y06325D02*
Y06467D01*
Y06325D02*
X0316Y06157D01*
Y05868D02*
Y06157D01*
X04516Y05552D02*
X048Y05269D01*
X04165Y06032D02*
X04302D01*
X04303Y05833D02*
Y0594D01*
X04298Y05828D02*
X04303Y05833D01*
X04165Y05952D02*
X04305D01*
X03762Y06031D02*
X03763Y06032D01*
X03625Y05951D02*
X03762D01*
X04856Y04382D02*
X04882D01*
X04895Y04395*
X04808Y04335D02*
X04856Y04382D01*
X04714Y04376D02*
X05078Y0474D01*
X05095Y04729D02*
Y04839D01*
X04728Y04362D02*
X05095Y04729D01*
X05019Y04625D02*
X05188D01*
X0519Y04627*
X04742Y04348D02*
X05019Y04625D01*
X05399Y04648D02*
Y0501D01*
X05416Y04641D02*
Y05003D01*
X05433Y04634D02*
Y04996D01*
X05303Y04393D02*
Y0448D01*
X0545Y04627*
Y04989*
X0584Y05574D02*
X05862Y05596D01*
Y05636*
X059Y05674*
X04895Y04474D02*
X04952D01*
X04756Y04334D02*
X04895Y04474D01*
X04985Y04437D02*
X05018Y04471D01*
X04886Y04437D02*
X04985D01*
X0477Y04321D02*
X04886Y04437D01*
X05028Y04122D02*
X05096Y04189D01*
X04853Y04122D02*
X05028D01*
X05232Y04302D02*
Y04313D01*
X05276Y04357*
X05181Y04305D02*
X05258Y04382D01*
X05276Y04357D02*
Y04477D01*
X05433Y04634*
X05258Y04382D02*
Y04483D01*
X05416Y04641*
X05138Y04317D02*
X05153D01*
X05241Y04405*
Y0449*
X05399Y04648*
X0477Y04149D02*
X04845Y04074D01*
X05174*
X04842Y04105D02*
X05035D01*
X04784Y04163D02*
X04842Y04105D01*
X05113Y04182D02*
Y04333D01*
X05224Y04445*
Y04497*
X05382Y04655*
Y05017*
X05035Y04105D02*
X05113Y04182D01*
X05096Y0434D02*
X05207Y04452D01*
Y04504*
X05365Y04662*
X05096Y04189D02*
Y0434D01*
X05382Y05017D02*
X05607Y05242D01*
X05365Y05024D02*
X0559Y05249D01*
X05939Y05457D02*
X05963Y05481D01*
X05365Y04662D02*
Y05024D01*
X05963Y05481D02*
Y05567D01*
X04976Y04805D02*
Y04893D01*
X04993Y04797D02*
Y04886D01*
X0501Y04783D02*
Y04879D01*
X05027Y04772D02*
Y04872D01*
X05044Y04761D02*
Y04865D01*
X05061Y04751D02*
Y04856D01*
X04976Y04893D02*
X05649Y05566D01*
Y05753*
X04993Y04886D02*
X05668Y05561D01*
Y05742*
X0501Y04879D02*
X05685Y05554D01*
X05027Y04872D02*
X05703Y05548D01*
X05044Y04865D02*
X0572Y05541D01*
X05061Y04856D02*
X05811Y05607D01*
X05078Y04846D02*
X05805Y05574D01*
X05078Y0474D02*
Y04846D01*
X05805Y05574D02*
X0584D01*
X05735Y05478D02*
X05744D01*
X05095Y04839D02*
X05735Y05478D01*
X05729Y05268D02*
X05864D01*
X05688Y05275D02*
Y05287D01*
X0545Y04989D02*
X05729Y05268D01*
X05433Y04996D02*
X05794Y05357D01*
X05399Y0501D02*
X05638Y05249D01*
Y05261*
X05607Y05242D02*
Y05264D01*
X0559Y05249D02*
Y05271D01*
X05416Y05003D02*
X05688Y05275D01*
X05201Y04709D02*
Y04781D01*
X0597Y05674D02*
X06011Y05715D01*
X059Y05674D02*
X0597D01*
X05963Y05567D02*
X06011Y05615D01*
X0559Y05271D02*
X05775Y05457D01*
X05939*
X05607Y05264D02*
X05714Y05372D01*
X0574*
X02848Y05838D02*
X02857Y05829D01*
X02859Y05831*
X02908*
X04117Y06452D02*
Y06497D01*
X04164Y06442D02*
Y06496D01*
X04166Y06497*
X03292Y04938D02*
X03354D01*
X03288Y04943D02*
X03292Y04938D01*
X03042Y05038D02*
X0311D01*
X03039Y05036D02*
X03042Y05038D01*
Y04938D02*
X0311D01*
X03039Y04941D02*
X03042Y04938D01*
X03292Y04575D02*
X03356D01*
X03289Y04578D02*
X03292Y04575D01*
X03689Y04304D02*
Y05753D01*
X03672Y04311D02*
Y05845D01*
X03655Y04318D02*
Y05799D01*
X036Y05539D02*
X03603Y05542D01*
X03793Y04607D02*
X04039D01*
X03246Y04535D02*
X03289Y04578D01*
X03263Y045D02*
X03288Y04525D01*
X03356*
X02961Y04056D02*
X03006D01*
X03263Y04312*
Y045*
X03026Y04142D02*
X03068D01*
X03246Y04319*
Y04535*
X03354Y04888D02*
X03419D01*
X03431Y04901*
X03124Y04746D02*
X03143Y04766D01*
X03116Y04792D02*
Y04798D01*
X03124Y0479*
Y04746D02*
Y04785D01*
Y0479*
X03116Y04792D02*
X03124Y04785D01*
X03212Y05746D02*
X03312Y05646D01*
X0317Y05389D02*
Y05604D01*
X03188Y05625D02*
Y05661D01*
Y05625D02*
X0319Y05623D01*
X03122Y05628D02*
X0314D01*
X02866Y04803D02*
X02917Y04853D01*
Y04938*
X02916Y05044D02*
X02949Y05077D01*
X02916Y04939D02*
Y05044D01*
X0294Y05033D02*
X02949Y05025D01*
Y04795D02*
Y05025D01*
X02983Y04721D02*
Y04988D01*
X03359Y05253D02*
X03438D01*
X02793Y05153D02*
Y05214D01*
X02808Y05229*
X02793Y05153D02*
X02818Y05127D01*
X02808Y05229D02*
X02843D01*
X02776Y05143D02*
Y05234D01*
Y05143D02*
X02801Y05118D01*
X02776Y05234D02*
X0282Y05278D01*
X0317Y05604D02*
X0319Y05623D01*
X03212Y05646*
X036Y04588D02*
Y05539D01*
X03638Y04557D02*
Y05593D01*
X02944Y04717D02*
X02956Y0473D01*
Y04735*
X02866Y04575D02*
Y04803D01*
X02983Y05315D02*
X03025Y05357D01*
X02966Y05336D02*
X03037Y05407D01*
X02949Y05357D02*
X02982Y0539D01*
X02983Y04988D02*
Y05315D01*
X02966Y04788D02*
Y05336D01*
X02949Y05077D02*
Y05357D01*
X02688Y04575D02*
X02774Y0466D01*
Y04966*
X02818Y05011*
X02741Y04728D02*
X02754Y04741D01*
Y04971*
X02801Y05018*
X02694Y04295D02*
X02893Y04494D01*
Y04778D02*
X02918Y04803D01*
X02893Y04494D02*
Y04778D01*
X04516Y05552D02*
Y05967D01*
X04018Y06436D02*
Y06497D01*
X04185Y06414D02*
X04215Y06444D01*
X03952Y06409D02*
X03965D01*
X03416Y06492D02*
X03418Y0649D01*
Y06381D02*
Y0649D01*
X03191Y06415D02*
X03221Y06445D01*
X03191Y05827D02*
Y06415D01*
X04018Y06436D02*
X04061Y06393D01*
X03793Y05492D02*
X03928Y05627D01*
X04096Y06003D02*
X04101Y05998D01*
Y05677D02*
Y05998D01*
X03878Y05454D02*
X04101Y05677D01*
X04078Y05678D02*
Y05743D01*
X04077Y05744D02*
X04078Y05743D01*
X03861Y05461D02*
X04078Y05678D01*
X03928Y05627D02*
X04Y05699D01*
X0381Y05484D02*
X04017Y05692D01*
X03827Y05477D02*
X04034Y05685D01*
X03844Y05468D02*
X04051Y05676D01*
X03951Y06353D02*
X03997D01*
X0397Y06436D02*
X04051Y06355D01*
X03965Y06409D02*
X04034Y06339D01*
X03997Y06353D02*
X04017Y06332D01*
X03969Y06325D02*
X04Y06293D01*
X04051Y05676D02*
Y06355D01*
X04034Y05685D02*
Y06339D01*
X04017Y05692D02*
Y06332D01*
X04Y05699D02*
Y06293D01*
X03628Y05994D02*
Y06029D01*
X0363Y06031*
X03762*
X04185Y06052D02*
Y06414D01*
X03212Y05746D02*
Y06369D01*
X03222Y06379*
X04412Y04952D02*
Y05128D01*
X04431Y04957D02*
Y05133D01*
X04714Y04976D02*
X04745Y04946D01*
X04635Y04976D02*
X04714D01*
X04745Y04946D02*
X04748D01*
X04635Y05075D02*
X04659D01*
X04693Y05109*
X04702*
X04655Y05035D02*
X04674Y05016D01*
X04635Y05035D02*
X04655D01*
X04674Y05003D02*
Y05016D01*
X04667Y04996D02*
X04674Y05003D01*
X04635Y04996D02*
X04667D01*
X04609Y05055D02*
X04635D01*
X04674*
X0478Y05081D02*
X04783Y05085D01*
X0478Y0499D02*
Y05081D01*
X04748Y04946D02*
X04763Y04962D01*
Y04973*
X0478Y0499*
X02675Y03832D02*
Y04065D01*
X02676Y04065*
Y04086*
X02675Y04086D02*
X02676Y04086D01*
X02675Y04086D02*
Y043D01*
G54D12*
X05872Y06454D03*
X05883Y03454D03*
X04485Y05389D03*
G54D13*
X04541Y03458D03*
X04621D03*
X04688Y03459D03*
X04768D03*
X02709Y03709D03*
X02789D03*
X05574Y04778D03*
X05654D03*
X04715Y0557D03*
X04635D03*
X04726Y06022D03*
X04646D03*
X04008Y05034D03*
X04088D03*
X04297Y06134D03*
X04377D03*
X04008Y05126D03*
X04088D03*
X03758Y06133D03*
X03838D03*
X03413Y06132D03*
X03493D03*
X03077Y0604D03*
X02997D03*
Y05919D03*
X03077D03*
X03071Y05757D03*
X02991D03*
X02895Y05585D03*
X02975D03*
X049Y0662D03*
X0498D03*
X03467Y05762D03*
X03547D03*
X03044Y04746D03*
X03124D03*
X03042Y05106D03*
X03122D03*
X03009Y05472D03*
X03089D03*
G54D14*
X04798Y03367D03*
Y03294D03*
X05148Y05614D03*
Y05541D03*
X05151Y06065D03*
Y05992D03*
X04883Y04199D03*
Y04271D03*
X0495Y03715D03*
Y03788D03*
X04242Y0603D03*
Y05957D03*
X03218Y03546D03*
Y03473D03*
X04188Y04899D03*
Y04826D03*
X03701Y06032D03*
Y05959D03*
X03934Y03991D03*
Y03919D03*
X03354Y06032D03*
Y05959D03*
X0435Y04895D03*
Y04822D03*
X03207Y03365D03*
Y03292D03*
X04745Y04946D03*
Y05019D03*
X04459Y05934D03*
Y06007D03*
X03905Y05936D03*
Y06008D03*
X03552Y05936D03*
Y06009D03*
G54D15*
X04668Y03264D03*
X0463Y03374D03*
X04705D03*
X04668D03*
X04705Y03264D03*
X0463D03*
X0342Y05939D03*
X03495D03*
X03457Y06049D03*
X03495D03*
X0342D03*
X03457Y05939D03*
X03763D03*
X03838D03*
X03801Y06049D03*
X03838D03*
X03763D03*
X03801Y05939D03*
X04303Y0594D03*
X04378D03*
X04341Y0605D03*
X04378D03*
X04303D03*
X04341Y0594D03*
G54D16*
X05545Y06486D03*
X0541D03*
X05547Y0638D03*
X05412D03*
G54D17*
X02848Y05789D03*
Y0574D03*
Y06232D03*
Y06134D03*
Y06035D03*
Y05937D03*
Y05838D03*
Y06281D03*
Y06183D03*
Y06085D03*
Y05986D03*
Y05888D03*
X02846Y05229D03*
Y05327D03*
Y05426D03*
Y0518D03*
Y05278D03*
Y05377D03*
G54D18*
X02726Y05638D03*
Y06384D03*
X02724Y05528D03*
Y05077D03*
G54D19*
X03064Y04349D03*
X02961Y04142D03*
Y04186D03*
Y04229D03*
Y04272D03*
Y04099D03*
Y04056D03*
Y04012D03*
Y03969D03*
G54D20*
X03419Y04349D03*
G54D21*
X03432Y03802D03*
G54D22*
X03463Y04278D03*
Y03971D03*
G54D23*
X0298Y04364D03*
G54D24*
X02985Y03798D03*
G54D25*
X05573Y04866D03*
X05653D03*
X05133Y06621D03*
X05053D03*
G54D26*
X05588Y04631D03*
X05661D03*
X05145Y06142D03*
X05218D03*
X05025Y04348D03*
X04952D03*
X05015Y03715D03*
X05088D03*
X04926Y03351D03*
X04999D03*
X03276Y04742D03*
X03203D03*
X03304Y05477D03*
X03231D03*
X03272Y05105D03*
X03199D03*
X04087Y03827D03*
X04015D03*
X03546Y05668D03*
X03473D03*
X05154Y05687D03*
X05226D03*
G54D27*
X05658Y04551D03*
X05585D03*
X05002Y03285D03*
X04929D03*
X03192Y05174D03*
X03265D03*
X032Y04808D03*
X03274D03*
X03223Y05545D03*
X03296D03*
G54D28*
X05201Y04861D03*
Y04781D03*
G54D29*
X05201Y04709D03*
Y04629D03*
X0557Y04047D03*
Y04127D03*
X05484Y04D03*
Y0408D03*
X04811Y03641D03*
Y03721D03*
X05526Y03356D03*
Y03276D03*
X03148Y03463D03*
Y03543D03*
X03466Y05426D03*
Y05346D03*
Y04695D03*
Y04615D03*
Y05055D03*
Y04975D03*
X0336Y06376D03*
Y06296D03*
X04271Y04817D03*
Y04897D03*
X04258Y06371D03*
Y06291D03*
X04165Y06032D03*
Y05952D03*
X0363Y06031D03*
Y05951D03*
X03274Y06031D03*
Y05951D03*
X03109Y0629D03*
Y0637D03*
X03481Y0629D03*
Y0637D03*
X04098Y06287D03*
Y06367D03*
X04347Y0629D03*
Y0637D03*
X04186Y05693D03*
Y05773D03*
X04003Y05465D03*
Y05385D03*
X03777Y04334D03*
Y04414D03*
X0387Y04337D03*
Y04417D03*
X03042Y03292D03*
Y03372D03*
X04295Y05295D03*
Y05215D03*
X04209Y05296D03*
Y05216D03*
G54D30*
X05234Y05535D03*
Y05608D03*
X04959Y04277D03*
Y04204D03*
X05237Y05986D03*
Y06059D03*
X03135Y03293D03*
Y03366D03*
G54D31*
X04771Y03968D03*
X04715Y03912D03*
G54D32*
X04827Y0381D03*
X04774Y03861D03*
G54D33*
X04878Y03855D03*
X04827Y03907D03*
G54D34*
X04876Y03438D03*
X04926D03*
X04976D03*
X05026D03*
X04876Y03627D03*
X04926D03*
X04976D03*
X05026D03*
G54D35*
X0503Y03922D03*
Y03849D03*
G54D36*
X04635Y05016D03*
Y04996D03*
Y05075D03*
Y05055D03*
Y05035D03*
Y05094D03*
Y04976D03*
X0454D03*
Y05094D03*
Y05035D03*
Y05055D03*
Y05075D03*
Y04996D03*
Y05016D03*
G54D37*
X04587Y05112D03*
X04568D03*
X04607D03*
Y04958D03*
X04568D03*
X04587D03*
G54D38*
X04022Y03913D03*
X04089Y03992D03*
Y03913D03*
X0402Y03992D03*
G54D39*
X03175Y06497D03*
X03126D03*
X03618D03*
X0352D03*
X03421D03*
X03323D03*
X03224D03*
X03667D03*
X03569D03*
X0347D03*
X03372D03*
X03274D03*
X04067D03*
X04018D03*
X0451D03*
X04412D03*
X04313D03*
X04215D03*
X04116D03*
X04559D03*
X04461D03*
X04362D03*
X04264D03*
X04166D03*
G54D40*
X03024Y06619D03*
X0377D03*
X03916D03*
X04662D03*
G54D41*
X03354Y04888D03*
Y04938D03*
Y04988D03*
Y05038D03*
X0311Y04888D03*
Y04938D03*
Y04988D03*
Y05038D03*
X03356Y05257D03*
Y05307D03*
Y05357D03*
Y05407D03*
X03111Y05257D03*
Y05307D03*
Y05357D03*
Y05407D03*
X03356Y04525D03*
Y04575D03*
Y04625D03*
Y04675D03*
X03111Y04525D03*
Y04575D03*
Y04625D03*
Y04675D03*
G54D42*
X0494Y0608D03*
X04937Y05625D03*
G54D43*
X05051Y05991D03*
Y06016D03*
Y06042D03*
Y06067D03*
Y06093D03*
Y06119D03*
Y06144D03*
Y0617D03*
X0483Y05991D03*
Y06016D03*
Y06042D03*
Y06067D03*
Y06093D03*
Y06119D03*
Y06144D03*
X05048Y05536D03*
Y05562D03*
Y05587D03*
Y05613D03*
Y05638D03*
Y05664D03*
Y05689D03*
Y05715D03*
X04827Y05536D03*
Y05562D03*
Y05587D03*
Y05613D03*
Y05638D03*
Y05664D03*
Y05689D03*
G54D44*
X0483Y0617D03*
X04827Y05715D03*
G54D45*
X04478Y03857D03*
X04492Y03871D03*
X04505Y03885D03*
X04519Y03899D03*
X04533Y03913D03*
X04547Y03927D03*
X04561Y03941D03*
X04575Y03954D03*
X04589Y03968D03*
X04603Y03982D03*
X04617Y03996D03*
X04631Y0401D03*
X04645Y04024D03*
X04659Y04038D03*
X04672Y04052D03*
X04686Y04066D03*
X047Y0408D03*
X04714Y04094D03*
X04728Y04108D03*
X04742Y04121D03*
X04756Y04135D03*
X0477Y04149D03*
X04784Y04163D03*
X04798Y04177D03*
X04812Y04191D03*
X0439Y04613D03*
X04376Y04599D03*
X04362Y04585D03*
X04348Y04571D03*
X04334Y04557D03*
X0432Y04543D03*
X04306Y04529D03*
X04292Y04515D03*
X04279Y04501D03*
X04265Y04488D03*
X04251Y04474D03*
X04237Y0446D03*
X04223Y04446D03*
X04209Y04432D03*
X04195Y04418D03*
X04181Y04404D03*
X04167Y0439D03*
X04153Y04376D03*
X04139Y04362D03*
X04125Y04348D03*
X04112Y04334D03*
X04098Y04321D03*
X04084Y04307D03*
X0407Y04293D03*
X04056Y04279D03*
G54D46*
X04812Y04279D03*
X04798Y04293D03*
X04784Y04307D03*
X0477Y04321D03*
X04756Y04334D03*
X04742Y04348D03*
X04728Y04362D03*
X04714Y04376D03*
X047Y0439D03*
X04686Y04404D03*
X04672Y04418D03*
X04659Y04432D03*
X04645Y04446D03*
X04631Y0446D03*
X04617Y04474D03*
X04603Y04488D03*
X04589Y04501D03*
X04575Y04515D03*
X04561Y04529D03*
X04547Y04543D03*
X04533Y04557D03*
X04519Y04571D03*
X04505Y04585D03*
X04492Y04599D03*
X04478Y04613D03*
X04056Y04191D03*
X0407Y04177D03*
X04084Y04163D03*
X04098Y04149D03*
X04112Y04135D03*
X04125Y04121D03*
X04139Y04108D03*
X04153Y04094D03*
X04167Y0408D03*
X04181Y04066D03*
X04195Y04052D03*
X04209Y04038D03*
X04223Y04024D03*
X04237Y0401D03*
X04251Y03996D03*
X04265Y03982D03*
X04279Y03968D03*
X04292Y03954D03*
X04306Y03941D03*
X0432Y03927D03*
X04334Y03913D03*
X04348Y03899D03*
X04362Y03885D03*
X04376Y03871D03*
X0439Y03857D03*
G54D47*
X03443Y03396D03*
Y03433D03*
Y0347D03*
X03335D03*
Y03396D03*
G54D48*
X04264Y05038D03*
G54D49*
X04225Y05099D03*
X0424D03*
X04256D03*
X04272D03*
X04288D03*
X04303D03*
Y04977D03*
X04288D03*
X04272D03*
X04256D03*
X0424D03*
X04225D03*
G54D50*
X04325Y05077D03*
Y05062D03*
Y05046D03*
Y0503D03*
Y05014D03*
Y04999D03*
X04203D03*
Y05014D03*
Y0503D03*
Y05046D03*
Y05062D03*
Y05077D03*
G54D51*
X03011Y03493D02*
X03115Y03597D01*
X02954Y03436D02*
X03011Y03493D01*
X03041Y03463*
X03148*
X02954Y03364D02*
Y03436D01*
X03042Y03372D02*
X03215D01*
X03238Y03396*
X03207Y03365D02*
X03215Y03372D01*
X03238Y03396D02*
X03335D01*
X03115Y03597D02*
X03153D01*
X02954Y03364D02*
X03026Y03291D01*
G54D52*
X0424Y0516D02*
X04295Y05215D01*
X0424Y05099D02*
Y0516D01*
X04225Y05099D02*
Y052D01*
X04264Y05038D02*
X04267D01*
X04256Y04905D02*
Y04977D01*
X04132Y05077D02*
X04203D01*
X04088Y05034D02*
X04132Y05077D01*
X04256Y05099D02*
Y05125D01*
X04271Y0514*
X04272Y04947D02*
Y04977D01*
Y04947D02*
X04287Y04931D01*
X04306*
X04342Y04895D02*
X0435D01*
X04306Y04931D02*
X04342Y04895D01*
X04288Y05062D02*
Y05099D01*
X04325Y04999D02*
X04361D01*
X04288Y04977D02*
Y05014D01*
X04325Y05077D02*
X04362D01*
G54D53*
X0439Y04887D02*
Y04934D01*
Y04887D02*
X0442Y04857D01*
X0424Y04951D02*
Y04977D01*
X04303D02*
X04347D01*
X0439Y04934*
G54D54*
X0455Y03777D03*
X05094Y03456D03*
X05117Y0547D03*
X0505Y05464D03*
X04753Y06192D03*
X02774Y03587D03*
X02842Y03587D03*
X02986Y03592D03*
X04548Y04894D03*
X02914Y0359D03*
X02987Y03671D03*
X03883Y04235D03*
X04477Y05035D03*
X04472Y05102D03*
X0516Y03786D03*
X05146Y0578D03*
X04298Y05828D03*
X03763Y05861D03*
X0514Y06237D03*
X04779Y05764D03*
X05062Y05777D03*
X03422Y05866D03*
X05066Y06239D03*
X03677Y04143D03*
X03754D03*
X03677Y04237D03*
X03755D03*
X03819Y04143D03*
X03883D03*
X03947D03*
X03819Y04237D03*
X03947D03*
X05172Y03855D03*
X05103Y03861D03*
X05018Y04471D03*
X04952Y04474D03*
X04025Y04542D03*
X0414Y04607D03*
X0442Y04857D03*
X0462Y05193D03*
X04685Y05192D03*
X04702Y05109D03*
X03772Y04688D03*
G54D55*
X04377Y05683D03*
X02911Y06642D03*
X04783Y06266D03*
G54D56*
X02739Y06568D03*
X06112Y06417D03*
X02739Y03417D03*
X06112Y03516D03*
G54D57*
X05639Y03623D03*
Y03723D03*
X04087Y05259D03*
X03322Y03651D03*
X03222D03*
X02688Y04875D03*
Y04775D03*
Y04675D03*
Y04575D03*
Y04475D03*
X06111Y03815D03*
X06011D03*
X06111Y03915D03*
X06011D03*
X06111Y04015D03*
X06011D03*
X06111Y04115D03*
X06011D03*
X06111Y04215D03*
X06011D03*
X06111Y04315D03*
X06011D03*
X06111Y04415D03*
X06011D03*
X06111Y04515D03*
X06011D03*
X06111Y04615D03*
X06011D03*
X06111Y04715D03*
X06011D03*
X06111Y04815D03*
X06011D03*
X06111Y04915D03*
X06011D03*
X06111Y05015D03*
X06011D03*
X06111Y05115D03*
X06011D03*
X06111Y05215D03*
X06011D03*
X06111Y05315D03*
X06011D03*
X06111Y05415D03*
X06011Y05414D03*
X06111Y05515D03*
X06011D03*
X06111Y05615D03*
X06011D03*
X06111Y05715D03*
X06011D03*
X06111Y05815D03*
X06011D03*
X06111Y05915D03*
X06011D03*
X06111Y06015D03*
X06011D03*
X06111Y06115D03*
X06011D03*
X06111Y06215D03*
X06011Y03715D03*
X06111D03*
X05911D03*
X05811D03*
X05911Y06215D03*
X05811Y06115D03*
X05911D03*
X05811Y06015D03*
X05911D03*
X05811Y05915D03*
X05911D03*
X05811Y05815D03*
X05911D03*
X05811Y05715D03*
X05911D03*
X05811Y05615D03*
X05911D03*
X05811Y05515D03*
X05911D03*
X05811Y05414D03*
X05911Y05415D03*
X05811Y05315D03*
X05911D03*
X05811Y05215D03*
X05911D03*
X05811Y05115D03*
X05911D03*
X05811Y05015D03*
X05911D03*
X05811Y04915D03*
X05911D03*
X05811Y04815D03*
X05911D03*
X05811Y04715D03*
X05911D03*
X05811Y04615D03*
X05911D03*
X05811Y04515D03*
X05911D03*
X05811Y04415D03*
X05911D03*
X05811Y04315D03*
X05911D03*
X05811Y04215D03*
X05911D03*
X05811Y04115D03*
X05911D03*
X05811Y04015D03*
X05911D03*
X05811Y03915D03*
X05911D03*
X05811Y03815D03*
X05911D03*
X03514Y03299D03*
X03414D03*
X03314D03*
X04405Y03415D03*
Y03315D03*
X04305Y03415D03*
Y03315D03*
X04205Y03415D03*
Y03315D03*
X04105Y03415D03*
Y03315D03*
X04005Y03415D03*
Y03315D03*
X03905Y03415D03*
Y03315D03*
X03805Y03415D03*
G54D58*
X05639Y03823D03*
X02688Y04975D03*
X06011Y06215D03*
X05811D03*
G54D59*
X03987Y05259D03*
X03122Y03651D03*
X03614Y03299D03*
X03805Y03315D03*
G54D60*
X03312Y05646D03*
X03212D03*
G54D61*
X03112Y05646D03*
G54D62*
X04754Y03575D03*
X04807Y03438D03*
X04658Y03318D03*
X04537Y03608D03*
X04614Y03615D03*
X05084Y0363D03*
X0293Y05935D03*
X02863Y03323D03*
X05296Y0329D03*
X05514Y03415D03*
X0554Y03491D03*
X05543Y03787D03*
X0526Y03691D03*
X05148Y0348D03*
X05213Y03772D03*
X05217Y03542D03*
X048Y03539D03*
X05478Y03294D03*
X046Y04744D03*
X03435Y06203D03*
X03786Y06352D03*
X03709Y06203D03*
X03316Y06205D03*
X03932Y03868D03*
X04079Y04931D03*
X04053Y05183D03*
X03729Y03415D03*
X04902Y0397D03*
X05218D03*
X0506D03*
X05139D03*
X04981D03*
X02988Y03902D03*
X03045Y03938D03*
X02757Y03942D03*
X03026Y04142D03*
X02896Y04086D03*
X03038Y04228D03*
X02785Y04262D03*
X03039Y04276D03*
X05014Y03805D03*
X04312Y04044D03*
X02789Y04452D03*
X04566Y04714D03*
X04368Y04675D03*
X04526Y04676D03*
X05714Y04561D03*
X03309Y03448D03*
X05217Y03831D03*
X05135Y03721D03*
X05279Y03342D03*
X05375Y038D03*
X05091Y033D03*
X04372Y03988D03*
X05029Y04227D03*
X0364Y03602D03*
X03822Y04299D03*
X0428Y04055D03*
X04151Y0446D03*
X04178Y04483D03*
X04348Y04381D03*
X04319Y04351D03*
X04673Y04257D03*
X03153Y03597D03*
X05422Y05581D03*
X05372Y06198D03*
X05412Y06213D03*
X04774Y0597D03*
X04524Y05961D03*
X04892Y05283D03*
X04604Y05683D03*
X04778Y06088D03*
X04762Y0614D03*
X04767Y05555D03*
X0478Y05608D03*
X04731Y05681D03*
X048Y05231D03*
X03288Y0452D03*
X04314Y06446D03*
X03187Y05823D03*
X03221Y06445D03*
X02992Y06467D03*
X03041Y0531D03*
X02866Y04575D03*
X03037Y04573D03*
X03497Y03487D03*
X0301Y04499D03*
X04359Y06426D03*
X03122Y06432D03*
X03473Y06437D03*
X03625Y05828D03*
X03644Y05873D03*
X03866Y04469D03*
X03793Y04602D03*
X03796Y04644D03*
X03796Y04732D03*
X03645Y03959D03*
X03622Y03995D03*
X03623Y04357D03*
X03581Y04375D03*
X0357Y04329D03*
X04396Y03966D03*
X04421Y03941D03*
X04694Y04171D03*
X05221Y04174D03*
X05103Y05697D03*
X05566Y05724D03*
X05545Y06172D03*
X05503Y05754D03*
X05495Y05691D03*
X05463Y05583D03*
X04304Y04314D03*
X04243Y0429D03*
X03993Y04323D03*
X04018Y04414D03*
X041Y04409D03*
X0406Y04414D03*
X04234Y04216D03*
X04266Y04194D03*
X04211Y04168D03*
X04309Y03716D03*
X0452Y03987D03*
X04481Y03986D03*
X04355Y03807D03*
X0464Y03585D03*
X04664Y0355D03*
X04688Y03514D03*
X0294Y05033D03*
X02917Y04938D03*
X02918Y04803D03*
X04091Y04453D03*
X03548Y04387D03*
X03776Y04472D03*
X03792Y04556D03*
X03159Y05868D03*
X02914Y05887D03*
X03685Y0395D03*
X0291Y06051D03*
X02924Y05772D03*
X02942Y06011D03*
X03293Y05302D03*
X03538Y05616D03*
X04351Y05171D03*
X04275Y05142D03*
X04144Y05141D03*
X0449Y04947D03*
X04003Y0496D03*
X0413Y04898D03*
X03718Y05724D03*
X02776Y0578D03*
X0307Y05715D03*
X03065Y06083D03*
X03015Y06159D03*
X03035Y06196D03*
X02733Y06259D03*
X03158Y06248D03*
X03216Y06063D03*
X03478Y06259D03*
X04346Y06261D03*
X03426Y05716D03*
X03603Y05786D03*
X03019Y04687D03*
X04187Y04129D03*
X05633Y03935D03*
X04544Y0402D03*
X04571Y04047D03*
X0458Y04079D03*
X04249Y0384D03*
X04149Y03875D03*
X04112Y04016D03*
X03966Y03824D03*
X04015Y03778D03*
X0388Y03916D03*
X0406Y05472D03*
X03716Y05464D03*
X04895Y04395D03*
X056Y04523D03*
X05232Y04302D03*
X05181Y04305D03*
X05138Y04317D03*
X05303Y04393D03*
X05744Y05478D03*
X0574Y05372D03*
X05688Y05287D03*
X05638Y05261D03*
X02908Y05831D03*
X03276Y06447D03*
X04117Y06452D03*
X04164Y06442D03*
X03288Y04943D03*
X03039Y05036D03*
Y04941D03*
X03289Y04578D03*
X0363Y05593D03*
X03603Y05542D03*
X03626Y04557D03*
X03596Y04588D03*
X03021Y0407D03*
X0359Y04952D03*
X03629Y04913D03*
X03437Y04908D03*
X03116Y04798D03*
X02982Y0539D03*
X03438Y05253D03*
X03597Y05311D03*
X03624Y05257D03*
X03323Y04837D03*
X03325Y05201D03*
X03352Y05574D03*
X03033Y05568D03*
X02956Y04735D03*
X02831Y04692D03*
X02836Y04828D03*
X0302Y05202D03*
X02919Y052D03*
X02898Y04187D03*
X04492Y05785D03*
X04246Y05775D03*
X04094Y06011D03*
X041Y06252D03*
X04059Y06391D03*
X0397Y06436D03*
X03952Y06409D03*
X03418Y06381D03*
X03222Y06379D03*
X03951Y06353D03*
X03969Y06325D03*
X03874Y05651D03*
X03874Y05608D03*
X03668Y06325D03*
X03619Y06294D03*
X04077Y05744D03*
X03922Y06325D03*
X03905Y06292D03*
X03911Y05781D03*
X03628Y05994D03*
X02779Y06087D03*
X04404Y05024D03*
X04367Y05082D03*
X04361Y04999D03*
X04696Y04894D03*
X04782Y05089D03*
X04674Y05051D03*
X04674Y05003D03*
X04249Y05046D03*
X04478Y03283D03*
X02651Y04075D03*
G54D63*
X05624Y03362D03*
X05751Y03591D03*
X05156Y03305D03*
X04385Y03659D03*
X04774Y0587D03*
X05221Y06372D03*
X04793Y05408D03*
X04172Y05518D03*
X03376Y06627D03*
X0427Y06629D03*
X02724Y05922D03*
X02882Y03868D03*
X0347Y04097D03*
X03948Y03672D03*
X03909Y03815D03*
X04516Y04135D03*
X04509Y04375D03*
X05049Y04555D03*
X054Y04446D03*
X0529Y04934D03*
X04902Y05557D03*
X05296Y03959D03*
X05622Y04257D03*
X02744Y05385D03*
X05659Y04698D03*
X04975Y06054D03*
Y05997D03*
X04908D03*
X04975Y06111D03*
Y06169D03*
X04908D03*
X04902Y05612D03*
X04973Y05612D03*
Y05557D03*
Y05668D03*
X04902Y05667D03*
X04973Y05724D03*
X04902Y05722D03*
X04908Y06111D03*
X03508Y05518D03*
X03265Y03984D03*
X04908Y06054D03*
X03788Y05647D03*
X057Y04012D03*
G54D64*
X03234Y05256D03*
X0324Y04922D03*
M02*