%FSTAX23Y23*%
%MOIN*%
%SFA1B1*%

%IPPOS*%
%ADD9500C,0.010000*%
%ADD9501C,0.015000*%
%ADD9502C,0.020000*%
%ADD9503C,0.028000*%
%ADD9504C,0.030000*%
%ADD9505C,0.035430*%
%ADD9506C,0.039000*%
%ADD9507C,0.137800*%
%LNpcb_obdh-1*%
%LPD*%
G54D9500*
X02863Y03323D03*
X02988Y03902D03*
X03045Y03938D03*
X03021Y0407D03*
X03026Y04142D03*
X03038Y04228D03*
X03039Y04276D03*
X02898Y04187D03*
X02896Y04086D03*
X02651Y04075D03*
X02757Y03942D03*
X02785Y04262D03*
X02789Y04452D03*
X02866Y04575D03*
X03037Y04573D03*
X0301Y04499D03*
X03019Y04687D03*
X03289Y04578D03*
X03288Y0452D03*
X03626Y04557D03*
X03596Y04588D03*
X03793Y04602D03*
X03796Y04644D03*
X03792Y04556D03*
X03776Y04472D03*
X03866Y04469D03*
X04018Y04414D03*
X0406Y04414D03*
X041Y04409D03*
X04091Y04453D03*
X04151Y0446D03*
X04178Y04483D03*
X04243Y0429D03*
X04234Y04216D03*
X04266Y04194D03*
X04211Y04168D03*
X04187Y04129D03*
X0428Y04055D03*
X04312Y04044D03*
X04372Y03988D03*
X04396Y03966D03*
X04421Y03941D03*
X04481Y03986D03*
X0452Y03987D03*
X04544Y0402D03*
X04571Y04047D03*
X0458Y04079D03*
X04673Y04257D03*
X04304Y04314D03*
X04319Y04351D03*
X04348Y04381D03*
X04368Y04675D03*
X04526Y04676D03*
X03993Y04323D03*
X03822Y04299D03*
X03623Y04357D03*
X03581Y04375D03*
X03548Y04387D03*
X0357Y04329D03*
X03622Y03995D03*
X03645Y03959D03*
X03685Y0395D03*
X0388Y03916D03*
X03932Y03868D03*
X03966Y03824D03*
X04015Y03778D03*
X04149Y03875D03*
X04249Y0384D03*
X04355Y03807D03*
X04309Y03716D03*
X04537Y03608D03*
X04614Y03615D03*
X0464Y03585D03*
X04664Y0355D03*
X04658Y03318D03*
X04478Y03283D03*
X03729Y03415D03*
X0364Y03602D03*
X03497Y03487D03*
X03309Y03448D03*
X03153Y03597D03*
X04112Y04016D03*
X04694Y04171D03*
X05029Y04227D03*
X05138Y04317D03*
X05181Y04305D03*
X05232Y04302D03*
X05221Y04174D03*
X05218Y0397D03*
X05139D03*
X0506D03*
X04981D03*
X04902D03*
X05014Y03805D03*
X05135Y03721D03*
X05213Y03772D03*
X05217Y03831D03*
X0526Y03691D03*
X05217Y03542D03*
X05148Y0348D03*
X05084Y0363D03*
X05091Y033D03*
X05296Y0329D03*
X05279Y03342D03*
X05478Y03294D03*
X05514Y03415D03*
X0554Y03491D03*
X05543Y03787D03*
X05375Y038D03*
X05633Y03935D03*
X056Y04523D03*
X05714Y04561D03*
X05303Y04393D03*
X04895Y04395D03*
X048Y03539D03*
X04754Y03575D03*
X04688Y03514D03*
X04807Y03438D03*
X04696Y04894D03*
X04782Y05089D03*
X048Y05231D03*
X04892Y05283D03*
X04767Y05555D03*
X0478Y05608D03*
X04731Y05681D03*
X04774Y0597D03*
X04778Y06088D03*
X04762Y0614D03*
X05372Y06198D03*
X05412Y06213D03*
X05545Y06172D03*
X05503Y05754D03*
X05495Y05691D03*
X05566Y05724D03*
X05463Y05583D03*
X05422Y05581D03*
X05744Y05478D03*
X0574Y05372D03*
X05688Y05287D03*
X05638Y05261D03*
X05103Y05697D03*
X04604Y05683D03*
X04492Y05785D03*
X04524Y05961D03*
X04246Y05775D03*
X04077Y05744D03*
X03911Y05781D03*
X03874Y05651D03*
X03874Y05608D03*
X0363Y05593D03*
X03603Y05542D03*
X03538Y05616D03*
X03426Y05716D03*
X03352Y05574D03*
X03293Y05302D03*
X03325Y05201D03*
X03438Y05253D03*
X03624Y05257D03*
X03597Y05311D03*
X03716Y05464D03*
X03718Y05724D03*
X03603Y05786D03*
X03625Y05828D03*
X03644Y05873D03*
X03628Y05994D03*
X03709Y06203D03*
X03435D03*
X03316Y06205D03*
X03158Y06248D03*
X03216Y06063D03*
X03159Y05868D03*
X03187Y05823D03*
X03288Y04943D03*
X03323Y04837D03*
X03437Y04908D03*
X0359Y04952D03*
X03629Y04913D03*
X03796Y04732D03*
X04003Y0496D03*
X04079Y04931D03*
X0413Y04898D03*
X04144Y05141D03*
X04275Y05142D03*
X04351Y05171D03*
X04367Y05082D03*
X04361Y04999D03*
X04404Y05024D03*
X0449Y04947D03*
X04674Y05003D03*
X04674Y05051D03*
X046Y04744D03*
X04566Y04714D03*
X04249Y05046D03*
X04053Y05183D03*
X0406Y05472D03*
X04094Y06011D03*
X03065Y06083D03*
X03015Y06159D03*
X03035Y06196D03*
X0291Y06051D03*
X02942Y06011D03*
X0293Y05935D03*
X02914Y05887D03*
X02908Y05831D03*
X02924Y05772D03*
X02776Y0578D03*
X02779Y06087D03*
X0307Y05715D03*
X03033Y05568D03*
X02982Y0539D03*
X03041Y0531D03*
X0302Y05202D03*
X02919Y052D03*
X0294Y05033D03*
X03039Y05036D03*
Y04941D03*
X02917Y04938D03*
X02918Y04803D03*
X02956Y04735D03*
X02831Y04692D03*
X02836Y04828D03*
X03116Y04798D03*
X03122Y06432D03*
X02992Y06467D03*
X02733Y06259D03*
X03222Y06379D03*
X03221Y06445D03*
X03276Y06447D03*
X03473Y06437D03*
X03418Y06381D03*
X03478Y06259D03*
X03619Y06294D03*
X03668Y06325D03*
X03786Y06352D03*
X03922Y06325D03*
X03969D03*
X03951Y06353D03*
X03952Y06409D03*
X0397Y06436D03*
X04059Y06391D03*
X04117Y06452D03*
X04164Y06442D03*
X04314Y06446D03*
X04359Y06426D03*
X04346Y06261D03*
X041Y06252D03*
X03905Y06292D03*
G54D9501*
X0324Y04922D03*
X03234Y05256D03*
G54D9502*
X02774Y03587D03*
X02842Y03587D03*
X02914Y0359D03*
X02986Y03592D03*
X02987Y03671D03*
X03677Y04143D03*
X03754D03*
X03819D03*
X03883D03*
X03947D03*
Y04237D03*
X03883Y04235D03*
X03819Y04237D03*
X03755D03*
X03677D03*
X04025Y04542D03*
X0414Y04607D03*
X0455Y03777D03*
X0516Y03786D03*
X05172Y03855D03*
X05103Y03861D03*
X05094Y03456D03*
X05018Y04471D03*
X04952Y04474D03*
X04702Y05109D03*
X0505Y05464D03*
X05117Y0547D03*
X05146Y0578D03*
X05062Y05777D03*
X04779Y05764D03*
X04753Y06192D03*
X05066Y06239D03*
X0514Y06237D03*
X04298Y05828D03*
X03763Y05861D03*
X03422Y05866D03*
X03772Y04688D03*
X0442Y04857D03*
X04548Y04894D03*
X04477Y05035D03*
X04472Y05102D03*
X0462Y05193D03*
X04685Y05192D03*
G54D9503*
X02882Y03868D03*
X03265Y03984D03*
X0347Y04097D03*
X03909Y03815D03*
X03948Y03672D03*
X04385Y03659D03*
X04516Y04135D03*
X04509Y04375D03*
X05049Y04555D03*
X054Y04446D03*
X05622Y04257D03*
X057Y04012D03*
X05296Y03959D03*
X05156Y03305D03*
X05624Y03362D03*
X05751Y03591D03*
X05659Y04698D03*
X0529Y04934D03*
X04973Y05557D03*
Y05612D03*
Y05668D03*
Y05724D03*
X04902Y05722D03*
Y05667D03*
Y05612D03*
Y05557D03*
X04793Y05408D03*
X04774Y0587D03*
X04908Y05997D03*
Y06054D03*
Y06111D03*
Y06169D03*
X04975D03*
Y06111D03*
Y06054D03*
Y05997D03*
X04172Y05518D03*
X03788Y05647D03*
X03508Y05518D03*
X02744Y05385D03*
X02724Y05922D03*
X03376Y06627D03*
X0427Y06629D03*
X05221Y06372D03*
G54D9504*
X04377Y05683D03*
X02911Y06642D03*
X04783Y06266D03*
G54D9505*
X03122Y03651D03*
X02688Y04475D03*
Y04575D03*
Y04675D03*
X03222Y03651D03*
X03322D03*
X03314Y03299D03*
X03414D03*
X03514D03*
X03614D03*
X03805Y03315D03*
X03905D03*
X04005D03*
X04105D03*
X04205D03*
X04305D03*
X04405D03*
Y03415D03*
X04305D03*
X04205D03*
X04105D03*
X04005D03*
X03905D03*
X03805D03*
X05639Y03623D03*
Y03723D03*
Y03823D03*
X05811Y03815D03*
Y03715D03*
X05911D03*
X06011D03*
Y03815D03*
X06111D03*
Y03915D03*
X06011D03*
Y04015D03*
X06111D03*
Y04115D03*
X06011D03*
Y04215D03*
X06111D03*
Y04315D03*
X06011D03*
Y04415D03*
X06111D03*
Y04515D03*
X06011D03*
Y04615D03*
X06111D03*
X05911D03*
X05811D03*
Y04515D03*
X05911D03*
Y04415D03*
X05811D03*
Y04315D03*
X05911D03*
Y04215D03*
X05811D03*
Y04115D03*
X05911D03*
Y04015D03*
X05811D03*
Y03915D03*
X05911D03*
Y03815D03*
X06111Y03715D03*
Y04715D03*
X06011D03*
Y04815D03*
X06111D03*
Y04915D03*
X06011D03*
Y05015D03*
X06111D03*
Y05115D03*
X06011D03*
Y05215D03*
X06111D03*
Y05315D03*
X06011D03*
Y05414D03*
X06111Y05415D03*
Y05515D03*
X06011D03*
Y05615D03*
X06111D03*
Y05715D03*
Y05815D03*
Y05915D03*
X06011D03*
Y06015D03*
X06111D03*
Y06115D03*
X06011D03*
X05911D03*
Y06215D03*
X06011D03*
X06111D03*
X05811D03*
Y06115D03*
Y06015D03*
X05911D03*
Y05915D03*
X05811D03*
Y05815D03*
X05911D03*
X06011D03*
Y05715D03*
X05911D03*
X05811D03*
Y05615D03*
X05911D03*
Y05515D03*
X05811D03*
Y05414D03*
Y05315D03*
X05911D03*
Y05415D03*
Y05215D03*
X05811D03*
Y05115D03*
X05911D03*
Y05015D03*
X05811D03*
Y04915D03*
X05911D03*
Y04815D03*
X05811D03*
Y04715D03*
X05911D03*
X04087Y05259D03*
X03987D03*
X02688Y04975D03*
Y04875D03*
Y04775D03*
G54D9506*
X03212Y05646D03*
X03312D03*
X03112D03*
G54D9507*
X02739Y03417D03*
X06112Y03516D03*
X02739Y06568D03*
X06112Y06417D03*
M02*