%FSTAX23Y23*%
%MOIN*%
%SFA1B1*%

%IPPOS*%
%AMD31*
4,1,4,-0.004200,0.031900,-0.031900,0.004200,0.004200,-0.031900,0.031900,-0.004200,-0.004200,0.031900,0.0*
%
%AMD32*
4,1,4,-0.031200,-0.002700,-0.001600,-0.031300,0.031200,0.002700,0.001600,0.031300,-0.031200,-0.002700,0.0*
%
%AMD33*
4,1,4,-0.031300,-0.002100,-0.002100,-0.031300,0.031300,0.002100,0.002100,0.031300,-0.031300,-0.002100,0.0*
%
%AMD47*
4,1,8,0.019700,-0.009800,0.019700,0.009800,0.017700,0.011800,-0.017700,0.011800,-0.019700,0.009800,-0.019700,-0.009800,-0.017700,-0.011800,0.017700,-0.011800,0.019700,-0.009800,0.0*
1,1,0.004020,0.017700,-0.009800*
1,1,0.004020,0.017700,0.009800*
1,1,0.004020,-0.017700,0.009800*
1,1,0.004020,-0.017700,-0.009800*
%
%AMD82*
4,1,4,0.018800,-0.021500,0.021500,-0.018800,-0.018800,0.021500,-0.021500,0.018800,0.018800,-0.021500,0.0*
1,1,0.003810,0.020200,-0.020200*
1,1,0.003810,-0.020200,0.020200*
%
%AMD83*
4,1,4,-0.021500,-0.018800,-0.018800,-0.021500,0.021500,0.018800,0.018800,0.021500,-0.021500,-0.018800,0.0*
1,1,0.003810,-0.020200,-0.020200*
1,1,0.003810,0.020200,0.020200*
%
%ADD12C,0.032000*%
%ADD13R,0.047240X0.060000*%
%ADD14R,0.047240X0.041340*%
%ADD15R,0.020000X0.050000*%
%ADD16R,0.060000X0.060000*%
%ADD17R,0.062990X0.031500*%
%ADD18R,0.118110X0.078740*%
%ADD19R,0.048820X0.031500*%
%ADD20R,0.047240X0.031500*%
%ADD21R,0.086610X0.045280*%
%ADD22R,0.045280X0.059060*%
%ADD23R,0.086610X0.037400*%
%ADD24R,0.098430X0.037400*%
%ADD25R,0.040000X0.060000*%
%ADD26R,0.041340X0.047240*%
%ADD27R,0.047240X0.047240*%
%ADD28R,0.060000X0.040000*%
%ADD29R,0.060000X0.047240*%
%ADD30R,0.047240X0.047240*%
G04~CAMADD=31~9~0.0~0.0~393.7~511.8~0.0~0.0~0~0.0~0.0~0.0~0.0~0~0.0~0.0~0.0~0.0~0~0.0~0.0~0.0~45.0~638.0~637.0*
%ADD31D31*%
G04~CAMADD=32~9~0.0~0.0~413.4~472.4~0.0~0.0~0~0.0~0.0~0.0~0.0~0~0.0~0.0~0.0~0.0~0~0.0~0.0~0.0~136.0~624.0~625.0*
%ADD32D32*%
G04~CAMADD=33~9~0.0~0.0~413.4~472.4~0.0~0.0~0~0.0~0.0~0.0~0.0~0~0.0~0.0~0.0~0.0~0~0.0~0.0~0.0~135.0~626.0~625.0*
%ADD33D33*%
%ADD34O,0.023620X0.086610*%
%ADD35R,0.041340X0.031500*%
%ADD36R,0.019690X0.009840*%
%ADD37R,0.009840X0.019690*%
%ADD38R,0.039370X0.039370*%
%ADD39R,0.031500X0.062990*%
%ADD40R,0.078740X0.118110*%
%ADD41R,0.086610X0.027560*%
%ADD42R,0.096850X0.090950*%
%ADD43O,0.062990X0.013780*%
%ADD44R,0.062990X0.013780*%
G04~CAMADD=47~8~0.0~0.0~236.2~393.7~20.1~0.0~15~0.0~0.0~0.0~0.0~0~0.0~0.0~0.0~0.0~0~0.0~0.0~0.0~270.0~394.0~237.0*
%ADD47D47*%
%ADD48R,0.068900X0.062990*%
G04~CAMADD=82~3~0.0~0.0~38.1~609.0~0.0~0.0~0~0.0~0.0~0.0~0.0~0~0.0~0.0~0.0~0.0~0~0.0~0.0~0.0~225.0~440.0~440.0*
%ADD82D82*%
G04~CAMADD=83~3~0.0~0.0~38.1~609.0~0.0~0.0~0~0.0~0.0~0.0~0.0~0~0.0~0.0~0.0~0.0~0~0.0~0.0~0.0~135.0~440.0~440.0*
%ADD83D83*%
%LNpcb_obdh-1*%
%LPD*%
G36*
X04216Y05017D02*
X04217Y05014D01*
X04216Y05011*
X04213Y0501*
X04193*
X0419Y05011*
X04189Y05014*
X0419Y05017*
X04193Y05019*
X04213*
X04216Y05017*
G37*
G36*
X04338Y05002D02*
X04339Y04999D01*
X04338Y04996*
X04335Y04994*
X04315*
X04312Y04996*
X04311Y04999*
X04312Y05002*
X04315Y05003*
X04335*
X04338Y05002*
G37*
G36*
X04216D02*
X04217Y04999D01*
X04216Y04996*
X04213Y04994*
X04193*
X0419Y04996*
X04189Y04999*
X0419Y05002*
X04193Y05003*
X04213*
X04216Y05002*
G37*
G36*
X04338Y05033D02*
X04339Y0503D01*
X04338Y05027*
X04335Y05026*
X04315*
X04312Y05027*
X04311Y0503*
X04312Y05033*
X04315Y05034*
X04335*
X04338Y05033*
G37*
G36*
X04216D02*
X04217Y0503D01*
X04216Y05027*
X04213Y05026*
X04193*
X0419Y05027*
X04189Y0503*
X0419Y05033*
X04193Y05034*
X04213*
X04216Y05033*
G37*
G36*
X04338Y05017D02*
X04339Y05014D01*
X04338Y05011*
X04335Y0501*
X04315*
X04312Y05011*
X04311Y05014*
X04312Y05017*
X04315Y05019*
X04335*
X04338Y05017*
G37*
G36*
X04259Y0499D02*
X0426Y04987D01*
Y04967*
X04259Y04964*
X04256Y04963*
X04253Y04964*
X04252Y04967*
Y04987*
X04253Y0499*
X04256Y04991*
X04259Y0499*
G37*
G36*
X04243D02*
X04245Y04987D01*
Y04967*
X04243Y04964*
X0424Y04963*
X04237Y04964*
X04236Y04967*
Y04987*
X04237Y0499*
X0424Y04991*
X04243Y0499*
G37*
G36*
X04228D02*
X04229Y04987D01*
Y04967*
X04228Y04964*
X04225Y04963*
X04222Y04964*
X0422Y04967*
Y04987*
X04222Y0499*
X04225Y04991*
X04228Y0499*
G37*
G36*
X04306D02*
X04308Y04987D01*
Y04967*
X04306Y04964*
X04303Y04963*
X043Y04964*
X04299Y04967*
Y04987*
X043Y0499*
X04303Y04991*
X04306Y0499*
G37*
G36*
X04291D02*
X04292Y04987D01*
Y04967*
X04291Y04964*
X04288Y04963*
X04285Y04964*
X04283Y04967*
Y04987*
X04285Y0499*
X04288Y04991*
X04291Y0499*
G37*
G36*
X04275D02*
X04276Y04987D01*
Y04967*
X04275Y04964*
X04272Y04963*
X04269Y04964*
X04268Y04967*
Y04987*
X04269Y0499*
X04272Y04991*
X04275Y0499*
G37*
G36*
X04259Y05112D02*
X0426Y05109D01*
Y05089*
X04259Y05086*
X04256Y05085*
X04253Y05086*
X04252Y05089*
Y05109*
X04253Y05112*
X04256Y05113*
X04259Y05112*
G37*
G36*
X04243D02*
X04245Y05109D01*
Y05089*
X04243Y05086*
X0424Y05085*
X04237Y05086*
X04236Y05089*
Y05109*
X04237Y05112*
X0424Y05113*
X04243Y05112*
G37*
G36*
X04228D02*
X04229Y05109D01*
Y05089*
X04228Y05086*
X04225Y05085*
X04222Y05086*
X0422Y05089*
Y05109*
X04222Y05112*
X04225Y05113*
X04228Y05112*
G37*
G36*
X04306D02*
X04308Y05109D01*
Y05089*
X04306Y05086*
X04303Y05085*
X043Y05086*
X04299Y05089*
Y05109*
X043Y05112*
X04303Y05113*
X04306Y05112*
G37*
G36*
X04291D02*
X04292Y05109D01*
Y05089*
X04291Y05086*
X04288Y05085*
X04285Y05086*
X04283Y05089*
Y05109*
X04285Y05112*
X04288Y05113*
X04291Y05112*
G37*
G36*
X04275D02*
X04276Y05109D01*
Y05089*
X04275Y05086*
X04272Y05085*
X04269Y05086*
X04268Y05089*
Y05109*
X04269Y05112*
X04272Y05113*
X04275Y05112*
G37*
G36*
X04216Y05065D02*
X04217Y05062D01*
X04216Y05059*
X04213Y05057*
X04193*
X0419Y05059*
X04189Y05062*
X0419Y05065*
X04193Y05066*
X04213*
X04216Y05065*
G37*
G36*
X04338Y05049D02*
X04339Y05046D01*
X04338Y05043*
X04335Y05042*
X04315*
X04312Y05043*
X04311Y05046*
X04312Y05049*
X04315Y0505*
X04335*
X04338Y05049*
G37*
G36*
X04216D02*
X04217Y05046D01*
X04216Y05043*
X04213Y05042*
X04193*
X0419Y05043*
X04189Y05046*
X0419Y05049*
X04193Y0505*
X04213*
X04216Y05049*
G37*
G36*
X04338Y0508D02*
X04339Y05077D01*
X04338Y05074*
X04335Y05073*
X04315*
X04312Y05074*
X04311Y05077*
X04312Y0508*
X04315Y05082*
X04335*
X04338Y0508*
G37*
G36*
X04216D02*
X04217Y05077D01*
X04216Y05074*
X04213Y05073*
X04193*
X0419Y05074*
X04189Y05077*
X0419Y0508*
X04193Y05082*
X04213*
X04216Y0508*
G37*
G36*
X04338Y05065D02*
X04339Y05062D01*
X04338Y05059*
X04335Y05057*
X04315*
X04312Y05059*
X04311Y05062*
X04312Y05065*
X04315Y05066*
X04335*
X04338Y05065*
G37*
G54D12*
X05872Y06454D03*
X05883Y03454D03*
X04485Y05389D03*
G54D13*
X04541Y03458D03*
X04621D03*
X04688Y03459D03*
X04768D03*
X02709Y03709D03*
X02789D03*
X05574Y04778D03*
X05654D03*
X04715Y0557D03*
X04635D03*
X04726Y06022D03*
X04646D03*
X04008Y05034D03*
X04088D03*
X04297Y06134D03*
X04377D03*
X04008Y05126D03*
X04088D03*
X03758Y06133D03*
X03838D03*
X03413Y06132D03*
X03493D03*
X03077Y0604D03*
X02997D03*
Y05919D03*
X03077D03*
X03071Y05757D03*
X02991D03*
X02895Y05585D03*
X02975D03*
X049Y0662D03*
X0498D03*
X03467Y05762D03*
X03547D03*
X03044Y04746D03*
X03124D03*
X03042Y05106D03*
X03122D03*
X03009Y05472D03*
X03089D03*
G54D14*
X04798Y03367D03*
Y03294D03*
X05148Y05614D03*
Y05541D03*
X05151Y06065D03*
Y05992D03*
X04883Y04199D03*
Y04271D03*
X0495Y03715D03*
Y03788D03*
X04242Y0603D03*
Y05957D03*
X03218Y03546D03*
Y03473D03*
X04188Y04899D03*
Y04826D03*
X03701Y06032D03*
Y05959D03*
X03934Y03991D03*
Y03919D03*
X03354Y06032D03*
Y05959D03*
X0435Y04895D03*
Y04822D03*
X03207Y03365D03*
Y03292D03*
X04745Y04946D03*
Y05019D03*
X04459Y05934D03*
Y06007D03*
X03905Y05936D03*
Y06008D03*
X03552Y05936D03*
Y06009D03*
G54D15*
X04668Y03264D03*
X0463Y03374D03*
X04705D03*
X04668D03*
X04705Y03264D03*
X0463D03*
X0342Y05939D03*
X03495D03*
X03457Y06049D03*
X03495D03*
X0342D03*
X03457Y05939D03*
X03763D03*
X03838D03*
X03801Y06049D03*
X03838D03*
X03763D03*
X03801Y05939D03*
X04303Y0594D03*
X04378D03*
X04341Y0605D03*
X04378D03*
X04303D03*
X04341Y0594D03*
G54D16*
X05545Y06486D03*
X0541D03*
X05547Y0638D03*
X05412D03*
G54D17*
X02848Y05789D03*
Y0574D03*
Y06232D03*
Y06134D03*
Y06035D03*
Y05937D03*
Y05838D03*
Y06281D03*
Y06183D03*
Y06085D03*
Y05986D03*
Y05888D03*
X02846Y05229D03*
Y05327D03*
Y05426D03*
Y0518D03*
Y05278D03*
Y05377D03*
G54D18*
X02726Y05638D03*
Y06384D03*
X02724Y05528D03*
Y05077D03*
G54D19*
X03064Y04349D03*
X02961Y04142D03*
Y04186D03*
Y04229D03*
Y04272D03*
Y04099D03*
Y04056D03*
Y04012D03*
Y03969D03*
G54D20*
X03419Y04349D03*
G54D21*
X03432Y03802D03*
G54D22*
X03463Y04278D03*
Y03971D03*
G54D23*
X0298Y04364D03*
G54D24*
X02985Y03798D03*
G54D25*
X05573Y04866D03*
X05653D03*
X05133Y06621D03*
X05053D03*
G54D26*
X05588Y04631D03*
X05661D03*
X05145Y06142D03*
X05218D03*
X05025Y04348D03*
X04952D03*
X05015Y03715D03*
X05088D03*
X04926Y03351D03*
X04999D03*
X03276Y04742D03*
X03203D03*
X03304Y05477D03*
X03231D03*
X03272Y05105D03*
X03199D03*
X04087Y03827D03*
X04015D03*
X03546Y05668D03*
X03473D03*
X05154Y05687D03*
X05226D03*
G54D27*
X05658Y04551D03*
X05585D03*
X05002Y03285D03*
X04929D03*
X03192Y05174D03*
X03265D03*
X032Y04808D03*
X03274D03*
X03223Y05545D03*
X03296D03*
G54D28*
X05201Y04861D03*
Y04781D03*
G54D29*
X05201Y04709D03*
Y04629D03*
X0557Y04047D03*
Y04127D03*
X05484Y04D03*
Y0408D03*
X04811Y03641D03*
Y03721D03*
X05526Y03356D03*
Y03276D03*
X03148Y03463D03*
Y03543D03*
X03466Y05426D03*
Y05346D03*
Y04695D03*
Y04615D03*
Y05055D03*
Y04975D03*
X0336Y06376D03*
Y06296D03*
X04271Y04817D03*
Y04897D03*
X04258Y06371D03*
Y06291D03*
X04165Y06032D03*
Y05952D03*
X0363Y06031D03*
Y05951D03*
X03274Y06031D03*
Y05951D03*
X03109Y0629D03*
Y0637D03*
X03481Y0629D03*
Y0637D03*
X04098Y06287D03*
Y06367D03*
X04347Y0629D03*
Y0637D03*
X04186Y05693D03*
Y05773D03*
X04003Y05465D03*
Y05385D03*
X03777Y04334D03*
Y04414D03*
X0387Y04337D03*
Y04417D03*
X03042Y03292D03*
Y03372D03*
X04295Y05295D03*
Y05215D03*
X04209Y05296D03*
Y05216D03*
G54D30*
X05234Y05535D03*
Y05608D03*
X04959Y04277D03*
Y04204D03*
X05237Y05986D03*
Y06059D03*
X03135Y03293D03*
Y03366D03*
G54D31*
X04771Y03968D03*
X04715Y03912D03*
G54D32*
X04827Y0381D03*
X04774Y03861D03*
G54D33*
X04878Y03855D03*
X04827Y03907D03*
G54D34*
X04876Y03438D03*
X04926D03*
X04976D03*
X05026D03*
X04876Y03627D03*
X04926D03*
X04976D03*
X05026D03*
G54D35*
X0503Y03922D03*
Y03849D03*
G54D36*
X04635Y05016D03*
Y04996D03*
Y05075D03*
Y05055D03*
Y05035D03*
Y05094D03*
Y04976D03*
X0454D03*
Y05094D03*
Y05035D03*
Y05055D03*
Y05075D03*
Y04996D03*
Y05016D03*
G54D37*
X04587Y05112D03*
X04568D03*
X04607D03*
Y04958D03*
X04568D03*
X04587D03*
G54D38*
X04022Y03913D03*
X04089Y03992D03*
Y03913D03*
X0402Y03992D03*
G54D39*
X03175Y06497D03*
X03126D03*
X03618D03*
X0352D03*
X03421D03*
X03323D03*
X03224D03*
X03667D03*
X03569D03*
X0347D03*
X03372D03*
X03274D03*
X04067D03*
X04018D03*
X0451D03*
X04412D03*
X04313D03*
X04215D03*
X04116D03*
X04559D03*
X04461D03*
X04362D03*
X04264D03*
X04166D03*
G54D40*
X03024Y06619D03*
X0377D03*
X03916D03*
X04662D03*
G54D41*
X03354Y04888D03*
Y04938D03*
Y04988D03*
Y05038D03*
X0311Y04888D03*
Y04938D03*
Y04988D03*
Y05038D03*
X03356Y05257D03*
Y05307D03*
Y05357D03*
Y05407D03*
X03111Y05257D03*
Y05307D03*
Y05357D03*
Y05407D03*
X03356Y04525D03*
Y04575D03*
Y04625D03*
Y04675D03*
X03111Y04525D03*
Y04575D03*
Y04625D03*
Y04675D03*
G54D42*
X0494Y0608D03*
X04937Y05625D03*
G54D43*
X05051Y05991D03*
Y06016D03*
Y06042D03*
Y06067D03*
Y06093D03*
Y06119D03*
Y06144D03*
Y0617D03*
X0483Y05991D03*
Y06016D03*
Y06042D03*
Y06067D03*
Y06093D03*
Y06119D03*
Y06144D03*
X05048Y05536D03*
Y05562D03*
Y05587D03*
Y05613D03*
Y05638D03*
Y05664D03*
Y05689D03*
Y05715D03*
X04827Y05536D03*
Y05562D03*
Y05587D03*
Y05613D03*
Y05638D03*
Y05664D03*
Y05689D03*
G54D44*
X0483Y0617D03*
X04827Y05715D03*
G54D47*
X03443Y03396D03*
Y03433D03*
Y0347D03*
X03335D03*
Y03396D03*
G54D48*
X04264Y05038D03*
G54D82*
X04478Y03857D03*
X04492Y03871D03*
X04505Y03885D03*
X04519Y03899D03*
X04533Y03913D03*
X04547Y03927D03*
X04561Y03941D03*
X04575Y03954D03*
X04589Y03968D03*
X04603Y03982D03*
X04617Y03996D03*
X04631Y0401D03*
X04645Y04024D03*
X04659Y04038D03*
X04672Y04052D03*
X04686Y04066D03*
X047Y0408D03*
X04714Y04094D03*
X04728Y04108D03*
X04742Y04121D03*
X04756Y04135D03*
X0477Y04149D03*
X04784Y04163D03*
X04798Y04177D03*
X04812Y04191D03*
X0439Y04613D03*
X04376Y04599D03*
X04362Y04585D03*
X04348Y04571D03*
X04334Y04557D03*
X0432Y04543D03*
X04306Y04529D03*
X04292Y04515D03*
X04279Y04501D03*
X04265Y04488D03*
X04251Y04474D03*
X04237Y0446D03*
X04223Y04446D03*
X04209Y04432D03*
X04195Y04418D03*
X04181Y04404D03*
X04167Y0439D03*
X04153Y04376D03*
X04139Y04362D03*
X04125Y04348D03*
X04112Y04334D03*
X04098Y04321D03*
X04084Y04307D03*
X0407Y04293D03*
X04056Y04279D03*
G54D83*
X04812Y04279D03*
X04798Y04293D03*
X04784Y04307D03*
X0477Y04321D03*
X04756Y04334D03*
X04742Y04348D03*
X04728Y04362D03*
X04714Y04376D03*
X047Y0439D03*
X04686Y04404D03*
X04672Y04418D03*
X04659Y04432D03*
X04645Y04446D03*
X04631Y0446D03*
X04617Y04474D03*
X04603Y04488D03*
X04589Y04501D03*
X04575Y04515D03*
X04561Y04529D03*
X04547Y04543D03*
X04533Y04557D03*
X04519Y04571D03*
X04505Y04585D03*
X04492Y04599D03*
X04478Y04613D03*
X04056Y04191D03*
X0407Y04177D03*
X04084Y04163D03*
X04098Y04149D03*
X04112Y04135D03*
X04125Y04121D03*
X04139Y04108D03*
X04153Y04094D03*
X04167Y0408D03*
X04181Y04066D03*
X04195Y04052D03*
X04209Y04038D03*
X04223Y04024D03*
X04237Y0401D03*
X04251Y03996D03*
X04265Y03982D03*
X04279Y03968D03*
X04292Y03954D03*
X04306Y03941D03*
X0432Y03927D03*
X04334Y03913D03*
X04348Y03899D03*
X04362Y03885D03*
X04376Y03871D03*
X0439Y03857D03*
M02*