%FSTAX23Y23*%
%MOIN*%
%SFA1B1*%

%IPPOS*%
%ADD11C,0.010000*%
%ADD52C,0.008000*%
%ADD74C,0.005910*%
%ADD77C,0.003940*%
%ADD143C,0.001970*%
%ADD149C,0.015750*%
%LNpcb_obdh-1*%
%LPD*%
G54D11*
X04711Y03376D02*
D01*
D01*
G75*
G03X04699I-00005J0D01*
G74*G01*
D01*
G75*
G03X04711I00005J0D01*
G74*G01*
X02882Y06335D02*
D01*
D01*
G75*
G03X02848I-00016J0D01*
G74*G01*
D01*
G75*
G03X02882I00016J0D01*
G74*G01*
X0346Y03396D02*
D01*
D01*
G75*
G03X03426I-00017J0D01*
G74*G01*
D01*
G75*
G03X0346I00017J0D01*
G74*G01*
X04887Y03433D02*
D01*
D01*
G75*
G03X04856I-00015J0D01*
G74*G01*
D01*
G75*
G03X04887I00015J0D01*
G74*G01*
X04648Y05096D02*
D01*
D01*
G75*
G03X04627I-00010J0D01*
G74*G01*
D01*
G75*
G03X04648I00010J0D01*
G74*G01*
X03501Y06051D02*
D01*
D01*
G75*
G03X03489I-00005J0D01*
G74*G01*
D01*
G75*
G03X03501I00005J0D01*
G74*G01*
X03844D02*
D01*
D01*
G75*
G03X03832I-00005J0D01*
G74*G01*
D01*
G75*
G03X03844I00005J0D01*
G74*G01*
X04033Y03989D02*
D01*
D01*
G75*
G03X0401I-00011J0D01*
G74*G01*
D01*
G75*
G03X04033I00011J0D01*
G74*G01*
X03737Y0648D02*
D01*
D01*
G75*
G03X03703I-00016J0D01*
G74*G01*
D01*
G75*
G03X03737I00016J0D01*
G74*G01*
X04629D02*
D01*
D01*
G75*
G03X04596I-00016J0D01*
G74*G01*
D01*
G75*
G03X04629I00016J0D01*
G74*G01*
X0288Y05479D02*
D01*
D01*
G75*
G03X02846I-00016J0D01*
G74*G01*
D01*
G75*
G03X0288I00016J0D01*
G74*G01*
X04384Y06052D02*
D01*
D01*
G75*
G03X04372I-00005J0D01*
G74*G01*
D01*
G75*
G03X04384I00005J0D01*
G74*G01*
X03124Y05038D02*
D01*
D01*
G75*
G03X03093I-00015J0D01*
G74*G01*
D01*
G75*
G03X03124I00015J0D01*
G74*G01*
X03126Y05407D02*
D01*
D01*
G75*
G03X03095I-00015J0D01*
G74*G01*
D01*
G75*
G03X03126I00015J0D01*
G74*G01*
Y04675D02*
D01*
D01*
G75*
G03X03095I-00015J0D01*
G74*G01*
D01*
G75*
G03X03126I00015J0D01*
G74*G01*
X04851Y06169D02*
D01*
D01*
G75*
G03X04825I-00013J0D01*
G74*G01*
D01*
G75*
G03X04851I00013J0D01*
G74*G01*
X04848Y05714D02*
D01*
D01*
G75*
G03X04822I-00013J0D01*
G74*G01*
D01*
G75*
G03X04848I00013J0D01*
G74*G01*
X04495Y03854D02*
D01*
D01*
G75*
G03X04448I-00023J0D01*
G74*G01*
D01*
G75*
G03X04495I00023J0D01*
G74*G01*
X04213Y05085D02*
D01*
D01*
G75*
G03X04191I-00010J0D01*
G74*G01*
D01*
G75*
G03X04213I00010J0D01*
G74*G01*
X0558Y06452D02*
Y06519D01*
X05577Y06522D02*
X0558Y06519D01*
X05378Y06522D02*
X05577D01*
X05376Y0652D02*
X05378Y06522D01*
X05376Y06455D02*
Y0652D01*
Y06455D02*
X05379Y06452D01*
X0558*
X05583Y06346D02*
Y06413D01*
X0558Y06416D02*
X05583Y06413D01*
X0538Y06416D02*
X0558D01*
X05378Y06414D02*
X0538Y06416D01*
X05378Y06349D02*
Y06414D01*
Y06349D02*
X05381Y06346D01*
X05583*
X02895Y05582D02*
Y06437D01*
X02657Y05582D02*
X02895D01*
X02654Y05583D02*
Y06437D01*
X02895*
X05589Y03573D02*
X05689D01*
X05589D02*
Y03873D01*
X05689*
Y03573D02*
Y03873D01*
X0291Y03751D02*
X03507D01*
X0291D02*
Y04407D01*
X03507*
Y03751D02*
Y04407D01*
X03502Y03751D02*
X03507D01*
X02639Y04432D02*
X02738D01*
X02639D02*
Y05021D01*
X02738*
Y04432D02*
Y05021D01*
X03932Y05211D02*
X04132D01*
X03932D02*
Y05313D01*
X04132*
Y05211D02*
Y05313D01*
X05665Y04833D02*
Y04896D01*
Y04833D02*
X05666D01*
X05155Y04824D02*
Y04824D01*
X05089Y04824D02*
X05155D01*
X05142Y06494D02*
Y06557D01*
X05142Y06589D02*
Y0665D01*
Y06589D02*
X05142D01*
X0514D02*
X05142D01*
X03755Y03265D02*
X04455D01*
X03072Y03601D02*
X03372D01*
X03755Y03265D02*
Y03465D01*
X04455*
Y03265D02*
Y03465D01*
X03311Y03247D02*
X03711D01*
X03311D02*
Y03347D01*
X03711*
Y03247D02*
Y03347D01*
X03072Y03601D02*
Y03701D01*
X03372*
Y03601D02*
Y03701D01*
X0472Y03869D02*
X04814Y03963D01*
X04767Y04011D02*
X04814Y03963D01*
X04672Y03916D02*
X04767Y04011D01*
X04672Y03916D02*
X0472Y03869D01*
X02967Y06451D02*
X03823D01*
X02967D02*
Y06688D01*
X02968Y06691D02*
X03823D01*
Y06451D02*
Y06691D01*
X0386Y06451D02*
X04715D01*
X0386D02*
Y06688D01*
X03861Y06691D02*
X04715D01*
Y06451D02*
Y06691D01*
X03062Y05595D02*
X03362D01*
X03062D02*
Y05695D01*
X03064Y05697*
X03362*
Y05595D02*
Y05697D01*
X02652Y05025D02*
X02892D01*
Y05581*
X02652Y05025D02*
Y05578D01*
X02655Y05581*
X02892*
X04797Y06191D02*
X05087D01*
Y05982D02*
Y06191D01*
X04797Y05983D02*
X05086D01*
X05087Y05982*
X04797Y05983D02*
Y06191D01*
X04794Y05737D02*
X05084D01*
Y05527D02*
Y05737D01*
X04794Y05528D02*
X05083D01*
X05084Y05527*
X04794Y05528D02*
Y05737D01*
X04432Y04701D02*
X04906Y04228D01*
X0397Y04239D02*
X04432Y04701D01*
X0397Y04239D02*
Y04234D01*
X04435Y03769*
X04446*
X04906Y04228*
X0418Y04954D02*
X0435D01*
X04179Y04955D02*
X0418Y04954D01*
X04179Y04955D02*
Y05119D01*
X0418Y0512*
X04349*
X0435Y05121*
Y04954D02*
Y05121D01*
X0595Y06501D02*
X05927D01*
Y06484*
X05938*
X05927*
Y06466*
X05962Y06501D02*
Y06466D01*
X05979*
X05985Y06472*
Y06495*
X05979Y06501*
X05962*
X0602Y06466D02*
X05997D01*
X0602Y06489*
Y06495*
X06014Y06501*
X06002*
X05997Y06495*
X05961Y03501D02*
X05938D01*
Y03484*
X05949*
X05938*
Y03466*
X05973Y03501D02*
Y03466D01*
X0599*
X05996Y03472*
Y03496*
X0599Y03501*
X05973*
X06008Y03496D02*
X06014Y03501D01*
X06025*
X06031Y03496*
Y0349*
X06025Y03484*
X06019*
X06025*
X06031Y03478*
Y03472*
X06025Y03466*
X06014*
X06008Y03472*
X04562Y05437D02*
X04539D01*
Y05419*
X04551*
X04539*
Y05402*
X04574Y05437D02*
Y05402D01*
X04591*
X04597Y05408*
Y05431*
X04591Y05437*
X04574*
X04609Y05402D02*
X04621D01*
X04615*
Y05437*
X04609Y05431*
X0567Y03621D02*
X0564D01*
Y03636*
X05645Y03641*
X05655*
X0566Y03636*
Y03621*
X0564Y03651D02*
Y03671D01*
X05645*
X05665Y03651*
X0567*
X03255Y04146D02*
X03245Y04156D01*
X03225*
X03215Y04146*
Y04136*
X03225Y04126*
X03245*
X03255Y04116*
Y04106*
X03245Y04096*
X03225*
X03215Y04106*
X03315Y04146D02*
X03305Y04156D01*
X03285*
X03275Y04146*
Y04106*
X03285Y04096*
X03305*
X03315Y04106*
X03335Y04096D02*
X03355D01*
X03345*
Y04156*
X03335Y04146*
X02712Y04545D02*
X02652D01*
Y04575*
X02662Y04585*
X02682*
X02692Y04575*
Y04545*
X02652Y04645D02*
X02662Y04625D01*
X02682Y04605*
X02702*
X02712Y04615*
Y04635*
X02702Y04645*
X02692*
X02682Y04635*
Y04605*
X03949Y0523D02*
Y0526D01*
X03964*
X03969Y05255*
Y05245*
X03964Y0524*
X03949*
X03999Y0526D02*
X03979D01*
Y05245*
X03989Y0525*
X03994*
X03999Y05245*
Y05235*
X03994Y0523*
X03984*
X03979Y05235*
X03838Y0334D02*
Y034D01*
X03868*
X03878Y0339*
Y0337*
X03868Y0336*
X03838*
X03938Y0334D02*
X03898D01*
X03938Y0338*
Y0339*
X03928Y034*
X03908*
X03898Y0339*
X03348Y03259D02*
Y03319D01*
X03378*
X03388Y03309*
Y03289*
X03378Y03279*
X03348*
X03408Y03309D02*
X03418Y03319D01*
X03438*
X03448Y03309*
Y03299*
X03438Y03289*
X03428*
X03438*
X03448Y03279*
Y03269*
X03438Y03259*
X03418*
X03408Y03269*
X03333Y03497D02*
Y03468D01*
X03339Y03462*
X0335*
X03356Y03468*
Y03497*
X03368Y03462D02*
X0338D01*
X03374*
Y03497*
X03368Y03491*
X03397D02*
X03403Y03497D01*
X03415*
X0342Y03491*
Y03468*
X03415Y03462*
X03403*
X03397Y03468*
Y03491*
X031Y03625D02*
Y03685D01*
X0313*
X0314Y03675*
Y03655*
X0313Y03645*
X031*
X0316Y03625D02*
X0318D01*
X0317*
Y03685*
X0316Y03675*
G54D52*
X04619Y05134D02*
X0465D01*
X04523D02*
X04555D01*
X04521Y05132D02*
X04523Y05134D01*
X04555D02*
X04619D01*
X04521Y04943D02*
Y05132D01*
X0465Y05134D02*
X04652Y05132D01*
Y04945D02*
Y05132D01*
X0465Y04943D02*
X04652Y04945D01*
X04521Y04943D02*
X0465D01*
G54D74*
X04672Y03916D02*
X0472Y03869D01*
X04814Y03963*
X04767Y04011D02*
X04814Y03963D01*
X04672Y03916D02*
X04767Y04011D01*
G54D77*
X04521Y0349D02*
X04643D01*
X04519Y03424D02*
Y03488D01*
Y03424D02*
X04641D01*
X04643Y03426*
Y0349*
X04668Y03491D02*
X0479D01*
X04666Y03425D02*
Y03489D01*
Y03425D02*
X04788D01*
X0479Y03427*
Y03491*
X04772Y0339D02*
X04824D01*
X04772Y0327D02*
Y0339D01*
Y0327D02*
X04824D01*
Y0339*
X04598Y03232D02*
X04733D01*
X04596Y03234D02*
Y03406D01*
X04597Y03407D02*
X04732D01*
X04733Y03232D02*
Y03406D01*
X02687Y03677D02*
Y03741D01*
X02689Y03743*
X02811*
Y03679D02*
Y03743D01*
X02687Y03677D02*
X02809D01*
X0555Y04832D02*
Y049D01*
X05681*
X0555Y04832D02*
X05681D01*
X05554Y04811D02*
X05676D01*
X05552Y04745D02*
Y04809D01*
Y04745D02*
X05674D01*
X05676Y04747*
Y04811*
X05564Y04605D02*
Y04657D01*
Y04605D02*
X05684D01*
Y04657*
X05564D02*
X05684D01*
X0567Y04526D02*
Y04579D01*
X05562Y04578D02*
X05682D01*
Y04525D02*
Y04578D01*
X05562Y04525D02*
X05682D01*
X05562D02*
Y04578D01*
X05236Y04757D02*
Y04888D01*
X05168Y04757D02*
Y04888D01*
Y04757D02*
X05236D01*
X05169Y04731D02*
X05233D01*
X05235Y04729*
Y04607D02*
Y04729D01*
X05171Y04607D02*
X05235D01*
X05169Y04609D02*
Y04731D01*
X05121Y05517D02*
Y05637D01*
X05173*
Y05517D02*
Y05637D01*
X05121Y05517D02*
X05173D01*
X05207Y05512D02*
X05259D01*
Y05632*
X05207D02*
X05259D01*
X05207Y05512D02*
Y05632D01*
X05206Y0562D02*
X05258D01*
X04737Y05538D02*
Y05602D01*
X04735Y05537D02*
X04737Y05538D01*
X04613Y05537D02*
X04735D01*
X04613D02*
Y056D01*
X04615Y05602D02*
X04737D01*
X04748Y05991D02*
Y06055D01*
X04746Y05989D02*
X04748Y05991D01*
X04624Y05989D02*
X04746D01*
X04624D02*
Y06053D01*
X04626Y06055D02*
X04748D01*
X05121Y06116D02*
X05241D01*
X05121D02*
Y06168D01*
X05241*
Y06116D02*
Y06168D01*
X05124Y05968D02*
Y06088D01*
X05176*
Y05968D02*
Y06088D01*
X05124Y05968D02*
X05176D01*
X04928Y04375D02*
X05049D01*
Y04322*
X04928D02*
X05049D01*
X04928D02*
Y04375D01*
X04933Y04301D02*
X04986D01*
X04933Y04181D02*
Y04301D01*
Y04181D02*
X04986D01*
Y04301*
X04934Y04193D02*
X04987D01*
X0491Y04175D02*
Y04295D01*
X04858Y04175D02*
X0491D01*
X04858D02*
Y04295D01*
X0491*
X05538Y04025D02*
X05602D01*
X05537Y04027D02*
X05538Y04025D01*
X05537Y04027D02*
Y04149D01*
X056*
X05602Y04025D02*
Y04147D01*
X05453Y03978D02*
X05517D01*
X05451Y0398D02*
X05453Y03978D01*
X05451Y0398D02*
Y04102D01*
X05515*
X05517Y03978D02*
Y041D01*
X04776Y03897D02*
X04862Y03813D01*
X04826Y03776D02*
X04862Y03813D01*
X0474Y03859D02*
X04826Y03776D01*
X0474Y03859D02*
X04776Y03897D01*
X04829Y03942D02*
X04914Y03857D01*
X04877Y0382D02*
X04914Y03857D01*
X04792Y03905D02*
X04877Y0382D01*
X04792Y03905D02*
X04829Y03942D01*
X04992Y03688D02*
X05112D01*
X04992D02*
Y0374D01*
X05112*
Y03688D02*
Y0374D01*
X05059Y03385D02*
Y0368D01*
X04842Y03385D02*
X05059D01*
X04842D02*
Y0368D01*
X05059*
X04951Y03513D02*
Y03552D01*
X04931Y03533D02*
X04971D01*
X0478Y03619D02*
X04844D01*
X04778Y03621D02*
X0478Y03619D01*
X04778Y03621D02*
Y03743D01*
X04842*
X04844Y03619D02*
Y03741D01*
X05493Y03378D02*
X05557D01*
X05559Y03376*
Y03254D02*
Y03376D01*
X05495Y03254D02*
X05559D01*
X05493Y03256D02*
Y03378D01*
X04902Y03324D02*
X05023D01*
X04902D02*
Y03376D01*
X05023*
Y03324D02*
Y03376D01*
X05026Y03259D02*
Y03311D01*
X04906D02*
X05026D01*
X04906Y03259D02*
Y03311D01*
Y03259D02*
X05026D01*
X04917Y03258D02*
Y0331D01*
X04976Y03692D02*
Y03812D01*
X04924Y03692D02*
X04976D01*
X04924D02*
Y03812D01*
X04976*
X06163Y03661D02*
Y06273D01*
X05762D02*
X06163D01*
X05762Y03661D02*
Y06273D01*
Y03661D02*
X06163D01*
X04215Y05933D02*
Y06053D01*
X04267*
Y05933D02*
Y06053D01*
X04215Y05933D02*
X04267D01*
X03116Y03441D02*
X0318D01*
X03114Y03443D02*
X03116Y03441D01*
X03114Y03443D02*
Y03565D01*
X03178*
X0318Y03441D02*
Y03563D01*
X03433Y05448D02*
X03497D01*
X03499Y05446*
Y05324D02*
Y05446D01*
X03435Y05324D02*
X03499D01*
X03433Y05326D02*
Y05448D01*
X03169Y05149D02*
Y05201D01*
Y05149D02*
X03289D01*
Y05201*
X03169D02*
X03289D01*
X03277Y0515D02*
Y05202D01*
X03191Y03449D02*
Y03569D01*
X03244*
Y03449D02*
Y03569D01*
X03191Y03449D02*
X03244D01*
X03179Y04769D02*
X03299D01*
Y04716D02*
Y04769D01*
X03179Y04716D02*
X03299D01*
X03179D02*
Y04769D01*
X04162Y04803D02*
Y04923D01*
X04214*
Y04803D02*
Y04923D01*
X04162Y04803D02*
X04214D01*
X03675Y05936D02*
Y06056D01*
X03727*
Y05936D02*
Y06056D01*
X03675Y05936D02*
X03727D01*
X03907Y03895D02*
Y04015D01*
X03959*
Y03895D02*
Y04015D01*
X03907Y03895D02*
X03959D01*
X03177Y04782D02*
Y04834D01*
Y04782D02*
X03297D01*
Y04834*
X03177D02*
X03297D01*
X03285Y04783D02*
Y04835D01*
X03207Y05504D02*
X03327D01*
Y05452D02*
Y05504D01*
X03207Y05452D02*
X03327D01*
X03207D02*
Y05504D01*
X03175Y05132D02*
X03295D01*
Y0508D02*
Y05132D01*
X03175Y0508D02*
X03295D01*
X03175D02*
Y05132D01*
X03433Y04717D02*
X03497D01*
X03499Y04715*
Y04593D02*
Y04715D01*
X03435Y04593D02*
X03499D01*
X03433Y04595D02*
Y04717D01*
Y05077D02*
X03497D01*
X03499Y05075*
Y04953D02*
Y05075D01*
X03435Y04953D02*
X03499D01*
X03433Y04955D02*
Y05077D01*
X05005Y03829D02*
Y03943D01*
X05056*
Y03829D02*
Y03943D01*
X05005Y03829D02*
X05056D01*
X03986Y05001D02*
Y05065D01*
X03988Y05067*
X0411*
Y05003D02*
Y05067D01*
X03986Y05001D02*
X04108D01*
X03328Y06398D02*
X03392D01*
X03394Y06396*
Y06274D02*
Y06396D01*
X0333Y06274D02*
X03394D01*
X03328Y06276D02*
Y06398D01*
X03328Y05936D02*
Y06056D01*
X0338*
Y05936D02*
Y06056D01*
X03328Y05936D02*
X0338D01*
X0424Y04795D02*
X04304D01*
X04238Y04797D02*
X0424Y04795D01*
X04238Y04797D02*
Y04919D01*
X04302*
X04304Y04795D02*
Y04917D01*
X03199Y0552D02*
Y05572D01*
Y0552D02*
X03319D01*
Y05572*
X03199D02*
X03319D01*
X03308Y05521D02*
Y05573D01*
X04323Y04798D02*
Y04918D01*
X04375*
Y04798D02*
Y04918D01*
X04323Y04798D02*
X04375D01*
X03522Y05907D02*
Y06082D01*
X03387Y06083D02*
X03521D01*
X03386Y05909D02*
Y06082D01*
X03388Y05907D02*
X03522D01*
X04225Y06393D02*
X04289D01*
X04291Y06391*
Y06269D02*
Y06391D01*
X04227Y06269D02*
X04291D01*
X04225Y06271D02*
Y06393D01*
X04133Y06054D02*
X04197D01*
X04199Y06052*
Y0593D02*
Y06052D01*
X04135Y0593D02*
X04199D01*
X04133Y05932D02*
Y06054D01*
X03598Y06053D02*
X03662D01*
X03664Y06051*
Y05929D02*
Y06051D01*
X036Y05929D02*
X03664D01*
X03598Y05931D02*
Y06053D01*
X03991Y03854D02*
X04111D01*
Y03801D02*
Y03854D01*
X03991Y03801D02*
X04111D01*
X03991D02*
Y03854D01*
X03242Y06053D02*
X03306D01*
X03308Y06051*
Y05929D02*
Y06051D01*
X03244Y05929D02*
X03308D01*
X03242Y05931D02*
Y06053D01*
X04275Y06102D02*
Y06166D01*
X04277Y06168*
X04399*
Y06104D02*
Y06168D01*
X04275Y06102D02*
X04397D01*
X03986Y05093D02*
Y05157D01*
X03988Y05159*
X0411*
Y05095D02*
Y05159D01*
X03986Y05093D02*
X04108D01*
X03736Y06101D02*
Y06165D01*
X03738Y06167*
X0386*
Y06103D02*
Y06167D01*
X03736Y06101D02*
X03858D01*
X03866Y05907D02*
Y06082D01*
X0373Y06083D02*
X03865D01*
X03729Y05909D02*
Y06082D01*
X03731Y05907D02*
X03866D01*
X04112Y04021D02*
Y03883D01*
X03999D02*
X04112D01*
X03999D02*
Y04021D01*
X04112*
X03077Y06268D02*
X03141D01*
X03075Y0627D02*
X03077Y06268D01*
X03075Y0627D02*
Y06392D01*
X03139*
X03141Y06268D02*
Y0639D01*
X03391Y06099D02*
Y06163D01*
X03393Y06165*
X03515*
Y06101D02*
Y06165D01*
X03391Y06099D02*
X03513D01*
X03449Y06268D02*
X03513D01*
X03447Y0627D02*
X03449Y06268D01*
X03447Y0627D02*
Y06392D01*
X03511*
X03513Y06268D02*
Y0639D01*
X04066Y06265D02*
X0413D01*
X04064Y06267D02*
X04066Y06265D01*
X04064Y06267D02*
Y06389D01*
X04128*
X0413Y06265D02*
Y06387D01*
X04315Y06268D02*
X04379D01*
X04313Y0627D02*
X04315Y06268D01*
X04313Y0627D02*
Y06392D01*
X04377*
X04379Y06268D02*
Y0639D01*
X03099Y06009D02*
Y06073D01*
X03097Y06007D02*
X03099Y06009D01*
X02975Y06007D02*
X03097D01*
X02975D02*
Y06071D01*
X02976Y06073D02*
X03099D01*
X02975Y05886D02*
Y0595D01*
X02976Y05952*
X03099*
Y05888D02*
Y05952D01*
X02975Y05886D02*
X03097D01*
X03093Y05725D02*
Y05789D01*
X03091Y05724D02*
X03093Y05725D01*
X02969Y05724D02*
X03091D01*
X02969D02*
Y05787D01*
X02971Y05789D02*
X03093D01*
X02873Y05553D02*
Y05617D01*
X02875Y05619*
X02997*
Y05555D02*
Y05619D01*
X02873Y05553D02*
X02995D01*
X04878Y06588D02*
Y06652D01*
X0488Y06654*
X05002*
Y0659D02*
Y06654D01*
X04878Y06588D02*
X05D01*
X05029Y06586D02*
X0516D01*
X05029Y06654D02*
X0516D01*
X05029Y06586D02*
Y06654D01*
X04155Y05671D02*
X04219D01*
X04153Y05673D02*
X04155Y05671D01*
X04153Y05673D02*
Y05795D01*
X04217*
X04219Y05671D02*
Y05793D01*
X04406Y05908D02*
Y06082D01*
X0427Y06083D02*
X04405D01*
X04269Y0591D02*
Y06082D01*
X04271Y05908D02*
X04406D01*
X03971Y05487D02*
X04035D01*
X04037Y05485*
Y05363D02*
Y05485D01*
X03973Y05363D02*
X04037D01*
X03971Y05365D02*
Y05487D01*
X03445Y0573D02*
Y05794D01*
X03447Y05796*
X03569*
Y05732D02*
Y05796D01*
X03445Y0573D02*
X03567D01*
X0345Y05695D02*
X0357D01*
Y05642D02*
Y05695D01*
X0345Y05642D02*
X0357D01*
X0345D02*
Y05695D01*
X03404Y04857D02*
Y05068D01*
X03061D02*
X03404D01*
X03061Y04857D02*
Y05068D01*
Y04857D02*
X03404D01*
X03406Y05225D02*
Y05436D01*
X03062D02*
X03406D01*
X03062Y05225D02*
Y05436D01*
Y05225D02*
X03406D01*
Y04494D02*
Y04705D01*
X03062D02*
X03406D01*
X03062Y04494D02*
Y04705D01*
Y04494D02*
X03406D01*
X03022Y04714D02*
Y04778D01*
X03024Y0478*
X03146*
Y04716D02*
Y0478D01*
X03022Y04714D02*
X03144D01*
X0302Y05073D02*
Y05137D01*
X03022Y05139*
X03144*
Y05075D02*
Y05139D01*
X0302Y05073D02*
X03142D01*
X02987Y0544D02*
Y05504D01*
X02989Y05506*
X03111*
Y05442D02*
Y05506D01*
X02987Y0544D02*
X03109D01*
X0521Y05962D02*
X05262D01*
Y06082*
X0521D02*
X05262D01*
X0521Y05962D02*
Y06082D01*
X05209Y06071D02*
X05262D01*
X0513Y0566D02*
X0525D01*
X0513D02*
Y05712D01*
X0525*
Y0566D02*
Y05712D01*
X03746Y04312D02*
X0381D01*
X03744Y04314D02*
X03746Y04312D01*
X03744Y04314D02*
Y04436D01*
X03808*
X0381Y04312D02*
Y04434D01*
X03838Y04315D02*
X03902D01*
X03836Y04317D02*
X03838Y04315D01*
X03836Y04317D02*
Y04439D01*
X039*
X03902Y04315D02*
Y04437D01*
X05761Y03661D02*
X06167D01*
X05761D02*
Y06273D01*
X06167*
Y03661D02*
Y06273D01*
X03369Y03433D02*
X03409D01*
X03389Y03413D02*
Y03453D01*
X03181Y03269D02*
Y03389D01*
X03233*
Y03269D02*
Y03389D01*
X03181Y03269D02*
X03233D01*
X03011Y0327D02*
X03075D01*
X03009Y03272D02*
X03011Y0327D01*
X03009Y03272D02*
Y03394D01*
X03073*
X03075Y0327D02*
Y03392D01*
X03108Y03269D02*
X03161D01*
Y03389*
X03108D02*
X03161D01*
X03108Y03269D02*
Y03389D01*
X03107Y03378D02*
X0316D01*
X04771Y04923D02*
Y05043D01*
X04719Y04923D02*
X04771D01*
X04719D02*
Y05043D01*
X04771*
X04263Y05317D02*
X04327D01*
X04329Y05315*
Y05193D02*
Y05315D01*
X04265Y05193D02*
X04329D01*
X04263Y05195D02*
Y05317D01*
X04176Y05318D02*
X0424D01*
X04242Y05316*
Y05194D02*
Y05316D01*
X04178Y05194D02*
X04242D01*
X04176Y05196D02*
Y05318D01*
X04486Y0591D02*
Y0603D01*
X04434Y0591D02*
X04486D01*
X04434D02*
Y0603D01*
X04486*
X03932Y05912D02*
Y06032D01*
X03879Y05912D02*
X03932D01*
X03879D02*
Y06032D01*
X03932*
X03578Y05913D02*
Y06033D01*
X03526Y05913D02*
X03578D01*
X03526D02*
Y06033D01*
X03578*
X04522Y03455D02*
Y03475D01*
X04532*
X04535Y03472*
Y03465*
X04532Y03462*
X04522*
X04528D02*
X04535Y03455D01*
X04555D02*
X04542D01*
X04555Y03468*
Y03472*
X04551Y03475*
X04545*
X04542Y03472*
X04561Y03475D02*
X04574D01*
Y03472*
X04561Y03459*
Y03455*
X0467Y03456D02*
Y03476D01*
X04679*
X04683Y03473*
Y03466*
X04679Y03463*
X0467*
X04676D02*
X04683Y03456D01*
X04689Y03473D02*
X04693Y03476D01*
X04699*
X04702Y03473*
Y03469*
X04699Y03466*
X04696*
X04699*
X04702Y03463*
Y03459*
X04699Y03456*
X04693*
X04689Y03459*
X04722Y03476D02*
X04715Y03473D01*
X04709Y03466*
Y03459*
X04712Y03456*
X04719*
X04722Y03459*
Y03463*
X04719Y03466*
X04709*
X04784Y03293D02*
X04781Y0329D01*
Y03283*
X04784Y0328*
X04797*
X048Y03283*
Y0329*
X04797Y03293*
X04781Y03313D02*
Y033D01*
X04791*
X04787Y03306*
Y0331*
X04791Y03313*
X04797*
X048Y0331*
Y03303*
X04797Y033*
X04784Y03319D02*
X04781Y03323D01*
Y03329*
X04784Y03332*
X04787*
X04791Y03329*
X04794Y03332*
X04797*
X048Y03329*
Y03323*
X04797Y03319*
X04794*
X04791Y03323*
X04787Y03319*
X04784*
X04791Y03323D02*
Y03329D01*
X0468Y03395D02*
X04664D01*
X04661Y03391*
Y03385*
X04664Y03381*
X0468*
X04661Y03375D02*
Y03368D01*
Y03372*
X0468*
X04677Y03375*
X04661Y03345D02*
Y03359D01*
X04674Y03345*
X04677*
X0468Y03349*
Y03355*
X04677Y03359*
X05389Y06502D02*
X05376D01*
Y06493*
X05382*
X05376*
Y06483*
X05408D02*
X05395D01*
X05408Y06496*
Y06499*
X05405Y06502*
X05399*
X05395Y06499*
X05392Y06397D02*
X05378D01*
Y06387*
X05385*
X05378*
Y06377*
X05398D02*
X05405D01*
X05401*
Y06397*
X05398Y06393*
X02832Y06392D02*
X02845D01*
X02838Y06399D02*
Y06386D01*
X02851Y06402D02*
X02865D01*
Y06399*
X02851Y06386*
Y06383*
X02865*
X02714Y037D02*
Y03719D01*
X02724*
X02727Y03716*
Y03709*
X02724Y03706*
X02714*
X02721D02*
X02727Y037D01*
X02734Y03716D02*
X02737Y03719D01*
X02744*
X02747Y03716*
Y03713*
X02744Y03709*
X0274*
X02744*
X02747Y03706*
Y03703*
X02744Y037*
X02737*
X02734Y03703*
X02753Y03716D02*
X02757Y03719D01*
X02763*
X02767Y03716*
Y03713*
X02763Y03709*
X0276*
X02763*
X02767Y03706*
Y03703*
X02763Y037*
X02757*
X02753Y03703*
X05572Y04884D02*
Y04864D01*
X05582*
X05585Y04867*
Y0488*
X05582Y04884*
X05572*
X05602Y04864D02*
Y04884D01*
X05592Y04874*
X05605*
X05572Y04775D02*
Y04795D01*
X05581*
X05585Y04791*
Y04785*
X05581Y04782*
X05572*
X05578D02*
X05585Y04775D01*
X05601D02*
Y04795D01*
X05591Y04785*
X05604*
X05611Y04795D02*
X05624D01*
Y04791*
X05611Y04778*
Y04775*
X05599Y04635D02*
X05596Y04638D01*
X05589*
X05586Y04635*
Y04622*
X05589Y04619*
X05596*
X05599Y04622*
X05619Y04638D02*
X05606D01*
Y04629*
X05612Y04632*
X05616*
X05619Y04629*
Y04622*
X05616Y04619*
X05609*
X05606Y04622*
X05635Y04619D02*
Y04638D01*
X05625Y04629*
X05639*
X05584Y04558D02*
X05581Y04561D01*
X05574*
X05571Y04558*
Y04545*
X05574Y04542*
X05581*
X05584Y04545*
X05604Y04561D02*
X05591D01*
Y04551*
X05597Y04555*
X05601*
X05604Y04551*
Y04545*
X05601Y04542*
X05594*
X05591Y04545*
X05624Y04561D02*
X05611D01*
Y04551*
X05617Y04555*
X0562*
X05624Y04551*
Y04545*
X0562Y04542*
X05614*
X05611Y04545*
X05182Y04768D02*
X05202D01*
Y04778*
X05199Y04781*
X05185*
X05182Y04778*
Y04768*
X05185Y04788D02*
X05182Y04791D01*
Y04798*
X05185Y04801*
X05189*
X05192Y04798*
Y04794*
Y04798*
X05195Y04801*
X05199*
X05202Y04798*
Y04791*
X05199Y04788*
X05205Y04623D02*
X05185D01*
Y04633*
X05189Y04636*
X05195*
X05198Y04633*
Y04623*
Y04629D02*
X05205Y04636D01*
Y04656D02*
Y04642D01*
X05192Y04656*
X05189*
X05185Y04652*
Y04646*
X05189Y04642*
Y04662D02*
X05185Y04665D01*
Y04672*
X05189Y04675*
X05192*
X05195Y04672*
X05198Y04675*
X05202*
X05205Y04672*
Y04665*
X05202Y04662*
X05198*
X05195Y04665*
X05192Y04662*
X05189*
X05195Y04665D02*
Y04672D01*
X05161Y05615D02*
X05164Y05618D01*
Y05624*
X05161Y05628*
X05148*
X05145Y05624*
Y05618*
X05148Y05615*
X05145Y05608D02*
Y05601D01*
Y05605*
X05164*
X05161Y05608*
X05164Y05578D02*
Y05592D01*
X05154*
X05158Y05585*
Y05582*
X05154Y05578*
X05148*
X05145Y05582*
Y05588*
X05148Y05592*
X0524Y05587D02*
X05243Y0559D01*
Y05597*
X0524Y056*
X05227*
X05224Y05597*
Y0559*
X05227Y05587*
X05224Y05581D02*
Y05574D01*
Y05577*
X05243*
X0524Y05581*
Y05564D02*
X05243Y05561D01*
Y05554*
X0524Y05551*
X05237*
X05233Y05554*
Y05558*
Y05554*
X0523Y05551*
X05227*
X05224Y05554*
Y05561*
X05227Y05564*
X04642Y05566D02*
Y05586D01*
X04651*
X04655Y05582*
Y05576*
X04651Y05573*
X04642*
X04648D02*
X04655Y05566D01*
X04661D02*
X04668D01*
X04665*
Y05586*
X04661Y05582*
X04678Y05586D02*
X04691D01*
Y05582*
X04678Y05569*
Y05566*
X0464Y06019D02*
Y06039D01*
X0465*
X04654Y06036*
Y06029*
X0465Y06026*
X0464*
X04647D02*
X04654Y06019D01*
X0466D02*
X04667D01*
X04663*
Y06039*
X0466Y06036*
X0469Y06039D02*
X04683Y06036D01*
X04677Y06029*
Y06022*
X0468Y06019*
X04686*
X0469Y06022*
Y06026*
X04686Y06029*
X04677*
X05144Y06156D02*
X05141Y06159D01*
X05134*
X05131Y06156*
Y06143*
X05134Y06139*
X05141*
X05144Y06143*
X05151Y06139D02*
X05157D01*
X05154*
Y06159*
X05151Y06156*
X05167D02*
X05171Y06159D01*
X05177*
X0518Y06156*
Y06153*
X05177Y06149*
X0518Y06146*
Y06143*
X05177Y06139*
X05171*
X05167Y06143*
Y06146*
X05171Y06149*
X05167Y06153*
Y06156*
X05171Y06149D02*
X05177D01*
X05161Y06052D02*
X05164Y06055D01*
Y06062*
X05161Y06065*
X05148*
X05145Y06062*
Y06055*
X05148Y06052*
X05145Y06046D02*
Y06039D01*
Y06042*
X05164*
X05161Y06046*
X05164Y06016D02*
X05161Y06023D01*
X05155Y06029*
X05148*
X05145Y06026*
Y06019*
X05148Y06016*
X05151*
X05155Y06019*
Y06029*
X04967Y04355D02*
X04964Y04359D01*
X04958*
X04954Y04355*
Y04342*
X04958Y04339*
X04964*
X04967Y04342*
X04987Y04339D02*
X04974D01*
X04987Y04352*
Y04355*
X04984Y04359*
X04977*
X04974Y04355*
X04994D02*
X04997Y04359D01*
X05003*
X05007Y04355*
Y04352*
X05003Y04349*
X05007Y04345*
Y04342*
X05003Y04339*
X04997*
X04994Y04342*
Y04345*
X04997Y04349*
X04994Y04352*
Y04355*
X04997Y04349D02*
X05003D01*
X04946Y04222D02*
X04943Y04218D01*
Y04212*
X04946Y04209*
X04959*
X04962Y04212*
Y04218*
X04959Y04222*
X04962Y04238D02*
X04943D01*
X04953Y04228*
Y04241*
X04946Y04248D02*
X04943Y04251D01*
Y04258*
X04946Y04261*
X04959*
X04962Y04258*
Y04251*
X04959Y04248*
X04946*
X0488Y04126D02*
X04876Y04123D01*
Y04117*
X0488Y04113*
X04893*
X04896Y04117*
Y04123*
X04893Y04126*
X04896Y04146D02*
Y04133D01*
X04883Y04146*
X0488*
X04876Y04143*
Y04136*
X0488Y04133*
X04896Y04166D02*
Y04153D01*
X04883Y04166*
X0488*
X04876Y04162*
Y04156*
X0488Y04153*
X05562Y04134D02*
X05581D01*
Y04124*
X05578Y04121*
X05572*
X05568Y04124*
Y04134*
Y04127D02*
X05562Y04121D01*
Y04101D02*
Y04114D01*
X05575Y04101*
X05578*
X05581Y04104*
Y04111*
X05578Y04114*
X05562Y04081D02*
Y04094D01*
X05575Y04081*
X05578*
X05581Y04085*
Y04091*
X05578Y04094*
X05472Y04084D02*
X05492D01*
Y04074*
X05488Y04071*
X05482*
X05479Y04074*
Y04084*
Y04078D02*
X05472Y04071D01*
Y04051D02*
Y04064D01*
X05485Y04051*
X05488*
X05492Y04055*
Y04061*
X05488Y04064*
Y04045D02*
X05492Y04042D01*
Y04035*
X05488Y04032*
X05485*
X05482Y04035*
Y04038*
Y04035*
X05479Y04032*
X05475*
X05472Y04035*
Y04042*
X05475Y04045*
X04696Y03906D02*
X04698Y03904D01*
X04707*
Y03913*
X04705Y03916*
X04707Y03904D02*
X04714Y03897D01*
X04733Y03916D02*
X04724Y03906D01*
Y03925*
X04721Y03927*
X04717*
X04712Y03922*
Y03918*
X04818Y038D02*
X04818Y03796D01*
X04823Y03791*
X04827Y03791*
X04836Y03801*
X04836Y03805*
X04832Y0381*
X04827Y0381*
X04813Y03805D02*
X04808Y03805D01*
X04804Y03809*
X04804Y03814*
X04806Y03816*
X04811Y03816*
X04813Y03814*
X04811Y03816*
X04811Y03821*
X04813Y03823*
X04817Y03824*
X04822Y03819*
X04822Y03814*
X04787Y03825D02*
X04794Y03823D01*
X04804Y03823*
X04808Y03828*
X04808Y03833*
X04803Y03837*
X04799Y03837*
X04796Y03835*
X04796Y0383*
X04804Y03823*
X04869Y03845D02*
Y03841D01*
X04874Y03836*
X04878*
X04888Y03845*
Y0385*
X04883Y03855*
X04878*
X04869Y03868D02*
X04855Y03855D01*
X04869*
X0486Y03864*
X04853Y03885D02*
X04862Y03875D01*
X04843*
X04841Y03873*
Y03868*
X04846Y03864*
X0485*
X05015Y03728D02*
X05012Y03732D01*
X05005*
X05002Y03728*
Y03715*
X05005Y03712*
X05012*
X05015Y03715*
X05021Y03728D02*
X05025Y03732D01*
X05031*
X05034Y03728*
Y03725*
X05031Y03722*
X05028*
X05031*
X05034Y03718*
Y03715*
X05031Y03712*
X05025*
X05021Y03715*
X05041D02*
X05044Y03712D01*
X05051*
X05054Y03715*
Y03728*
X05051Y03732*
X05044*
X05041Y03728*
Y03725*
X05044Y03722*
X05054*
X04943Y03435D02*
X0496D01*
X04963Y03438*
Y03445*
X0496Y03448*
X04943*
X04963Y03455D02*
Y03461D01*
Y03458*
X04943*
X04946Y03455*
X04963Y03471D02*
Y03478D01*
Y03474*
X04943*
X04946Y03471*
X04827Y03699D02*
Y03706D01*
Y03703*
X0481*
X04807Y03706*
Y03709*
X0481Y03712*
X04804Y03693D02*
Y0368D01*
X04827Y03673D02*
X04814D01*
X04807Y03667*
X04814Y0366*
X04827*
X04807Y03644D02*
X04827D01*
X04817Y03653*
Y0364*
X05515Y03282D02*
Y03275D01*
Y03279*
X05531*
X05535Y03275*
Y03272*
X05531Y03269*
X05538Y03288D02*
Y03302D01*
X05515Y03308D02*
X05528D01*
X05535Y03315*
X05528Y03321*
X05515*
Y03341D02*
X05518Y03334D01*
X05525Y03328*
X05531*
X05535Y03331*
Y03338*
X05531Y03341*
X05528*
X05525Y03338*
Y03328*
X04925Y03364D02*
X04922Y03367D01*
X04916*
X04912Y03364*
Y03351*
X04916Y03348*
X04922*
X04925Y03351*
X04932Y03364D02*
X04935Y03367D01*
X04942*
X04945Y03364*
Y03361*
X04942Y03358*
X04939*
X04942*
X04945Y03354*
Y03351*
X04942Y03348*
X04935*
X04932Y03351*
X04952Y03364D02*
X04955Y03367D01*
X04961*
X04965Y03364*
Y03361*
X04961Y03358*
X04965Y03354*
Y03351*
X04961Y03348*
X04955*
X04952Y03351*
Y03354*
X04955Y03358*
X04952Y03361*
Y03364*
X04955Y03358D02*
X04961D01*
X04949Y03295D02*
X04946Y03298D01*
X04939*
X04936Y03295*
Y03282*
X04939Y03279*
X04946*
X04949Y03282*
X04956Y03295D02*
X04959Y03298D01*
X04965*
X04969Y03295*
Y03292*
X04965Y03288*
X04962*
X04965*
X04969Y03285*
Y03282*
X04965Y03279*
X04959*
X04956Y03282*
X04975Y03298D02*
X04988D01*
Y03295*
X04975Y03282*
Y03279*
X04936Y03715D02*
X04933Y03712D01*
Y03705*
X04936Y03702*
X0495*
X04953Y03705*
Y03712*
X0495Y03715*
X04936Y03721D02*
X04933Y03725D01*
Y03731*
X04936Y03734*
X0494*
X04943Y03731*
Y03728*
Y03731*
X04946Y03734*
X0495*
X04953Y03731*
Y03725*
X0495Y03721*
X04936Y03741D02*
X04933Y03744D01*
Y03751*
X04936Y03754*
X0494*
X04943Y03751*
Y03748*
Y03751*
X04946Y03754*
X0495*
X04953Y03751*
Y03744*
X0495Y03741*
X05827Y05646D02*
X0586D01*
X05866Y05652*
Y05665*
X0586Y05672*
X05827*
X05866Y05685D02*
Y05698D01*
Y05691*
X05827*
X05834Y05685*
X05827Y05744D02*
X05834Y05731D01*
X05847Y05718*
X0586*
X05866Y05724*
Y05737*
X0586Y05744*
X05853*
X05847Y05737*
Y05718*
X04252Y05988D02*
X04255Y05992D01*
Y05998*
X04252Y06001*
X04239*
X04236Y05998*
Y05992*
X04239Y05988*
X04236Y05982D02*
Y05975D01*
Y05979*
X04255*
X04252Y05982*
X03141Y03535D02*
X03161D01*
Y03525*
X03158Y03521*
X03151*
X03148Y03525*
Y03535*
Y03528D02*
X03141Y03521D01*
Y03515D02*
Y03508D01*
Y03512*
X03161*
X03158Y03515*
Y03498D02*
X03161Y03495D01*
Y03489*
X03158Y03485*
X03154*
X03151Y03489*
X03148Y03485*
X03145*
X03141Y03489*
Y03495*
X03145Y03498*
X03148*
X03151Y03495*
X03154Y03498*
X03158*
X03151Y03495D02*
Y03489D01*
X03466Y05339D02*
X03446D01*
Y05349*
X0345Y05352*
X03456*
X03459Y05349*
Y05339*
Y05346D02*
X03466Y05352D01*
X0345Y05359D02*
X03446Y05362D01*
Y05369*
X0345Y05372*
X03453*
X03456Y05369*
Y05366*
Y05369*
X03459Y05372*
X03463*
X03466Y05369*
Y05362*
X03463Y05359*
X03446Y05392D02*
Y05379D01*
X03456*
X03453Y05385*
Y05388*
X03456Y05392*
X03463*
X03466Y05388*
Y05382*
X03463Y05379*
X03234Y05169D02*
X03238Y05165D01*
X03244*
X03248Y05169*
Y05182*
X03244Y05185*
X03238*
X03234Y05182*
X03218Y05185D02*
Y05165D01*
X03228Y05175*
X03215*
X03198Y05185D02*
Y05165D01*
X03208Y05175*
X03195*
X0323Y03532D02*
X03233Y03536D01*
Y03542*
X0323Y03546*
X03217*
X03213Y03542*
Y03536*
X03217Y03532*
X03213Y03513D02*
Y03526D01*
X03226Y03513*
X0323*
X03233Y03516*
Y03523*
X0323Y03526*
Y03506D02*
X03233Y03503D01*
Y03496*
X0323Y03493*
X03217*
X03213Y03496*
Y03503*
X03217Y03506*
X0323*
X03251Y04733D02*
X03255Y0473D01*
X03261*
X03264Y04733*
Y04746*
X03261Y0475*
X03255*
X03251Y04746*
X03232Y0473D02*
X03245D01*
Y0474*
X03238Y04736*
X03235*
X03232Y0474*
Y04746*
X03235Y0475*
X03242*
X03245Y04746*
X03225Y04733D02*
X03222Y0473D01*
X03215*
X03212Y04733*
Y04746*
X03215Y0475*
X03222*
X03225Y04746*
Y04733*
X04202Y049D02*
X04205Y04903D01*
Y0491*
X04202Y04913*
X04189*
X04186Y0491*
Y04903*
X04189Y049*
X04186Y04893D02*
Y04887D01*
Y0489*
X04205*
X04202Y04893*
X04186Y04877D02*
Y0487D01*
Y04874*
X04205*
X04202Y04877*
X03711Y0601D02*
X03714Y06013D01*
Y06019*
X03711Y06023*
X03698*
X03694Y06019*
Y06013*
X03698Y0601*
X03714Y0599D02*
Y06003D01*
X03704*
X03708Y05996*
Y05993*
X03704Y0599*
X03698*
X03694Y05993*
Y06*
X03698Y06003*
X03947Y03992D02*
X0395Y03995D01*
Y04002*
X03947Y04005*
X03934*
X03931Y04002*
Y03995*
X03934Y03992*
X03931Y03976D02*
X0395D01*
X03941Y03986*
Y03972*
X03931Y03966D02*
Y03959D01*
Y03963*
X0395*
X03947Y03966*
X03245Y048D02*
X03248Y04797D01*
X03255*
X03258Y048*
Y04814*
X03255Y04817*
X03248*
X03245Y04814*
X03229Y04817D02*
Y04797D01*
X03238Y04807*
X03225*
X03206Y04797D02*
X03212Y048D01*
X03219Y04807*
Y04814*
X03216Y04817*
X03209*
X03206Y04814*
Y0481*
X03209Y04807*
X03219*
X03271Y05471D02*
X03275Y05467D01*
X03281*
X03285Y05471*
Y05484*
X03281Y05487*
X03275*
X03271Y05484*
X03252Y05467D02*
X03265D01*
Y05477*
X03258Y05474*
X03255*
X03252Y05477*
Y05484*
X03255Y05487*
X03262*
X03265Y05484*
X03245Y05487D02*
X03239D01*
X03242*
Y05467*
X03245Y05471*
X03272Y05092D02*
X03276Y05089D01*
X03282*
X03286Y05092*
Y05105*
X03282Y05108*
X03276*
X03272Y05105*
X03256Y05108D02*
Y05089D01*
X03266Y05099*
X03253*
X03246Y05092D02*
X03243Y05089D01*
X03236*
X03233Y05092*
Y05095*
X03236Y05099*
X03233Y05102*
Y05105*
X03236Y05108*
X03243*
X03246Y05105*
Y05102*
X03243Y05099*
X03246Y05095*
Y05092*
X03243Y05099D02*
X03236D01*
X03466Y04613D02*
X03446D01*
Y04623*
X0345Y04626*
X03456*
X03459Y04623*
Y04613*
Y04619D02*
X03466Y04626D01*
Y04642D02*
X03446D01*
X03456Y04633*
Y04646*
X03446Y04665D02*
X0345Y04659D01*
X03456Y04652*
X03463*
X03466Y04656*
Y04662*
X03463Y04665*
X03459*
X03456Y04662*
Y04652*
X0347Y04961D02*
X0345D01*
Y04971*
X03454Y04974*
X0346*
X03463Y04971*
Y04961*
Y04968D02*
X0347Y04974D01*
Y04991D02*
X0345D01*
X0346Y04981*
Y04994*
X0347Y05011D02*
X0345D01*
X0346Y05001*
Y05014*
X05046Y03918D02*
Y03931D01*
X05036*
Y03924*
Y03931*
X05026*
X05046Y03911D02*
X05026D01*
Y03901*
X0503Y03898*
X05033*
X05036Y03901*
Y03911*
Y03901*
X05039Y03898*
X05043*
X05046Y03901*
Y03911*
X05026Y03879D02*
Y03892D01*
X05039Y03879*
X05043*
X05046Y03882*
Y03888*
X05043Y03892*
X04015Y0503D02*
Y05049D01*
X04025*
X04028Y05046*
Y0504*
X04025Y05036*
X04015*
X04021D02*
X04028Y0503D01*
X04035D02*
X04041D01*
X04038*
Y05049*
X04035Y05046*
X04061Y0503D02*
Y05049D01*
X04051Y0504*
X04064*
X03366Y06292D02*
X03346D01*
Y06302*
X0335Y06305*
X03356*
X03359Y06302*
Y06292*
Y06299D02*
X03366Y06305D01*
X03346Y06325D02*
Y06312D01*
X03356*
X03353Y06318*
Y06322*
X03356Y06325*
X03363*
X03366Y06322*
Y06315*
X03363Y06312*
X04567Y05046D02*
Y0503D01*
X0457Y05026*
X04577*
X0458Y0503*
Y05046*
X046D02*
X04587D01*
Y05036*
X04593Y05039*
X04596*
X046Y05036*
Y0503*
X04596Y05026*
X0459*
X04587Y0503*
X03365Y06016D02*
X03368Y0602D01*
Y06026*
X03365Y06029*
X03352*
X03348Y06026*
Y0602*
X03352Y06016*
X03365Y0601D02*
X03368Y06006D01*
Y06*
X03365Y05997*
X03361*
X03358Y06*
Y06003*
Y06*
X03355Y05997*
X03352*
X03348Y06*
Y06006*
X03352Y0601*
X04264Y04912D02*
X04284D01*
Y04903*
X04281Y04899*
X04274*
X04271Y04903*
Y04912*
Y04906D02*
X04264Y04899D01*
Y04893D02*
Y04886D01*
Y0489*
X04284*
X04281Y04893*
X04284Y04863D02*
Y04876D01*
X04274*
X04278Y0487*
Y04867*
X04274Y04863*
X04268*
X04264Y04867*
Y04873*
X04268Y04876*
X03266Y05532D02*
X03269Y05529D01*
X03276*
X03279Y05532*
Y05545*
X03276Y05549*
X03269*
X03266Y05545*
X0325Y05549D02*
Y05529D01*
X03259Y05539*
X03246*
X0324Y05529D02*
X03227D01*
Y05532*
X0324Y05545*
Y05549*
X04363Y04895D02*
X04366Y04899D01*
Y04905*
X04363Y04908*
X0435*
X04347Y04905*
Y04899*
X0435Y04895*
X04347Y04889D02*
Y04882D01*
Y04885*
X04366*
X04363Y04889*
X04347Y04859D02*
Y04872D01*
X0436Y04859*
X04363*
X04366Y04862*
Y04869*
X04363Y04872*
X03437Y06029D02*
Y06012D01*
X0344Y06009*
X03446*
X0345Y06012*
Y06029*
X03469Y06009D02*
X03456D01*
X03469Y06022*
Y06025*
X03466Y06029*
X03459*
X03456Y06025*
X04273Y06306D02*
X04253D01*
Y06316*
X04257Y06319*
X04263*
X04267Y06316*
Y06306*
Y06313D02*
X04273Y06319D01*
Y06339D02*
Y06326D01*
X0426Y06339*
X04257*
X04253Y06336*
Y06329*
X04257Y06326*
X04166Y05949D02*
X04146D01*
Y05959*
X0415Y05962*
X04156*
X04159Y05959*
Y05949*
Y05955D02*
X04166Y05962D01*
X0415Y05968D02*
X04146Y05972D01*
Y05978*
X0415Y05982*
X04153*
X04156Y05978*
Y05975*
Y05978*
X04159Y05982*
X04163*
X04166Y05978*
Y05972*
X04163Y05968*
X03635Y05948D02*
X03615D01*
Y05958*
X03619Y05961*
X03625*
X03628Y05958*
Y05948*
Y05954D02*
X03635Y05961D01*
Y05968D02*
Y05974D01*
Y05971*
X03615*
X03619Y05968*
Y05984D02*
X03615Y05987D01*
Y05994*
X03619Y05997*
X03632*
X03635Y05994*
Y05987*
X03632Y05984*
X03619*
X04026Y03835D02*
X04022Y03838D01*
X04016*
X04012Y03835*
Y03822*
X04016Y03819*
X04022*
X04026Y03822*
X04042Y03819D02*
Y03838D01*
X04032Y03829*
X04045*
X04052Y03835D02*
X04055Y03838D01*
X04062*
X04065Y03835*
Y03832*
X04062Y03829*
X04058*
X04062*
X04065Y03825*
Y03822*
X04062Y03819*
X04055*
X04052Y03822*
X03275Y05951D02*
X03255D01*
Y05961*
X03259Y05964*
X03265*
X03269Y05961*
Y05951*
Y05958D02*
X03275Y05964D01*
X03255Y05984D02*
X03259Y05977D01*
X03265Y05971*
X03272*
X03275Y05974*
Y05981*
X03272Y05984*
X03269*
X03265Y05981*
Y05971*
X04314Y06127D02*
Y06147D01*
X04324*
X04328Y06144*
Y06137*
X04324Y06134*
X04314*
X04321D02*
X04328Y06127D01*
X04334D02*
X04341D01*
X04337*
Y06147*
X04334Y06144*
X04008Y05118D02*
Y05138D01*
X04018*
X04021Y05134*
Y05128*
X04018Y05125*
X04008*
X04014D02*
X04021Y05118D01*
X04027D02*
X04034D01*
X04031*
Y05138*
X04027Y05134*
X04044D02*
X04047Y05138D01*
X04054*
X04057Y05134*
Y05131*
X04054Y05128*
X0405*
X04054*
X04057Y05125*
Y05121*
X04054Y05118*
X04047*
X04044Y05121*
X0378Y06119D02*
Y06138D01*
X0379*
X03793Y06135*
Y06129*
X0379Y06125*
X0378*
X03787D02*
X03793Y06119D01*
X038Y06135D02*
X03803Y06138D01*
X0381*
X03813Y06135*
Y06132*
X0381Y06129*
X03813Y06125*
Y06122*
X0381Y06119*
X03803*
X038Y06122*
Y06125*
X03803Y06129*
X038Y06132*
Y06135*
X03803Y06129D02*
X0381D01*
X03771Y06024D02*
Y06007D01*
X03774Y06004*
X03781*
X03784Y06007*
Y06024*
X03801Y06004D02*
Y06024D01*
X03791Y06014*
X03804*
X04073Y03995D02*
X0407D01*
X04063Y03988*
X0407Y03981*
X04073*
X04063Y03988D02*
X04053D01*
Y03975D02*
Y03968D01*
Y03972*
X04073*
X0407Y03975*
X03102Y06367D02*
X03122D01*
Y06357*
X03118Y06354*
X03112*
X03108Y06357*
Y06367*
Y06361D02*
X03102Y06354D01*
X03118Y06348D02*
X03122Y06344D01*
Y06338*
X03118Y06334*
X03115*
X03112Y06338*
Y06341*
Y06338*
X03108Y06334*
X03105*
X03102Y06338*
Y06344*
X03105Y06348*
X03118Y06328D02*
X03122Y06325D01*
Y06318*
X03118Y06315*
X03105*
X03102Y06318*
Y06325*
X03105Y06328*
X03118*
X03435Y06131D02*
Y06151D01*
X03445*
X03448Y06148*
Y06141*
X03445Y06138*
X03435*
X03441D02*
X03448Y06131D01*
X03464D02*
Y06151D01*
X03455Y06141*
X03468*
X0347Y06361D02*
X0349D01*
Y06351*
X03487Y06347*
X0348*
X03477Y06351*
Y06361*
Y06354D02*
X0347Y06347D01*
Y06328D02*
Y06341D01*
X03483Y06328*
X03487*
X0349Y06331*
Y06338*
X03487Y06341*
X03474Y06321D02*
X0347Y06318D01*
Y06311*
X03474Y06308*
X03487*
X0349Y06311*
Y06318*
X03487Y06321*
X03483*
X0348Y06318*
Y06308*
X04093Y06371D02*
X04112D01*
Y06361*
X04109Y06358*
X04103*
X04099Y06361*
Y06371*
Y06365D02*
X04093Y06358D01*
Y06338D02*
Y06351D01*
X04106Y06338*
X04109*
X04112Y06342*
Y06348*
X04109Y06351*
X04112Y06319D02*
Y06332D01*
X04103*
X04106Y06325*
Y06322*
X04103Y06319*
X04096*
X04093Y06322*
Y06329*
X04096Y06332*
X04344Y06389D02*
X04364D01*
Y06379*
X04361Y06375*
X04354*
X04351Y06379*
Y06389*
Y06382D02*
X04344Y06375D01*
Y06356D02*
Y06369D01*
X04357Y06356*
X04361*
X04364Y06359*
Y06366*
X04361Y06369*
X04344Y06339D02*
X04364D01*
X04354Y06349*
Y06336*
X03766Y06545D02*
X03779D01*
X03773Y06552D02*
Y06539D01*
X03786Y06555D02*
Y06552D01*
X03792Y06545*
X03799Y06552*
Y06555*
X03792Y06545D02*
Y06535D01*
X04649Y0654D02*
X04662D01*
X04655Y06547D02*
Y06533D01*
X04668Y0655D02*
X04682Y0653D01*
Y0655D02*
X04668Y0653D01*
X03007Y06038D02*
Y06058D01*
X03017*
X0302Y06054*
Y06048*
X03017Y06045*
X03007*
X03014D02*
X0302Y06038D01*
X03027Y06054D02*
X0303Y06058D01*
X03037*
X0304Y06054*
Y06051*
X03037Y06048*
X03033*
X03037*
X0304Y06045*
Y06041*
X03037Y06038*
X0303*
X03027Y06041*
X03046Y06038D02*
X03053D01*
X0305*
Y06058*
X03046Y06054*
X02998Y05921D02*
Y0594D01*
X03008*
X03011Y05937*
Y05931*
X03008Y05927*
X02998*
X03005D02*
X03011Y05921D01*
X03018Y05924D02*
X03021Y05921D01*
X03028*
X03031Y05924*
Y05937*
X03028Y0594*
X03021*
X03018Y05937*
Y05934*
X03021Y05931*
X03031*
X02983Y05755D02*
Y05774D01*
X02993*
X02996Y05771*
Y05764*
X02993Y05761*
X02983*
X0299D02*
X02996Y05755D01*
X03003Y05771D02*
X03006Y05774D01*
X03013*
X03016Y05771*
Y05768*
X03013Y05764*
X0301*
X03013*
X03016Y05761*
Y05758*
X03013Y05755*
X03006*
X03003Y05758*
X03036Y05755D02*
X03023D01*
X03036Y05768*
Y05771*
X03033Y05774*
X03026*
X03023Y05771*
X03083Y0564D02*
Y0566D01*
X03093*
X03096Y05656*
Y0565*
X03093Y05647*
X03083*
X03112Y0564D02*
Y0566D01*
X03103Y0565*
X03116*
X0293Y05596D02*
X02923D01*
X02926*
Y05579*
X02923Y05576*
X0292*
X02916Y05579*
X02936Y05573D02*
X02949D01*
X02956Y05596D02*
Y05582D01*
X02962Y05576*
X02969Y05582*
Y05596*
X02989D02*
X02975D01*
Y05586*
X02982Y05589*
X02985*
X02989Y05586*
Y05579*
X02985Y05576*
X02979*
X02975Y05579*
X02831Y05417D02*
Y05437D01*
X0284*
X02844Y05434*
Y05427*
X0284Y05424*
X02831*
X0285Y05434D02*
X02854Y05437D01*
X0286*
X02863Y05434*
Y0543*
X0286Y05427*
X02863Y05424*
Y05421*
X0286Y05417*
X02854*
X0285Y05421*
Y05424*
X02854Y05427*
X0285Y0543*
Y05434*
X02854Y05427D02*
X0286D01*
X04902Y0661D02*
Y06629D01*
X04912*
X04915Y06626*
Y0662*
X04912Y06616*
X04902*
X04909D02*
X04915Y0661D01*
X04935D02*
X04922D01*
X04935Y06623*
Y06626*
X04932Y06629*
X04925*
X04922Y06626*
X04955Y06629D02*
X04948Y06626D01*
X04942Y0662*
Y06613*
X04945Y0661*
X04951*
X04955Y06613*
Y06616*
X04951Y0662*
X04942*
X05049Y06634D02*
Y06614D01*
X05059*
X05062Y06617*
Y0663*
X05059Y06634*
X05049*
X05069Y06614D02*
X05075D01*
X05072*
Y06634*
X05069Y0663*
X04205Y05759D02*
Y05765D01*
Y05762*
X04188*
X04185Y05765*
Y05769*
X04188Y05772*
X04182Y05752D02*
Y05739D01*
X04205Y05733D02*
X04191D01*
X04185Y05726*
X04191Y05719*
X04205*
X04185Y05713D02*
Y05706D01*
Y0571*
X04205*
X04201Y05713*
X043Y06062D02*
Y06045D01*
X04304Y06042*
X0431*
X04313Y06045*
Y06062*
X0432Y06042D02*
X04327D01*
X04323*
Y06062*
X0432Y06058*
X03995Y05401D02*
Y05395D01*
Y05398*
X04012*
X04015Y05395*
Y05391*
X04012Y05388*
X04018Y05408D02*
Y05421D01*
X03995Y05427D02*
X04008D01*
X04015Y05434*
X04008Y05441*
X03995*
X04015Y0546D02*
Y05447D01*
X04002Y0546*
X03998*
X03995Y05457*
Y0545*
X03998Y05447*
X03476Y05751D02*
Y05771D01*
X03486*
X03489Y05768*
Y05761*
X03486Y05758*
X03476*
X03482D02*
X03489Y05751D01*
X03496D02*
X03502D01*
X03499*
Y05771*
X03496Y05768*
X03512Y05755D02*
X03515Y05751D01*
X03522*
X03525Y05755*
Y05768*
X03522Y05771*
X03515*
X03512Y05768*
Y05765*
X03515Y05761*
X03525*
X03484Y05675D02*
X03481Y05679D01*
X03474*
X03471Y05675*
Y05662*
X03474Y05659*
X03481*
X03484Y05662*
X03504Y05659D02*
X03491D01*
X03504Y05672*
Y05675*
X03501Y05679*
X03494*
X03491Y05675*
X0352Y05659D02*
Y05679D01*
X03511Y05669*
X03524*
X03111Y04967D02*
Y0495D01*
X03114Y04947*
X03121*
X03124Y0495*
Y04967*
X0313Y04947D02*
X03137D01*
X03134*
Y04967*
X0313Y04963*
X03157Y04947D02*
Y04967D01*
X03147Y04957*
X0316*
X03112Y05335D02*
Y05318D01*
X03116Y05315*
X03122*
X03125Y05318*
Y05335*
X03132Y05315D02*
X03139D01*
X03135*
Y05335*
X03132Y05331*
X03148D02*
X03152Y05335D01*
X03158*
X03161Y05331*
Y05328*
X03158Y05325*
X03155*
X03158*
X03161Y05322*
Y05318*
X03158Y05315*
X03152*
X03148Y05318*
X03112Y04603D02*
Y04587D01*
X03116Y04584*
X03122*
X03125Y04587*
Y04603*
X03132Y04584D02*
X03139D01*
X03135*
Y04603*
X03132Y046*
X03161Y04603D02*
X03148D01*
Y04593*
X03155Y04597*
X03158*
X03161Y04593*
Y04587*
X03158Y04584*
X03152*
X03148Y04587*
X03039Y04744D02*
Y04764D01*
X03049*
X03052Y04761*
Y04754*
X03049Y04751*
X03039*
X03046D02*
X03052Y04744D01*
X03069D02*
Y04764D01*
X03059Y04754*
X03072*
X03092Y04764D02*
X03079D01*
Y04754*
X03085Y04758*
X03088*
X03092Y04754*
Y04748*
X03088Y04744*
X03082*
X03079Y04748*
X03033Y05099D02*
Y05119D01*
X03042*
X03046Y05116*
Y05109*
X03042Y05106*
X03033*
X03039D02*
X03046Y05099D01*
X03062D02*
Y05119D01*
X03052Y05109*
X03065*
X03072Y05116D02*
X03075Y05119D01*
X03082*
X03085Y05116*
Y05112*
X03082Y05109*
X03078*
X03082*
X03085Y05106*
Y05102*
X03082Y05099*
X03075*
X03072Y05102*
X03017Y05469D02*
Y05488D01*
X03027*
X0303Y05485*
Y05479*
X03027Y05475*
X03017*
X03024D02*
X0303Y05469D01*
X03037Y05485D02*
X0304Y05488D01*
X03047*
X0305Y05485*
Y05482*
X03047Y05479*
X03043*
X03047*
X0305Y05475*
Y05472*
X03047Y05469*
X0304*
X03037Y05472*
X03066Y05469D02*
Y05488D01*
X03057Y05479*
X0307*
X04891Y06155D02*
Y06138D01*
X04894Y06135*
X049*
X04904Y06138*
Y06155*
X0491Y06151D02*
X04914Y06155D01*
X0492*
X04923Y06151*
Y06148*
X0492Y06145*
X04923Y06141*
Y06138*
X0492Y06135*
X04914*
X0491Y06138*
Y06141*
X04914Y06145*
X0491Y06148*
Y06151*
X04914Y06145D02*
X0492D01*
X04887Y057D02*
Y05683D01*
X04891Y0568*
X04897*
X04901Y05683*
Y057*
X04907D02*
X0492D01*
Y05697*
X04907Y05683*
Y0568*
X05243Y06041D02*
X05246Y06044D01*
Y06051*
X05243Y06054*
X0523*
X05227Y06051*
Y06044*
X0523Y06041*
X05227Y06034D02*
Y06028D01*
Y06031*
X05246*
X05243Y06034*
X05227Y06008D02*
X05246D01*
X05237Y06018*
Y06005*
X05153Y057D02*
X0515Y05703D01*
X05143*
X0514Y057*
Y05687*
X05143Y05684*
X0515*
X05153Y05687*
X0516Y05684D02*
X05166D01*
X05163*
Y05703*
X0516Y057*
X05176Y05703D02*
X05189D01*
Y057*
X05176Y05687*
Y05684*
X03765Y04405D02*
X03785D01*
Y04396*
X03782Y04392*
X03775*
X03772Y04396*
Y04405*
Y04399D02*
X03765Y04392D01*
Y04373D02*
Y04386D01*
X03778Y04373*
X03782*
X03785Y04376*
Y04382*
X03782Y04386*
Y04366D02*
X03785Y04363D01*
Y04356*
X03782Y04353*
X03769*
X03765Y04356*
Y04363*
X03769Y04366*
X03782*
X03858Y04411D02*
X03878D01*
Y04401*
X03875Y04398*
X03868*
X03865Y04401*
Y04411*
Y04404D02*
X03858Y04398D01*
Y04378D02*
Y04391D01*
X03871Y04378*
X03875*
X03878Y04381*
Y04388*
X03875Y04391*
X03858Y04372D02*
Y04365D01*
Y04368*
X03878*
X03875Y04372*
X04395Y04054D02*
Y04021D01*
X04402Y04015*
X04415*
X04421Y04021*
Y04054*
X04435Y04021D02*
X04441Y04015D01*
X04454*
X04461Y04021*
Y04048*
X04454Y04054*
X04441*
X04435Y04048*
Y04041*
X04441Y04035*
X04461*
X05924Y05642D02*
X05885D01*
Y05662*
X05892Y05669*
X05905*
X05911Y05662*
Y05642*
X05892Y05708D02*
X05885Y05701D01*
Y05688*
X05892Y05682*
X05918*
X05924Y05688*
Y05701*
X05918Y05708*
X05924Y05721D02*
Y05734D01*
Y05728*
X05885*
X05892Y05721*
Y05754D02*
X05885Y0576D01*
Y05774*
X05892Y0578*
X05918*
X05924Y05774*
Y0576*
X05918Y05754*
X05892*
X05924Y05813D02*
X05885D01*
X05905Y05793*
Y0582*
X03212Y03358D02*
X03216Y03362D01*
Y03368*
X03212Y03372*
X03199*
X03196Y03368*
Y03362*
X03199Y03358*
X03196Y03339D02*
Y03352D01*
X03209Y03339*
X03212*
X03216Y03342*
Y03349*
X03212Y03352*
X03216Y03332D02*
Y03319D01*
X03212*
X03199Y03332*
X03196*
X0306Y03358D02*
Y03365D01*
Y03362*
X03043*
X0304Y03365*
Y03368*
X03043Y03372*
X03037Y03352D02*
Y03339D01*
X0306Y03332D02*
X03047D01*
X0304Y03326*
X03047Y03319*
X0306*
X03056Y03313D02*
X0306Y03309D01*
Y03303*
X03056Y03299*
X03053*
X0305Y03303*
Y03306*
Y03303*
X03047Y03299*
X03043*
X0304Y03303*
Y03309*
X03043Y03313*
X03145Y0334D02*
X03148Y03344D01*
Y0335*
X03145Y03353*
X03132*
X03128Y0335*
Y03344*
X03132Y0334*
X03145Y03334D02*
X03148Y0333D01*
Y03324*
X03145Y03321*
X03141*
X03138Y03324*
Y03327*
Y03324*
X03135Y03321*
X03132*
X03128Y03324*
Y0333*
X03132Y03334*
X03145Y03314D02*
X03148Y03311D01*
Y03304*
X03145Y03301*
X03132*
X03128Y03304*
Y03311*
X03132Y03314*
X03145*
X04731Y04945D02*
X04728Y04942D01*
Y04936*
X04731Y04932*
X04744*
X04748Y04936*
Y04942*
X04744Y04945*
X04731Y04952D02*
X04728Y04955D01*
Y04962*
X04731Y04965*
X04734*
X04738Y04962*
X04741Y04965*
X04744*
X04748Y04962*
Y04955*
X04744Y04952*
X04741*
X04738Y04955*
X04734Y04952*
X04731*
X04738Y04955D02*
Y04962D01*
X04302Y05218D02*
X04282D01*
Y05227*
X04285Y05231*
X04292*
X04295Y05227*
Y05218*
Y05224D02*
X04302Y05231D01*
Y05237D02*
Y05244D01*
Y05241*
X04282*
X04285Y05237*
X04302Y05267D02*
Y05254D01*
X04289Y05267*
X04285*
X04282Y05264*
Y05257*
X04285Y05254*
X0421Y05222D02*
X0419D01*
Y05232*
X04194Y05235*
X042*
X04204Y05232*
Y05222*
Y05229D02*
X0421Y05235D01*
Y05242D02*
Y05248D01*
Y05245*
X0419*
X04194Y05242*
X0421Y05258D02*
Y05265D01*
Y05261*
X0419*
X04194Y05258*
X0421Y05054D02*
Y05038D01*
X04213Y05035*
X0422*
X04223Y05038*
Y05054*
X04243D02*
X04236Y05051D01*
X0423Y05044*
Y05038*
X04233Y05035*
X04239*
X04243Y05038*
Y05041*
X04239Y05044*
X0423*
X04446Y05933D02*
X04443Y0593D01*
Y05923*
X04446Y0592*
X04459*
X04462Y05923*
Y0593*
X04459Y05933*
X04446Y0594D02*
X04443Y05943D01*
Y0595*
X04446Y05953*
X04449*
X04452Y0595*
Y05946*
Y0595*
X04456Y05953*
X04459*
X04462Y0595*
Y05943*
X04459Y0594*
X04462Y05973D02*
Y0596D01*
X04449Y05973*
X04446*
X04443Y05969*
Y05963*
X04446Y0596*
X03892Y05935D02*
X03888Y05932D01*
Y05925*
X03892Y05922*
X03905*
X03908Y05925*
Y05932*
X03905Y05935*
X03888Y05955D02*
Y05941D01*
X03898*
X03895Y05948*
Y05951*
X03898Y05955*
X03905*
X03908Y05951*
Y05945*
X03905Y05941*
X03888Y05974D02*
X03892Y05968D01*
X03898Y05961*
X03905*
X03908Y05964*
Y05971*
X03905Y05974*
X03901*
X03898Y05971*
Y05961*
X03538Y05936D02*
X03535Y05932D01*
Y05926*
X03538Y05923*
X03552*
X03555Y05926*
Y05932*
X03552Y05936*
X03538Y05942D02*
X03535Y05945D01*
Y05952*
X03538Y05955*
X03542*
X03545Y05952*
Y05949*
Y05952*
X03548Y05955*
X03552*
X03555Y05952*
Y05945*
X03552Y05942*
X03535Y05975D02*
Y05962D01*
X03545*
X03542Y05968*
Y05972*
X03545Y05975*
X03552*
X03555Y05972*
Y05965*
X03552Y05962*
G54D143*
X04843Y03385D02*
X05059D01*
X04843Y0368D02*
X05059D01*
X04843Y03385D02*
Y0368D01*
X05059Y03385D02*
Y0368D01*
X03472Y03362D02*
Y03504D01*
X03306Y03362D02*
Y03504D01*
Y03362D02*
X03472D01*
X03306Y03504D02*
X03472D01*
G54D149*
X05681Y0484D02*
Y04892D01*
X05176Y04888D02*
X05227D01*
X0516Y06595D02*
Y06646D01*
M02*